<mxfile host="Electron" agent="Mozilla/5.0 (Macintosh; Intel Mac OS X 10_15_7) AppleWebKit/537.36 (KHTML, like Gecko) draw.io/27.0.9 Chrome/134.0.6998.205 Electron/35.4.0 Safari/537.36" version="27.0.9">
  <diagram name="Page-1" id="BScn4o-WtCJwQKHRKiQL">
    <mxGraphModel dx="1562" dy="1089" grid="1" gridSize="10" guides="1" tooltips="1" connect="1" arrows="1" fold="1" page="1" pageScale="1" pageWidth="850" pageHeight="1100" math="0" shadow="0">
      <root>
        <mxCell id="0" />
        <mxCell id="1" parent="0" />
        <mxCell id="8og88eOG9nKj54UH1o5L-1" value="" style="shape=image;verticalLabelPosition=bottom;labelBackgroundColor=default;verticalAlign=top;aspect=fixed;imageAspect=0;image=data:image/png,iVBORw0KGgoAAAANSUhEUgAABLAAAALtCAYAAAA44Z3cAAAAAXNSR0IArs4c6QAAIABJREFUeF7svQd0XNd1771nBh0kAAIk2HvvRexNItUlW5KtLkuWbNkpTnFWsvLW963vi1+Sl9iJ4xQ/27Kd2I7iKhdJsZpVSaqRIiX23nsHSKKQqDPz3m/f2cDFcIAZADMs4rk2NMM7956z93/vc84+/7vPuYGoHtJyBAKt3903hwDO0dQUllAoqH/ucAj4EaDvCIfDgp9kZ2c5cBwCDgGHgEPAIeAQcAg4BBwCDgGHgEPAIZARBAKRSDT63MurJRQQyckOy/DB5TJ4UD/Jyc2WQKBrhEXAsWAZMZYr1CHgEHAIOAQcAg4Bh4BDwCHgEHAIOAQcAg4Bh8C1gkAkEpH6+nqBZwpEIpHo5//kO5KbFZXJ4wfKHbfOlz69iyTYNe7KK9QRWNeKLzk9HQIOAYeAQ8Ah4BBwCDgEHAIOAYeAQ8Ah4BBwCKQdAeOWmpubddWPElhf/KNvydDBRfKJO2bLmFFDu01AORIr7XZzBToEHAIOAYeAQ8Ah4BBwCDgEHAIOAYeAQ8Ah4BC4JhHIysryCKwvffnbcsuSyXLDkmmSnRWMEVhkUnUxDUskLZlYtjkXhJiybS6z65p0VKe0Q8Ah4BBwCCRHgHEyGAzqeNnVo717r7bxt6OYwWIKP0Z2vT/u6CqGqdx3KWOaS6VTKnrHX3MlynYpbdMVzNw9DgGHgEPAIeAQuFYRaCGw/t+/+pHce9dcmThxqIQlIkHxdnIPBEL6yWBOyhZrDzkIkPXmJIQSv3MPmzzzyb+5NxQK6WdHB3XavRZM2H3J6r1WDer0dgg4BBwCDoFrBwH/5L+xsVHq6uokPz9fcnNzu0RiMeZSRkNDg47TlMlYXVJSov/mYDxnDwLqzsvL01jgchzUjywWkxhxhw5NTU0ab2RnZ18Ua3AfeqEDWOXk5LTEOZzjt4KCAr23qwd1nD9/XnEsLCxUnOIPfuMPWyFDJuIa84/a2lq1F3qZ7ZArWRwWLzPYIjPxINilanvu4y8ROVpTU6Ny9OjRI+XyEtnFXiaCnxpByTlbEUD91OP3E8rhevMlfxmmWybs0lW/cvc5BBwCDgGHgEPgWkeghcD626/+RB59aJGUl5dKkDfNRT3SCgKLQf/ChQtCkEFQyEFgR/CTLMjjeoI47ifgIXAgWONegh8LiOMNQd0EWdRJsERQwbUEgQQ5lGFBx7VuRKe/Q8Ah4BBwCFxbCDCphmiprKxsIZgOHjwo77//vlx33XUyceLETpMTjLtnz57VMvbt2ydDhw7V8hmvP/nJT+on15w5c0bWrVun4/rcuXOlvLw8I+RLMotWVVXJ7t27NcYYPny4DBgwQDHh3KFDh1T/0aNHy7Bhw1pIKsokptiwYYPs3btXbrjhBr3PYo5NmzbJrl275Prrr5fBgwe3q1d7WUP2sA05Vq9erbLMnj1bxo8fr/IYGUJctWXLFq1r3LhxMmbMmDYyJtM92e/+bDJiqddff13jt4ULF8oHH3ygctx0001qU/+RLBsKcnPr1q1y4MABmTp1qowYMUJJp2QZfxUVFXpPdXW1xnPUTxwHMbp27VopKiqSxYsXS1lZWQtGibKg2suMokx89uTJkzJhwgQpLS1VX0ZW/JNY9ciRI2rTfv36qc/s379fz+Pn6MX9J06cUF3wCXQzks+RWMk8zv3uEHAIOAQcAg6BS4NAC4H1T//yK/ncZ2+S/PxskQD5V1FhBQJ/BBwQSRBG9kQSMoqAgcG/V69eCQNlgiXuIzDgPiOcuJejZ8+eLcFBfABFwEVwSh0ISeBnT1X5d3FxsZJZLqi4NI7ianEIOAQcAg6By4cA4yZjKeOqPcyBFHjllVeU+ICMYEL+y1/+Uu666y5ZsmSJTtKNLLCHTZTDeSbpEAg8SLIsHEiXjRs3ytNPP60Pim6//faWDCFIGK6DtDp+/Li89dZbWs7999+vhABjMXJYbMB3y+ayuuzBk43blslFvZxjTCdWQEdiAH6nHGSnbs5bBjff3333Xfn5z3+upMXnPvc5ufXWW5UQ4hz3En9AXvze7/2eklgcyML1P/zhD7U+7qN8sOX6t99+W8mtJ554QsaOHav6Uxdxh2HFOeTjoAz0oj6w4ZN/c/2ePXvk2LFjSqL1799fyTXKQkf+3nnnHXnvvfeULANfMAA/PqkL/CzTyQg27rPsOrKqqAcZLJuL79TBvy2rie/f+ta3VObPfvaz8otf/EJ9CFzAl+u4zzL4rH7K5h4+uc6y1nbs2KGEGKTh3XffrSRUosNILTDZtm2b3gNBCEkEYQVxtHTpUrUJ/540aVKLLmYrw51r7EEo+hvmyIf86Ej5tIcnn3xSyTBs+YMf/EA+9alPafk/+tGPZN68efLII49oXPvTn/5UBg0apO3lo48+kpdeeqnF1vgE/g/h52LNy9fvuZodAg4Bh4BDwCEQj0ALgfWNf/uVfOGJWyQrKygSCOkCQkuz5ykWAU18OrUtC4RMYrD3HwReBLf8ESj5M60ol6CMcwQV8an1BF+QVwRLRl5Z2ZRr6f3cm2r6ujO9Q8Ah4BBwCDgErkYEGGvJXoHsOHz4sJIJZD6dPn1ann/+eR2f77nnHn2ww7+ZkJOBxYQesokxF3KHLCAyp8jA4Rg4cKASX3379lWyhPKeffZZee2115TwufHGG3UshkyZNWuWbN++XQkuxmiysMhygYA4deqUjsVTpkxR0ubo0aMyefJkzd6CDGLMhsSBPIDIseVd6ESWEpljxAFz5szRTCTqWb9+vWbQIMeiRYuUUKNsZCWLBmLoJz/5iZw7d07ru/fee+Xmm29W/SCxKIvsmxdffFH+4i/+QgkiWya2efNm+eY3vykPPvigLFiwQDOhVq5cqXEJ5RG3PP744xrXkI2GftRLmTyw+/DDD1VGcIF0AWvsgi7cCzEzY8YMgWBEN34HM+4DN7J7kAfCkXuQASIF2ckSolx+h2RBT7LEIGjWrFmj9YEtZM5vfvMb6dOnj8yfP1/QCb1nzpwpEExgi03Ajoyk7373u20ILOyPn2BPI4/AYefOnXof5B1y8m90pl7qgDQbMmSIEj74xgMPPKA2M8LJlgn6X+TDdwhC7InvrVixQmWCZMKuYA/W1EEWFCQX8SFlIQP6QTqSqYV98CH0gnB89dVXW0hErv3tb3+rfgiJ9R//8R9KnP3BH/yB+jYkHgTgww8/rNlV//3f/61tAKz5Dsb4BMeqVatUtttuu01t7x6WXo09p5PZIeAQcAg4BD6OCPgIrF/Kk497BFY0EJJQbNN0AgQLYP0DuH23p4m9e/dugw+BoJFQPCmLP2w/LQInggT/QaBDkMKRaA8KW8ZIqnlX9/n4OBrT6eQQcAg4BBwCHy8EbKkgE2rIICbZkAojR45UEoCMEwZyiAQm/BBQn/jEJ5QQgByBGOJeJuyQMmQeQSwxyYckIPsHYosDggHy6ne/+50ua4MMsTJYLvbGG2/oRJ6xF7IEIgNyAeKDsRoyDIICcgcCB4IG4oAsKMguroUYQV6IHkgDiCpIKjJpKJf7KBviBgKIbJ077rhD5YdMGjVqlMr+5ptvavkQY2RiQaRxHXKAEfeRjUYMA4FhGViQacuXL1fy68tf/rISQGScgQmYUjc4krUDzugGyYEs6Asu1Mc1ECnEPsgAoYPe1APhA6mDDJTHkk4ILgg1stXAAlILbNAfMhJbsNwQHFjayP3gBukF+QiZRR2PPvqoEj0QWD/+8Y+V2GF5JzajDMgYiCYwRn6WwH3xi19Usouy8YGf/exnKhvEDAeZRpQP+YOOYAgBNm3aNPUJYjJkxBcgSW+55RaVi3o+/elPK7nJgUzoBOaQrGBLdpbtOUXcB1mFz06fPl3JIcr+r//6LyXtwB/bENfhC5SPPNgWMhbbgR16Qa4iCxlWYAm5yCe2pH6yy5566inF+4//+I+V/Pr+97+vZWMf6ofog2zE/8m+wvcgQsGOGBTimGsT7V/28eplnDYOAYeAQ8Ah4BC4ehDwEVjPyJOP3+plSrHRemzzdYIanrhZhpU9ObVPy6SyPTAsZRySiQCAz0SDP4EB97KMEBIrEYHlz/ry/27kFwEOZSfbe+HqMYeT1CHgEHAIOAQcAm0RsD2bIFMYj8maYcyFZIEMgKSAmID4YPkcBBbjI4QH4yOkANf/4R/+oS5bgxhg4s7kHlIJUsiWq5H98utf/1rJK0irX/3qVyoM10C2QHixdAzyifGdrCojsFi2CIEFacPSK8gVZGKMh4iAXIHggdDgN0gVSAmWoTGWoxufZM2QOUZmFVlXEDhkV0F68cCL3yA9IJbIxoJ0o2zIBwgOsp4gY6ibjBrIF3vYBWHC9fz+J3/yJ0pWkKkDCUOmExk96AlBAkkD0QOZRBYWZAy4IB+ZVBA0kC78gSkEI7oiF2QKJBCkFhhBqkCiQOyQKQS26ME5yBdsCCFHzEVZlEGGEqQdOkMOQSw99thjSpxhL4hJSDrIGIghMEJW7E6MZdly2B3yEd3xE4gvygXrO++8Uwkw/ILrH3roISUpwQSClLqwKZ/ogC4QcmRRcR4fxIfwM+wFuYf9IZfwAUgw5LbsN+R8+eWX2xBYkE5cg+0Me0glfI/7IOzQExn4w77oCQHHeQgq6iJ+fe6551rKpyx04w+58Guuwy8gr/BDZEdPCCyIUQg5ZMEOYGwPSmkDLtZ0PbNDwCHgEHAIOAQuPwKtBNY3fyGf/+xtkhXMEgmKElgM1gSUBC0Ef/5XcxPg2BsCCcgsA8sGeEgm2/+Ke/3ZWxbI2L4H8ZuIEqxDflF+/JsOucf2ACHYoW4XVFx+R3ISOAQcAg4Bh0D6EWB8I/uHfYsgRMhEIpMHMgXChswbSCCIDUghJvQQPmTzcB0kCEQHk/s/+7M/00wjSCGWalEek3uugZDhgRLkAFlcEDWQD88884zeS+YUhAWfkFEQGIztLH+D9GLCzz2QWchLuRAk1ANZQCYPBAtl2l5Q7KPFtRBHxBeQLozvloXD/ZAh/E52FyQOD9M4B3HHtfxRBwTb5z//ecUFmSEvyMiC2ILkskxvspCWLVumRN+f/umfqs6QNVzDtRAdEEkQOxBVyA25ZW9ihEAhOwzs0Is4hUwiMnW4z7LHIJXADTxtc3LkxC58QmAR+/BvMKVMspcgrsgwghy77777lIyC9KEeMqVYOkdchj4QUuzrZBuPk3UEYQYZhS4QNZT5pS99STOY0J29vSCwINuQmXogECGfWKIICYnc4AvZA65kbFEOckJwEXtBiIExBBYEHAdykWmGL2E7dIE4tS0kiAshziCwyHYCN2wKGYkvQaqyTNY23odMpC7KhzDF7yAG8R/Kxjbogh3Rl3rA/+tf/7r6OXHpX/7lX2qbwa74NcsHiRvJ3EJn/BQSC0ITWVhWSTnohq/RlmwJoYs109+/uRIdAg4Bh4BDwCHQWQRaCKyv/+vP5QuP3y5ZoSyJBiISDASVGLI9IWwzVdvsNX4fKwZ6ztkAbxtuEtBwEBDYvfakl4CF4NFeYW3CUxfBMMGZ3ed/JTK/E7xxr3sTYWdN7q53CDgEHAIOgasJAR7osJcTRBEZPpAdTObZQB1SCYIK4gGygEk/hA9EAhlEkAJM1BkzP/OZzygZwhv6WLIFocFyMIgUSCMIKK6DFIOAgSx44YUXNCOF3yCtIGmMPCETi3ohciAeKIdxm+wbSAGyliBwIJmoj+wtYgOINbJeuBb5ISSIC1ieR4YW+qAzJAhEBPdBpFA/5AbkD9lYPOyifAgpzkGQkUUE2Ued6I5MkCxk8RCDENNACn3nO9/R5Xhk3aAv+0+Z/NQLOUjd6GWbz1M3RBe4QrwhM/aAYCGbChzQj7gE/NDLluIR00AuIRfXQOBwQFZRLuQjxCIyQBaZffkOgUSwhrxgi03AimwoiCZsjv5s0A52ZJhB8CA/dXEeAgd7k5EGWQP2yMh5MsLYVwt8IZ+wN5lHZPJRH9eTKQahBZbEdWQsIRskG9lSFqPZHljoxjn/mxeJ3cCO5Z/UZ3t7QTgSQyKP7WGG3GAKNpBMEKOQfbaZPEQeZUNKQdyhPwcPTiH12MAdedkLCxuBC1iRYQV2kKeQevgpJBWEFXLZqgLKxrepxx6yOgLrauo1nawOAYeAQ8Ah8HFFoA2B9eTjtymBJRJtkzHFUymCAiOiLFBhMGdgJziwDTv9AzzBCoEO91sgQxkEOAR4EFAEtYk2xyQwJeCztw5xH2VzL8EkdRJk+bPCPq5Gcno5BBwCDgGHwLWLAGMpJBSZOxz2djkyYiB6mNiTqUJGDcQV5AcH2SiMm4yVTPxt3yWuh1yBuKAMxmjKJruIMRmCi8wcyoSAYby2faD4NwfXMf5TF2QS5AuTf+rhN4gezkN4MY5TF4QSdUHWUD73UxdEBaQRJBUZVJBSkHS2fyZyMeZTNzJBcqET8QD6o6ctL+Ma/sDMyCTIEuq3OILyv/e972lmDnuHQeZQBpgQl4AvsvDJeVs+yDlk5n5wJoBCf8pGDjKe0JmMHdOVLCGWaiIPGBPXkBlE3RBKkEBgAUbIbTKDA9fwbzLBqItlc/wbmSCYqBvsKJc6WMpI+ZA96IQuxFfch/9QB2QT14MdOII/NkFe9i1FN/Tm3/xRHxvLYw9sSj2QbpBBEKa8PMC/B6r/IabFdvZJnWBJedgRnwIX/BH9IEYhkriGeyD8wBwCC1/Ax+zlAeiEvTiHTuBhKwOwA38QrGCI/+Jz6EZ5XGt+Q5vhGmJOcMGu6IA/UQcyWcx77fZATnOHgEPAIeAQcAhcOQi0Elj/9jP5wmdvl1CMwDIRbeBmcCcwI0DlIHgkkLPXW7enkr1G215/TGBEIMJ98UsL48sg2KJOe502wnIP9cYvLbxyIHWSOAQcAg4Bh4BDIH0IMKH2PziybGb/xDp+ku3PiLbrTSLGZQ7/m+KMeIh/WUuirBOTx8rzX2P3+4kMI93ir/fr1JEsVp/JHa+PP17hmkRl+a1BXEGGDoQRBAykjB3+rG6/fIZXIh041x7efjwsO8mfleSXK5ENrGyrPx5rw8Zvf7vGjxNEkR8Xf7l+3dqTweQkHiPLDZKMrCf+Er1sJ5n3x/sQ10NOkRkFQQY5BRnKBu5kZtleqtznXwmQ6OGp6ea/zu8j8T7t19lvo3ibJ9PJ/e4QcAg4BBwCDgGHQOYRaCGw/vFff6pLCEPBLPZwb3PEP0WzwINAL1H2VCKx44Ou9gLQ+HstKPQHGPFBWOZhcjU4BBwCDgGHgEPAIfBxQIB4guxwsnDIBCJjLNWY5OOgf3d0sC0eILLS/YY+yCMyyFieCYHF8kXbRD3VWLM7url7HQIOAYeAQ8Ah4BC48hFoIbD+4V9+Ik9+1tsDyyOIWoX3P+2NJ49SDSrSQTolemJ35UPsJHQIOAQcAg4Bh4BD4EpCwP9QzMUWV5JlvMxAf9bhlSWdk8Yh4BBwCDgEHAIOgcuJQAuB9bV//rF88fE7JBTKlkCg7R5Y/gws/1PK+MysZIqkg8RKVof73SHgEHAIOAQcAg4Bh4BDwCHgEHAIOAQcAg4Bh4BD4OOFQAuB9dVv/Fi+oJu457QhsPwZVvGZWEDRGRLLEVgfL+dx2jgEHAIOAYeAQ8Ah4BBwCDgEHAIOAYeAQyBVBBLtr+nnFVItp73rLkf5qa5K60i39uROJzaXAzN/pnuyrPeOMDDZ2XszEIlEov/rH/9TnnjkJt3E3ZYPGuEUv6mrn4jqCoGVDgN317Hd/Q4Bh4BDwCHgEHAIOAQcAg4Bh4BDwCHgELgWEUiFLPDjkq45vL2UJR7zdCS7+F+qEl9+Ova7bK/8TMuejvI7Iq8S+UK66vSXnYzAQsZkfsmLXZTA+uuv/oc89OlFkhXKFglEVT+Ejjd0IlKLaxO9FSmeLUx0b7I33lyLnYnT2SHgEHAIOAQcAg4Bh4BDwCHgEHAIOAQcAplAIBlJ0F6d3SWxOiKYOpMY01kyxs9XdBXPZLJnGpvulp9I70upk3+Py45skMw3e/bsGcvA+ocfyWMPLZXs7Bx4r5Yy/Y7kJ6DiAUzEaKaLteuqk7n7HAIOAYeAQ8Ah4BBwCDgEHAIOAYeAQ8AhcC0j4Hs/W2ymHxUJ8P9gO7AE+Fl5gVZmwPt36+Ev9VpG9+rXPVPLLuNfypIOEq4lA4slhI8+sERYU2iOGU9YJVpKaOaCwEokkCOxrn6Hdho4BBwCDgGHgEPAIeAQcAg4BBwCDgGHwNWJQCvVZIRUhDVUEgi0JbC4LhDV/3qcQIDr7Z548soRWFenN1ws9VVJYP3tP/xQHn1wqWRnkYEVUTIqXQRWPETpYN4+Ls7i9HAIOAQcAg4Bh4BDwCHgEHAIOAQcAg4Bh0AmEGihmZR/ikog2izRhgaRxmYJRoOaUxWI/ZcrQlGRYDQgkVBAojnZEs3NlkgwIJGLsq8cgZUJe6VaZiJOJZU9puLL7+zm8cmW+CXifvz3sAdaXV2d8DbBnBxeINjWj9rjiqyM/Px8bwnh33zth/LYg0skK+vitxC2JbIQKcbKatoh5C3Jh14GVlz9rfIHAt6GXNGodx0ZW6laJ3YdjUuNoiIEtCzva2dLaq24K0bupNgpXY4ckRg+MaU8nGL5cIp4N/RMSYhuXIQjtrv5WxdsnUiUruyXZut607FpXzfgcbc6BBwCDgGHgEPAIeAQcAg4BBwCDoFLjoCfwApEohKsPidNe/dI5FSFhJqaJcy+17E5dlRn9cy3AxLJzZZgebnI8GESKC7S62yvbE8Jy9Tquko2V9N5bmyuG42QHSbKF3D4r2mzIqydatubM/r3e/KX4z+vc8aYHPEMg83XW+blNjePRj2Owu7zzdnbLr9sK3DXGYyLFaf+06dPS1V1tVqFVXX9+vWT3NzcLhvHwwU74A0BaW5ulurqaolEwtKzqEhyWLnn0zWZPuEwfEFEampqZePGjdK3X18ZOnSolhMMwQ15PtBeORcRWH/91R/KYw8tkWzdxN2Txb/8LxgISCgSkVBzs0TDKBOWaHauBHKzJRqiopBwDQmG8csGjXiqrqmRitOnJb+gQMrLyyUnK+siQDti3CB4TldUqIOUlBRLY0Ojbh6fn5cnoVAoxvskVtkUBnjq4PrGxkY5f/68lJSUaDmdJUjiCZvOEkzm0GB29uxZOXb0mNTX13s6FRSo0/H9fG2tsFlZjx49PIxjxJ027ASkVrLfO/Li9kiojgilpqYmOXnypDYa8A1HIxIMBCU/P091KCvrrY6vWagJZO4Id/stHA5LbW2tNkJd95oCmQepdvzECcWwb58+EgqGRDNi3eEQcAg4BBwCDgGHgEPAIeAQcAg4BK4lBCBZGpsktHu3XHjjDYmePCkSDosuJox4pBUElu57BReQky3BwUMktGihZI0bJ2Eld3RmH0Ot6xMrm8sxF2cO2atXLyns0UPLPXLkiIQjYRk4cKDk5OTKhQsX5NjRo8of6Abe7RBMnGcueur0Kd3Xu3dZmUeKSFSYF0LuMGflOiVOcnKkoaFBTldWStW5c0r69CnvI8VFxTp/9GvH/ZA3J0+dkrz8fOnXt69k5+TovPzc2bNSUXFaevboKX369IltyeRB1B6B1R5yybKP/O7qvxa9X33tNVnz4YfkFklZaZnce++90r9//w45kvbcn7n32XNVyreU9S5T7qS6ukY2btooZ8+ekWlTp8rgwYMlaBxMjM6ML8+TMSDGF1RVVQllv/jiizJh4gS1Q1Z2tgwaNFCKi4tJiUoor5+jaMnA+uuv/kAzsEKhbAkEWkkoI6Oym5sl59Bhad6yTYIX6iTSUCfRfv0lNGaURIYMFMkvYOHhRQSFsanN4bDs3r1bVq9eLX379pW5c+dKr5KShIRGvGFayKdIWD788EOBvRs7dqycO3dOU8/69+2rxIaf9YwnYvg3YB06dEidigbB/fx7/Pjxen9HbK2RRVaHXdstssgrVMLhZtmxY4ds3LhJsrJCglEaG5vUoAUF+XL8+HEZOXKkDB40WLJiTtKes6UiDzokIqq0kfnIMasjGVlECuD+/ftl3759UnnmjDbu0rIy6devr4waNUoGDhzU2gkkYKcTyRyPL3VgK8hGOgYaUbwt4jHB3iveflsJr1kzrtNOSlu0OxwCDgGHgEPAIeAQcAg4BBwCDgGHwDWFQFSCJEt8sEbOP/e8SG2thL0JoJdpE4W8Ckg0AKUV9eZvfftL6NZbJGfhfAkz/1JKpqO8ouSA+ueWkFcrV66UMWPGyPCRI5Voeumll6S5uUluvPEmKS/vo4TWe++9JwsWLJABAwa2zCsTzerq6uvlg9UfSFHPIpk+bZqEAl6SSmNTo+zbv182b96spNXtt9+u80pIrT179ygvwPy7tLSXTJgwQfJy85SnsCVukGhbt23TzKGBgwYpl1FUVKTJMJs2bpTt27fL6FGj5LrrrlOSzebV9bGEGealzEmZ5zOPJSklnbPSpuZm+eGPfigvv/KKTncHDRgkf/7nf64cQmcObIOsp06dlo/WrpNIJCqLFi/SJBvw27t3jxw6dFCmT5sqCxcu0gSbFp6kHRKruTkiBw8elFWrVmkCETK9/vprMmHSBMnKypZjx47JlCmTZdasWdKjsFAZpY74h1YC6+9/II8+eIOEQlmafeUtufLWCJJGmFdVLdkvvijnfv4ryTlfK9JYL9Kvn2TNnSvRT39KsieOl6YgTp1gDWMgIBfq6tTg69evk7KyMhVw+LDhCgaER2Njg7YFQMAZICxwCNg6DtLUCgoL5IMPPlACC8ciayk7O0sG9OsvGK06xujhjAUFBQLDR9YOulAn35cvX66OSP18HjhwQKZOnarXVFRUqEMjAywwxqusrNT6OV9YWCilpaX6b5yc8iDDqI97OiKGzLB+B7LmD2O6desWOXLkqIwZO0Z6/1/GlMZVe/68YnHmTKWSbLCctTW1UltTo46PLOgJRmC3sr2BAAAgAElEQVQBlhgU2Wmo/nO9e/dW+ZD5zJkz2jlwP0xnMoIqoew+oks7hcZGZcf37tsnh48clvHjJyiTCsHY0NCoNiYdFH3AqqG+Xm1sGXGUwXfk4h4IRTBHNzoBzkGSITN24zrq5EBfykQ3Y3UtY+2NN99UjBbMneelUGpqYWeacfJrU8EveSnuCoeAQ8Ah4BBwCDgEHAIOAYeAQ8AhkF4E/MkCoboLIstXyLmf/kwioZBEe5VIuK5OgiW9JJhXoAlWUXKyGuolcKpSJCdP8u+5S3JvvUnCWVkxAitN8kXh0GrljTff0ASFKdOmSl1dvbz44gsecbJooYwePUa2bNksW7ZskZtvvkXnumQA8XtpSYlHFjHHranRuS/zy42bN8mgQYNl3pw5SmBxaGZWxWlNuNi7d6/cdtttUta7t86fa2prlAs4cOCgHD16VLmBUDAo4f9LCjH/Zt4NiQaXcezECT03Z84crRtiZsvmzXL61CkZNXq0zLzuOp1fc6Dbzt27NVGF7/3695PJkybLgAH9JSc7J2kiTzKU/ck3jU1N8vTTT8vLv3tFc+gGDx4iX/7TP5URI0YkK6bld+bW8AQnTpyQ3Xv2yJoPP9JElDvvvFMTatatX6/kWF3dBdXxlltukSFDhsR4o7ZTbP90u7LyrLzx+huyb/8+mTJliiYS/ebZZ2XqtCkyfPhwTVCqqamR22+/TcaNHectTYyt2kqUXNNCYP3Pv/8PfQuhl9niEVia8BWJSDaOvv+gXHj6aYm++qrk19VLEGY2lCXhocNFvvAFKXzwXmnOK9AVs/EEAUTN6YrTsmXLVqmurlKGF3JjypSpcvzYMdmxc4cSX2QXQU6gCESEZUtBEJCqN3LUKNm1a5eSFxMnTpBDhw5Lbi7pgb3l0OFDSqCgMJlKEFaHDx9WI1CWpRy+9dZbSjrhdAC/bds2/Y6zYhjqh7jCMSGsIMwgfzAo9Y4bN07JlK1bt2o5OC7XklWWiOjpyGPaElhb5eixo5pZBoG1afNmxQrC5+zZczJhwngpL++rDGVlZYXUVNdI/379ZNiwYSr7qVOn1HbojTzowh/YQQJB+KHvunXrtGFj+AEDBuj96NPdw0isPXv2yMHDh2SSNs4Bij3EE590h6RWUmdlRYXaF7whAGHfkQuyCeISsgkZ+Q7GNA7IRtIgaVRcyzV0BnR4EydOVFIRfDiHreh8Pli9Wu24YN48yWshsNLMYHUXPHe/Q8Ah4BBwCDgEHAIOAYeAQ8Ah4BDIMALBC+cl/OprUvHvP5CskcMkf/ZMqTl6VIqnTJFQzyIJZedIuLlBpKpa6pa9L/WHD0rRQw9IwV13S3M2c8Y0JgNEotLU3CSrP/xQyaeZs2bK6dMVsm/fXk3G6N27j0ybNk1Wr1ktDfUNMnv2bCWgamtrFKWsUJb+zv5JG9dvUBKE+fCefXtlyuQpMm/ePCWwvEWEUWFFGPPJNWvWyE033aRzfObjLFesqqrWLCrkoEzIq6bGRp2DwgPAGZw5e0bCkYjkFRTIjGnTVcZt27bqvBQirLRXqc4/mXNzP3zBq6+/phxIfX2d9CotlUWLFsmNS5dK3z7lLcRPOkyOXO+88468t/J9qT53TqZNmy433XyzlPfpk1LuhiW/vPvuu5opBQ7VNbUyafIU1Ym5OtwCRGDPnoXKl6DL9OnTE3IJtjsaiUdbNm+Vl195WVeX3XDDDVrGb579jUyaPElmzZqpJODLL78so0aNlttvu02KfMtEE2HTQmB95e/+XR5lCSFZVLH9r7KiUck5cUKaVq2Sii3bZff69dL/yCHpDwHS2KBrFJt7lUnDffdKyR98QQLlfSVMmp7H5LQQOjgLmTmwnTgKgECszJx5nZIvO3fulMGDBklJcYlAgJBRgxNAPpFiBlGh1wwZoo4D6QFhsWnTJv2NNa6QGqNGjdT1noUFBXqejCqIE8qE1Fi4cKE6LIQGDk35b7/9toIPUTV69GglSJATMoRURoxIiiDl4dTIj3wQQTCI7PEEyQTx0pVMHNYX4wA4NllYms3Vs6euw4WYoV4wgjjr33+AynXu3FnZuWOnhEJBGTtmrMoFWQRxxfWQj8uWLdPvyIs+OAzkGM4BgQSuEEPx+391pwFBlCmBdeiQTJ4yWQk3lo3CmBcXFylxWVNTrbjWX6hTZ0UOyEXwpOHwb+7B/pBuEFjYFlKTDodP7oM8pBwIK36/8cYbFX8y5vjDN2ggO3buVPssiNkwmsLeWd3BwN3rEHAIOAQcAg4Bh4BDwCHgEHAIOASuNAQ0SeX8eWl+4QU59r+/I7mzZ0ivO26Vkzu2S+9J06TpQr3klPaS5gu1EgpHpH7ZO1K7Yb30euIxKb7vAWnKzvKSVdJ0KLEUiciBw4d07yaIEhJUmKMyn2UV0uTJU2T1mjXKFZCosWzZW15WUSAgu3ftkqVLb9QkmPfefVfvZ06+8oMPdE45f+7clj2VENsILDJ+mDsy1+bNihBfzKd3796j+2zPnzdf+QQ7mIOSgcX17OlNthPzVPa9IomEuSxL7ph7T5k8WYqLinQu+9LLL8srv/udVJ6p1GWakGsk5Dz26KMyftz4pFsDpQIzSRuaecaqtpoaTRxBXvgNcCTZp1extzqNo71thPgNXZ5//nl59dVX9brsnDyZMnWq8h2spiLpBS4CjCDkIBQXLJivywD9h39r/+bmsKxY8basWrlKlt64VJdYwhnswOfK+0j//v2UAPzFL36hq7Ye/cxnvL3LOpizK+/CWwi/8nffl8/czxJCb28h3b2+uVly166Vqm99Ryp2H5RN+bnSEG6S8sY66d3QKEUwtPn5Ep4xTQY9+IAUz5wp4ZISiehm7q0bjCMUKWe79+xWoqWykrS/sMyfv0AZVAia8ePGSd/yvvLRRx+pwZvD3mbrU6dMleKSEiWacvPylNAoKuopEyZAYG1UebmepY8zZ85Uh0F2CCuIGxwSggPDkv62YcMGNSZkFkTIihUr1NnZm+vhhx/W32B2IbRwTJbykWLImtW1a9eqMdnXiXJYtoY+pMFBkni8XScadexSGhMEFg2nrKy0ZWkgjQGSDUIH8gmyiWWGkHLITmrj8GHD9Dv6IAf1Q9w999xz2piQC0fD8SD90JOleRB1EFm2tDCVBpLsGiOwDh0+LJMnT9ay12/YoGmVZKjREcG4jhw5Qi6cv6A2gQSEUHz//fc142rSpEktaZaw35oGunGjyktGHZ0RmVt0YNwLgQX5BVmFrdGdeyCwli5dKgcOHlTc5s2eow3YEVjJrOh+dwg4BBwCDgGHgEPAIeAQcAg4BD5uCDD1DJ6vlabnn5fD//JvkjtrhpTcfqsc375NioePlKqDR6Sgfz9prK6WvMJCia7bKHWbN0mfL35Oej34sDRmZXdz96u2iNqsuUaXEb6p+09VVFbqnDU/v0A2bFivSwFZgcWKKUiUN998UyZOmqgFnak8oxk8rEzauWOH3H333ToXXrZ8uS4PnDt7toR8c/OmcFjnzZBlN964VOeqZJSxbQ+kD3s71dfVK2kzbOhQnWszj4bwYt6qq5xOnNCMLObRbBZPIgrzXOapuTm5SuoMHDBA59vMx197/XWpqqn29hQLBDUh54nHH5fJEyd1exUUup6/cEF5Esgl3tpYW3teV3GxVxhZZ3XnL8jYsWNk3Nixnu0S7HdtHAYEFjJ7BBb7f+UqFnAKkGPM1SEVS4qL5ELdBd2SadHChboJe5sj9uI2zkFgvbVsmWJ42623yZSpU3TP73BzWAK8CJCtpi5ckGeeeUbOnauSJx7/rK6u64hTgTvwCKz/9X155P7rWwmsgEgoHJac7dul4bvfl6Y1a6VCRHZl50h1dkjqm70MrILsLBle3EtGTRgvve65WwKLFks4p61zkxEDc8qysQEDB0pVdZW+PhECAlIDgglQAWftRx9JQ2ODKssxddpUJWHefvsdZQ4hphBaM7A2b5LsrGx1Il7JOGvmLE3Zi4TDyj6y3nTQoEHqcPwbIgriifsXL16sRIifwHrggQf0fggsiB4ILFL/uA+DQWDhpGRvQZzwB5lEdhPyePuGdeLQDMyAssGkJYLD+AnjlRSzg8aEHpBm9fUNSvbR2E6dOinna89rQ+KahQsWtBBY6MvO/mQrQVxB8kHMsX8UtqCBkQIInuBANpM5bnvSt8fW+p0LO0AaUj5EVO8+fWTzpk1KwEE8kblG9lzPop6yf99+JefwAeTwE1h0UhCV/AY5uX79eu0YYL5h3Clf10lPmaJ60CBoQGTp4SvYkM0AyZwjGwxSc+4cCKzYHlidJRqTsNXxmHWKxIzd3BEb3t3yM1m21w+mvpGjw6b9/uFqxaYrcl9JftNZ+a9mf8807lczNlez7J2xa2f9vTNlJ4sjOhtfJLq+s/JfK3btLPaZxuVK8ptryWcybderufyrWfZ0t6dgbY00Pf+cHP3GP4uMGCn5c+fKucpTUjxunJw7fER69O8rDVU1ktejhwQ3bJLG7duk9ItPSq+HHpGmbOb4nUjWSDBPuKhNsg9yOCwrV62SQwcPSl5+XssG6ctWrNClgxws+Ttx4rhyAszxerL/dDCgc8I9e/bK9q1b5Z577tF5rxJYpaVKeiUmsNbI0htv9AgsXvQWYRP7iM41SYIo71OuHAKy5ubktGyHA0nEPJSEDFZuMQMigQNEmI+T8DJv/jwZOmSobmeDTmxIz/Y6ton7rJkzlWgbwtsd2+EO4v01HjN+97YJapaKM2fkhd++oMkjRSXFup2S7ctdVVOjHMPA/v1lwfwFmszBHlbtlU8iCPKy5ZK3D3lQCSw4BVbBkSHF/lc9exRKU1OjzJ8/X/kX/3ZEkGZ+lhMc4IGWr1ghM6bP0Ht69vQ2fgc4ZDly+Ig8+9yz0qNHT7mflX3FJReFAH4MWgisv/rb78ojvgwsyJhgNCpZtTUS+GCVhF/5nUS2bJXzVbVSFQxIZVOD1DY2SM9QUIaFcqWorFRCDz8suZ97UqKF+bFlhN7yOJhOwIOEGDFqpJJQ/DsvL1/JpCNHDku/vv3UEZWgKe+jBBdrLQGMjdohm4YNG65kFJk248ePkz179+r9pPjhcOx9VVJcrM4DscFyNpaZQdogA0SUrW3FoWFGIU5IsSPziwwmHBliCjKGNa/KFsYILK7BCJAlyAYji7NCEkFqdYbAMsfDOmC0bfs2OXHypBJh9rpLfqORQLqBXVNjk1RUVigTffLkCWUrx44dp4Rbee/eeg0EEZlhyI0z0fj4JAsJrCDJIIUglSCJaED+NzimSr/55bd74gks5MFuEEuQShCU2AaSifohsCzVEzvwG8SXEVj8hqxkWPkJLEvhtAwsloWSfUeHQycGUUYGHQw4DRE9aSxkbZnzdzagSRWXTF+XCPfu1OkvL5Nl2+CbTtzj5U2n/JksOxEW6ZQ9vnwbpNKFfbpljfffTGKfybIz4ePJsOlO2+/o3ktt43Tokam+LNM+k2kbZwqXS92PpcNH/GVk2q6Xsvx0t9d0l5fMx9NZXyb9/VL08en28/bKSyfmiepId/nxdtV5b2dWvHQAbKbbajL/747N4+O7VOI9LwOrRsLPPSfH/umfJNJvgGRNnigN56ul54gRUn38hOT27S3NNXWSU1AkWdt3SuPB/VL0+1/QDCyPwEr/gezM28n8ITGEBAu21Hl/1Sr5cM1q3Vv5+usXawbWO++8K0OGDNY5H3NvtqxhA/V33nlbNwBnzknSCRwCCQy87Y+jobFRTldU6Nx985bNMnfefN1MnWSSM2xvFAzo3P7kiZO6V3d+Xr6Ew81KRnlkUZPOveEw4BBsryu4AbgJVm0xD2cFEXNR7iGjac1HH+l2OtwLZzB37hxdWVWY37pEsSuIUv7efftlxdvv6IbrJHksXLRQxo4eLRIgE6tWlq1YLhs2bJS8vFzd0J6/HN3HrPXwtwFWMTFHZy4OB7F7914l6q6//nrNPGNrHiXdorxRMVffEkmSTUftMRIjBnk7Im95XLhwgfIzJAfBgbDXN3tusZcYq/Owme5bHTsSld1CYP3/f/NUjMDKkmAwoClunr1jJNau3RJdt1aimzZL9MBhiVaclnDdBWGfrGBOgUTGjZXAww9K7p13iuTntVQKQwkhBOGDQ+qG6E1Nugs9y8j4fuDAfinIL1ACi7cNklpHJo/31rleSmzgjBBYOMiBgwekb3m5GsbLLCqTo0ePSHVVta4lNaKEhoDSOBbGgeRADggVspxsf6gZM2Yo4YWcNAQIH5yeT5yU38lSojzKgmBCNhyR69GLNMKOjGedSiIHpUze3Efa3OAhg703HcZ6h6qqc7JD97sKSWGPQm0I9gY+MMOpaGzoReYZOCE7DZwGyrU0JuSDxMIpuR5iCFIIwoiyOxoMEnWIic5hawgyszX1gRHk4cmTJ7UeGjRZY5BX2A+5bH8xMAZL7IB86EFngS9QFmQUDZ9P9ORaysEu7BEGWYZu6MsnTDQygQMNBTLPTzKmY/Brz67pKNuCpUQ+k47yneztDxeZxCaTZTuf6TgEyCT2mSzb2dXZtSvBbUdxx5U+hrj25Manzvr81ezv7fXx6WinmR4/Ml3+1dwXXKnYhGprJPLfv5WTX/+6BPJyJTionzTXVEtOj2JpqKmRQFGhRBsjEsgplKzTlRKWsBT+wRel5P4HlcDqZAJWyk2ZJBVW0DBHHz9+vOTk5urcjqQM9lYeOWKkZkmxTxVkCvN0kjbGjB6lWwlt3rxJzp09pwkb8AUjR4xQokj32YpGhWWKED3MSckm6tevvwwYOEB6FJJAc0TqYplebCA+bNhQXeUF+cILyGyuzPyUeSVJGxBG1MXBebgB4wUgZzjYWJ05OXNjSC/2jmJpY15uXguxFg9QKsSkXcNeX9/73r/r/lfg9bknHpelS5YogcVqraee+q5s37lTM69mXzdTvvDk56WwwJMt3j8tawtSCVkPHz6ixBLLCG+99RY5V1Ul27Z5m9yfPHlcRo8apVv4MLf3l+fvt1TOgEh9Q4OuqKI89stiZRaJJV49h2OJSkNlyZIlyuPYmyMvKitWEXbXJYQQWA/ff4Pu5m9vIYy921FflxlqCkvoXLUEjh2VwKHDEj15SqT6rESbwxLpUSyh0aMkOH2ayIB+EogRIgYMwkEkYExbrgbD19DUGFtveljXivbr21cJLAgN9szyMrCGSVlZb83ayc/PU6auik3EYnJCVvBHHThrpDmszkRdECScp04cjzIgRCA3cHquw+E4D9HDeX5nSRvnqMtIMhwSMoaDe1k6iE6Qa5BoyNDVA+MiJ3UjdxbMaIzAQi5koK7cvFxNo+TaUFaWpggWsD6ZRlldrboY2YfBaTDgbLqDK3LbOUghrk/ngWw0asoFd2RDLnTgPPqBF9gafmBLlhSf3EcZ6M213G/ygg8484lO/M53fseRzQf0DZqBgNZjOHCtsrVpemKTTsxcWQ4Bh4BDwCHgEHAIOAQcAg4Bh4BDIJMIQOaE6uokuny5nPnnf5HgwQM6z4+y93QoS6LhiESzghKJikSC2RLICklg3Dgp+P0vSuFNN0tziAysSEZE1Dl+VZXO9ZiLM58ja4r5LPM8snKYx0GG8LIz5oA272XuzNY63M99zBO5Rzdi9zZ+0qSZs7H7mGeScUUyCGWwj1RjQ4NHivXsKfl5eQlXVnEf806bp9rSOTuPfJTXmVVZ3QHzvfdXyref+q7Knp2TI5//3BNy8803SyAQlOPHj8m3v/0dzZoCU5Yu/v7vf1F6+Dan76hu5u2WVELCCUxURUWlElGQY5ZJ5l8+mLA8lgmKSHW1t5yR1XCVlRXS1NysVBN7nZGUMm3aVF0NB3GYbJFqGwLrofuul6xQtpAZphN9/fO+87+QBCWEwRsbJdDULMFGiAZ2+MqVQGGBBPLzJBJkM662qZ1+0sD/HVZz2/btCg6buA8cMNDb6Dsclg8/+kjfWMcysT76mklPFYg8f6qbn4+IJYwl9QPup56OntYkLeQqvsAY1qtRhfZsdi3bM512jE+lTmfZmS4rnbKns6xM6x1ffiLZP276dBXTeBwSZZJ2texLfV+6bZru8i4lHonsmq6HFVczLolskE590lnWpfQXL5b09g+5VEc660tnWZdK/47qSac+mewLrgSsuiNDOnHujhydvTfROH216tJZ3ZNd39V4L9jcLMEDB6T+pVekYf0GidZWSSgalUhAlJoKRqIS5nsoKKGSEsmaNVNyb7lFsocOl0ggmJElhMl09f/eWfsHbM1jjEi5mufBbXAQ0WWLzz7/W2lqbFTS7pOf/IS+5Q8Ci83Wf/WrX2t2EyTTxIkT5J677tKEoFQPSEXIOe4PBkO6BxZbP0GYDRo8SEnCpEcMdy8ppV4TlNgKiYw4Vs6RiUXWXc+eRd5e7N7WWHq0N077CKzvyEP3som7t4TQCCwlr2IElq4hDbC8kC292MI99j+WQgbxDi/zRXm2WGBgFcd/IhSAHDl2TM6dPSsDBw6Q0l6lej/pdiwb4/WMLCdEIU8G3+H/t8eztdkwLNlg2REoSQ3RhQva62SsqEsZSHVB/CvilmSE4+XAMNMDayYn3PGy+/FNB5aXQ/Z0yK1dSWxjeisvnUTHpfAZf/+WTtmviI7ACeEQcAg4BBwCDgGHgEPAIdA1BKJRCZGMcqpSmipOS6ThgoTIuFKiIRAjs6ISZb6flyeB8j4iZb01YcWbcV868r9rCl47d7Gs79ix4xLhoYyIEkFss8P8hQwqlufZlkecZ8+v9jaOT46aZ3e2LGKjdlvxlPw+26zdo2qiurVTxEuCgj1i33Uve0r/3UJetVMw8xpdZcUSwv/vb74tD336en2tIUrDstkkyAgs/YyRWyq0VsL/Yu9KVLLLO68CxpgzI8ESyUEaYHNzky4bJGXMDk3Pi0YkJzevdY+m9pqMaZqJXeVSsoq7yCHgEHAIfHwR8BODyYjkZCiki2SknvZkSVcdicpPV9mJ5E9X2R3ZKJN1pKvsy4FNumTPpM983PzdYsxkfUYqvzts2kcpkz7ZXj+crvbUUT+fil+4axwCDoHECLTQUDqFb28C7Z2PBrwrOvv2QYf9pUFA+RarChKojTnjbKu/d5Uw8VbZdalfNnKoRc7UE4/8KFr23EUEVigESRWUYMAjsizAMBLKY9u8Dd7td5IJve+xzC3vphb8OiKw4oWKN3ULEdYB35vpwOXSuJ+rxSHgEHAIXPkIXEkEVqYnT/G6pnNSlkj2dJaf6XHxasXmUuNiMVS6WnYmyYhMln2p22prLJ+eTIGPGzaZ7mvSWb7fd+KzolNpVx3J0tl+LNPjXybLz2TZXZrQxhmvPTt1V+5kfUE6yk/m792t42rFJtO4dDS+dhfzZGN3d8vvTL+USj8Xf83VXH67/h7jgtpkYP0/f/1tefCehaL7rwdCkqUkVVDTB3X416WDZGZ5ywSNwPKys2KZWLZvVhyp5hckmTPH/x7PESYKRbr6tJl1lqztdIdDwCHgEHAIJEfA+truTuaSjQPJJfGuyCQZkcmyMy17psu/mrG5HLKny98zSQJ1NY66Etqq8/eOrdDd/rqj0jPdnuJtm6wtmTx+oivZPan6sLvu8iCATbtrw3SUcXm0T962HTaZs8zH1W/SgdjlwMbbi588wIAUlRR7Swi/8Odfk2lTB4pEGnSz9uLcPG9JXyi211WMwDLyShMJW/bGsr2vAkp4+Y/4htXZhgbJxF5Z3WU6ExnL3hBA+e5wCDgEHAIOgdQQsP6YBwD82RtfUn3rSmfHgfak8hNqnXlQkoqWmZqYJRvLuouNv/xEAUZ3y/dPKOPLT2fZiWzU3fIvF0mDLt2VvSOSJh3lZwqbZP7eXdnjy8+kT2a6PcX7fHd9JlM2NTmT2baz8icrL1Eb8BNV9jsxvb5hLBBoefN5Z/qTTPX9yXDrLF6JdLqaZe+oj7vWsbma7epkbz/izCQ2mSw70221vfKVY4pGpb6hSUaOGuURWPd+6StS2L9AcsIXZGx5uYwbMkxKiosllJ3VdhN3LxmrNQNLyMwKekldsbcW+gMSj/C6OG8q1c6I64xgSvWeVCYndg1l2gSsM/e5ax0CDgGHwMcVAT8xZAOJ/xx9ckNDg9TU1Gj/zFp03giSne3tY5jKROTjip3TyyHgEHAIOAQ6j0B744Z/7OG7/49a7CE3n8TzbFjM5sVFRUXSq1evln10UyUIr+aJ3+WQPZ1zs0Typ6v8qxkbJ/vlIYHai2evBp+8HD7j5386PwK0vSOh/IGoNDU1y+GTp7yN6iGw7v7SV6R4QLFMGVQuc8aNlLLiXrqxurdksHWJoBFSfNrbCu1thN5awsRkVSqZWO05RKKnXt0Fxn9/pstPp6yuLIeAQ8AhkAkE/IOFTRD85JWdM/KqqqpKJw6lpaWSn5+v5JW/D3ckVias5Mp0CDgEHAIfXwQSZdS1Nw5xrZFWlnV1/vx5fbjSp08fKSkpaZnHdGYyl8nMNX/ZjJfx/+6uZTMp+6WczPuxyTRZkK5JdyrkW1fnm6n6bybLNxk6a49Myt4Zf08nNvEYXOnYXMq+prP+0V6f1x6BxZsLay/UeclVEFj3/d5XZMbMsbJk+gQpK+nh2+vK2/vKT1x53+GqbD8sbx+sltcfJsm4ai8rq7sdt7vfIeAQcAg4BLqOgGW72sDh/7TJQnNzs9TW1upTbiYJ+iaQuEC86xK4Ox0CDgGHgEPgWkXA//DEMLBz/ocolnVFxpWRV01NTXLmzBnp37+/lJeXS1ZWlhbR3fEpfpmiyZWOBzbtle0nVbrzMCiT5Xekf3exSXZ/d23aEb7J6k6lbaaCTSbt2p2yk/led7FP5pPdkb2jsjPZFyTDrDM+0xHh11Vskvl0MtySyZ+Kv7dHgCcr249tIPb2RPbCCmVleQTW7//5P8hdt8yR0cMHiSdSNTwAACAASURBVARFAkGPtGIHrNaN21uJLCswntjyV+QXyq+cI7BSMZe7xiHgEHAIXFoEEhFY8ZMGWzpIxlXfvn11eUZXB9VLq52rzSHgEHAIOASuVAT85JU/o8G/T62fsOIaHqgYgcVDFY4RI0ZITk5OWtXs7qS9I2G6O3lMpmgmy89k2ekgHFLBJhPxS6Zxcdi0b9lMY+/6gsTYXwrcA94u7sJHFqs+ILD+x199U+6/a5EU8TRd30ToLRHMNIHV1ZS+ZJ2SMX1+4qz1HlRn3y4++evaa5bbl73rZSbXy1921+vpWHY/NvY9uWSX4orkaZq6w1tMFP/31KTruPzuY59pf7dBLTVtO3dVcuw7V1781Ymx6bqP+8u/PLJ3Dw+7u33Zu++P8RImI7CYPNTV1QnLNFiewR4jPODIRACYCnqp9cFd96FMlp/Jsjs3/nWtj89UX3Yp+uD2+8nut6lM4WI2vTx9fPdx6dgnU2ntHV+TWh+fib4gPbK3H6tafNo92RP7TXrs2n0EvBLaI7DsPJ9+Aovxyk9gsaydPa+GDBnSJZEyOTHtkkCduOlqlr0Tanbp0qsZm0zLnunyu2Qwd1O3ELiabZpMdt2pKjbLbyGwvvJ335IH7l4i2Ty1YHlgMNgugWUDoWVSWYaWIZ5oIO58BtalHlg7T3Z0y8O6dXN8IJMu2bseIKWmTibLz2TZqWnXvasyKX8my+6e1l27O13+riFzTIR44rNrkl3NdyWaPMRnXxmBxZNulmgUFBS0TDyufN3T5TeJ2tPV2MYyLXO6y7/UMcGV79GtEqYb60S6Wx3+PjNTGKWrrZp8V7PvXArb2ljonx5kwrYd2zXRGGTEFp/x+13ZW3CN1Dp79qyOSxBYnX2oYhOnZBOoTKDS3TIzLXOmy++u/h3d72RvH51MYpPpsv39Qib8J9Pyd7Z/SlXHTMqdqgxdvS4V2XncaqNVC4H111/9tjxw11J962A8gZWIqLJzfKafwPINchkZuxNl6WSkoq7aMcl9l1rWS11fd2Hz2zedsltZ6Q6uu6tvZ+7PsOzphNsfU+t3mHWbPHVG5w6ujcnLtn3RSJeTMdMkTGeLMVt2f3Lmnzj4AwM/gWWTBLKvILDYZyQvL6+zQseuT+SHaXSehJCkq/wMt6EWRP325WTXMoXbGiiRz8Q3tC6a9LLclkYyJda/aF+gxabLXy4VMPFkfDr8xRctXpQIlCZ82rTVdPfx3v6s3oIDa0N8T5PsCU2bxrL9Y55+Z5BKV19wqfwy9Xo6IrD4zZYK2ifZV4xLloXF/lf9+vWToUOHJiSwkk2QOloCk+zelLS0/YFj+7jYPelYepNMdv+4npKscRd1pH93sbkUsrenf7qwb4+QuBTYdMe2ybDvDtGSrOzuyK29YKw9JZIxk7h3pf3E35PJ9mTYtIdLpnFPR/nt+R17shOgMcq2EFh/+7Wn5L67lkhWVqiFwPJeKhjbC0szsrxN2w0cP4ll3+M75ET/ppyOj0xPEFrL766Tx+thYVJruBSV2Bb3nfL5+HT4dHSytrQh3Tqnrlj67dqxLjh5wBe8tkqqXhwzUrIlUO0tCdG6Le1dp5fR2IsMAmIbzaWOTeeu9MtkvmGdRqKlFJmwfSv2mSSEUyc6UvHri6/xyvfO+5yiA3OkjmX6/b1zXpL61fETB//gYZMFJgqcTw+B5ZctOU7JBvuLB8xEPpk6HqlfmVz29spqpWJtek2/4V2d4D0oSUWK7xO6E3i24Om9rUXtHk+HpJEeSarbpbhAoSfesaHBGG3/pNN+T4BHvIz+fvli//Tbue2byLqmq1kDgiPx9gip91vJJGj1+fbGxmQltP09M22VfisU9OLZ1rbQudgvWb+T6pjROTza6xu73tckrt9P6mWCLO9cHx8fv/j7r3jyin8bcWUkFv+2DdyHDRvWlsDS5uH1ZTr5iRFIifqw9myu8yHfxiNeRx37Txwh1dKJxyZarf15rIR0PIdrEd6LcYOBoEQiYX25VmtmeZzlO1lvfGzZguFFDhU11j+muiec34bdmsP4DNXaP1sfmo7+s+stNJ13mppt/Eznyz7D+fxXx6uo6Nw8vv0klKvFEeMcQclxqx1bts79o9FIp7MZU8Ekvp0l8o/2zvnvVR9L0JBpB9GIEf5xErU8pLIxP4aHDxbjNOIf7lpJqcw3LsLB12a93zysM3EkH7u6XnEmiUPtUTt4KVTCDKy//9pT8qm7b5CskJeBZQ3CCiIYYNNeNuxNRFzFE1gmhN/Y1sAYcCifN4TEB3nUw5tEOKgvOdnVddNTV319vW72SD3s7ZKbm9vy5pKulIxLRKLeunwbWAmJ0SUnBX0sILRGAxaGVTKipSN5KYc/MGeg99uyK3p25h7bp8BsGm/zzpTlv9YwNl3iy2mK2SCUFdLXKuv+PvR1waDagj+TDR9I5MPYAdy4Dt+w9qDBUwxHyuPw0tubtQ713a7MQlMEA7nsqaPpb0FdY2Oj2pnzdtj1fFq7SzTB4l6uMV0TiYPuYEJfkJ2dE8uM8j8Z7t4T7kQEHHL4643vO2wpAecT9Rnoam0A3ewaznEvuuiEJxRK2v4tcE7Uh8XjnI7+y/RGN+t/U3STlC+z/saw93/asg3zLwgs+soBAwYkzMDyy2tvgUpZkLgLrX1iv0TjBZfTtpHN+vGu1pXsPvSifWAD7Er7Q6au6OiFDh7BzoSqOcx4EdaAS3XVtpV90fgYL2P8JM/GTny8O4fZkL6N8Qx9vf7Ei8BsMtedOtq7F53A2caLdLQh6z8Y78EGXdpgJ+KN2eFwi22ZDBIbsxeo9ae8vtkjRoJeW4xTIr79cw2Hv58xf7FYB3unYuuOsbZJjj+NtG0mEDalraC/yYUMnPP68lZ/s7bOPdbvJPI99LK219643lF/2To+ee2hq7FBojGDc6ZbovHC2q9h4dfPT5D4x1eL6exhLp8hYuYOZiH+e+LlyMR4kXqb9BFYUd7cZON2GjPIWnoLz77JDv9k0T8G2fn4sQhsLT7jOwTWwIEDJRGBFY5Epb6+ThoaGvXNudqPJxMo7nc/iVXf2Cj1tKecHMlL0N82NDZqpnJOTrbkFxS0jQeTQ5Fcshh5RlG8Fbi5qUmKi4v1ezgSluKiYu272hydqJe2SNtFB8Z8bMAWM3n5BZKfn39xfKuEv3eYvSymph1a39tRbNmu0jE1KJd9ziLRqJLT2LykuLilP0sOWveuQA9iH/qEwsLC7hUWm6iDMTbjoMzsWH+irTHAfDIq1dXVOhaFQkGprT2vYxDJJtlZWdKzR0+NfSgDnyYrPlE/Sj2Uk5WTLQUFhWo/xnZsy4heWNjDS1JhztPcrHrSX+XnefOeTB1mU+pGf3spEPqgZ48ePS6yb01NjdqgxZfixNO+4OxZKcgrkB494uwUu5axvK6+XvsE6qAdJ+qi/HFCZ3FoMy5ZvdGoYku/VZBf4I27mQI3jeVeTGansfBYUamQggkJrK/+w1Ny9ydv0MajD11DrV07jnT8+HF941RZWVkbAiv+DYV+lfwK23cMd/LkSW0YLEHxT7K5l07u8OHDLb93fYlKcnDpCHft2iUjR47UBrJ7924ZPXq0DgJdOTTwbmqSquoqOXPmrFy4cF7CYS/YZYArLS1V/OJ1troI2ulg+J0GRYdz8OBBxcImi/7GlKqMNOajR49qB0f9hw4dkuHDh0ufPn1SLaJb19FB4j+mRzreDgMOJ06cEPY8GDx4sHZ8/okOHR+/V1RWSHnfvoojHYY3oAZ10Bs6ZIh23qdPn1Y88LX4yRLYITu+gp8wcGMnyr5QVyeDhwyR/HyWUQWkob5efRsfGDxokOR3eXlVcrjRn7r4I13efFZ1rqhQTDjnZ8rxAfTAxxORWOZvtNGxY8cmnJhTL4PHkSNHdLNU0vUDwlPuVgKrublJfY1rCRRTneCbbxMwIQP7K4G3dWrYGlv07t1b/2ziwX0Erug9aNCgiwILwwD9T506JePHj9cBn/v4N3+0BbChfVB2ewMVfoUc4M513Oe/lgCH8sCS/q27RAL14Z/oR//LxunpmtD7vcwCTv+kwQJRWzpoJCH2oZ9mohCvH/KCIzKzwTv7kXRHXhsPaJvo7+87wJ366LeRmzbcHjmbvEV1fAXlnzt3Tv0eH0EOfAD7x/tAKnV5DzrIImjWPh/ftUkCgWVuTq7Ww5jRXn9J34RMtAPaGXiABZ+8hau9cSaZfJSLDyNTr7JStSd9yYABA1szsNO0oDFeFnA2m6N3OtqQ1QFWNsbTd/kPfLvizBnVu7S0l/bv9HOQE+BbVNRT9W9qapSzZ89J377lUtyz6KJ+gnK4l/4P2WkDjDvHjh1TMoVz2IqDcQR/4qAftb4umX0S/56cwDL9aSf0XebTyEb9YGJtFT0qKyvVv/wy++u2cZC+mvHG9sOLlw//od8GC9owbdQfx9CGaQN8gk1n/NZIKurgXjC0g35qz549qis6mG7Ug30YDziP3vFxlWXz4A/oRtm0C/o1MCE+Q38+0amj8QIctS316qWy+MdDygR/DvrKTMa7F/tNpgmsGBGm2R06mrSIEI+3P06JJ65sHOK8fw8se4DpX0bIOEkMgI+3qSMgOlldu3ad7Nq1U+64/Y6Y3VLi1VrkNgIrzLizd69s3bZNxoweLePHjWszzlE3c4s1H34oI0eNkutmzJDcXN9bETtBJLXbHxipIwF5+eWXtO966MGH5LXXX5dz587KI4884o3P/uywFOtlbKJNbd+2TftMfB6dcnJzpV+//jJlylTdZwxyrtWoXgxoMQttxcbHvXv3yocffijjxo2TSZMmdf4NkTFdaUsvvviS9O3XV+U5euSI3PvpT0tpaVnXus2kd7XOg+n7d+zYLlu2bJExY8bI1KlTU45t26sGv6efevXVV9VWCxYskF4lJS1LpGg656qq5JVXXtHYj7HoreXLJTc7R8msvNw8mTdvnkybOlWWLV+uffCSG27w8PWxItFIVOPWF18Cu36ydOkSCQZDcvLkCVm5cqWUlPSSxYuv1/sizDsPHZZ169bJwIEDZPbM6y7qs5PC1okL6EdfeOEF7UOXLFmiMQ9j75tvvqnnbrjhhjZzGfB6/vnndd4zZ84cyfb7YIw8PV1RIT/72c9l5owZMn/+/LYEWAwXCOZNGzfJR2vXyic/8Qnt5/0ZW0asMXYxv2QOnupcxsZ3uAzGkgH9B0hBj0IJBANSX1cvH3zwgZw4eVLmz58ngwcO6lKM7O8zOwF3py9tb2yzeVlXOIl42eOJK8o08ju+/IQE1tf+8Xty9ycXS1YwloEVIh01on8EFwRaTFgIdPyZQPY0Ol4ZO2+DDp/cRzBHQ8IRcFTOaWYMie+xLKh9+/bp73SQBCRtWMyYg1KfyeFXlnJwmPiUSr98di+D3YYNG7RD5Xo6JjolAg1kMgCtUzbQbeLk/x0ZNMCpqJCTpzyCziNVvMyOuvPnNeChQydosowPv+w0WsglOjKwtgkJAR0DMligG4fpQNl+A/tt4ycNt23bpvIwKdq8ebN2wBbU+bEyW/idx2S0Twso/Pr7gww7bzgxsBIsUjedgN83TBe71v5tfmN6mg38dRshwWSN4Niu5ZNJ0M6dOzXbig57+/Zt2gnSUTNRPHXypAyP3VdTXS0DYjbxt27KAW86IQZOiA8wxE779+/XQHv4yJEtT/MJ5JEJPxgxfLgOJnSIZh//RN4IAz9WpqO1FWsb5oumu2FEm+QPW4Itsm7fvl0/OWdZZaYT7Q7Z6aitDCuTuriPoAt8pk2bljDIQDbKISDBlwcPHqJLZCNRUtdpwyEln44ePSKNjU1tyEW/zu35HNcwAST4IaAn4NdBNRIR+gWCKp6u+sk5dGBCgm5cT/uxugxLcD5w4IDa57rrrtOJAhPKHTt2KBaUaRN1m2D6fc2Ieu4Bc66lTRJUWJu0rBx+4xz9G/2Av03F+5e1Ua7xY2J+QX9JAMkn9TFh8veH3SGH/LL48fL7Gef9BBa+jX35o4/yT7hsckG/yqBPP8pkwt/H+9uztXHr+62Ptj7N8MQX8AHKs37T/JdrN23apG2f9unPrPH3T/7+0rA27G288Ndv3/3thD4AH2TCio/RL9Cf8Rc/Bvl9Pd6P7Deyrhgv6B9pN4WF3tM4+oya2vNSxz5j/fppO+C8f5xEPpuggw1tmk/GMH6bOHFiyz3+NmB9jGYRxTLJ/P7Ed2xL+8bn+vXvL4eVrC6RoUOHqS21LcScxwK++PHCfMsw9v/bsI3v4+08eDAOoreRltY/ma/E94WGqdkL3axdmn70W4x9U6ZM0b4LXza5add79+2T8xfOa9xB/859xDuMJVVV1drnlJWVSn19g5T26iUFvtjE74/4BXXRp+Cz9Ev0PdiQoNtiGnDmwQoH9rO2bf299Tn+dsK1/owh7zeCPeziTR5tfye/XdGTdrlx40ZtJ4z96G9jG+MF45XZi3vpU+2hF+3c/M/8Cf/gfq7h4Y6/3/T3LbQb9KQ/9PcH1ibBnt8pn7ZkT9wT9eH+c+Yv6IW9uNcIMuqnr6e9MmlmfLSDMojFIJWQyR4W+sdCZMEP6etHjRqldkRP7Ihf0fehP7b0P/CMtx31oBv34lfxxCnXIz8HY4lNkPy288sV7/f2b65PlEnmt0PH333LhyR+M8ju5gf4y2ZuHpGKitPaRnjAq5svxCYs2M/GdsPA/N8+bZyx7Cs/gWUPNP0EFlkm2Or8hQs6WWe8ePTRx2TI4MEtyxCJXcDPG19szCOmCSiJrfFpOKx/xDu0zROnTsmBQwdl0MCB+ufvz7h+46ZNsnzFcpk8ebIsXLgwRg5ElFjQpa2xuQwrBEDI649imZ0Bbx4T4QF4bNWLv7/iN7U59wZD8tOf/lTb4pe//GV55plnFN8vf/nPNKuEhyTooH0oe4ZFwrpcjGQFcoDJ/M3KzlK9uBb9wXHVqlXqu7Qr2g/3V1VXy6EjRyQ3J0+uX7xI272OKcxLmOPF+t3169crzoxDxJJ79u6R5cuWy/Tp02X27NkeIUK/FQRfL6PZizNiWa/Ygrcba3/GNUGJSEQ2bNgkv/3tb+W2226Vw4ePyLatW+ULTz4pvcv7SFbQsucD0hxuknCzp6dl5Xu6e3NN8Na4hOV4EVYlhFR2m4eAtWY8xTJtKYe47p133pFDhw8rATSSh0SsIlLcwpotZdlDrTEGdvTm0TyYCmVlKU7Ui19GwxHN4vvlL3+pWXq33XqrlPYqUZm0rEBASdJf/+Y3cv0N10ttdbW88NLLcstNN2o72bx1q1yorZX777tfKisrJC+vQPGORpknektLTdfTpyvkJz/5sfbB9957r+KwcfMmWbF8uSxcuEhmz5qj19Nn7dmzV95//30ZOXKE3LjkBsXQsm3BTWWzVSf4UwxPbOCPq/yxB/GOtXVr28GQ55P/9fR/KUbIxbhP/IEfz5w5Uwkoxh+7BzkggBibedCu7Si28kkJ5mBQHy5+85v/WxYvWiR33Hab528tQYj3pa6+QX18xYoV8thjj+lDP2TR7L7YEjbGj5WrVum4smDhQunZgyw1/CuWLR/LwKVe2k7rXCAk1dVV6vP0O5CMQ4YOkazsHDl16qS88NsX9KHYjUuXSnmf8oxmuKU+Blx8JWMz8w/iSsvu5yrGPdo2cUP3xh0vZtm6davyTIzVjIOMicRq9OPETP55TkIC6x+//n355CcWKYEVDXhPQZlIEmTRmFGEzgpDEpAx+HOeoAVH4mDAp5GjEIEBgvBvhMH57LXrBDQ4lGU92O+QEAQTPJGybB0GfmP/+Z0gEEXpUPk3MirDGVvOwuSboIO6CBaY/HA9jR1ZbHkVASPfIbAYYDgAke/UwWCAfJSDvHTo6EA5yMg5jMiEmXL5HXKj8uxZBRvntEwF7svJ9phtsKED4Ryy2bJFS/2lXg7qBkP0ox7kRQ8/lmBAHTRWC6a4DgywEZgw0cJWTNQJxOgI1qxZo3JbqinBmOnEteCJXelIjJRBbuzNJInvYMd3bM+9yIH9+URe5KcMC3KxoZEs/I5t7HrKoEzDlN/BE9vjB9xHcM31+CHygTXycB0djwWC6AVu1AeBxQSsV2mpbNiwXnEfOHCQ4rNt21YpK+vt2ff0ac1KAl+wNF3RCwyoF9wnTJigmGETJliUV9a7t6aqghtPaDQ9vUcPGTlqpAYjp0+fkpqqasUK2SgTf/Gub1I9qMMyKJAbv/DIthL9bj4LHtyDDNzDtQTpdOLoDPYQlXzHpshowboRLdQNYYsO6GTkAvXTtpkIpEpgYRc631OnTkvt+RoNAoqLewkZWIcOHVQskIVy0ZO6LfUX/wALdPBjgZ2xAefwA/TEj5GTjhR/wMf53XyBe8CX8pkkWBYUPoGP8Dvn6VfoG2bNmqUYoj/tAjuCD5MT6kNWy4wwn+c8/Q3YENRRH/dhE/zW+kL0RQ7+jb3Rz0v/9p4ocB/+y+/2RB67IYtl26A/MnM//TBZBGDFpJOy8Hnu97JivDbe3cM/MfRPioxM8k8a/BlYNrHlnPW1ZhdkQ2Yw4jfOm5+BhY0X1Ifu6GP6gZG1AesDra8FK/QHE+rA5/EP2ie/2e/Yiz9/9jDYYhP6DGSnf6PPNV+jfmTFt8EZmbEZ9kemRAQWcuCP2Aw/wsfxCTBDB+qhXD4pl++6ZCAYkHPnqrRufA7f8pY6h/VabM+SfjJFbXzlHP0T7YcyjGihXLBGF34nuEB+dLH+HKy4HzzoU/AbziEn8nM/OoAPAWSv0l5K+O/YuVPr79mzR2zc9tqC9mOnT3u+36OH+ivlWgYi5dryK1u6Rl+AD4A7sqGD9Wec5x7aIRja+Aam4IjtwI62TD9AG+U8siA/v+FXNgbQN1KvtWHKh+AHG/QEK9ogWIL9zt27pKioWPr16ys7d+6SvLxc7VtZskFf6o3LvVW28vK+OrniQYhNXPED/Bj/A0Mj2sGDvscyRy1eQDb0Rz/LHrQ2hA1tXLBxyfp+y3ZCV+739CiT8vLeihE+1bt3qTBhwR7YADvjB0wqaSfYgTZrfSr10864Hhvg89iF8hmfza42wUNXi68oxx4iJeqHjMDiemwKPmBIm+WcxQjggS0tc80euHCdERucA0/DgvKwM7JjX8rDP/Bt+gXkxt74B3LiC/xm/kRd6GpxFxhZ/GJZWsQGFlTjB8iIna3Ng4X1b+bz2I578HPaKPZkTObfFjtTDvKDj8V8fMcXKYc/bIDM6GFjKW0Yf0J2ZKUdWIZqZ7LXPFsx9bJ901qmgj4zpmuxMOV4U0j6t927d8mRI0e1fiMvsCnkqmU6xBNYhkk8gWXjKffT7rA//swBbozxZEKRgQX2TECfeOIJzdphksTvrLSbMHGijB83XjMjyBY6c6ZSMZ86Zar2Fxs3bJDjx45pXzdx4iRdirV5+zYZN2aslJf1lo2bNqof4U/EWGR4MPllToEP8RD12NFjkl+QrxM1SPH6ujqZPn2aEkxMygcNHqT+SobN2rVrNdaA8MGX3njjDZWHgz6ykQelI4ZrFgoZKR6B9Wc68acf+KM/+iPZvHmTHDp0WK6/frHK9eGaNXLs+HHVZ+KEiUpY0CfOnTtXyybrBr/nWuZD48aN19UjR4+xguO89ru5+flSU3Nex6W5c2ar/23ZstXLyobs6l0m69aukw0bN0qf3r2VhMjLz5Nt27bLzJnXybChw2Tzli1y/Pgx9Vvw5SEz7ZVxB38fO3aMZrVt2rBJioqLZPLUKfqQ56UXX5QDBw/Kgw8+IGvWfCjLli3TBxL4xJBBg2Tx4sU6Bqz8YJX22cTgZCcxd129ZrX6HGQlvtKnT7k0NNRLdVW1DBs+XObPm6cZZsgA0U9/RB+OfXr2LFI9qY/yOU+/PIFs/uxsWbN6jeTm58nMWTPl5ImTcuToEbU5ZCA40q7pE6ZOnaJxMT7ntfOwjBg+QtauW6f4X794sezetUv7x9lzZuvc5c1ly9Qu999/v+zdt1deeeV38kdf+kOdy+Ajv3v1Vbnnrrvl4KGDUlJUrBi8/tprcr6+viWemDRhovY/v/zlMzJ48CB54P77tD0sX75c+6e7775H8vMLZO1HaxXfmppquXChThbMmyeLFy/UmAFMaF+0TxI9WE4KsbF7j5cBP3bsOMW6uKhI62VujR/i//j86tVrpKCwUIme48eO6zJFCDIwfP75/1Zi77777tM+8d1339W/u+++W/sH2qm1e+y9evVqnc/yMPqll17SnqW+oV7lmDFjhrbtp556ShYtXiyfvP123ZKhZYFrjE9HfwjtFSve1mxF6lm9+gPto4kJhg0Zqm3jvZUrtZ/FDyg7KytbtmzZrPEVmJKNSLvYsnmz7Nm3V7s5ZKNfWvH2CjlTWan+N2fePJk4aZIcPHBAli9bJtOnTZc5c2ZLYb73Ju9UD//D1VTv6ep1+CH9DhmA9An8aVyalSW33Xab3HLLLZ3KpkwkOzjRriCH6Rfp//B35j0QmvGZjgkJrH/6xg/kjtvnK6OMgx04dEiBx5lwRhobgwKDLh2lDa6ctywJAgk6RgvaEZZzOAYdML8xwHKOAZ1gg8DDyC2CeACiowAgnIO6+aOzwLGon0Zk6eh05JQLS0dnSJBC50CQwgSTAYDyLXhHbuq0yRENkAbBQSPB0YzoogPCWDRwgiP0QA7kZmCko6UjIyDDmbmmprZWZWto9PZlsYwdJiIMBOBFQIisOAe6oQ/y8kdwBka2pMAmVwStyIJ+DDB8Igf3ohP4cj8NzybN3MM5HIFzOAfOAoFlBIItg6HzZHIGlja5p3waLh06v2NP9EQ/ytWMlz59tGM+EVtmZ2QWn/iLPWW2gJxAD1wom06RMgg4wBYZOc89nAc725MJP0RWMLcJjQWD1M8AgdzYAx3QhWBl9FgvE4mApLi4pGWCCbE0ZsxYDd8Y6KZOmaJ2BCsjZJHHY2MB1AAAIABJREFUllniEwT+6IHP4Qf4R2Nzk/4b+zL4IXdBQb7qxD3IVZCXr7bDrrQV5EJ2dLX2Yk+/7Wk9unCtLb3EX9GdcpDTyEDwHDN2rKYdE9Tyhw+DP0/BrJ1Zu6FuCBxkxreMyEUf2guf1EGnkWjpErazDCwGCSZ7BGIEAgx6DNjURfBHBhZBNnakXPCwzCf8xyZA2Bib4mtGVKIX54w44n7LygAX2jhyUgb1gQ3+wYQTDPFZ7sVnbXKO7OCJ/uiGj1APQTMHAZQtQeQ7stCmjXzAt2z5pC2fQyae2hBo2JJHm2DhR/Q13E85tH3k1P6hoUF9HvyNcLO3+mEb7M2/sTVl2FIq9EJ2a4P456UksAj88F1bQmj2tGxI/A4d7S2F6AHmnMP/OW/LaNAL2fEPI6TN3/k3mFG+9UuUxdgAbny3/s6yjmif2Ic6wBS7YwMwxLfoj8CP/hKbc79m3uzdqzrRnm2JEOOJ7VOA3zIeUactt8IGjC1GDIMLPoGepgP3UAY60O/SFpmIGzFGJI3vE6DXXahrGS/OVZ1TeXnoQXaoZbqhG/WgF2UWxh728JSY8Q350MXIPOQ2W9lSKMqwINQeDhg5YfVgS9oSQRgzO4I476FMsZw/X6uylZWWaaYxbSo/L18unD+vfQ425l57OGL9OOeRxUgc5GEcwwbYC9lpC+AHqWIkArJwL+0c24MdchnpwD3cDybYgvtpb/SB2Irv+ICR3LRr/AC50JuykJtJx6Ejh3Uiw7/xKSJR7qXdeuN+qcpFXWrrxkbtk3Tfkph++CyYIJONRVyD7vQtyGc+jA42nqIH37ENdXh75+To+IM/YXf04xw+ZPhSLg9qmAAzGdi/f580NTXr+FNdU61P8m35HmMGtqSdUC42oG2BB/iTfUt5XIcM1EnboSzkQQ/sYNl/3IOu9AXgTZ/UEYFFDIH9sTv3oCtlgZk9BKDPplx+w3+xBdeDL5gzZtFmrQ8BE/SgLXKvEUeUz4QLXMEdjKgD7MwXiOvQnbLxC+tTbDmiPUyhX0BG/AnbW7xiZBYy0mfTRkxee+gIbvRzlullS0qoi/K53h6W0MfzHX3tgas96EAf+hBw5hx2gzTkfmsv/HblE1hkDIZb7DFkyFAlyf3LW7FzomWmfgILDMADH+W7kXxGHFsGFjb7z//8Ty1v+MgRihXE0uOffVzrfP3119RH6urq5eyZM7Jk6VK1JUSvZWpiu8OHD8n6detk+NBhuhwIGc/VVMt7q1bKpPETWA8u69av03GaP37Hj957/32ZMnWKjjfHjh3XOnft3q3LCQsLCnS8mTt3nmb6fLD6AyWrppP9np2j85GXX35ZM1Do33/9619r7GIxMkTbjp075I477pSNGzeofxqBdeLEcVm69EZ58803lExbtGixThCJm8aNG6vtmj6NeIm2QZ+AnzOR9PbCC6r8zBnInqJPIJsLAqj/AC/bDCJm8aKFmpF67Bgk8knVEYIEYm77jh3avmbNmqn97UcfrVXCAb+lX6d+6vYeHvWRTZs2a7/EsjUwHDxosKxZvVrbwozrZkhVdY08/fTTKufNN90kby17S9566y3NbiHW3LNrl3zqU5/Sdr5q9QeqN+3v4MFDsnTpUiUdsD9ZYAcOHNS2PGXKZB17GXPvvPNOJXEoU4m63Fy1D/hzD2MCJCPl8jAHggYyDgLrtddekx49e2o9R48dU33RnfmEF/OUKTb0P9jvo48+kqKePfWaIUOHysqV70tOTq4Sfrt37Vaia/6CBUoy/fRnP9OHSZ+4805d7vabZ5+TJUtukB6FhUqO4buPPPKwvPzyK1LWq5fcc/fd8v1//3epPl8rM6ZPl5MnT0nl6VNKbEH8DB48UIkBzkN8DhjQX5cPbty4WTOSiH14CE2G27y5c2TC+HFK9NgKhVOnT8uIkSN1PGIuyfhHn4iPjmY8LSzUdgkJAV4QWEUlxbJy5Sodo2hP9OEQq/TdCxbMVwIQv7vv3nsV92effVaHkjvuuEP7Ov6NL4IfmNEWKPf666+Xb3zjG7o8b/LUqXJg3z4t+4YblshvnntOCcFEBBaEF7ihFyTeo48+qvM27IXtGE96FZdov79+w3qN73W5Yna2Yl5TU6v2hiPxYohCJRPpj1mVAqaMbZQNbvjP5ClTpHdZbz1HP3/TTTfpvdmxfTJTIZn8GdKpXN/da2ijLG/F12+99Va1MzEEuNGWsU+q84+OZKfvog1RD9eRrbdwwULFyLatMl0SElj/+i//KbfcOkcn4kxGYVUJluhsMCgDL50y5+ypHYJbwEPwghCWlWMZIZYajuMRdDDocM6ytLiHc7a/FkLu279fO5BBg7w0bfacoOOnU+Q62/COjsAmp5bFwyBHEE8w2H/AAGX5+/bt1/Kkq7a2Rs5UehMaAhuc0QistevXqyM2NjSq3tSFfCzzGDtmjJDuSNATbvIyzxgEaLT25Bfd6ax68HT63Dkld4ykY4NFGjZ6WHaaBawWtNrTW+sQCIjo4CkXx7GgjwZBnXT24E+D5btN9o2ptgkaHS9lEuCAHZ2npdUTtFr2CB0/AxrXMojbvjsEwLZPmGWpMKjoU8tAQIN8gjmwZSNA/KdHYY+W+mzfIuSz/aQsK0H9p3dvnVSSWk4wQ70MltjHlhcYkYBsBBzYD9sgDw5vy+aow1IS8SEGO9KG6bj1iV7sWgZIOg9SrQ/sPyBTp03TAObAwQNKZvG0h0CDrDmeKDAZmDB+gtZjyweZoJyuOK0TNgIxUoCRiYkRxA7n0YVARTM5sr3JB/bDDrY/gJGj6MG96ISt6QxtWRzfjQSqPHNGSkqYwOfpYA2BxYC6d89eJVPQC9+BwPKW+Q3W9sZAwIBhBBbfeaKATnRKtgcLsqZCYNGe2Q+BDLSzZ88oRujQr28/qau7oBMpBkN7Ysi+DDYxYu2+ka1GgvNv7Gt7e2Ej21+IPgP9KY9r8GnahS2t5R780Qis/QcOaKBBGyBoI1sCn2UywRNB8KHt4yP/h703/5LrOO58sxvdDTQa+77vIPaF2EiKpCSSAhfLIkWKomTL1hnLc0ae99Ob/2DGsmz5SXMk2tbyjjwyadnPHlsjS+ZOiqS4iDsJAsS+72sDaCyNrYHG8yfyfm9l375Vdau7Cgt166APuqtuZUZGRkZEfjMikrXAuuVvpfKs37jBp6SMGm3OFryaOXOG0UCEA3KFPKFrbL5HjzZaaRfjZOlXY8bE0Si0hTNEPzqJZ+54BnmlfZ2oI1+qH6UND7LGc6xX+pU+TdZ+643BUrSV2qAfpSrwv066lULI+oS/zJ8BeZcuxZtdHRLw+e49uy1NgTVNuDxygxz4aMd6q1EHIHLm7Bm3Y9v2OHVLaT/oQDZ76MekPbGT8dWrTe6YR9bN0WNH7SABPQ+NhOqzDmdMm+a2b98RRWKOj9MRpUfgMTpZKdymnyNdS1g6TmjrEQ+KNfVtMkeTF3NOqh91OQBClKZrY9+9O45WRSYUfQTYrQ2Y8fBMu0WEkqKG/AAEk1JIhBP9AR6hN6iviJ7ykYiTTJ45GFEED+uYeWPDxDyhK063n3aHDx02e8jh1NGjx9zYsWPcaAMLhhjvoI1TSur3sWGBNtYSTh72nhRC1jUn8QDWjANeG3A2cKDRzNpgXukXmqGRtaPoOn4XEIgd4Pt6Hv0G/1X/CvkWeCMAWBHLWmesJdYr84d+sxSAKMoIGfPFaZ05unyOncWpRk+j43geu8pJ8I7t221tzpo92w41kCkBbLRJe6QcnW5vtwgNn0J2weabDRsbH+a6I4pMhp+KFFNZAHiFHApIYe1alECfejdi+HCLzkBuWwa0WJ0M5kPfYSyMWxFsCttnzXogvtVNnTbV7dq9040aMcqNtEOdVnfq5CnrE8ebtcBcslnVWsJ/UropuoV2Dbh0zmTLaixOmeIjvQ8fMp7hI0I3fgN2nDHznVIAFjaNyAyiHkitsMh8otXr6i1qg7+RW/mY6FXeQz4UdUjfyI14oShvxgftrAEdPvEcY8WOofdZF7Sj+ofI1IZNGy36ATuCjpk6dYqNYe8eL8v4bqY3Zsww/aM6mvxNW4yJ5wGSSStiQ0cpAqJ0SLWCFtYC9CIjnNxv27rVviuwTQcp8Ju5Rt+zHpkreM93sXl8B56zRtA3bLQEvjJ2+GSboeDilmy2QBFYSvMrREr5iCkVdC+k+WVrt/hTArDQrzNn3mCyyJrA/jLWcgBWaIsEXrHe/F7huMkBP3zGOv6nf/5nAyfmzJ3rfvPGG27tunXuCw8+ZFH4zz//gtl1wBj8k5Ur73Ztx4+7t995xyIu2KShl9Ebr7/2mps8caKBTKSP4R++8tqrbv68eWab2dQRSbRi+XKre8W6fOnXv7b9BT+7du+29zZt3GSBAqxD0pbxrTnwRt/cdeddburkyQZoccj6+OOPm1+AbMGfz33uczb/+DQEGWzatNF99rO/a3qWekYCsKj1pXTVP/7jPzab9i//8r9NJkm/Y338/Oc/N5lh7MgZ9nPNmtXm2xw4dMgK3CsLAL50XOywqCdsBnocfcwmExvO+iLtDJ0xb95cW3P8DRADgIW8vvzyr83fnDNnttuxY6fZYsaBzAJ8kCqHXVm2bInpJNK00YO0j70EVAS8+fwD97uFCxa6p595xq1atdr90df+k+u40OEe//u/dwsXLDB7wHr9wsNfMPv1t3/7t27SJDJuOmxdP/LII27Vqg/chx+udg899JDtK1/41a9sXqHlySefsMMK/BV0KMAFtak4BMc3I/KE9l995VWzN6xrMjyIMmJO0ZUDBw20QunoIOQD8AJwaPPmLd6u7d/vli9d6pYuW2JRiP/0z/9k8oFdshS/h75g/6/fsN6AmDs//Wmj45XXX3OPPeZlAnmxcT70BTd37jz3v378Y1tL1AT74Q9/5IYOG+y+9KUvmWwA/C1ftsz0FO3ef//n3IYNG90zzzzj7r57pZs0aYp74YVfmd9+3333mY8L4Im+GTN6lHv++edtLoYMHWI+xYwZ0+0zQEl0+LLlyy2SCh8JQIatFnspz8uhrqlfX9Oly5ctt8itbdu2mkwcOHDI6l5t3LjJtfRvdl946EGbo//zs5+7xTcuttRbwFkigJg3bMDZ8+fcd7/7XYvcoz7Wt771l7Z/e/DBz1s7//iP/+Duvvsei366/fbb3e9GEVikeMa+rQFYZ2MA66tf/aobMGCggagcAu3bu8+AamR53fp1pptvu/0222M99fTT8YES9vOGG2ba5+gI1hlyNGfOXNPjzz7/nGs/3W51ydBJ4AL/9vOf26Hlys+srEodagOGkregRkX3FcVaSmeXiujyANZzZh/hP/oCoO7ZZ58xv6ocgJU1WgwfjD3dT3/6U9OJ6OSv/dHXLEWRzB57RTmgqQDWX3/vMXfnyhV2knfu3BnbmLE4IBhHAmMdRgEoggmHR1E7TCZKDWWOosRIK/xdp6+KvFEqkNUjOnzYFCiLD6QT5WqnrsOGmrPt86Ivu9OnTttGAQVOX7xHO6q/IGbRHoqmL2kY58/ZGFiQ/rRzoDvZdsKEC+cXo4CTQ1tvvf225UE3Nvo0JTYIAGA4vjg+9IsBQuHj/BN1pJxnlBIbWRzQAQNJjToRFwjlNOT8ufMGYOlUkfmQY4nC02k4NMJPOSoYBn3GuOAtf/Oc0veUPqH5YjPA+KAX5QUv4BFOOPOBIlYaAQaE/hUlg6HFKcVZU5FTHCnlujJ+pTcSskouMHSwgUGZk1qB482mSul2tM/ixTghHwJ5WOxsDDGMOB+Kpjl44KBP+4qizpBF6ENh4zCyMaBtHDoWljciDUajnYy1tZlyZA6RWZw/xgygiGHBcPIcNHFyxGkMeeOAMJzW4LhglHAOfFrDYMs9FziCfGIEoFenspxI9IvC+bnVAj5Irjld4nQFZxUwC4PJZ2x0PWI/MXb+kUM+wxGAJ6wDpY756K7+Nvf0Bf8EYKGvcI7t9G/ceOMJABZ/wy/kAZ7QNk4Z88tcAGbRJ6d90IfMCMAKkfUwnF8RWIyfedl/0K9XQArWAOseHgBgsSlQWhDzAFDBiRVtaxPMWFkXNufRaT8yh1FA1vgejoA+Z81BLzKAQROYiTwA5rEG0Vesa55Zt/Yjd7HDR+7RLk4U+iiUEdYFuoD+GRObG+Z47Nhx5mxg+HGCWLOAb6wn6jdwWQM6ov2UPzVng6loAgFY8I62JA8CZhk3z/O5xstYBGDpdF6145Bx1ro2cehLAXgh6KSTjnIbDeaFtYmsmH2IrmdGBhQRqFPvcNOgFEIBWMglvGde2ICgy9EdlvLNqW0QRYMzyrhYD/Dy8JHDXQBAjD1pWfTBuPlRlC1zQ9sqsA2/Gb/Vuqurs9+hA5qbWzyYDOgybPgwcxw58SRSCOdYNfMYN/Ksk2BknzWDrWTDDjBx4QJRwBcMXGptBXSkmLxSlHyKIbLKRhygCNmCFt6HdtpUOr0i75BrfudZeMSFELTLeAUGMgcAE6wnTkRN9vo1WxQU80FNqkNRivnUKVN8GLtFDjmLJKJv6jlwsoh+pgg5bbFeSWsmCgDbCB9xorGz9OHTJMeYzBJVydrzKYrjrB2iK1kjAmlIW1AtJUXkoV/RCWE6v9K04D1rgRcyrNNuZB/ZhifMNXQxN4yDF3NMm/CN8fNd+Mh6oV/WJO/jYMFvhbqjB+QzYONBqNDv9IH+4LIV0jZGjhgZHxTBR+gyfpE2xGn5tGnmvCN/ArBIn548eZJr6d9iB2/ULcP2sXkO05lVz08XjyAvAB/QbnwYPjyKtPKpYhx2sIFK6kgBFSFYxJxt2rzVNffv59rbT7np02dGabuH3bChw2xDDj3MJ7YUX4Y1iMzzPzxQ5Bsyix1lDTFu6DUAC5t1BBD/BqMLGWGs1AFDDgRghbpHNgN9yByy+Wnq288OjdAVrCkA1fFj/SEgz2ML4btFypw/b3LH34rCQzZ0CCZasTmMhXGwdvmeDuYYK9/Hz+F9FZA+3nbcrd+wwU2dOs1s0eZNm+K1QPr70VaffQBvaRf5YV0iVxbddvKk45CEjQg8JJqA57m8xa+RYxZ1cKbdl1RgXIAWyDNrFp2JfCtK10DwIAUYParoXXQJY4TnvA/v4I/8XsaK/CsyMan34WtxmxACWJfd5csezOYQMtz8aO2Zz9ajG8m4Lj66rflyGIHl17l8NvxeHbiF/aelD4YRWCGAxXwJwEIXEL3xyJe+bP7bK6++ZhtNNrtE3XGwySZ56JChVp9oypTJ5rfwPgW78dc+fccd5s8RgbX2ozWub1OjARrM2RtvvWX+FIXcActIm7vQccHdcssnTNbffPttN+sGDoX7G8iD3gS4xQcksgfbqIPJOf9B3x2fvsOAm7q6y3YpEBt39KYOBejr9ddftykeNHiwRYcQXcUeg4ia//bf/m/305/+o3vuueftkBPefu1rX7ODYdLH2GwDwLCG2CyyD+BwAnCFZ+EpQMmajz4yIJ9NPb7Z/fffb3bwN795ww0cMMh4hQ6Hp6wLX/Khn0UZwXt8Q+QVX3rFimW2/ohssnSrPt5OQb8vBXHBQAxk7v1VH7hjra3GU+oXDY8yP/AHfvGLXxjdpNKxVp749yfcmrXr3Nf/5OtWZwrQho0v+zKA5Ie/+EVbN9979FHb+zBf2E6ibT74YJXtCUhZw7Y+8cQTltKFLaZ4OOmLrLW+TQ3xIeMrr7xi+vjee++zfTK8AASFT9gTfjl7tt18C9JRifRDhpYtXeYWLVrsXn/9N+aTsw85SuTRJ24xcK/j4iX3k7/7iXv73XdM77IGfu/3ft/SQ4lKYb/y8MMe0CKd8N9+8QsDqYiQYv7/5Ov/1dbM97//fTfiP9JiBWCNGj3C/cEffMV49qMf/choQDfRzsqVn7FoO/w0gIn6+gb33LPP2X4MkJS9AZ/TLraLOlEckiPLDY2NdokJupBDvPfef88OtZjrT952m4+YcXUW1UYE4J69e8x+MC58FtaBDkvZe910082WUszaIBWSKJy1H611n/3s77hZs2fZPBEp+ZWvfMVsMIcD3/nOtz2Adccd7lvf+pZbseImm0t04Q9/+EN398q73auvv2agk0VgUXssALDwiwRgvfjiSybfyDOlA1jr5lf17ecWLV5kIOL4CeNNHjdt3uxeeOF52xOqzrAuV2IMRMiRkor8YmuIqsRnJRoS8PvDVats/XKIzg+2Qb6N/O9K9Cv2hB/Gp+ExNuYAu6RXMSCpXEQXuumZZ54z3Ua6IGti/fq1BvxBfzUALNKY9x886P79ySdtX8c6ZW4+edvt7r577rGyDR6k86NJBbD+5nuPuTsiAOviRR8ar9Mf3dSm2gs4XTBep6wYNRioFDfVEVLxLZQPwsEE4XDCcG12EGRtShRZgIIHGKEGhT99HWTGHzTcTiAHDLQNOEaPxWinqB0d1j9KmDYxTtwqxPPQgQOFk4bjeOjAAVPUjAeGYfgZDxFYOCBEWkEjzg8OCN9l8VEwkVsvOIGg3T2R4kZZWxHokydt8wpI4tOlqPU0xNf4ucCVmc1xXRSluvBdOW8IHWOCD6pHwiYbWlGctKk6YGHqn0CPML1CaVnMFX2xmBgjzxCBJQALx0/RQCgzpVCh6BAapQCFABZ0YhA4MWCe+I5AKYpZ4uAiD0qXwPnUrVjMNfyEJ8wFOdHkiysdk7nWSTYgIbIDzeINizIEsBgfMsX8S/nDQwN2brghThnEaZk4eZLxdcuWrcZLwDpO3UIAi1MjjCCLCMcBfmNw7abCKVNMVllcUl7INfSy6WhuaYkKMtcbT9joeaBxrEX20Q5yzFiV4sTcqHAt7zM+5o6NBmOAXgwIc8PLUiYoat2Xq5v7uUOHDxs/MMJHDh/x9bCiFFfGLACL8eD0hgAWDjKnbvCOMWhTrXRJNgjQKQeYNlQ3iLZY9xh85J6TF064kCWMG4AtY1PKBpsfqx0zcpQBCdq0MlbWrWq/MBZtnhirogxleNE5rIcQwIImjHQIYHHCM3XKVAOxt2/f5oYNGRqnHSnVDF6wLuA5YxaAhUyuXbfWogUY14EDB825sg3NUX9NN9E2AHZn2k/bKd+Rw4fjiBSlCiYBLMbIZ8gGY4b/zK02R0oLhC76QkciP+gv/mYe+D7fVQSLNpsCrJkv1VOiPdY87ae9aAcZQf+EL/ghvqQBWKrVhP5U2jZrRfMNDWzgFFFHEXAcI8aq2joAWZaafvq08aGxscmNHTfWCstqk2rRfGPGmOwzJoum6vQFeZEHi5iZNStOK+JZ9BA6a+DgQbaGxo4Z6yZOQs+vtTkeNWKE6XVkCD2BHlPULjoVnqGrmKvjJ7htbrTxh3oQjIf30emkze3YucPoAmzgoISNOGsY3cZ8MVbVM6Md5kzF7ZlT2uUHMNrA6ZYWN3jwIPsOL5xi2iO6DzkwPT1qpGs73mb9CcAicpV0C+YNe8H8oFM4ofd191rctm3bjZccADF22oNXbDYAFqhvwgELt7baxuSGG2yDAX1bN3sAa8w4D2ABiMDjU6cB4AdahCryz0up5YqkUZ0qpQDyDHxUOjgygQzBK+YBu87firJFRtn8IE/oMtpR1CPrGDrYKEEnY1HELvxlrlhD6HnVWGRjOnY8twk12vyzftgoYpOIDCDEH/4phZg2bcxtbbYOOy5dtFQZxofuwh8g2gma4Ru3cqHnT1udLGqs+Ovj+S42nHEjz9CN7Bw4eNCiCxibaoJZZBEgb2Oj8cUDCv52U0UE8b7qIsG3DRs32SZ21OhRpveQTfqljodqnsFTHHzWkSKKiLYIDwmKAVgUoqV2DiAtvqRtWPs1W6SICpQL1IQeczQjeyGbzzhZ00QEYi+xF4CHyCTAtcorKAqXduEhtDJ/6DLGDC+wjfALEAeakREB/TyDfWKOGCt6U/Ww0Gv4I2yuBGDxfT4ndQnfkgML2VrWiC7UoT/pYgNWd+2yNcL6woeATmggcsZA9H7NcQ2xcePHWTQ36UrMC3PJ/8y7/OEQwMIOquYbviUygNwr5ZFNIGsbXqF7sZWMVYeR6FCtKV/vx0cHd98cdQWwOjoumXyyGdPBhtY1Yzc/2CIsMl5nFxsWACxfT4uIWDb2rDnaoT1lDXC4wDiSfaQBWOhGxgadzLkisJAJ+KSDsx//+G8tsnLBwkXu3XffsfX7+7//Zbdv3wGLJLj9tttjvnKAjnwx10RiYDewF2zWiE7ZtWOHRduwxohiff/DVQZ88Iwi+PGvx42f4CZMmOjefvfd2Jbja1K2grmn/bvuusvkg5QiQJwHiCyav8D2FUTzTJow3iJKfvazf7X1BtCAfeLGNnTfkKFD3a9efNFSsDhYgafUvXrqqWcMBGBTvm7tOgNMSP95/vlnTdbu/Mxd7uC+AwY83HPP3aZTKQKPDqWY9+LFi6z+EKAEdgQ+cOhHVPCqVR8aDeh91dZjc8vaxO+DXkXOA1KRRUPdK0BrQBDaY917H3Oe6dbWo0ctUmaU7Q2P2XPYkd+57z7TCdgl5IHaXth7xsJaA9Bau36D+/rX/8TsJADW/PnzDBwkivK+++61Mb3w4osWFaPbYf/gK1+xembURSOVDrnhdj4i54gSBfxDV964eJHr39wvPtAH5KMdUhbZRsPjJ/793w3wvP3222ztvf6b10wn3XvffebHvPTyS1aPiXlfvXqNRe3iV+7csd194uabDcDCj/zJY39n650oQdY5NcCWLl1mt0sCqPzO79xn9v25F16wlK7/60/+q63lf/in/8/NnHGDgZI//vGP3cjhIwzA+sEPf+AaG/tYNBX6AbCNaCUANA6umGfmGKDvgc8/YP7Nyy+/Yn0D6MJ3fEOibAB1qRNFYALjZ66RAWwe0e7Yl3fffc/+BuShnhy/cyCHDADCnjx1yn32dz9rMkNaIb4L+gme3HjjErd1yxZHlhJrguLxZPI8+PmjkjaaAAAgAElEQVQH7PARmx0DWFGJHwFYd9x5h/uLv/iWmzx5qskyc0IUFXP/yyeecDNvmOEe/vyDPm39/DnTRugcDiDRmUQcUkML0Ba9QDrsggULzY+6fOmSpf59uPpD19jUYDxjjkmbxH9FJ0AnQTG0h4+AjFFHC/kEoMYuwX/WD+nHjAUbDhgE7gBd+C/wUxHH8nGRI/R7MUCL90mlBHw1bRwhWOwxv/qHX7X0yhDA0thTNwNF3iSr5pmnn3P/9vN/M/vBZQ8A2YDV1CcDwGIes0ZapXVDuiB13F57/XW3+MYbbe+BDiXi8pGHH7Z1aQBkKQDr0e/+nfvM3TcZskxRRxY+jEcxaAOE8WLSUaYsNgRBtSroQEXfUTYyrkwWk6QTU2/gj1ibKE4UKn0xaSpSSdoGG3OEwANTZ73gdXpHXYU7MQRhqh8CAI0sHrtxbP9+O4lmIbEJ5WY0A1Y6LhqYxLMID+PAUdq+c6ebO3eOTQYgB7dBcIKPE8MYeD+ZwqZi7xh3BJhIDQAs+jl6jMLvnf7GEU7BnDPaVYwYfimXn3ZR/BaqHxUSZ8OhzSCf8zuGGjpUG4HftaHU6Sz8hO84ApZi0q+fOV7muLW1mRLDccepUY42Bl8OMm3yHb6vzSKLiTmzk9QhQ2yuOD0C7eWk4OTJU3GtDhbQkKjGg+qVaaNOezhIyIA/hcYB22tzQC44ziBRLZyiYIigxSLzhg617yn1E/p0Qsw8Il9sflQ4HtnB8eR5NocAHhTIpPAhGzAr8B454zishHziYKBwBg8abGNlQ2k8+I+aCQBl4gt94GAi54o2AXQ1p45C/0Oo5+JBVZQ7soOjP5hixFENN/jC5xglOZ6qGwTNgDHMHZ+pXok2ttTd4kQNvtA+a8eAAVKJIvlHTphnNs6q2YFx8nn/C20ekX1kEbqRL22qVdyYNSfgWWNnzph/nlFqD2k1nDaZgotq18GH/fv2edB6xAhbyzgq8EJrX6As7UCv+Eq/PiXVh0ib8opu6mLjx7OATXymSBd4ZTdGzZxpaVaER3NixAsgmfQx1gwbuDDig+8zj5ZSsmGDlxnS0tastufYdLF+ca7gMzIJP+mb76iWA/IHX1TjCBpZz/Cb79GuNqiq7Qdvw6LxyAQv6NSGQyfzikBUjRRkh/lnPhg7L9a3Uk5pG9kREJZqOKJr4dEroXGjHb7H/4xLmwtFYanGlGomCQzSSTFtwVPGT2SJQBGfRtjX6l1wI49SKrFL8FfRhar1BA+QT8bMmlDNNH0Ov9H/6DqeUW0Q5NGn5fl0TeYY3bBzxw4LfZ8wcaIBkWwUcIhpWzeWMX+WStjW5jdY5vD49QUQTQg4gIfmQ/WIAOEZm9JidRCBTMMHnpeMwlvZC+jGeWGepRM44bTbrurqTD7YgKCz9lJ7krTOzk47JKCehPSu6ibyHdYOAB6Ota+lhFyctnXI99SPlQiYOtXaY/xW7+l0u20wp0T24uTpU277tu0m21yIYdEvbW32O/wlxdH8gH79bJzIrtJhoUnRS3xfKYRKoQ39Bckba0q1klh/yB66V/LMHGOz6AcbptRqpV0je1oXqgem2ynxNdhszZoz22QbXUCah0CimUTRRnU0sQ9Kuze7vnu3fUZkH7JjG7Ho5kIBTRTxBTDFT1FEMnKIzhJQB2gBH6CFuWQcAIjoFNYRnwEm4iAryh3A8uSJE3HKJTKPbqQN7DJ07dm7z1I/p0yZ5MaPn2iytm/vHgPT0EXQwfdUjwu+Ke0S+UcHwFd4gWOtqFDZoFPt7baRhSf4iDiwAE9sRplj/gbIZU0zJl60hQ5iHKYnT50y3XrWonM7rD4XsjlpwsT40AIeIAusGxVepy3VPOU9xg29ijinHx34CLTHLgPO8bcBfBs2GB84sGHuOXQhBYzNGXxg40Nx6qaGRrOjAHXIH7LHeJRlIJ2Hr2nrbNAg17+lv6VLMSbmAv+HlFBtRFgXjEdF4fkubSoCC57xEgCPLtBFJawHHdAqAou2oAu5hHbGpXIErAOlq/McL3hVLDqrUMTdpw6CPULniRO+tqpe9EN7YeRq+Y2Q0hEFdnGKTipipwGI6PEQJEN3Kao7uSFCHmWL5DMLwFL9K/7XmlANLPQfG+K33n7HbuvTIeEXv/iwbToBj5Ad9CIp1kRrIqvIgw7EARngIRvjkyfaLNXplptvtu+/98H7Fn0FWAmwRbkR5OumW242AOuNN9/2BxojR1h0LraDjIMB/VsMXGDd/Nsvf2mbMzbsgBts+KlpCihClCM31HE4SSpgv/793FNPPul27tjt+g/Ap2o1YIJDFaJ15s+bb7WiyFz5+n/5LwbSALyQQtm3b6NF1RBVS/kJwB4iydBj//7EE5bWR2Qa9u+1V183UHfp0iVu/4H95u/1a+7vGvrU2yafNbp8+Qqzz7SPv4XccsMhxeGxq/CQw8PJkyfa34DKAM/oZ6LFLlzwACRrhrXKgS9BCvCd2k1kRZDGBi/oB90NuAJ4R19PPvWU0fif/uiPTF/95Cc/cQvmL7AaXy88/7yVnqGWFyDG8hUrLOWPtfelRx5xG4i+e+cdA/mQq2eee86yEfzm+X1LW0N6sZkcaAt0pn/Wpuzs008/a59Rq4fU6Fde+bXp5M+sXGn675133zHQD4CIqB1kCVoplm4phEtutHo///tf/9XVN/Rxt992mwFHyCRrlghfCn1bmndDg3vp5Zctku2P//g/m456/oUXjM9ETb3y61fckMFD3efu/133g+//wO3bv8ciTJF5UiuXLF1q0clEBU0Y70Fi5p/UP2hi/mkb2YG/ZCMBWC1ctMj4zHfZizMOvkMEMX2j/4neJroO/Uoxc+wLwCoHOdwaSVYEdKFHiSKzy2bI9jh3wYAhaFyzerVPGz131sA70g37tzRbBBbpjRTunzx1iumnv/7rvzY5YI1885t/bnqLulMAwVxIQOoqkXRbtm2xqLA1H662KB9ejI3DCmrHAcY888yzxgtfW3eza+zbZDXtxo8d60GoTRvj+nbIpM9u+cD2fvCCNENkmIsMhItQzJ6C/tgIIveQEewcegR9rksT4AN0YlfQO/hJ6F3GCFCLf1kKwMKHMQwjUsb8zxrlMgpsb29frE/256zj5IEG/gR96GCk8kMNTx3f275ju/kH/qDPg3msAVLvwWDYL+iVXgPrf/4vd/c9N7s+DRTw8+xQ9IUIZJJwhBiIwvhR1ko1wpDCfJ288T8MQDiZBBY0TgHf5W9+VzF0BIjP+SGqh+J1vAfd+j5hiTiLvK+QYZwvaEBAoAsa+ZxaK2yqzaFobLTnQcRNgCMhZjHpe9bGhfO22eWWEpQ0TmS/pr5W84qwYBxTjJbCqAES+D40iwYKwWJEWQw4NijQxoZGM5AsWJ7TxlB9a8NHOyHfldIFj1TzgjEq1FDvyWGkXatJEfEcOvku88Dvmg8VFob/GHjmDMeU//nbI9RN8VyrVglzprQMQoht41vnT90Vzs3VtYia5hraoFO00rZOy4wmSyU4b7ehYFTt5K2z08tXBJ6Kdujmc/0dtkO7fG6KNwJSGB/PQxvKRsCFARHnzlk9LOZERlS1cFDCyAbgBc4s3+d5jUVyylzJSZXsS661Jmibz6CP+YEGzY+cfJ6lbdriGTmlfE/pEzplNEeONNLodB4FzEaV73BCwkaS8UsJah7pC/7Qpgq/2olPVMxaURDQwVgZBz8CN/Q3tOr0n3HYJjO+Atp/hxMe1ljHefQB4/bzAICB84Z2CXkhUDakVfzWfPK/1gNj01xrLYrPRIQdOHjAjDGOByckbJIIB4Z3SpkTX/m+nGNL56LQ+FlfD4vaTBgQcrCRzU6uZbZNFycOzvSUl8GLlk4omdd8a161niQj4cl4+B3GIGMlnSt5Mucw6k/6UJGv0qcCtrUhV9vFDKCMhwyDNiwyRPyfjMCChiSAxfe1RjQGzRdyirxCI5/xfjPr3uyL7AUy09fWI8/Z+CKdxXxormU7QnuC/qdvnrEwasksV3BfRqd4fc06IVKOg4vGJm8PkE9FqMk+6HnTGWe9bqRNauIhR1x7zQEIMh1fvx2l3XJE0befX8uhTEuvS0YNGI1uc1F0D46LQAWtDdlE6TA2P6IHvWWya9dB+3SfUE/qSnBqWmHPeBF1RDUB+MBbWm8AKYD0RMGJt0Q/a/6ZE/wC438HaV+XTDeyEWWdwpPQXjB2xsBcy3ZJp/Een2meZJ+0tulf45fcSnbC8UGbInPCCAzGGfsAEb94jn75jqUqD2ixv6Fd+omzh/79+sUnici4yWpzcxwx63noI2gZD6AagJ4K88r+MkfyjzRejZk2FFFl6ww/yHwCD9J7GfF6wHyFyF6wydQcq44gdCgF4QLRoGfabUPM9/jM/J3Oy7FNhA+KYBJd0p+yifRLm/QleUWWiBQjwgsHU1HgyIsf6znbgCNlkh/pEIvSjejh1jQDJgBKLG2ZdVVnPpbkge/rO5pX2UXpNejiJd9TPoXJaeRrWARUc3Psd8AL2lNqNDrJ7Fx9nYG7PjJtvKWS4auJL6Ed0rqFVvELPgLy6qIfwCrmjFvk8GM0jzyHvaA96n3wCm2p9Lx0OTLMXNlaa2qy+RAQKT1IW7QrXsgHlX3WwY/6SrcDXSOwzDu+jNj4tPLwJR+g2wdF30gAWFEKoasjVdH/FHslP0+zQ8UALKUQyr4x961Hj7lL+CL4hA19bJ6JJmhvP2NgHW3Bc0A65sBHJbMW/HusP0BPojLQjYAq0HSCy4bQL67OAAzmFt2IPrfo9BNcPnXO7IL8VfmnAJiAwewX2KARUYVe5wAfOgcOaDEecaALfQbyNzQY+MfBBZkiLDrsBrQT5cReA6COlDoiotjHENXEGLB9AEQAyOyj6I/1gM9On9hIaj+hiwCzuX2MKQLUIWoeuWJPw7pnbUE/NgVaPL+8rqFNDgbQoaTs0R6HiYyfufD2GBvp9Rz+FW2iRy5d7LA9AemP+Gy6QEX2A90je8ohE4coZGqwjgHb+zf3t8NzvieAF1AU/vA86wlw2dPmy9YwRoINCDxgH8S6MpAZcK2vH6vkz8+Zr8nDeCgVw/ehF//25El/IRfPMT+kzp04wYUhHTHPyJagNuGgAS0WXYYuIpIJo8zhObQB+LCe4SkgCfsQVhOgLxt9xsCY+J2LXuALv/dt8tHMj37ve65lQH8DtpgPXfIFv1RDk+cU9e99x0u2FjhAMb3VwHy3uJaBXKblo+YAlwRm6+AXPw5dw+E8t02iT9mLMOfoQObBAPuhyEuDrQnG4X17nhtkMnDiuD/ApV0i0SnfgH2gPfpmrlhHl51Pb+dz9uh/+qffcLNnz7XC9oyV+WYOGEfbyeNuUH9/wzO1s7xO8LqX7ArWHwdytv6b+xtwZPaGS7mammweWRdtJ0/YGrX5b/D1NNETzJFS9XQxDG0zZ+gFcAPWN3W1zceJgmB0MI8M+Wytftae9DlySl9eBoq/5KOl6Wq1lV1fpz9ZrA/tUXrbPt+H5/RjfmtQziTN5qQCWN/7zt+6lffeYo4qNjHcQIW/ywiqYW0wQ2MUPqP3w/fSBqz2vIODAS3k7cdtRNLH32ntJfvS+ZGejT8vUhPgUmxQaR+TFEXlRSdRkb9pnxkpESio9pkElAiFbjE6Us4oCU5mWeASqnCTKEPL/+KDNirFNp+hgVdbSYHqNm54G40x/Ez8lGMmOjRPYV9hH/DXt+edEaM9imMM0o27OStd5COqzcZmyPdbSHeqKzJPJiMJBygcV8izcJzh+8lFyd+g4fxwCpc8aVR/aQsqiyMW8jhJa9ocq7/ks7HcBIh0gffYwALnk3SFYyDCgJNfwmC1MUyuy/B5fZbkoSE5wXzY58xbFHHYrU0/ybGch7IvuUvTJcnnwtPhkCbWMCcZnERzw4yKVMdKL5Kb5DjEQ/7HmaNwIyclnKLGui6KsPNjCoraRiz30TreKU/qwOT7IV/S1qkUevI5yb74ob/T5DKrYQnXfSh3WiPQougrgcEYW05fMLyiRTzsMleWuu7n2z7n8EB6IrGBsY1tMD/hmML5DtdSqE9DvRCXH05ZJ7GuKZMFUyj66en3s+5cveEOoQ7yDanPcK2UW9s4VjhjRJExLhw8dA9RFLrcQf2yrsSyWA4C2esiR5EdLcgdfK834BDgTTyQzi1GZziWSNPHp33MVTS7XfROOblLWwtJnZ5GT9huWhuxbkyxcZIleybiTWFs3qmVjgj5mNT7ohOHF/DKX+AxKb5sIklj2XHE9i+Unq760aY4WCvJNo1GB0DX6QAHvJRGAAFOIfMepBEneVfMfmmsgKBEW/uLLGbGNxFqrHF7CTrDz62tuLAszqpNg19XXnHGerObjQn0aahbis1T2voLxyz94aMZfd031ZTi0g70UzF7neyfaMXDR1otwpMNEZHXferrbBpCH0hzEspe2EcoN0nfr5Q9LNZGyIMu+rjb4kwBsGJtVm4ll/s8CWBFHnV0QJ5GY3iIEo5b0VehLSoGYBF9BYjVdS1G5egjfyWmLOFHhnreBDReTVGhZPNTWVNeRjpt5XWd6UiQY7EOzYxxQOtA+wv7W54zaznqN1oTXdergL+6SGH5v2N64s4CHQKd8qUvA6p6znRZZ9FI1RcgDqDur3/9sqVWUUfRR5vMsygiNtfmq1vSQQGMTDep2hsUPqXWmmmqWCd4feDpMom1NZTUTd10Q5AWe7nTg67ouzT/MKkDxAMOyzox9qaUYqmMdFJnGd2rPRu8gM9ePozO2DZrJ8mcRGMi0MP8INPUJkeix/tABek12yU5TOjJ0D55n9QZWPPoo4+6kSOHuz/8wz80H62LbxAsjDRbEs1CSID97u19V7rk08XrJtxjRo/G3pF4G7VjPI/kztgV+VW2i4wOOmJnI1qIl12hXmvnZWfA6Tf+9Btu2fIV7gtfeCg+xPR2xc9HCHiEGqmw1gsRorQZdeV5bvtRP0P+A7/aY7mU0JoNjlZutJ69bxTxLRCtkFddGBq1W2yuks/+tv5dHMC67xbX0AcE3wNYWlACLUIgK/lZmqMWvpf8vZxjV+3JicGsQqpoahdBsHOPSECwcfgoFkzOLeOkVpFF9EQRVj1q+Br+Uq95FirFqzRODB7REPyQ963w+6tETs27xTkhnJscb4EQ1eq0t/LQGzroGwALIJJ6AswjazC9ClT3nli/nK5s2rzJwqxV/6QUTTKKvaH7an9XjlAIApiD3tlZNoWwGO1JZzaUi3A+yuBIVWdNVvksRj+0V2vO4S+ncIpqg+ec+HISHEbt9IYJhUSgAkiTbC9lC+Y3GIndV/hncmPWGxqv1ndD2CirjoBWNtQAWIA6AFjJq54rHU+1eRlvGuKNcaUUFZ63tP/9+81ecPsaqfBp8pKlB42z26Y+y5er/Aw0sP50KQkXjpDqyQaqGKiXJIE24Iul3Q8bVkipKONnVnkoH5vmQjsU2iLZoTQAS9kYAFoquk8aV9c5DCQ2VXknwAtxNCmo9rcgpgLb47154bKs6MMuqEzhC10Qiujtwol44laxNEukdkF5EsLW5fGQsuyONht5+Er0Ful+gCL4iXZ75siRFsEVI05d+ktlWFdGxY8U4U3M+1A7FxHx8EKBANzJun59qxHYlKaES0QJdp99LxtqMvXzoA8P4cXfKHyvmINS1lHy/MSXoGg7l858+ctfjjOkKlcSSS0fClpS6Mq0bmhksCS6yEDXAQuuAxDys1OQ4a6iTSryCfftb3/HLV2yzD1w//1xdFyBmoL3E46m2xLpRo8gQ81QOK+hAhFKmdQfKZNVZP5ywKoyyUwFsB797k/cyrtJISQNoyuAZRvAKDXL0OAwHzF4P0nGtQhgQWMljmplrE1/OnniWY028zaqzwGFeJcqfF39Xq9Oi0pfVUrF1aGiNr0qLdnqVzU0+BPKCrpSeojSDK802F4BqVV7tCcAliKwsjiLoSsaugZVG0CNG7oS9KdFnlRjWL2hvRSAVQ3arnYbIW8q0RHQrVRwDqaUVnK1x1OL/lnfYVmCaoy1NzJZ7TECfBBRygYdnZ9Fn4U0KNWR1BLSQbXl6inIV+3xXU/tpQFYAq90oKJo4LD2leSzOICVgQtp+/USX0uzY0UhlzgqI2owil7t2nwxy5gFyEkQWhbsKDKwBA+s5y6gSzKyMANfSz7iI/hTX6k86m1/V+j7FcpSKlU9bIP1wjpAT5M6eP35rxk9xDoyAzotk6S5X//oNuUkJwsAVmjfw0O9dIkoAmBVIj49nL9KuvhtfLb4LYR3r7Cin9UAsJKLJu3vK7mwspxC/zYKQz7mnAMfVw7kaz77zOYAVmleXUsb7uyz6p/sDe05gFUpt/Pns3CgNzKZpf2r8czHcUxXmo85gFUsFrYMIlWtzXIOYFVH5KsxH9VoozqjucKtZAWwpHH95RDpr6g0TSJIMQewrvCUVrG7VADr+48+7u5YCYDVxwrihXmaPYnAKgVgJaO4qji2vKmcAzkHcg7kHKiQAz0FsHRZQYXd5Y/nHMg5kHMg50DOgS4cuOIAlu17ld6klLZueYBFZyk7xpDlyfCZZMJThpCqMLOpt3JVyNryLVWz7W60FQMfMoy5t+Os5feTPOxJX+J7TfnfE8JKfCdOF+xNDGqxtaB+s6Uw1rnO1HT38gCWhD7sr4d8up7mrodDvJJfS4/AevRxd+fK5RaBxYyHNbCqCWDl4NWVnOq8r5wDOQdyDpTnQKUAFimoYRH38j3kT+QcyDmQcyDnQM6B4hzIAmDpxuaqpBAKwDIcqzcb7mrPahVSmKpNUt5ezoGyHIhqQRn2WI31lDEaK4Uu/810qCq84C0tZdyKyBepf1bqM5HR07pWWdouNQXlvl/u85D+SvlSVjSiB4rRUI42fR5KFSn7dZ2dnZf/+tHH3B13LY8Kx1YOYJm4JnKZ02pg5QBW1mnOn8s5kHMg58CV4UClABY1YyhwX+0LAK7MaPNecg7kHMg5kHPgWuNANQCsKVOmuBkzZsQ3SfobOdNGmqwt5be8tS9tki16pCsAcJ1HI11rgnYF6CncGHwFOkvtouutxbWnIn09VaffLGCY1kgh5Knbt+y2wMKNpGF96mK/Q38pMKvY5yEgU+x34SZpfRcwle76y0Mt3UE2r7v88+VAtKwgXXSho01jchzh2MPn0mgv3k6hzl7p9gs3mdtzznm8ygCs7z7m7qQGVlDEPUwjDG8gTHtfBIefJQW3O3gVXD1ZHSkv2kq5yfSGq7igliKvfNu9GZynq9Qi6k3rSaHsbVtpc15r2mvVfk3nNboat1a0V3ser2R7oQNZaUHdTHQmNW2mL2V7qKYy0+Xa6Wo5tN5pTwOwGLFufeJziudy6s2NROkRWFG9geAgo+T8JbwLjC5XS1fyMnekGCtSsjYq2ZxUQjs0VNJ22XV/hWn3FzFl5/3Hkjepw6+EK2XsdFr7FcqNiXqpm7Eyyo13cLuvtKLzWgXe1HatGmPSVUcKT4rrmIK/lXymEltUS11QTE9WPKfm/CVGWaE8VlOPXb5csENqVzxP3kKIHdLtg9glFXHnRsjx48c5bpTstkwyqDe7gbKbcHTfGCunzjfJd0JQKh2g8s9Gm9FytFg0WPSQFSKMaEgjJZzH3rgFhX1/6XVUZKgaUkhit1WZ/G6S9mQjWZ2BcrSrnxT+mTsY9RM2063JFNrjvVk3ZRG8UW5MvaS9FIticYjXdVcwpLC3DC6VDGWoHO2pnSckIGwjGGsmvltTyetVii2CFAAr6K/Yt4ryT8svzeRGF1fqu92WXfBGFxlJEqELMFPWba+3KSltxzYioD9VZSQXcbiQi/gxIR9Ducq6hJPf975O92+jo01P1zm7sdsArP/57R+7T9+51AAsvsUNBiEYxe8CsUwXBLcR6vfwcz2TNHBdo7KKX0DRk0H39jvQj6Hs0SuLEupRw12mNXtyfiV9XRHaKyEofzbnQM6BVA5Uea1i0OToJzdo4aZBQBYbB65pBsBSBBbfw2B1udE6qCtSFJNKGMKiG0QzYukef9a2jZeGdRXx8Iukj1TSfnH6e097yc1zGu0JB6uLLFUCXFSD98X4XqztGtNeyZwm/ZcufCxCfyXtV01miiyRStdUJbSX5k13Iauo7RqvVdMFRYHAytZrUZ2SpsBrqmeuAz1ZQhcAYOmludHBShLA0mGKgCzdIN3WdtwNGTLYjR4z+tp1IBJnLkUxgshUlTzTSe4Ug9Sn7iBqOrDmbWOGzqLola6MLdFmYga6raouDkPBLsctdht4kb4iuqz9YswK1nqhFVZuOSTRD6Is7VG/3hcqtsMv0lePeJ+GMHRluFzFmC/WTxJ5SfA9lefF9UoU6lN6rfWA910xr8QKKSLz6fNfXD6Lz1UwnFTai5+ZduNUGkIYrreQc5XwPqPMxPo0kOEiHnB3OS9Fe7HPChq8eAppJtq7++r+mKDO1V32UbKdly+7MWPGeADr23/5I3fbJxdHIJVPIUwCWAKqBGZ5fdG94LveT5PqrlFYwMKl2HnlbVCxU6wrT0n3Hg11NAKvBWpyGnIO5By4/jnA8WN9vJkr2OtOA/P9zyXX2XnZflcEFimE48aNC1II0ePXli6//ucmH0HOgZwDOQd+WziAY+ud22QqYRqARdSVoq8UgXX8+DE3YGCLGzlyZCZzFJ7yF42mycD+ZJBJuHHU78WDWcqDQGntJ61tsbOtSs68wq1FNmtenvYue/QQGwh+T+NNFlrCsRV7vjd8z0J7BvHI9EhxOjN9vdtDVks9atS22RGz4veib6TJka3BEt32Tt7VeraNbKl5TaOxnLwXoz0cc2/moje8ydJvmsxn1QXlJOlK0J42+5XoGgAstTF58mQPYH33Oz92K++9xfXp0+jq6+tcnz4FACtMHwyLu9NIsagsPusabeU7TUsj7HrFRXJ6sg2t3MR0/Zw2CUtMbwVgDQsAACAASURBVLsylVys53LLqDKKC09HKGSmr/eEhtK8KXTbk7YzEd2Lh7LS3tMuqiMZ6b2XartaayJtzqrVdk95erW/V8s5LTW2pKmopp6rdE4BxgubBjMOnGpa2qAALECsTtswFE8hDE8F/e9ZDluiigQ9EgQP6KelefVeF8QRGqntmzXrMWgXRn8UPykv1n75+Q1rKnRnbCnelG9b8pG08aUnMM01KmJ/I6Gp+CQ7owT1nDfZOkhvv5yeySZLpWnP4ouU7qfy9tVeede7fNvZeJA2Si8ynsfdAyDK8b6SeS2eYpitlZTVWJL2asypeJOW5ixdUHima4/l5yTmfTc9Wc6nSfZZqOmSBmBhe7xN8qnsYRqhfj927KhdLjJ58pRMurm03PR0Rv33srStqS8ZZVWEDM8j9mDZgIBKR1N+vWa17+kybzuZora1Umq7Ps+Bm48KL86bnvI+y7z2hnrP99J6Ji2YKmufWXiTta3kc+JNMb7Hqq5EsFyxvuWjegyhpxQW/17W9nsS5FI4GC4Wode78UgXlOJNT+W9oMtqkzFXsZ5hIJFp6d/SUkghvOe+W1xDQ5Orr3eWQsgrTB0MI6/0WRiVlRTabABWJROXJrUaTdZ2ShnVZK6tDGw1NpfQnqS/WrSntd0T2ovxphjtxZyerHOh56rFG5PKROfFeFNpqmilvKmWzKSNqZa0018t26+lzFfatuQ3Ta9UQyYrab+atFeqx3wEln5UpwOjy2bBR2Bdst/5UQphbW4hrIaOL6V/KuVNWltXSxfUkjfVsiHFeF+N9VQJ3681PVaKL9XQ8bXkezE9Vi2ZqWRee6Ini/GmGrqgWnxPA4rkQ9TKPlXiC4uWSvyaYvQX9ycLNqjrgYoOTxSJlQZeEYVFDayJEyc6CrmXTLuu1EXNn885kHMg50DOgavOgThpjxpY/ft7AOs7f/n/uns/e+u1AWARIiYq499LGc5icGw5Y5v1ZK4ncG+a8S5HTygbWcZU/tSzZ/mGAcRZVlwr5U0lfKm07RBQy8KbtMGV6jOcv/Ink+mAZbE+K5GNspOSAuKFDmhP+Fqqzyy8qJRmPV/LtrVxrETeezqOrLqmkvbFm960HaUQ2olxZ5BK6HlCBNalSxe7AFiKwGKj0LNbCJNrMxxHJeNP2/iH36+Grklbl0mZLKdrKl1vST2jMRXTEdVov1pthzo4i1xeS7Qn9UC157Ua9qkUYBKCO5Xytdy6q6UeroYey2KfsshjOT6Ust+1aP9K8F1yWW2ZCfVWlra7XyZilEVRVwKvkhFYIZiVA1g9kd/8OzkHcg7kHLg+OJAOYH3rR+6+z91uKYR9+viC7bY9CIq3X/0IrGoyOO1EKe1ELrkhKgc06HSp1OlZb8eRpL3YSWiWfkKnt5RzXM4BqVY7WWgu9UwtnMjQESM6KeRFFt6HG6NyAFly81qO71n5FbYbyma1269F23KwwzGUW6tZ+ZLccJvWK16AsJJm42eruV6TBFSn7a4phLqpxqdrJFM3iMA6e/asnXT3DMASj0NZKadXe8L4nvCmEj1WLV2T0A86tCl2E1VRVlwN2osR0xPeZ53jnrSdhTfF+q+mrsk6xix+R5qeSo6zmrT3hO9Zx5vmj1VTD/fE38tKe61tSC35Xmvak7a79Jx2jQQuFNr3kcCFuoyqeRX+rwgsIoOnTp3aJQKr2OqvpoSlWeY0q1a8z95QWfhusVbqq+7XlF8fvRlR+dZ9JlEajyvVeuVyDjRnYVxFd/oqHW21qM/CqdLPVEp573vMW8g50DMOpAJY3/6LH7r7PvdJ19DQFcCKt+7R7QqqeZV2S6HSDvWd3qQQymCpLfpN3nKIQUvLta3sCmOvuvwpj89PDcfB6U4BzMuSA1odk6hTJ92UoPEXpjxUOT3vEz6TMpacu66iVbp971hc9ClIkTmhKo3RzG2WcWOVmpVgtCXroqQvBOiBtqTcZFk2fI/vh98lQoVx1tcXbugMr3gNw98lM76vxAa1JAHVmdfiXdSy/Vq2nXSEey5LxXkjN6bn6+nq8J1ee0d7qY1DGoDFLYTFUgilu6W7oC60F6a3HbqhWuCps3oooT1g/RV0mucNtR98/QLfb9c1Glu6DLVTfM0w9ad2pG+SF5uU1zdJAKu+e3mt8Cr1lAZ93wUeaPzd02h6J9tperFSmddGNEkb85U+J2k9hLqmuy7oXlchG4CF7Ha3F+V1jdZPOPd6r9SYdOtx99qg4Zgr3eiU5k15eSz1xJXU8b2T1fRRhFvV8vNaGa9qzZve6fjSY6k17dl8oKwAVqkUwmIAVuflTsflIxcvXopq6NS5xsZG19TQEINdrH9uYs+uh0prv4uXLroLFzri28371Ne7xqYm1xD5xRov4/F1h317dQog8H9lOFArzN+FyBY2NTVGtq7O28dLna6hD7fMd61dXJmMV/Y0VHVcvOgAF+VPw3ONv7LWuj8dSi03UTJvNn8VNszKQhcLEA1tE3apr+YsQsvSLxMtDwN1tRNp0JvNThfq+Q7zp71pJftbfTf0h7S3pBN4RXtQwq1usRd0udNdunjJ1dfV2TP5K+fAtcKBVADr//nzHxiA1djYZEoUZarXyZMn3YkTJ2Jh59R92LBhdjKP8KM4eA0dOrSL4u8pgIWRIRSYTZIcu0GDBjl+tJhQNsePH3dNTU22UWFR8jvv83e4YSrNeA9UoLhaW4+5wYMHu5aWFnuPcR07dsz+5tWvX1/X0Nhgizr9FeP0wcfFlFRxqhgDaTqnTp0yxYXyGTBggBs4cGCwKauOwwEPL1684IYPH17CaBc3oKL1xIk2d6Hjgim9uvo619TY5AYOHOAGDR7sMNreCCfNSjbeMBdEfCALffv2LUInqVD0UbjZkkgRZJexYTSzvujv9OnTJn/ItGTuzJl2195+2g0ZOtQ1mlKXHPj/VeAaWRoyZEg0Vxoj/1fmiGR7PuuoYtMUbNCz0FNJ+9WRyeI91nJjRq8f/w1CMd5WC8BiDbDm0CvS3c3Nzaa75BSylgGBBw8eFOmG0D+vHNRCRx4+fLiLvaA/b4+8TqDvtrYTtnnBjrC20akCoQpOWjmgw9N37tx508/YQtphrLTJe7SFLbLNUVNThgUU6kGf0tmtPnwJAIuxYS9OnDzhLnZ0mP1m/IOHDC7cJBzrKuliyMqmfzUA6fqkXiy/Xgt6RroVfwI7L8AInmF7mZvShynZ9BgyBr39qZFg9rr0vOK7nz9/zrW1tZlvU5i38jpS/Gc88J3vhu8hH9it5MvLZJu9zfeKbxRCG8LTod3R7+Fc1lJP5jq+vLxrjirXZaWVRTYQKIPCSXkkbDuUsZ611v1b2WivGYBVV2c+3erVq20vg25ubGywm3THjRlreps1un//frua3W4x7OWLsezdv89t27bNbAN6raVlgJs2daobOWJEvG9Bd+/cudONGDHcXeq8ZDoLu4Jd438DGcpCMhF/65zbuWu3o5j9/PkLHCAWZQD27t3rjrYedRPGT7B9zajRo11TBT5xT1gBRehh+j7SesSALMY2aeIkN3z4sAjE6t0akVSh6z/44H03fvx4N2bMWNujVdIynt+5c2fdzp273IEDB4zuixc7XL9+zW7I4MFu+vRpbuTwEbE9LW450+xMYd8D7/GN8IkGDGgJCvDLRnXXHYxtw4YNZiOQ10oAJWzS9u3bbQ8LsMtekv3Jrl277Hdqxdn+OQFgnW4/7fbv2+cGDhjoxo0dW7IYfk9kI/9OzoGeciAVwPrLb37fffaBT1sEVl3d5RgAYvGg1FGyI0aMsMWD8kcRofRxDlnsKOtJkybZ58lTxeSJdDkEmXb37dtnNLBoWWj0J2dUSPnu3bvtc+jBEeZzHEKUPgCC0OUsjEJ5bd26zcCO0aNH21dQNNDBwgcMKYBbfqNbV1e4qdFHG3hF1dkZwTX1UXFk5yPFst6cAD9RohgwjRmFJwBPCDrt+WggfxtI8nScPvUedMFHf1Lv6eFvjAugDIoMPvrT5+znF7SHccY5QEbgPzQPGzbUNTf3N0VdOA2vd/V1/nIATsMudwI2wcewgHT67ZWtra0mD/BA49CY7O9OH2HBKQLGi2dbjx5xBw8ecNOnTzc6sr6glw0xjg7XdCJPOAFc0XzkyBGTc8ZIRBbv62QEGeR7yArpVVoLft49v8vJflYa8+dyDlSTA5UAWKVqYOGgHTp0yEAs9KWAHNYCeo0Xn/Xp4zcPTU3YC7/+Ab7rA52adXzony1btsRgkt8otNiaZ72hRwEw9u8/YM47GxQOSNikoONZl6NGjcp86CFwgrXOuHCa6YfDDtqlb3QpeiME7mQHC/rQu9jedmAffGQXQLx0RsyDIgCW9DkbIMZJf+h3+D5s+DAbk2yAHSHUceJasAPUmsTVh/cC+kRTaC/0HnoYHY8OZHw90WnIAToSO4+OhV/odf5XSirj6hr96rcM4pXnoX8PGxjaPr4HnfBDG1F0tWlhIvPMDspeyjbXu5MnT7g9e/a6adOmRodW2bZA6H3mHRuI7yBgFPlgjMgWGwE4fTlyDgBWoRn7y1iQyeQhSzpvawlOZV1x+XM5B2rDgVoCWEeOHHZPP/2MGz5smBs3frwBWNioPvV93M5dO93oUaPc6g9Xu/nz57tZs2bZulRkL3q0kv0E3LnU2elWr1ntNm3ebHqIfrFJo0eNNn3H5+gOdNVbb73pbrjhBnf27Bk7eKFv9l03zLrBjRoxyg6ES7+8XsCGrFu/wb351lvu/vsfMFAMffvqq6+af87Y8GEXL1psBZAVGUVElEWdRVE4oe7XgYL2ddkOGLx+3bZ9u/to7Vo7/Gdc+MHYS/RkQ0Mff0nMpc440gf6VbaA8SoYIYwCV4QccwMPyfJAnz722OPuxhtvdLNnzXJ9GvpYMIZlgWQQVaxDR8cF483Bgwcde0vmZe7sOQb2ocNNr1vGCvsLH6XXJZoYW1rnbDyyUwSCoPJhKzwGGGKfOXLkCDdq1MhoL4MNInLMZ3b4uqP04yOkaOupp55yI0aOdEuXLHHNffv5s/oML2zSSy+9ZPQvX77c2uO9N954w3yEW2+l7nWDgYsXo+hj/gZwfP/9D9zYMWNMZngxdmixOYkit8ymZogPzEBq/kjOgUwcKAJg/cD97uc/bQszCWABpiC4KB4pD/5mI8KCY0GwkHFqeeGcslEQ0MXJhjbupUPlPf04fSgRFAagmaKp6BNljCJGeaFs+BzHV4YGpY8TzII14xTdpliKM9oE4EzSDuOATv5mcwS4g6MNPYyf/lH8Gh9jZ7ycrrAZ4/PGBg/ygYB3XOxwLS39TUFleWn8jIvTYPEchalbwBSRpI0a/TAP0IViYiPDWJgLKULogTaF2sIf5pZNHPxizLTHOCsJoRZQBt047RhnDDZ8hS5oIPKBeWnp32IgU3v7GYsWsH7qANW8cuRHJwzQz1igmzbMGNXXG/1KU1IEBHw/dcqPH0MxaPAQd/JEm8nR9BnTKgKwmE9ki40ac9+3LwDWJeNTa+thN2nSZKNLG3kBrLyH0YNW1gq08IzAQsaBA1MJb7PIS/5MzoHecqCaABZrB9nHSZXuZy3LTrCuAB0AsHD4WC/nL5y3dT+gZYCtrUqAXnQ0p9zYAvSl9AQ84TPsFONj/Qpw4ndo27Nnj9kIaMHBzmovfMRuq61vDjhoF92HvuMQBH3hT/kbzWaZXmposPUvp1dgDXrT25IWd+7sOXNgm/s3mw2JXyUisNCHmzdvtrGH9lIONjTKDmCj+je3GH0nT500uvxBEVFkznSeNmrYAWjnh2egVzoe/c5zptNbWio6FWZMzAdtISvYIUWswj/ohT7pfp5HdiSj8IrnZLcV3SSfg/YYL2ODNmy3Nka0iX3ib+SC7wjwpE1s/rRp0+Ko6yzrSgAW4wGIok/mGCAXurGtzO3Zs+ftlB8+9+/fbOPjgIwXawVaNC7o06FdV3uRA1hZ5iR/5vrkQK0BrF/96kU3b95cN2vW7DjLBJ3HvmHQwIHuvXffcwsWLHAzZswwXYhOR4+gU1ij6LustglwZc2aNe7AwYNu7tw5kb3zB5nnz18w3xTddPr0Kbdt23a3dOkSA6H69m2yCBmibubMnevmz5lvfZf2Gwt64fiJE+6JJ550ixcvtiiso0db3bPPPudmzJjupk2d5g4dPmQ6Dh158OAh01XoXw6dT5/0QQnYEennUaNHueZ+zQbSo/O1VygnYejFDz/80O3bv9/Nmj07jgDSfoZx24Hv6XYP7I0ebTqPfrALfB+bzPvMD3RC89ixY01nw7/zFy64gYMGufHjx7nHH/97OzgGiATUYh83bOhQfzhUhtgwsRgQEXu6b+8+d9OKFcaLC9j7o612SFV3ud5sPPaW+Tt+7LiVTvHRbpcMhNQBDPLS0XHJZMjvVfsbzwcOJAqcffJ50/m8GBfjRe6wHfhM9AG/n3vuOTdi1Ci3rEIAC1v6wgsvGA8BsOAbNunNN980+/OJT3zCfKSDhw659jNnbO83Zsxo25998MEHZs9mTJ/ubVl7u42LueJ9H0xA9ETPrgorJz/55zkH0jiQCmB965s/cPc/eEec9iRHHoHFycK5wmlF6LUpQYHwt8AEFiCLgwUooAogRc4uxGQFsOiTfjAcOKz8jhJgIfE/ypx+6JPfWYQ8h0LkWTvxGD48s2PNOFFOKEoKQKJkCb2kf5QIJ9z8zyt0iBX6jzOMkujouOj27tlrDuu48WPd8eNtRu+4cWPNMGV5mUI5eDA2nEpBYE4YMwpep0NS/Cg7PmOzwffhC//DD2hUJBvf1cYKxQg/+WFszDHzw/griVjykQN+Q0Jb8Az+0782eX7eUfwjbL4Eig4aNNAUPs8ybwKnMGQYLMYFX2kbWdNGWL/DT4wWKvRE2wl39tw5d6b9jDkLfP/w4UMGYPmIqWwpM/57h+0HPsIvD5Cdcu3tp9zkyVNsbvhcL2jHQCEbzAEKnrHDb3jPGuEZGekscpA/k3PgSnGgWgCWdDSOE84YMs8Pa4r1IF3NQYlf1ycNSODFGkF3sI4qSflFd2zdutWAAx1aCBzCjvA5+gzQCl1Kv+hz9B+fo5sAnCtJNYZW6WLZRdke+lB6O+NCbwi00eGA0vDg+85du9yAlhY3dtw4d+zoMXf5cp0bPXqk69e3X+FsswiABe3oTIA4eA/P0TdKtcYea4w+vb7RNhJ8j/mADk/LENe/fz+3efPWKHq22TZr6C/mTNFkzCvtwWel/6FrcWYreekATAAWdNMefwts4xl4i93jRByZEDik1H7GzPjpn/Ghe9m4MG7eZ2MGuKmoBtpWVC19sXngOeaFH8ZWKYAl2YYm+AKvoB35EJBLtDG+gEUXdF4yeSQ6Ahq0YcQmQh+fCQDF/iiS0PM3TCfMEltQyazkz+YcuLocUJSPfDX9rz2GwP+Ka2DV1TkisJ555hlLo5sydYr5kwMGDHTHjh61zfqCBfPdR2s+MgAL20C6IXpctfnmzZ/vpkyenPkAUhFY7CMmTJhoUTdKpyfSc/PmTcZsDnfRA7fccrPbvXun6TLS3YkqBkhbsvhGN368PyQp/ioAWBc6LrqXX33VnTtzxq1cebfbvXuXe/PNt9ydd97pzp4541avWeNuueUWt3HjRtOTRKLBV/o6dfKUPbNo0SLrf9WqVe6mm2+ytLyPPvrIUv+I3spy0EOb23fscOs3bDC9PWXKZNPn+OLoRdrbt2+/60P6/fnzbtYNN9jeA8Bv//593hY65279xCfc66+/bhFC6PHp06aZvWsjqGDgQNu7ABD+5Cc/MR0+auQot//AATdz5gx36ydu9QEQZcQ6BLA4ZAgBLNqnvbVr19pBW+ely3bQNnvObNvrwUf8fQDAvfv2upMnThid2IOmvn2NvrbjJ8y/wPYgD6PHjHG7d+20qC94g5zhgwA68j3Gd7ytzV26eNFAprfeesuNGjPGACzzC8oNKLIUZ9rbTebxB+bOnWuRaWfPnHXr1q0zP2vp0qUWIYh9pTwO+xwikEeMGOlWr/7QjR49xtJd6f/c+XMmm+xxsbEL5s+PI6YzkHN1FUve+8eGA6kA1l988/vu/s/fYcqMfb4vKOjDOTmVZFGhHFD6OIUIsgAsFBXPsSBQxBgXFjDOmDYH2lBkBbA4gcCx5Hs4rix+/kbh0g90sAnBYaRNnHAUBf3jwCvdsZJZ00YIJcuCx5kFHKH/HTt22JjpH4UILxSBRr/aHME7QBzAKpQADn9zc7/YEc9CD0ab77F5wCGHFniOopOTy7hxvlVMmWf4HR5Btxx2RRHxXTZ5PKdcaPgGn+kLw0F7/I0hg4eVvARgsYnTJhQwBxlR5AERUqRS9Gv2pzl+noYbvzAa8B2ZgZf8ztwje/AdPvhUvktxaghyx1jZQJGu2HHhotXhwqj4zXOTyUNPACzohhfMs2qswVvGghFiU8oYcHR4H/r4nTlgDGySWTP8jWHif8blT7p8lEj+yjlwrXAgDcDiPW0c9LuiOosVcWctoKNYd+ga9DT6AKdVdbF81EuDOXysfdpmjaNPWV9s2nk+6wtaNm3aZE6xaobolJg1TBQl+k8gD5/xOzoPfcVa5JmsJ+sCo9CbAq0YK/qOtY29CME6eMi6R2coDfrkqVM+Guuyj9ThhHs4p94nTxuYhV5s6FM+AkuHB+gc+sQ+QQv6D55CH7oMHQTfjx49buMmAujsWW8vmCvsPTZ2x47tbto0Uq77xdEH2AsP4neaztNV9b69ozbmntSMYb5lL2gD2tH3zCG84XNsBLLA+/QhHwNZgi6Bd9hpdDU2TmAYsorsYbtJz2EMbMqYf9pRJDU2EhliEwKv4I/qXmaRQR14qOyBwFfZLOwTc3/6tC9DwKbFHwiOiH0I6GHdIIvYDminPR3E5fYiy0zkz1zPHJANkn4NDxxDAEs+oECsEMySbkKfJw8s0TU/+9nPLFpmxPARFrkze/Zse+7dd94x8ABQhY1+3379LM0KHYP+2bN3j23aly1Zmgm8YQzohVUffujefe/deM/A2gYgX7t2naXVESGFnnj77bcNENmxfbtFE5H+BvC+YsVyN27suLj4ehYAi8ocmzZuMtDhnnvvdVu2bnFHjx5zd9/twaz33n/fLVywwL3zzrtuzpw5Zi/oyyKWhg01QAYe8B5AGxE4HK5gG+bNnWf+b1bAgrHt3rvX9DK/jx07xvYXvF586SUDgqixxLixkTcuWWI2kQggggnWrF5twNv7H3xgKZg33Xyzo97uSy++5G7/5O1m13Sp0mOP/Z3xc/GiRe7Nt960qKJHHv5iVEMs28oAMAOowZ9QBBY2iFTQ9es3uFmzZ3k72nrU7OSp06dMb69YvsJqWr377rumw4mcW7durRXwX7Jkidl49DnRTZQyAETdu3ePgUPIIPzBDq9YscLS87AXx44fszS+T3/qUxbJh19EW839ONgq/wKUaz992j3x5JNm10gHxM53XPDR46QGMv/IOTZrwqSJxnPkAZqQUWwifsGaNasNzEIWALyOHzvmli1b6kaOHJVZFspTnD+Rc6A8B9IjsP7sb9znHrwzFcBigWI0FI2CE87fSQALJ5RnAUIELOEIsgBUFDUrgEU7OLEqoo1SUGF3nz/tI6RQLgKw6EcpbJVEX4lljAlQjP996GeHKXX+5336ApTgpYge1e/gfaUVKkVP7eKcKm2h/PQUnsAw42Sj2DCGOLOKaFJtLBQP72MccPh5DueePuGZTqThFyHJKCRt7uz0f+dOmy/qRPE/RgsHvicn6kovEYAFHWwUmR8AJiKw+IwUP04X+J2Tf+pUKcIPetlQQD+KVCAS7yv9hvnRhonPfc0yUkJOWZ42bY8c4QGw1qOHK66BpfQPRfhJdlWcmnXAZlXRA8yY1ZyJNmECsBg/PMUJUsoR8wbt+YakkpWQP1trDhQDsHTirUOKLACWCqrrIAB7ocgs5F5pazisOExK9YIGQAh0d1rR62I8QDfIFrAGVa9EqSE4aehJQBDWJvqP39nk9BTAghaBP7SpSGT0qyJyeIbPAEd0IIC94Hd0lKW9282mPqoGui92XLIT5CGDSXMLQO4SKYQCsdCLshfoHWwXNhMeo0954ezjiMJzbBa0ord1yAJfZs6caakBONzwjXaYN6Xto9fYxCgKFVuhupFZ5DQtYhc7j35VSifzjzzwPjTga9AHNoM541npVehkIwMdbDwU8SoACxtBTRvaEcDFPAg8VW029DptVwpgwXfsMjYB2ZVvgH1g7uE90VfYJz6Dt6SbIKuWkhKl7ODzIAPQwdihmzWiKLQsvM2fyTlwvXKg1gAW6/HZZ5+1zTlrXPUZWXfvRAAWQAH2ghS0l15+2dYuwATrEuBp5oyZhYtHyjAavQDwsRsQaMb0OKUeUOPVV1+xqKZFixZa6YvXXn/N3TBzptkxdBm6it9J+xo/bpzV6Sr96nq5AoAVY51iEU0HbLwAFlu3bHXvvv+emz1rtnv99dcsm4DDDGwNkTfoTqLR0FNkM1Av8GKHr8VLBNRNN93kBpOCnVHIAAs7Ll6ywwn0GZFNgFgAH4yZWxE5rKFu1MQJE9yYcWNtD8Lz8GXP3r3uvnvvNQCH4vcLFi50u3ftMtDlwQcftEui0KdEsT3++GNu2bJlbt68+TaGzVs2u9975EuuvoJbCUMAa+/efe7mFSts7ICQqz5cbQENyA17EWwgMoU9BGjkUA4AC2By3rx5tt/CBi1cuMjsCuPSHpl2KJLO4cbcOXNsH8ZBC3N06MgRswsG/v1H9Nw999zj1q9bb3aBGlgKBik3BQBY8JH0Q+wosga/8UlWffCB+VrI9CuvvGJlbqj1RQAG84Mfs2bNR/Y/a4CILewtUW0cAu3ZvdstXLAwrv9Zjpb885wD1eJAegTWN/7GPfDQnRZGmIzAwnnEuKhIO4TgIIcAlgqm6pQdMP+4CwAAIABJREFUwVeus8JNBV6VO+kOa0DhEKoGFk4ijisbEEVgKTUOR1EAFs6p0lDK9RUyVRsPwilREiroTtuK9vIRVc3dnEoUDvxA2aEY+A4OLQ43vKgkdx462ByIXyhJxo0jC28E4KhNnrcQ0IYGo5lNiAAu6EDRYhAxHj7HeUzcNhsGnhGAhdFkY1cNAAuaoR1aCvNYb2HK8AvnfEgEYCFPimDSTVCMj3FBc5hawXh5lpe/vYV8/dOmnLkhkA0btbb69utrYeMYZvGjkIJR3ATrRB36VayY96AZGcTBQA74nN8FcLFGVMwXHutkH8PD+PgbeYAXlchltRZ+3k7OgWIcqCaApRpYyL3SqXDGAAxUw47/WQesJ/SW9DXvS99nnS3VwMI51G2qrC/0L/pDlzig6wCdkhFYjF238VSyLqUT2ADxPXQmDqlSpwX68L+KxPO70vdajx61sQ6NgG9qggwYMMiNGzPO9W8O0gdhRJlbCJX+TfuMGx2Ikwwt6CRd0qGSqwcO7LeaTGPHjLaTXm5V5DR477595qRSr5FxAa752pe+UDptqYh7CGCNGjU68yUlmtcw5VwR29hQ+KiaWPAK2QGkAsDifeSI7yoCi7FCI3YC51pphgKwkAEBWHyODmYs8Ik2rI5JlMJB29hL3SyZRQZVA0tF3HWLseiUfWLjig1v7tc3KprvbFzIH88wduYP20GbAh6z1mbLQmv+TM6Ba5UDtQawABF+9atfWaFv9IEdGFy8aD4kABbvA5QQrTlw8CD3/vvvG9gFyMO65OZpfL3it5B35awBWB+tMX1FzS2AAfrEF3zttdfMNi5YsND0GzWJoGn79m2WLgiAT4rh0qXL3MQJHtAqXcmpa3kMomtffPFFd/jIYQNw7r3nHjd82HCLnuG2vhtvXGJRNStWkB7oD4DR8dDy3nvvG3AyceIk07kcClDmY86cuRbdFAcjlIPUogueqFNFVBG3vBJRxAsdS0oe7c+dM9vS4uDN3n37LXoKAAj+kDpIofGPPlrjpk6Z6hYuWuQOHjhgoMsdn/60GxEVQgeA+4d/+KkBWIBA9LNly2b35Ue+5AuOZxR6AVgbNxKBtdfdfNNNZgvWrltnqf5EHZFZ4y/huGxjwCYSOQX/ALCYOw9gbbSbDBcuXOgOHz7itpPKPmyY6XnszoHIbs2ZPdtkkL0X+41NWza76dNnOMqrMH5AQ8AwfJsVy5Znjk63CKz2dvf8889bf0RvweP2U6fiGljIN2mi2MT5CxfExem50AQ5wF7hu6xd+5EbO3ac7aU2bYoisJYSgdX72zozTk3+WM4B40AqgPXn3/gb9/kv3GWLMASwFI3CF1XEnd9xmFHM2qAAMCDMvM/GHidO9U/4PQlilZoLnFOcN5xXACq+CwChk07+pm2lL4QRWGyIoJnNTNYi7qJFqXsAPfzOSTT9swlg84MjicFjfLoRkPFDGzTzDHSFETosfkWMZZU/+mOToBojKCFt8jB+ONv0qxMkflfRP8A1+IKjr3ozKC/oYkOCk81n8AzFrDRFNjjMHYpUDnxWenkOftE2m1d4g7KFVkXNwSMVvWfjw4n04EFD7Kr3w4cPWt/6DhsKaGQsgHH8rzo28EQOv1Ig+V776TM276QnQsPQIUNdf07ZDx5wY8aOjgo0+1pd/lX87gwBmYwHmVcNH/gOiMV7yAEOEbznB5mETmhXKhEywQ/08Tz06oS+ko1yJfOQP5tzoCccqBaApUjDsIg79LB+fapaH1vrKmqqlFvWGPqBNRTaiyxjUeQobajGlNYk+sOKww8YYGtXEauAGug89Cz6XEVJS9cZ6UqN0qZpi/GgZ1nf2EL6UhQReoRx6WbC2F7s22upIoBeiugcPRJ7wY10DXYbYfwqAWApMgq9pahb9KT0lKKZoYdTYgq2HznSaqA/NhJn1QOKPo2NGiONTU3GG1IFWqLSAdgbNjjULWOTZXN95IjVkcH2m04rQWfIvaS9QN+rBhbyAb+YC9VChC5dzIKNR6/CN55lQ8DvPKsrw+EFfMF+40uQtoLsccqtmyEZnyK/eBYZQKcLCM0qC9DNfGOnfcF2X28ReWfu4Y1/hksE8F36WXq7aozBU+hgXDzn0ww7zJ6pZmJuL7JogvyZ65kDWQEs1qrSCFknWVIIaZv1BfABoOCjTH1UKfqbTTx1n0ifw38lcmnT5k2mX9i4E1Vj6bxDh2U+fITGtevX+cib4cPd0MinHTp0mO0V+NFhJtFJ1BQCJKFerqWtrV5tfc+cMcONiA7ys80vqf++gDw30BF9dd9997kGIlC3bbPUNoCrDRvWW3PoThVnR++SRgkQA6A3edJk9+5775ku+8xn7vLpg0FkcKkb6AyEP7DfUubwuuE1+4EJE8a7KVOmGkBHnSsD9ZubLUXwfMcFAw4BidB/RMx+8pO3WwTS1ClTDBjCZ7Ai5I2NbtiI4ZbuOX7cePeLX/7SLV68yCLoVq9e47Zt2+oeevAhy/jI+vIA1nnrF6BsyY03mjxgfzZs2mg2HPuAjkdns1/CjixZstT6WfXhKtuXAVhyWMKYqc/VeqTV7di5Iypz02q25hB2a+xYk0VkkLYmTprktm7dYvLCHgUQjhpYRIOdO3vGUhVjW1tmUAKwfv3rX5tMLVq02IC39lOn3XvvvWf+CWAf+13SLUkTJT2RIADGSQ0sn9I+xq1fv87sFiAsc4bczo9Axqy8zZ/LOVANDqQCWN/8xt+4hx6+K6r3U6iBJScdB0qnohARFtOW04wSYlGwIUDJqFaUQCiDDaLrwksNhA0JxkY37dE+Tp0icVR7CgUHTaIn/FxFtbM6oaKHceGM8r+iAvgdJaWNFZsNxie6dAuirmSHJt2WCE18XknKGEbZFwxvNyWOMoGH8FeOP5/zuwoXK+JLToAi03SDCm3oGd16gRLic35QynLEVXy5EmGjX90gJVAP2ulTtz3pBijSWHgfhYjCPHX6pPHbwpQvXrTPBHjBa+aQ91WHReNGljQvnIacPHHK6htgVAGv4Fdbm980+FRUf328fxU3vQIyGY9knvfYmDKvSo9lc8Ic8VKRY9VpQ/aZI8ZOG9pcM64sBTAr4X3+bM6B3nKgWgAWOoR1wv+6tRXa0DGsFelB1QdiXfA+P9DA2grtRZZxoRsA8MMb3OibNU8/SvsWyKyb6dB5fMeKrTZRs7Cy4vEaFzoIGrTOGSs8QG+hs9ATukWVsZm9uHTR0gh5ZvDgIabz0BcDBwyyuiC63ScefxkACz1DP/BdelZ1xHifz/mMvuGLH/dxf713FFlgfGlrMyCLSGzGwffOnOEWwvooKokbtM7ZWEn7oG0rhkwqv6nVMJWl9Ozp5lwdAqDPeQ+dz//Mly5xgTfMKc8iK3xuV9FfumR803P4DTpwwP7wuw4RVIaA9xgz8ybQz8/DYHtWB2C6jbGcDPK8bl5WnVC+A2+gU3UUfR0sf2OzSg/I1sNDwDOVL1Ct0dxelON+/vnHhQO1BrBYe4BJAPsCARRVCkDBAYTqCE6cPCkCt/a4M2fabQ1z4EEUU9ZoHm7bpt0tW7e60+2nDfgZOGCAmz59moH+ABaKQEbXANAcbztueg07sWOHB0coHD8hSivMMtfycfkuYBRgCalihMgeaW31FxtNn24pzTt37ogvseAZbsdrbT1i6X6AQsOGA7btNb1IhBjplGEF8VIAlkUoHz9maYDYGvQvfAfAYnzMhwFAx9sM/Jk0ebLZpt179hhgZrUEL192M2bOtDIjw4YMteAAnj1y+IjN5dlzZ93AIUMs/RLAETAOwIUi8IBlC+YvyJzyCW+xXh0GtLW6U6Spj59gNodbCLm9UXU0sZGMg0Ogc2fPuvETJlg/RNSSfspBBm0AJI4ePcqdPt1ufga3EPI7c8xB0OCBg6IU8+NGL+MjhRC50K2G1NqibiIRYdCji8vKyQIAFvsR+DR40EA3dtx4239fiAIykDkivpjbXbt3OyLC2Y9NnDTR5JzbI7H/HKYBcuHjcKAybOgwk8melMUpR3P+ec6BchwoEYF1pzl2isAyf5RTVaud0TW1Q++HaYH6XQo0+Yzay3KaGBoz9W8KJrhJTrU09Kw2RyhOXr0FCmg3pDXsOxxjSEfIs3Aisow5fD4cf5IG9afnk+MO+RzSmaQ/bJc21GeltKYJXNhWcs58+/76VW80OrsV3EzKUsjXsL0C3cEFTdGvvh/mUBSGNziVMr0RXZGsJfktWtJ4q/e0qcaAYFTZkNBOJUBmuYWcf55zoFocqBaAFa+0Eroz7RnpbKXYVTqupL1I6mHaD+1RSAPf7Wm/SZtUTE+l2ouICNMvZts6XZ2r9z+y0iHeHt9AV+BOKZ2t8aaNne8B+ltaCv/q6NPb1/q6AtCPCrRDgUiJ8rcFWtmzRrQR46OvvDbvyauYbS3Gz7Q+pKeT+jr5d9iX5k/zn7RVWceS9HnC76WNjc9Du80zRI+xaWPzA8jWG5nMSnf+XM6Ba4UDWQEsldhQ5FWWCCytc/n0Wnuh3evyXqTT0MmmAyMbkTV9MPQ4uY3Q6wB+8AHrTMfyvulm3q2vd/XSqfZ3nePmUunuLDfppc0jgHisa+rqHKCa+cTOZyPYT6SzCzrQucvQVe9vDocBeib23WW7usBZ3Smg/cL4vZ2I+6HVqP4jfcCDeC/lJyy2Lf5gGr5BU4E3fvcQ8ct8Dt+Gvd952UClrIBjOGfWM+1Fb3pTd9lqVsIuxgBQ5eUjsqPB8MNxROTEPDQZiG5ut7lnXiIZgQeSUbO8JjJ+zC7yYbLuz2wMnhVxm9ZcxFfJNI/ZHNmc15t8wkfJJ4AnQChF4GfPnmP76p7K47Wia3I6rl8OpEdg/Y+/cg9+cWWXFEI5jyyYsC6JwIW0/0O2hAst3DxkXYDFWJwEdAoLvjqTUu32qkFVrBATG8NK204DYyptoxrPp9FRahMgWUxuPpK0hBst/1nahso7EtV6pdGtVCofgj7W34SSIfqwWjTl7eQcqIQD1QawKum71s+GuibU7eX0Ta3p6uYwl4wLLU6NxlRMt2ezZ5GnW2LQHryqru6sBY/TAKtSPkc2/tSC0kKbbGCIelCKqw48attr3nrOgWuHA5UAWCFolRXAMm+wjP+swwSBJ9XiTpcS6/iBnphuzft3ugMi1aIjbic+gSi0HJ6VCDDqaqO66/7yx8Bd2y/mdXezXTp1FtgSeOw+0te3FO4HfNiCf4XtVf2+78KJeOocFvYg6fObdedhwJZOjALgqWJZCOY6nMG0tZCcYf4+fOhQfAEY9eEMaKyYiPwLOQeqw4FUAOvP/vtfuYce6Q5gCS0Po5muNoBVHTbkreQcqB0HdCMY/yslqrfAbe2ozVv+bedAGoAFT5BfNtf8qO6IbtYj5SLrjTi/7fwtNf4um5uqQuvV5vr1Q2m1R17r9lh/pE7ib6nkQG4vas31vP1riQNXAsC6WuO93jVnSH/Iw0oArFrzPgSwwr6qDmDVeiBB++GYrtY4SPUkvZ19jG4zFkh4BVmRd5VzwDhQFsDiIYXTWqhk9CP+hQCWnk1GlxSLvsoFP5fC2nEgPPG4umcEOhkKTznyDUntZj5vuXccKAdgCcjitDsEsFSXr3e959++NjRXl3zFlEm5NqjMpSXnQM6Bjx8HygFYusBHFzSofmslEVhXk2uFJMJqxv9fmRGlAVjysK+up10Y/8cRwAr5frUALDgcRqtfK5HrV0by816uNQ6kAljf+O+Pugcf/kycKujzYAv5ysmoqxCIEtiVBLbCgee1f641MfgY0lMnE0YxgWvFrH4M+ZwP6WPJgTQQK4y+CiOwKE7dkwisUuH1PWFqWkpgqUOSaoPIpRy7cunOPRlv7b7TJQHjmo4Dqx0Pro2Wy6U5XRtU5lTkHKg+B0odpCQBrLAGlm62pRA2han5uRZf5Y4IrkWaDcAoQti15GUXo9H8gWuVsWXouhaPjHL7dJ0K08eFbEpZRDqpZUCLq+vs7Lz8Z//jr9wDD/ki7qTMpoFSArS0QQjrWoXvJd9PPv9x4WO5cVR7s1auv1p/fu2PR+cVV/OsotazkLefc6B2HFAxdW0kkgCWbhnk1jwALIpNp72SdQr1TLV0SFr7yffS+rpaAFZafarke8We6c1sJ09L009Pk+fr2RJDQoAubSy9ods2TSkXtsiX6G3bYftJOemtjCTpThtLb+gv1X5vaRddlQLDWcdzpXhTTj9kpTd87krRLhmvdqRDWnvV6qNaMpmMwtLaUQq7/tdhClFYAFkAWPxwEzh2afLkyT2Z4vw7OQdyDuQcyDlwDXEAXY9uj22VGQUfo8KtpQZg/cU3f+C++KV7XENjYwxg4caqBlYYjSUDm4y4SovSSnM4k+mG1xCvqk5KtRyEqhP2sWswef5S+szl43ha87Gb0nxAPeJAT09Lw9PvEMBS+mBeA6tH03HdfClNbq7Xk+vrhukfU0JzWfqYTuwVGlZYgkGHKCGIlbyBMAlgTZ069QpRmneTcyDnQM6BnAO14sDZs2fdwYMH7aAixpPMwbjsRo8Z4wGsv/zWj9xXvnq/a2rqazcNcY0mV5Dq2tK0dEKaCAGuENgKBxMCVjrZq9ZJYa2Ylrf78eZADmB9vOf3t3l01QCwzDxwBfalS11+2ES0t7c7jMrEiRPjIu65Pr++Je56KNJ7fXP4t4f6XJZ+e+a6FiPF7qRFAiuFMIy+IgJL4BX/Hzt2zNIHp02bVgvS8jZzDuQcyDmQc+AKcoBLBLZt2+bQ9YYxRX3jZ4wbN64rgNXY2OTOnTvjWluPuj596t2YUaNd//79rR6WfjAwFPKlQUK4uPo5TBtM28wI6MoakYSR4lYebj/kVh5SG4u9aLOtrc2R/07fo0aNcgMGDIhpuoK8Tu0K5JDQ5pMnT9qGb8iQITFP+Uy3Dw0aNMjGW41XGE0h3pdrV99R+ih/s1k9dOiQbWaHDRtmtF8v9cyQT27PQFahnR/JJhVf+JzxDRk8OL6WtxbJh8zxqVOnrG/m+Hrhn+RFaxH6Bw8efNXoz6o7ysl5sc8ZJ3oEfcaNK1lAGa2ZUP/1tP9qfS9ZzajtxAl39Gir4/Lj0aML+lwpF+jwpqYmW+PaOJQCsDAopBACYJFCCJjV2toa6wh0byjjtIn8sw6Qf/hb7Rd9sHnBTmRZY4zhwIEDRgY366DXssx3telOa4+xYMski9CHDYQ+ZBRbgp2olr0wGXbOruzWFeWxPJepH2JrMroWXvbiSGuru3TxovkG8LVaNq2WvId27AEyhKxCN/YipJ3PkXsuLijlj/SWTs0xa5J5vx74F465I7J3CNPAgQWfJltiam+5V/i+dFmt7C3zhB6hn6x2MS3Vrnoj7n1LOqBA//BiDcgWUveQ8SL/7AkqeWUdt57LCmBhw7Ar0BYCWIrAYhzoS9bRyJEju9ke+ebYMfRpLV7oDHxQfH94V8rOIFP4rOggnmUvUyxNvxa0lmtTtp7/kXnkQ/ac9/CnGafsVbn2yn0eppTybNa1nPQV4Su6HVlAr8LXSmW4HK21+jy2q0eOWBf4cEk5Yl0iV/C9li/mmB/6Z56vFZ8py5jhIzoCvwqdVm4tZmmzJ8+Ee4Za8U+6EB8sq/6o9f6qJ7ziO8UALD4bGwJYv/+H95sy2rt3j3vrrbfcuHFj3dIbl/g8wwjAQoFgLLZs2WLKYNmyZab4kwBWMtIqBL/ouNzE0cfGjRuN+eSzl1osGLs9e/a4DRs2GNiyYsUKN2PGjJpslHoyCYxl165dRh98WbRokY0JXgJqffDBB7aYFi5c2GulQPtMOCF32gCBUrIJKqX84SG8wwBBG3KgjdSaNWtsswdPly5d2o2vtRZ8yVKlvEfRbtywwX2wapWbPWeOu2nFinjjcfHSJXek9Yjbvn2Hu3HxIos8rO/Tx9UCwIKnO3bssL6nT59+zchlVn5C/4cffmj0L1myJOZhuTWctf0sz+GA7N692/RBmiOapY1iz0h+pXNwApinLM4SjuaRI0fizXqteVJuLSSjHzouXHC/eeM37vix427E8OFu7ty58VXIAOcfffSRW7BggTmjvMoBWMwD8oBDzkk388G8vPPOO9YGug3nMNx0Y0zXrl1rTjl94fRW+wW4wFhwSjl9x0ktNd8Absg0ehmaketaAgXl5i2klU0V+gKeIZPLly83ncz6Q6e98cYbNk7sRZrDWklfOow6eOiQBwAbG9zo0WNsjcGPYvpQG4JTp0+7MWPHuOZ+zWbb4Ov69evd/n37TD5uvPHGmjvV1ZAlaIe3W7dudevWrXNjx451N998s9ljAbtshvft2+emTJliDjD8qcV6Z86RZfyutDpzlcxvNXhTaRsnT51y6zest6/Nmzc/nv86g0n9+WmtU1PRY+gl5gce1mJtIy/oD9bCzJkzS+oc8RCdi1+Gz5wV9CrH/2r5X9oos37xp9EB+HxjxowxW4j8w1P0u518Uyw3w4t20S12WDhkSMnDIW3uNCb9nUwjVN0r1cBKA7CYl9/85jdu+/btbvHixW7OnDlxxLDIxiax12FM2Kakza/GWsM/2L9/v/ET8KGULGIrN23aZHsFaLn99tuNtqy8zjAdJe1i2t5MPOB/9ivsy7BP7CnY/zGnzM/evXttX8h6Yz1k8Z9K0StwkX0JICAHYxyaKaAi7buSF+hAf8I7XsgJNEM7c37bbbeVrJNWjXnvzVwkv4sMrVq1yvZon/zkJ40P4i9jQ17wefB9woCSatIAT6CDvSByzM+VkMtqjQEZBRx+9913ba3jn1yNg2fWELqUdVMNG5CUVa1T9u3z58/PdDirtQZ2gG5Hlqoxt9VYRxUBWDjJ27Zuca+8+oq79dZb3by5c13fJl+oV1eos3lBEWCU7r33XtuQYEB4nxdgDD8o6rDor6KpBEbpOyxANkKKtOJ9wDEUIkqIxSqGKmqGZ6AVpcaCpe+dO3e6V155xRx+DJY2MTyL8cQ46ISe7/A3ihFnFGXA37RDm8VOWOmfZxgfbTA+2mds/I1Tw+dMHIpWKD9Kkw0TNKL02UjKKXjhhResTxQT7bDQxD/og3bagz/wjs/pB54JaKJPfocWHBBFrzEm+ACoBy20RZv0zbjVHoqJhc0C/9SnPuWGDx9uNDHnODNsmlBYd911VxytwWcIl8bP85rbcJ4YE59Bb7nTJ8bF+Pg+vIVmxsXfjEM8hh/0xfv0r1QnnQ4qWuHY0aPuX372MzNW9959t2tsarIx7dq9223ctNE2LMuWLjNHbQSbthSnjL7oB9oko7QBH0WTZIz3GSfjZdw8w6YO/uK0svnhfdriM9pmLviftqA/a8RcUrHDN+aDtjW/tNkTR0IbOuSFn7ffftvGvnLlSlsbSiPTGsyK8vfEGEELcokMwj8cUcaFzIdrDfrES3gAL3hpHSITzBN8Zw74rvQB8sM8sUHF0aQf2pLO43+e0Xj5jO9v3rzZNpvID04bc4xchnqPZ6Gh3IkP42S9SlfpJFPyz3j4XPIFLYwnXDP2nSh67PSp027vvr3uqaeedJMmTnKzZ82ycUEjbcFTgG6AEHQBL+jWSarkhn740RpDt6CfZ82aZWPCFrz55pum0wAseI+XxkJ7gPT0iW5hQ6T1Ij0puRe/JcOhTlEEgHQBNEuPY4vkVDNGnQpDM7qX7zIeRYBBG/bl6aefdrNnzza9hkwk50DzjbxJ1zCXPKv0FenhNNlWegvt8Bz0IH/iqU7nQ3uBnOLkrF692uTrpptuMhqhgbH88pe/tPmCl6ILmiQPPCN7AV/5nfd4RpF2zIXmF8DmyNFW16dPg+lexoaDN2LEcHf2zBl37uy5+HSX9i51dtpaWfPRR+7gwQOmPwGxBrQMsM/27N7t3n/vPdOB0IiTBg3MLbIte8F6hSdaZ0lbUs5eaMOtOaN92UjWJt/nBx4zD9AjPc44eZ7xSG/wNxsENr3w4J577rHPFMkLoMgGHrlnvWMPi/kJmnfZB0WJIJe8l7QXoe+DLAOMsE7YDAq4ZBzQrbVIW72J0KIt6VCd3qM/emov5KsQ8bl6zRrXt2+Tu/XW20xWz5wB9D5rUf3Iic17RgCkEpshhxmQ6JlnnrENHYdu0vfIH+NmLShSlO9AO/LH7/Ih5BPymfSZfBkd7qFDeV4bR/kF8l+YK80t7aMr8TnwaTkkYRMjkFQ2lX4lx+Xmgn6k3+CpdKL0HnqU9gW4Sr/Kx5ItoR8dtKHLkS10OXRCIzzQoej48ePjzSvtSIfBI8aLfIdyhIzh+0ILGyrsq3Sp6ED+mA/VWxRP+I4B6RF98tn5nnybYhFY9PHEE0+Y7/XAAw/EByuh3MO7l19+2eYC/5sX9NKv5i65j5CPxxyF/jffSfr98BS+0Q98Y+yaU8lcqIfgA7KLv4V9Yn+FDuA78vtDGZbuQrbgk2wvtMDLYpkotIUOgkdqQyCgbAZ8kK/EM7zP84wHe/7/s3ef33ZX173wl3rvBVVQQ/SiAojeRC8xYDDG8XXilJvnzb3/xW2Jc988GUkMyc3jG3dsg+lVIAmQqALUe0G99y49/szfnkebk3OOjoSwITl7DA1Je//KWnPN+Z11zWXc8N2cPE/g7YMPPgh8lBRKnM+1bIquabsnv2SVq/97D/1nHmm7ca7ZGf5vzsZgfbIaOe1t604m2TZpk1kDgS3JtltuuSWe45Pyj67elZWvqSvT7vBbve3VEi7h05ybOaVMZyA2/aTkM7xm7Obj+pSH1IGu49fNmDEj9NL48eMbMA2e8N2MF93xcnNBvrTrjSOTX6mr/N/vqRPSbvUs32fVut/xpABmylLaV8adGPpFKrQS19LeNbaWkpItrUVWyho3LJg+fXq56aabYv0TJ70v7e0vu7qavUW22Vj4OWmbdmG9r5xjz9/SZqq3fRL/3EdGzTNt+0xOu77eV7BuOV/vQBfjInNiBWSazkCLtOMU42Z4AAAgAElEQVTT7m7NWqReyNhF+j94Ku2E5MF6zPIu46m3Xz2jfguhPFicQtiu0RZCFVgGvHz5svLOO2+HszrKaR7HK2eEoCC8hzP0vPiee+6Je7yAUYuBKTwGnuATggCNLL3nXIh8IqbMCIfRx7XuEQxjwAFDxiJBxWiInZlp3ydj+y0z/hbtueeeCyVJkDE8Yhizd6WzSylzCIyX88lBYGR7rnkIgDVVTmzelIvIpmeYx9atHKflodCNnRMlQm1xMACn1m/uxSBAyPgaB7As8CWXXlo2bdwYIJkl0OhgXp7n+caN3oxpWWLjACz+TxiMz3wzY4+W6J+OBIXAAfUxZ4E+z6N4BAjQRODS/dbDuDzztddeC2UI+JOuxoUnOFvWHdOrdDJ+67p40aKGIJT5nCwT6jnWw3wSRLLKQwbLXL0DTaw/2gquWVtC5Ts8aU65fnjmX3/yk7jv9qlTY+yi3y++/HLQYNu2reXyyy4vo8eMCYehY/t/W3OA9gQcjdHfevq/91KS1hkdjJGAWidjQ1/XyY6gq2svuuiioJU5rFi5ohw9cjQUkT9kAL+7/2SGa1PBK+vuuWQtecg6nirwp8NrvsbvI/Bq/Bx9/JCZLAYcw8y4E4hOxeFozbWwgoJGX7KJjxgj5Cm3ZuL9dPLxvLHjJ3xkXf2GJtYJrxtzZvWsCXAWMIBXQD/WqX37wKIPP/ggrs2yeDypdHXD+vURuCHTcI1MMx4Ef+EjuUsHwjpkZWNzc4ZPyUf4tl/ffmXcueMCTzm0+A0trCd6kwf8jw7pnOOtiapie/Uuq1evKu9/8EGZNeudcsnFl5Tzxo8POnie9TRu75w6dWqM2boLTJFBa5yBVjhg7TNQACe9NzEFzzFoVTGlUWjesNS4sxqCnOAfdISTiWvGk3RDfzTI4KJ3W28fPIcHYLpnZXYJD1hv7/N+62etjdc4/YYueIFxnQ6B+375y18GHeFaJlzScN67b1/I4eBBg4Le+MnY/BuewHk4hzYwofHH+8kPGpBt65+BNtf7zm/el46E8fnNe61r0tU76wNY1hu90cO4rau/rV3SFZ1dQy4ZvonpBw8dLO/OfjfWHL5zls4df27p1r1H4FTq3TFjRpfly5aVbVu3xdSsk/EZx/wFC8qs2bPiXZdfPqGMGze2jB5dYeH2bdvKO7NmhZFx/XXXBQ6mkYSH8ZYPvW3dzcU78WTyt/fQby0Zk659//33Q5+lfWAtPZeOti7mTA6tE+wwXpnsHFOHjh3LhMsvb6gKxBNvv/VW2bd/f9g/6ENfuAe+kktrQZ/BkKbGZ93xhjlZS/wGD4zBnOA7XnWNa/HBuePHl359+gZ/LFi4oKEy0Lu8A++7hyzhDX/MmbHZ2u3O9fzpOcaExzIZZj7k7VSTEeZANuCAZx48dKhs2Lgh5Oq6666vVewvLtu374hxjxgxvJw7blwEss5Elrex3OE1Mo/n77333uABRjBZsr7kBO9zbukv38FCvO//ZBvd0TfxNZMPWZ2beGS+9IFnoRt5J4OZ5HQd3UA/kVXVPvgRrfE4O4Ej6Dn1uDdm7Nhyztlnt6i7YUbayRmUS3sY76FB8ov3kAe8TJeaZ1YC5T3G5zfBJjpTAIt84le/4RX8z7Y2Zx/6gk2Jdj7eZ76pb/2f3AgakEt4RKbQFc0zOIXW3kU+6Vq0wRt0srGQEetnHckD+qIpHku91HgLIfo8++yzce03v/nNhkChMZujdTc+44cN7N60aTOw4N1kwofOglF4uN5fMXdrCteMzdpmQDN3huDJSy9Ft6pyJosAsj0HHjDntFvRi91IL6W+2n9gf1myeEngRjqT1g7GoI3nsn194FXYAs1UFrs/9bh7rIm50UX0KmyFN+TaJ2z7888PrGafw13zRTPrWh/AMnd08yy/oUf6IZ5nzfEPDEVvMuMeNEVj1cD8Trztue63tsZr/W+++eagX9pDnofn8I8xse9eeumlBpsMXT0DPazHyy+/HJVtEqE+5pr6JxP+MMP4/LZ02bKoKHY/3CBLxtrcx5itEf7OdcLf5Fl1Kt7KCn/XWHvPTd8nky7mhPfcmza4hJv5wyfjwbt4xTPpAXP1WyYkG4/ReNANz6bvFzp5545y2aWXxdriO38bR+oEc0qZTT4jf9YTzlhHvG9Mfre+xn46PgGaL1q8qKxZvSbaGvTp3TvmVR/8bY3f4BpyZy3YAxm8x+fiFuP4j6tXB59l0M26GPuXEcTyDraKABq6KGSxTngveRnNyRn58fGbNTZ2fJD2sP+z2zwPZlh//IJvYTW+8h38QLeMncDTLNjxLvjBnps7b255/733QxZhBt5HC7JFJo3Dx7t8n+Nrah3MMzEx23qwezKmgb+8x9qwKflaPXr2LJ98/HHwEdrgAeP2G95DH7ybn3a1UwgbemD9r//5w/LYd++NLGwGsG6/7fZyzjlnl+PHqgqIV199NV5IeCkzyvzuu+8O5Uv4cmsPEMEEiOO6JUuXBmFNHqANHTqkbNy4KZy/I4cPx2+IShkxLDkOa9asLjNmzIznXHPNNfE7hfP66683KK/YLjJ6dEOviqYCWBaO4eiPfyMcBXbfffcFQX7961+HA2dRVG9R8IyepjIXFsaCGEOv3r2jDBXIz/3009huAITWfLYmDLX9+/UR2xIAIEDWuVPnoIU/HKwMYG3ZujUA9eDBA2XAgIGxqJgUTSyaZ0efsc6dY2vnRRdfHEA4Y/qM0rdfv1C8mItCpnj82/XWRjDMh4BSNGjJYcrKKd/ffvvtoTzcx+DD/LI+lKL1xNzW89XXXi09e/Uqt9xcBbCSlp6H2VQ6AWd0sMaUiPFHIKd373geZmspMGP9KB4GDOWSe+yBZJZDGqtxEk58Yd6EEo0xOkOf0BIWwtcQwBo4sNw+9bbSuUvnALSf/PRnZfiIEeFk3XLLzVWFmD3dTWxv8Nx169dHpg6PTp40KQB2wYKF5cYbbgjww8uVcT6igZfxLEXAMDX+wWcNLjfdeFOA/MyZM8uKlStjffSLyQwS8EjgaAocMmNpXuaXWUhAppIPT2dzbYanf7fUcygj8/gun6eKYsnixWXGWzPLiOFVBcCcjz4KJSJoYS5ADY+anz/oj+ZfhkNivYA+WWI8A7h58+eHMzDy7LNLvxomjR41Kt7vezTPTFRuKwPY1unJJ58M3Mr+EtYMHfCrIC5nMqshKW3ZvF49e5ZLLr2krFu3vhw+crhcd+11wStzPv44AlyUDrD1THzAgKR40Agf57aL5tbCujKCbXclu2SvW9euZdjwYeXY0WOxDdAYBw0aHLLas2ePGKN7Xn99WtAfD7v/milTYjzkcd68ueW1118v115zbTiNFA/6bd2ypSxYuLC8/c475dvf/nbwCd6xthSjgMTBg4dCtvD7lKunBG1h8AcffBiY/9BDDwXtFy5aVD768MMyYeLEqNg1zthW+N57caJt3z59K33Rs2dgLYxduHBB9Mfp3LlTYCq5Pv+886OqB6YMHTIkMBZmDDnrrLJ7z+7y0ksvl06dBCSHxhysL2xJAxSO+k52zZqbzxtvvBHrwFhD+2HDh0fwUfWHuTz55C/LyBEjy8233By6jxxs2rSxrFy5quFY9i1bNpcbb7ypdOzYobzzzqzQOfCbkWCeWVXWWF7RAaYx9mGLShBys3TpknB4bdWjl+ArPFv72Wcx/sttu+vePZ7PMeFIZuAIHZ566uly/Pix0rt3n3L48KFywfkXxH3GQkejpfnTye4lM2gDM+g273vy178qU666quzdu6/s2bs3ZNecPZcOOPvsc8qECZfHmPbVqjDpTrh8/vkXRICC4Wz811xzdVzPECdj1pMM+mQAK/TFli3hzKrqwgN79u6J4NeI4cOj6sm4yLixZyCqJUOSM/OrX/2qbNu+PbaHkxv2iXUms4I75o7H0fKhhx6MLePPP/dcuf6GG0q37t3KRx/NiXutB/xrCGDt2xe6sVv37hGonvnWW2GsD+g/oEycNLEMHjS4dOvWdA+QDJy++54g4cAIkMW2yvXrYj1sV4czPvX6gg7gmK1auTJk1piuvOKK0FlsE/jUq2evsnrNmjJ2zJiycdPGct9994eMdGymd2Y69+gPl1JfwGx6dO26tbGe5Im+4ji2FMBqrH/YJd6R1Rf6Sbbv2KEB+9gDy5YuizEPHjwobDv6ffKEicGnGURprUPSmuusk+qrSLjdemvMhz35q1/9OoL4+BSPcfR8YBN7hQywndAit27CQ3o/g/juy4QpR8jv3pOBeWtEBjkbMIK+gFnpLNILDPisJGYXWRMBX+vOJunVu1cZPmxYGTp0WOncTL9Ajp3qxxdffDF4koOgBQL5oW8EbsgHPUCHHTxwoNxx550hm7/+9a9CjkeMGFkWzJ8fduHVV18dehwt4L/vOFihh7p1C9nk5JjfxImTgjfhq+s5sGxfdgxnH1bB4J49egSumTMd7h5rTo+w22BzVqKhq2d88OGHIWd0m+uiQva884LHzQm/oCsc9X52rfXNKpJs4m4tmwpgpY6DyTCT7rD2+NR84RbdZlxZEed7a4wuu3bvKmPHjov/WyM2MRpwvvBVBiPwj3WFTXiEToP/F11k50WHwMHpM6aX7l27xUlaKXsZeICtbFl0HFHbLrZv/76yYvmKWAt+E72Gj667/voYm2TDNx9+uBw/dixsHGtsXZuyudGBjQSHzB3fmDva4+UMGKFPYPWePQ2tWWBU4wAWm3HRosXxDLjYrVv3WBf2QK/ePcuHH3wYunDwWWfF+PEK38Xz8UJu6Zo+Y2a8m4+zes3qkEn+1IH9+yPI4hl33XV32F4CXcciQLGu7N9/oNx3371Bc3IpMYUP2dNkjF7IgAA7me+WASx4ZD0E3Lyb30bv4EE0z2QMeUk/NfrmNvNhQ5BxuOG9519wfunRvUf4a4sXL4r5wHXvUBiQyU2yjOfZkfjFv7PCzRr6jjzgiQxg4V02LVufbJGNrAxsanjWPeyKjz4qN6mO7ts3dG/79u3CRiTfbI60W8nk2YpYBKu3bYu1WrtuXfACbCErb77xRuB62P7Hj8e84Aab1P0t0Qm96RQ6OwNgxjBj5ozSv/+ASB527tKlqvgaMKBF/5GO8zz6yPNit86BA4EzbKMLzj8//LgFC9gC34wxmrt78D9/2T3o21KAsjU6qKlrjA9WkGv8TqfwJaZNeyNoO2LkiFi7sKUGDKj87ldfDcwzPrxtzJl8//GPfxzXGC99gwfoJr6g3UUw4eFvPhxrad3xCt6HCWyN5StWBH5cfNFFZf2G9SHT69etD0zNCjvPwl/sIkmVHj26l+HDq7XI3qeN55r4sOazz2I89BG5EfcRlITxGVuAWQp3xAnMdcvmzYGTcJYdetvU2+L+xHvvarKJ+9/89ePl0e8IYHX4NwEsDhSw8wKOH6Zk/CCeYAGA9gdDYwABIgoAMFoswjxk6NAAkuEjhpdBAwdFIEllgG0ulKWJpjGnpSyBINAmPmXK1bUy9H3lzTffiHs5MYMGDSyjR40uffv2Ke3btQ9wI+D1FViYBjhloCUrI7773e+GUnzqqadi4QGdewEDwUOHdMYJRP47t8NY/GuuvbYsW1ZVIE29dWox7tWrVpdNm6smjKtXV0bb3XfdVXr27FXmNwpgRYXH9u1RNbZo4cIwXCZMmBjgxnl94803y7bt28pVV00Jh+aVV18JQLzyiiuDrgCXMQ2QgMCFF14UAEMwrBcmO2vw4FAqQBGzAgeAbXwYVpYZULsfmKLTo48+Ggo6P9trASxbk26tC2AR+Khs278vApIMfcx/wYUXhuPLqKWIzhpSBa8GD6z6qjT3sX4EDMMKTmVfHu8wVkLP6ABI5uBdGUwRUbdGHBcCgAcy0BYVWHUBLMr4rXdmxTbCzZs2lUm1yhE935pyBCLDXMs6bdy4oVx15VVRgcBQAB67akJOGScv5159c6UQGQqdOncKR9g433r77ZAfBirlPGjwoKh0yIrD5hw3Y2e44OOsyCMj1g0vo5u5k0PjRoOWgkqeh3/QnlxHH4iOHcrs2e9GcOSee+6OCswXX3qpDOjXL2RD8M1zKVfjqAIe4xrk5nQBvqn7KBcKlQJiSKIvZS74MvOtmQGEgwefVUYMH1aGDRsezvFvfvOboE0CO97OKjTrAFf+6q/+Koz+/GRJOscHHa6/8cbg1c/WrCkvvfxyGAfmDsvw9m1Tp5ZzzhlVli1fVmZMnx48xED3gRHkMHBvyJCGLCSMa2nL0YyZM8Oh9B5KDFCbK6yhaC+55OIIVnw056Myf/6CWJu1n60ts96dXe67974yoH//4AGBPM+g1JIv7rr77jL+3HMb5ot3165fV37xyyfLAw8+UM4ZeXaR4X39tdfKZ2vXlT/6o/vDaH3xxZeKSpyrr74mjBNY+vY7b4eivf/+PwpcigDWRwItVQCLAScQJXiGnxj6b745PZ539TXXlE8++bgsXrQ4go9du3UNpUWuJ06YWJYsXVIWL14S29fQa+TIs2M9bEEShKGIOXYcBdjSu7ZdkuxJRjA88CWHCPbjVQ4WYxZ2njN6VAQVYr2zAuvskeWWm6sAlt54cE3SxToKXjGIJXMEDRh+0cvr4osbejTCz6YyjeTvQDhI74exLUDH+Dt08GCZfMXk0rVrt1gf+CBIlAFPfGstmwtg/eY3TwXfUeVXT7mqXHP1NYHXgrzw8Bvf+EbQ4be//W3g+oMPPtiQebaVBo99/Mmn5Y47bo8ADtzbtWtPbPGyDvi2V6+eEWxRxbdrx47QccZqDrdOvTXWmEHEsBDoqc/IcXgYPQwcAazetQosWEGOBeFSXwge0U2exWDJxAk5J8MnC2AJxHXp1DnGkNULlZP+65ABgQOBePLyyMPfLMuWLQ/H8eGHHym9evYov/7NU2F3yGrDfj29ogKrFsDC57t37S5z58+P9UAHNGDrjBxR9Ypo6oNHOD6eh/dgaZfOnWNMKpTefvutcuDAwTBGBWj9HRWe7dsHf8Gwc0adU66YNDm24rEFduzYGbL0/gfvx5oLEN92uyr5UTH2pjoSkQu2ArnFIwJ66LRuw4by1G+eKqPHjKoFZzuGfNNHzSWZ8HMmZAQkrM/4820j7h6VO0uXLY31pnsE/GDDpZdcUj755NMIrrAHt2/fVt59971y3vhzo/L5VKu9WtItxudDBuA8m4AeFuzB8+Rm2NChgfv47OyRI8OOYPeg+f333x808pxMfmVAn0xaR7SBHf4w7uk+z6gPYJFDPMVurSrnlpfLLru0jB9/bthE9EcmPGIL9OHDZdbs2SH/MO+sswaXc2oB4U7NHF509NjRqK4VUOe4Dx82PObern27CEo//vgPg95XXnlVJKNefe21ctdddzYEhSQi4fq016cFRtx1113By4Jd7CsOBUcntwS5ZuWqVbHObJRLL7ssZIQu2LRxUyTy8Bo9NXDQwEjU4WcBcPfAcDZ20ldQC+0EMeiI3CY/7c03gq7sJB/b3wWwJNLobWtHhmC6teF/4OfmAlhsazz78MMPhz6E6RLQ3mErlt9syba2AhoCH+bKnjG/DNyQz9nvzi6batVCWVmk9581NR8BO+PzJ/vI4D22uETXeeeNLxddeFHwFtudTPuQacnNkcMrBxb/ZQALLglgwQVJ8aVL7XTZXA4dOlw++XhOGTBwYHnkkW9FQortS88fOnAggidw31jq7b/0ZcyR3rHW6IIf2djkhf2MPrCdXLAN/cEP1gu/NxnAWrwkdDSct16uv+CC88vOnTvKG9PfLH169ylXTJ4cOO/+yy+7LOSEjsYfxjr73feiMkaCid9Bz8NdtgvcFAC45ZZbS/t2JTDt8KHD8bc/3//+n8T48eE//MM/hP5SaZXzz0pwfmz4KbUKLPOh2yRj/Nv48FPsLurUKRIgBw7sD5uMvTlyxIhY6+bsarrRmPE3WZk0eXLVuuTw4fLu+++VLZu3lClXXhk8j16CdP7wfTyfDU8HZzLenPBM4wAWLILD3sNGwTtkKZP/TY0PDdgi0954I3QOPHzv/ffLhRdcEDRWkJHVknR68nP7jh3D3xGAY9vpbRgBrA0bQtez4xS6cBZii/uRo8FHntHUOPBh+uIRHKlVS6OJ2MKixYtDp5MjH/rDc5vryel5ZErSjo2YFaf07y+f/GXgo6ClAPuLL74QQVA+9utvTCtXTr4irlcsYt0UcGSF6Zn0ZdglWX2FNvTngYMHyvTpM8pna9c24AB9LkBKH8A8Pjo8st7p08GmH/3oR2F3qi7NbZ55jWSZ5B6d5nlowo+yVuxDwVT/9hx6gS3pd3x01513htxlJZX4geTjOaNGRcxFwpdNF3qwiYIPGBk7tnr1DKyGz3HWz/HjEZjcsHFTJD19/+ILL5buPbqXK664MnQH/pTkhhmvvPxKufWWW4KH8H5WYNXbOQ1N3P/mb54ojz52T7MBLAZYgiJHwOQJD2cBeAM74JaVSwQROAlmqTRh1EbD1yFDyuRJE4vTDik3wGNhORscb9UPHdq3L3v27Y1qnPoAVlWauS6IzJgDwO7hNGFGgS1BKAZx9sCyQJ4DVLzbOICnqgPgQlgpQ4YdRWvBAYaPBTQuC5XRYf/3fqBGeTDIOIwTJ02K6OKcj+c09FlR7tu9R49yz913B0MSDgBsfFGB1aFD2bptWzCp6ioVCQyrK66YHAGX116fFgx27bXXRARfEKF7924BvuZvmyfn3RbGSy+5NISO4chQmjt3XtAF2FLYABIoG7uILFpaTwDPCDDXDGB961vf+lwJqsyHsRCW3ELI4TJXjGWdt23bHsEsjjymte4c7zh9cfeuAJArJ09usaEvJUmhWie8lHvxPRdIZwDLfCgpY7d2+BDo+HDgXZdbSBtXYAkiRSnnrt1l3vwFwQsCoMCfQdO7Z9OneDAygZ+gK1Bfv35Dufzyy2Jr1uGDB4toM16m+NHW+4EyQMkAFgPxhhtvDCPznberqLbvKMezBp8VgM6BxB/NOW6Roa85vQJ8WW3BSOKwAn0KLO8/WUWU51FaZJBcA3KOJ/7Gk390//0BPi+8+EI4JIKnFAy5xAtoD3jwHr5sKUCJ7uTQp3GAGM1yu0P9M7InDUAl07ldZqftXMuWhjyjb5cuXcsN118f2AG48Tv+SAczDXGODSXyX/7Lf2noE2Bc/liPDGDdcNNNDQGsl195JWRq0qTJYVRwtoEs2qOdANbECRMigOU95mhcZM3faFvJ9RURlG28JlkFp++gLcnXXnddyFQCNQMZ3nIAZJH0l5HFEMCS4f/4k48DYxiIjHEOsbUgPw0BrLvuaqg4CGyrC2A9+NCD0SMLLzCojPnBBx8oe/fsLc+/8EJs+eGMMe44X0uWLA4ZE1jngKLJh7UA1sW1ANZHc+aEsSPoSPajunXbtsjcCcAxEmGg6iwfgXZJjj17dgfd0Gzz5i1BB4Zuj549Yi7ui0bI23fEs1WVMXqMTdCCUZABrKyAYghEz6/Nm8vIs0cGbeifCGA9+ct4B4fOdjK4xlFZu1YV0sjA2fnz58UzOdz0oABc/379A9vwpHng2dQX9fztu8VLlsScVd4cO3Y08AM+wAv4JQAA1+kGyR1OC/xnxOK1rMBiBKPPb556KtadrhXowvcwEy4aH8dFAIvzZowSEnjyJz/5SWyVZsAag+dWVRAjyqZNWyKgZlwCbkeOGOeQsnjRwuAnskl/0R2cXc+DndaEgdVUAAufMxqj51qtDw68EJzcvXtPWbpkSdBPwobseZbx0gNwiDw118MFjVVI/Obpp8rAAQODBtlPCx7AgCuuvDLmKGCFRx95+OHQSQIo33zooTC66QsBTXOwhpHceOutCITDUnpBdYEg1uIlS4P/8Rt9fv1114TD0dRHINR6WkON8QWrzOmySy+NRNeaNZ+VdevWBp8fOngo5jq2xstNBbDenD49aIZX0f26a68tM995u0y95dZqa7LtG00MhM6PbTkbNsRcOOr+XrNWQOc3MZ5w8mqBmZYOMcHLMEKQI3o69tHTcXQ4Z+wowUnVzKrN6QjypOLk448/iWq3a6++JtZX8kYVI1uhpQBWvTyl/ZVTxI9ZVZa6xPV4giOPb+hz+H/s+LHYEko28NauXbsjIH7brVMDI2Geex944IGGrcd4l42RyVm8kHZhjkECinHvuvoA1syZ9OHIwMcF8xdEgF8AizMPiyQ3rAM9n312Nm/dGuuEHyRABTUmTZwUFa5N6XDy99Y7b5c5cz4ujzzycHVITzvnzJayY9fO8v/+v38XAWrVUrLczz73bPBzp46dymuvv1amTr0t3vHGtGkR1OGsV5Vqa8IuxKsc6cYBrNnvvVvOG1/1OEJrsmJNp069Nehg1wR5j/58HTuGbwCzyTmdnL2cfI+23pGVcHhVoIMOFDC0xjDsQsHi321HFXhgZ9CDsCh7GbFbWgpgkSc2rfnhX8/hDLEZyTsMkNy1JiqXBFPYUOZO1jOxrnpD0jMqoI4cjnGrXvTM1atWlo0bqoMw2CjGCBO59JIhcKMhgFXrXRntRtatK3rGoZ3gjgpI/Py5LYQCWO3aRRWjwHe1C6Z/ef/996Ka6zvf+U7YPcH3vXqVo4cPBz04qmn/oCWeQf+UF+tOvySuw4jsf2tt6GFBDkF7do45CUrl1m10sH6xhfD48bJw0eKoBqeLq61GY0LGJcbgF50G61V7vDXzrQhuozPHGY/ApV2795QpU64q27Y7VZ5N2iewWwLNnPgBnH+2hYTTkMGDA0c//vjT8hd/8f3Awgxg4VHJpQzI1wewjJveJvewDF6hMTkyFt+pVlYdh+5s4Z07d0XFF6xmdzQX6M8KLHJOxi+WFI6emYfKrNnvls2bN5Wrrrgykg5ZNU426GK8xq5h87mfLWBOzQWw8DF9JwiYPcHoPLZmcx8V1wLPbBy6f+OmTeXWW24tgwHjhi0AACAASURBVAYMaAhcmr91tyZTrrm69O3bLxIcdp4IEkUA67zzogp41qzZsSMggqOlXcwLb+GXxgHUHJNr2Zl0fvbUypYB5HP1Z59V9NeEv9YrUVCzpWMjjJkfhE/Ic/Du7t3l57/4eci2pM/KVSvLM88829DLGdbdfNNNgU1ssY/nzAmcdH9Ln8byVD+v7OFU7+P4LlsIsZ3z0A+2hWp2ssauZfPyNWznXLZ0aQQ16aU89C3fg2b/+q//GvRFp0yq+D0TNmwg/lsGsMi6GIfn0d0SbLEb7d774v4IYK1YEbhIDnzIEnkI3Nu5I/4/fnylu2BjUwGs9Rs2RMJEUP7qKVNKD60Caj3U7eTiu113zbUxBrEPdOIX0KVs5BtuuL7s3LEzfDF4RE+dNID1gx88Ub717RMBLAx+R90WQoqNgYwpATxHkPBYbEBMMQMWjprFzXJ+QrBz184IXgEihsjNN90cpfnK5iwEAFq6ZGkAiuebrcVEBIaIyTEyOV223MlEcCzefVflx7mxFYLS2PG7rQThgA4cGCBjnKpb/vXHPw4GuPSyS8vCBQvLG29MK499+7GoFFKG/bOf/yKErn+/fmH8ZxaEEAISzCdQln1VKKk3Z8yI+TDGb7/ttqgKcPIOJrAtQtZ01juzYpExGIeCErDVRkWSgBNlE/N89dUwIClntGQUGz9H0T3nnXd+ZEk4FpxmAIdIAnMWVon63XdVlXEi60OGnBVKxPi7dekagSVgzsC0Hox1yudnP/tZGAqML2tmTSla2yuzdDwzwqpDjJVCiKb9v8s6+o4ACLBxxsLZunxCrBejAaPu2sUBnB80VaUWpbfNABHjkqMbQc7JkxuqGjybgkEfAA/o0dW4gUJ9AItRDiAygNlUAEtZqQoA4CbQh7bA71uPPBwKsymQBArA+rVXX4sqiv79+wWdOE94DBijuSyONcEvxhAZjw0bQjgZ+pwFfARIyISsfAawXGd93dtcACuNes9NA8vfaCd4kafpMFzQCBCdLKhEjjMzxxE6dORIZFkoUA4oerz8yssRDLV1jnFFBgQqc68zuQVqLW0RpWDxt495ZhNJ77aG1jmqNGu9Zawdnsry++zrFspv27bAFdvcFi3SG2l9yBmHXhURvmRsZcY3q5/wOF76r//1vzbwVwaQzInCwN/K8vGFcT3926ejnFlg2RYkBsgdd9wZfErxTH/zjVAS2cDc88gXGTBnCh9d8GtzJ7eYq0DUp5/OjSBDNPtv3z7GT+7eePON2D4owEnRch5uu21qWbVqdfn000+iMpbRqMpg6FlnxbplAEtgR9BBxiwUnEbtBw5E0PWpp58OPo7Ktnbtyux3343xXn/9dZHJF+y79NJLIoBla10omS5dgkfPO3d88HQGsFRQCZqTFdjFcWUgmTMDyxzhzYoVK2NNGa8ybPCVAaRvF5lEM3qBk4NHBJx69+5Vtm7ZGhVN1knwXjBV4BBt3cOAFyA09zzdBX/6jeI1NxlVwbnu3XuEE8tBEqDNfl5kuNpudziMc+PkpBm395FRRg++oFjrlb01gbW5DTx4TwXm1i2RZUMT851y1ZTgf/NTyWld6C+0tiVS1gn+khV0q/qrXVT69usb68bhyj5o8z79NHDfWBlveDvnT6+QGXgPI+iLT+fOjcCC7XS2wQkmyJr269u/MDxUCtOJ6Cert3zZ0giWoItnw1+8hsdzO5RKD2PMRvz4FZ/4G44zsoxbcgXWwedNm6pDQy6/9NKGrD76kZnqBORhse55AnJTxqTrYZ7DNzKA5To6Ds+r8JswcULoV3j/nccei76DAkDf+AYe6Bb3k/fbbru9yQAWPqFHVUpzqOhjfMwGuW3qrbH9salPZpinz7TuS2IdNDTniAuOeR5awC34ddlll0eQo127qu8evnQt/sZHthCbr+/ee+/9oA0sk0SIQwuaCWClvkjnNfRKu3bxfvzA2Ee7rrWDFziZuc25KT2YSQgBOjyFlzz7008+iapYVaIdO3Zq2NbCKZ87b17goa0KjGCYyUC/8MILIqDS3AfdIwBYO703GxMbA3yn+9EjG92nk4B/JBiy58bRWo8u/S6jYmPtZ+X99z8oDz3wQOga/ADDyE2ekCpIAFc48vCQnZu9+Lw/txrhYdgCH9xT9dh5JeRZRSqHQPDsyiuviKAWfKA/8TcMzRO8VZvAPmusssrWalWhQ8+qTgBs/KH/Fy9dEtuqJ06cEIFEcizRCRv+77/+3zJwYLWNxzZByR7JWUkJ+IU+stex/WfPntABzQWw0JX8L1u+vHzw4Qfl3HHnhj2JDmwEuEP3S/Kxf0eNOifoIUFAf0us0I2ZfDJ22IGu+Dh6TLVrVw4dFqB4N3aACP7RAdOmvR5ViHicHIdM1AWwOPjozobxhx2W/ZXIKTmCBxnAyiAIHmSL+Y0TZXxsbu/Ab3DL3+aY25KtkTHBSThAptFXRe2OHdvL/n37G3qDwmNjPnzkSFST0NGcVo6/ZLugDh4W2NZfaf7CBeXqKVcXCSDrhzYZrGEP2H4vaMM+rposDy7PP/9cJBq+95/+U2C1tXnllVdLty6cwBtiDhmArLbtL2zo3ZuJNjrG/NEuDjq68874N71Dd5IJui4qpi6/PNYLXa07fwIPq8zo2qVrBPhVhZIpGMIWlnAbOmxIYD05IfMbNmws6z77LHDf2mdfKvqCT6ZKW0J84cJFsZYKHehteLB165ZYKzqZ/XDBeefHvN9+e1b5f/7qL4P3yPj/+Zf/E7YwOsDP3JFgLvS7tfEcdJMkVfjAtqKXM3h37333ha8Wdgfbft26kGdzFphrzkbPABZfqj6AxaZAtyVLlkYFNzngy5ClcWPHhu+mKtS6WSsywmZsLoBlDa0rnoSTUSW5cmUEa9zX3Iecwmr4n32VYI352E0Cqz2T3uLDwQq0JDv84Xnz58VOAO9xrQqutLPFmjp2qHrU0V0tnVaKTvXBnkwCRgXt7FlRHBCBpOPHo52EavuWDv7I56GDuURLgN9tfX3+heeDFOQd7dlZ8A72igWQJbIpoSYmQQby9MqmaOj5/EX+SrZpSV7A42QKjmcVOfwm65LQrhMnYbNZv9Aj26yhQ6fYPrMjcaiiVdLMtml6LHtfw4Y8NE9Ckm2Vu4/Ctj92LHavqThmD9v9xTcxBtgM39gM/Qf0Lx9+NCd2aUWy4HcJnI8/nhO6wlbSbEOTem7v/v1h/9sdYU1y63ZTASw8M33GjOCdSy6+KLa4WwsYBtfEA8gF+4uuJndkqtrZ06XccP11UX0plmObqwT4SQNYf/uDfyqPPHpXGCTLly+NCgwBLIDACmdYEkgMi+mBG2DHFITbwCwaoKCo8pQepXG22TFgfWwJYcgonUMM2SYKwEmHvrcg+kjJWhAgz7NVx2/K3hgAIoIYRUmmvjRjx4wNp8pzbPFYuXJFGOIy5gINDAaBrz59eofCMiYVC+7T0PbZZ56NzOzNN97YcGJNGsK5R5YQp8Pt3aogLJKsSmT8u3WPcak8UN5NiJX6CrwxENEKExNOW+0INgCI7OV778bC5d5ngKpXg6wlhxbNKdKqQfllUcKHIRk61cls55Qbrq+AGpO63/aD8J5q1SXe53tAl8feMjwoQw5Igp/5Vvtwzw6mioZqGvj/zgBCW0JvbEOHDG3Y7sPZYYwLKnJO/B6N6VYsj1JnoEYIL7zgwugF49MU4zPcrRXnLQOGrs2mkcCawuFECswIUOThAQTKR5AV7+V21qYCWHjgozkfl7Xr1gfgGxslMXHi5aWrkxKbQX6ZC4pYNQWHEu+7XuCUwgFq3meMedoOOqA5ASRbKgxln5Vkohn+PnjgYARezI+RbPyn2kQQ0AAGMuOTTVE961SbuMsKGN/7770XRilj+rPP1kaJsS0/DA7ynlVT1gson2zfuPkxaAF3ltAm6Bq3wEyunTFnZgzYMzbS2PdeGQGVLXDJ3IG67B4lR7FQ/tlAk0FlPdCEAWEMf/zHf9zQHDP7QVhD+MKZi1MF9Ug5frz89pnfhvzZtuyDX1Qu4GW93xhQWzdvCeySlSUPxkCRMbo837qSjawoaaoKS1BO4FAwknwPGNA/MEJQAw7YwuFDUcOd6AWyfEVZvGRxBBaV7L722uvBS/pWcUgYbAwVhhzjLOUpDVA0VLJvO55MYRV8eCfWXUl4tXVzUjjYtjnLwF188SWhgLMpfQSwoon7hNgi4SOrzME0F/wDe+AOwx4mUJSuiVPJetIXVWNIWcGkm3W1zUWW2zownGSoODqCcCoUBFWNEZblUdLGBUthnvXEW3gGjtnHz2AkdwzK6F/yySeR0c4eZrY+GoN15JQIQClx5pwL6nEs3Ke3EQyCAT7wi6FvvWFqOsOxjfDDD8uHH1Z9dq65+up4H0wwJ06I/lqCGXp/yVqhL5yCN3Qtg8r6wONpb0wLjOZQrF65KuYNx8lH9GnZtSv4B59wQPK4aMbnb595JvqQPPDAN8LpsGXTNkJ4Vm2bEpioDvgwj7mfflK6d+sW9LOWxp+VlrCTnJGNrGBwH/0ooYUvyFwcZDJkSASP0FX1m2sYi+QIj5MX6+h7fzgnJzsYIrcDwR14ktUsMPi9994tq9asCV2Cruhx3733RvBi3rz5ESQ0ttenTQu7QHY2DV5VDgxKiSkBLIYYHmL8kid8Sl4uv+ySFhuoC1zQ7ewm87Gdi22ET9AHvrE/jEM1gp5o+iCp9EW76LcyYkT0UOEMkgc8XfU2mxi050BHwL+ZLYRNqTJmARmytY3RKmhmjWGUcUZVlGa8zbpA1Q/VhhGiWTWErwLrVS8UwSJbbmACvrGFU9AvcPSsIREUz6qh5l4D2zns1pWzCz/SIUcPuh6m5pZ52CVg4TqBjdzWe6TWsF4QYc+e6kRnz9QrEO9YBzqB/WotBNzRwb+tO2wh53lQQ/bcs0bZUxSv4mO8Z1wHDhxqqEqsqqovCLuADQgrvTMbY8MJVR5sUDQS1NB3hvHfp1fvprfglBJbcQXiBJxVo/Tq07tcdMEFoYckD+BCbFGsVSSQEetENgRLBg0eXN5/991wNjkxaMK2YoPB0GwIbh3wK+yvknf9YxstuSaDdJZr4IV52Y6EL+mW7H01+pxzGmwaWGJs6OodsV2nVrnM9q8akFdbNePglkmTgsc5gLk2aS/kro/WBLCiGq+WUISrYYfW3iEohpcqOa/0BRsM7lpbdOST4Dt9a+h+NODoRQP+JUsiEIg3MokIT8iyABa60ufjzx0fB2YcParn5eIIih86dDB4VfLXlq6s2jdf9NUX7cKLLqySMLNnh/XctWuXsIEELAUm6QPv+PnPfx4BLNVX2SKBHoCvgiWCdOaZSU386Hs2HV3BzvIeusKas1fwB9nKxLDxwercroW//dm8ZWskZLKNhuQwhFB5COv15cGL5g7XYB75Y99LHBrDlKuvLhdfcmmMwS4FhQ74TfECv8o6VId0fBp6LhJbW1Vrby7ffPCBqBY3X34R3wDGkOUMAnmXtc8DNdLPoLc9zzrkLgr2vR00KiglLcm2amm+qEBTSxVY9Bx8QJfoV1U7XZ48aLeQCYXYyVE7FMEYnObLhlqxfHmsAb0O85uqwMK7aOY9rsWv5kvOs9dcU9gKD9ELzaMN0M03B430JUMXz0InHxjBXpKw0LtT6weV7LArD2pbu/az4L9jx7TaqXZXOLnYM/WwOtkukMZjRH829cZNm2NObAq2l4SbpO7JPpmMj0TD4UOBQ3iRPoXxgqACfHYvsfXwCZukY4f2ZczoMQ2HADX3Hmtnfem7tOuzktjz6RJyhW55yERuCWVjws1MEpFviQiyLH5x+PCRcv7550V1m3ozMsaGxWt4k1+LlzM4bx3EH/IDh21XXvXZmrJ86bIydszo2F3hvdY1g7eqz9u17xD6WXylqk5cFf18vTftOc+FX9H64tCh0BHGIODKn23Kj49daqtXh20LO9iZEn1kQeCevYnvvBMdstcibPP/SZMmRvBOwpRPh6fZmi1uIfzbH/xzeeTRO2NQy5YuKa+8+mqAme1+MuOYgYBzQn0wFoLmiUkWzKC8pKEJcbduIQicYYZafs9hychedcrF8ajMUc3i/RwGRnse3y04ZRsDB01pmejc0aNH4hQbAlbff8TzBIhkPkTulKnF9pFNmwIEVSsdPno0AjAaMysvJ7TKQ88ZWTXpy3I8IEopIHQ2UUuHm1ErE8NYIqQYLOakmfnO6gQvStjYZIgxOIBAJ3PTawIQd+7aJWiqFFiwTTBQkz97rFVoyezIABiDAF40yq313bBPFADaj4qROUH6KKnkYATZ8iUzS4goM4wFQPOUOs+kQNxrfQmT+aIXZ6h+Hz9jXKWcihdR2/4DBsT1gJ1D6j0JNpQe51QAzzutt7nWH+3aFONnw0i0QtdUssbJ6E/esz6ehRZ5LHuWPDImvB/o5faJZ59/LoTujqm3hwAyQNZv2BigQag5LypF7MXt0MLR3kA8108EW3BSRkA1mjUFvPjA2I3HOH2P94wFulPI6J0ZMM0TOeMCuK7JZrotVTI16ZTUjgKvtkhUp+9l88pTfZZovLkKzujB1rF91bdMw0drb5xZYmyNzKc1JyfiuzzVMBuohyNUO53DGlu3bLjJgKIoOAZZfZXXy1abq6CiAIkxRKZUH6MjR4LueSpqNlc1VhiFj3I7Q65D9nkIkGzXrnTp2iUyM6rrlL0aL6BPzIMdrvMuxhleF7R2HZwL3OOgHjzYwKt5+kcazvXryBGkGOGKfhZ5QiJ841yaJ95WvSGwzdnt2aN7ZO2tt2w7THENHs+Gl1kVaFzZINZ3DJ9wOhwG0LFjBP4oY7LGkbLtd3ecLFad0MQw5BT5PU+I4sRTOE5Nm/7m9DJq9Khw0mFKriljQQ9F22Yrma1wCsaZJ14id9ZIqbGs/eYtFd3Q2rrCDzKiAjKMyziZpk/gLixE59AXtSSJMeVpb65Hk8r47BZVB4zS5CP0hP+CWypXjZ3SzZMBVYjgm379+wdvVli0NcZvzKp2o7S9tuUIH7mG7KVRowIEbrjPXFS5yCgbb2yt372r2v7Trl3wjrULfVGHN8Zw1tChkb33DmtG5mxL0HjTOIwvt+CZr7nUjwNWMiysg/X0TlWMHEaOvbHhHQEaeMjR2Lyp4jnv9we2RuAherLA/2qrge/zgIDcymWc5mgc6Je44bvoZ+HE1n79gi89I7bT4Ydao+zoCdUCHqOPdcqsZD3OqfylGyMQ06FD6Kehw4ZGs19Z5rBbOrSPyqysVD186FAYi+/MnlX69Olb7rSFsGfPGBMnyW96XAoowY8+vXo29ERqCpNjK/G2bVHtxL4RlLRuoS+2bgk7hjPav1/f0CXkQoCWXEj4mTo+QFcyFEms7t1i+yx6Spx4poA7w76l7RWNx3esqCI6HLKBZwTAAseNsdan8mSuQgawPBtuaqdgbMbpGWwIPHrkaIXH8R5BgUGDY2vcyZI0nkk2U8egRfIDXuaUmz/+svb+L+AlSF5/oAj5279vb1R+7N1XnWLH1mRvweyUM7xcbxNFQHP37viDNnkaGNkit/gbTrnHbzAWH8sqkyUJ0tAXQwY3JF/cm7aMubiH7KgUwBOSWdaTjOlDZ3xNVsLV9CacNi+YZZu1ADi7mL3G1tu7Z3dsr7c9m5y5zlroZWLL8PatWwMb044nm34nexE4qNkV+GTr9u0hC+gi6FttD2of2+C2s1O3bo2Aky2GkiL0gvELmvSp2dUN+nvXrqBrHjhUBUKPBw6zKSsbRruHY2VAv/5BR7KOB2K3xY4dQcfckl8fwGLvcuDNS1sFNoQqBd9lX1TzoRuyyiqwXE+a2vw93/rU23LmR54Jpu+zWpGuD5ndvz+ejyf9Hv7Dpo21LYdHSof2lUyo6mHvozPsFwUmd3A/ko21Vgv40Tvxg/WrknqbwlcJH6V9u6hgpLczUCkA7jdbETNxia7GaG2MLas/Um69By3Y+1W/mmqrcOJ3VrPkAV712G8NrYFdL4ePHK22nXXvHvwD3yr8V83YLnQFxzQDgzAx+iXVTooj03yl0LPHSwTYVeMJzgrYKRKwLVGrFXrL8yTZ+HSqqKOpfo/usUXbfMwXD9DrAwbov9s+ZBUO4SV0yt6Drk/djW5hQ7HT27eP9/C1rJ8qaBUlmbRqzhZHb8/Eq6qHchtcpQOrHsl4AMZ7Hp2Hn+EIuiTuWKsMqgl8Szyqps9+fGhGzn1PNgRNyHJiVZN66fjxsBvIwL69++KgIIeDoA2bDx3wcvpYvWoFCiEzO3aGb0BfmBccR+MOHasWCvSZtdYDyzqyV071YxzsYFsb0w62hj26dT+lYBg+OHrseCWHGzZEwQBeYq9JqGlIbp1s/fUePAs/6/3U5tY37RX3hF6v6czc0umdvoft/m3trL0gMJxJPRa6JKq7t4RvDfPDh+jeI8ZpHayvceJJMoqn0Ah/W3PX5/Ncb2fFzt22ux6LdcrefIJogkQCRuTc+uEVRTQECA30fzU372B3kE8xDTiU1aiwMvirmR5YVeDwcNkadvL2kE12Hp8ZdqiuNF88Evhai13oDUfeJOD5JSq+Btl5Vztgq8UA1g9+8E/l0UfvCqXh4XPnzwunRjYFI+YCJaHk5wwGiH7eyKwansdvdcYng4myixLA2vcGFtHSWiYkywM5KFE5VM89bqsKik4o9JrjEEqxVtXj3hAkRpRobd27al5L/IVQeZ++JJ7asVF0N8eXDmf9fFLh+i3HfeK7auS1nqLVQtePI+ecYzh+LN5fO8ShYTtX3HP8eDhsTY4h51pr9uwaWQrGNuYGRu4XTc39xRXInPhksM43hCI/9d83GKrHrGL1DsFFdMvHWS2RW/cRGhkqPJDR8MZBlOaM7RxfY8elfi3qx9h4LuaQY6eEZflWrV4VkXUZM0Abc631PBKEHDemOi4UY53MCYhx1OaaApxjrh97/XrX07W2kJ+TjabeeapZi4rfqrWtp8FpPacmT1m9l+P7HE/U8V799ydTVi2tb/26ZsUH0AeYlPjn5K8mF8lfDWBaA1XfJ92T9/J+3zfmx8b8FffXGkNq6jzu3HFxDLb76jEsBb3x2ufzcnze7b0UVq5PPa3Coa9VUYQUxsERoOOEGykAnziXmFLxY6mqJdq1iyB94/VoiuZJm+CYANUKlzn+cz+dWzlTBw/FfG2d1KzWXn2BVkozthzUjnkXWFJh4bQ02SV9nAJf63ikMX410Lv27libAPgTfPy5e2rPqqQv0LKaZx3fJz3rMeffrEMdxufcG/RQnc4KWtdwOmntfdU9x2oK58QY6t/tvuSvRNt63G2sC/KakLNG26s/h9c1PfL59TweRnyueWOdlTTM8cW61+kjiaAdO3fFNo1dO3fF/Bj1tjuFc1drzNqkXqjhTY6nXqYay1O1vhV/1n9kSPWAUvXZoExq4yNn6Uw0F4Q/JX2h8y+OqfFcA+/XbAdBI1VielnKhNv+gt9dJ7usxF+CSAVbhUct64sGeyAPgamzhzjmley2awiA1mNJynVFtuD2BrIlBsTfNZ5sKiHUEhYnz4VtUccT9Rh7Ml0YolD/kjpbxdf/1tar7JwM+J5MV6Qua4wd9bxcz/eMZc6mZEe9A9dYzk/Ic4UjqTub09+NZajx9fUyKjHAWXFSkwpNAUsOXWPd1RTfNjwn+SQczWp7f+OP50YAMGle47HoZZaVcfWyVocdDTqp7qGfw6Ta9/XfNeDoCSCI93DSVThIGgs+cQpV6ApMWQ/rIDDT+HCcJudfe3bq7poVHZgBh+hOwY7Uo2wD33Hi89+CAOxd1SG5pVSVnIAm3ZR8UY9PidchS6lnmrC5G+5JvVy3Tim79bxKuuFGg5SEmv28L5C/5vf1QePPYWhtXStfgI/ToC4/J0+Jr83ZN03Zag36r25sKXvJK03JYNoQDXzSwHnpy9T8u3hupdfDNathQ/12sPoxhJ44XqIyTYJBIENvSoEFa1hV4lcwfkJmKrxp8MXq1rFyA5Oyn1/j9FOT5+rnmdjalN11MmxsrO/rJbixjq70fs6lxh+NZF6wU7KdTyNIVR+0yAo7ujJbVLRk99fbJDHOXPcKKCt5SxuLzqwRO66tH1cjfmmMUenXtwbnG19TjzcVz57A6lN5XtrSjeMJse41yQw+ruFna5P9zclM6oYTMNkuMFwATZBZUCurrxr0WB2vVpAiON0+bPrm+LL+PU3pFjiR32f/KdVcdg7YDh9bJOv8i1jvz42jZtvWMLFB1mt0U8VnB1zSrX6+mZxM+6eBDxrFfeLe+jhRzZdpwJOaLwPfVcm13MT9B0+Ubz96T+nSsVM5dvxo2X9QBrDKCGcE/kRQqjKXGkBX9riGD2lw1TNZA4ET8JvIqjZ7ukBdcKom583yb52qiGtOlkEMkK57Wmuub63wNIBEEzecqrHZ0jsbHNpU/nWZLJleYERpZ/ayJWBrzdxUrAn6KO8LZ16QKm88XqLKTNTZHvH6U95a8+wzfQ1gB/j+RgOljPURqjSIWnsSUr0yP9Nj/So/7w81b+vjU98M8VTp9EXG7l7gSfkI4mdV3amOIa/PSlDPrHcOzC8zwFmV0FiuT/edp3IfpafEV0ZdE1UJgMg4xlHI7YoKFTRRkSNbk44ixcL595tMqSbOp4Iz9bh9JrHxZLj5b93Cz9/R3Fiacr5Ohc5ftWvNhwNoTTlc1jASEC1UP52JOcDlD+IAmOVVQLIWYKoMnhKBLc5obr39ou88GRYw0nLLL51AZ9TzceU4H42m7F82bb7oXP8j3p/JgWgu+yXzbnP0VTnB2bT1VJVTax2ipp5HHlWV4cn6j7nRF6rCWupv+WXyALuZPKlQdiiEasDoIztwYIxNxSNbsbIRqxMyT+b015mRJwJJHOqj1QEv2eMm/4ZZeagNnWr9s++erWHuUf2QFZ98mS+yHo3peSb0/dggYgAAIABJREFU1qk+41Sv/zJ54FSffTpjT0zOyj87GCKx0sTLm/ffviwv71QpcPrXmz8cIPsCefXVq+SQDYa3T1bV2ngESRl0driF3QT1BSRktkvXznFoTVREn/4U/sPeaX1gk7VrjS/zZdj+1jcPlLLFt7FtcyqLI9lYJYs2lSOHKx8t9W1WhNXvNmnq2acyR37TSQNYf/03T5THvn1P6dqxU2nXoV1p1+HEccEZqDgRva8LYEXJYFWJVU3kROSv8cAbsrB1E85rWhPAOpnwnBZA1g3yTAawPLZxQC1fdSrK/FQYq/E7v4z3MB6Wr1wZzTX1DWjIdNY0ii1nyhA14FPm+lX+nMyh+SqPvW1svx8KZAYEdn1R45cRAowzk9CABzWjhGHyRd/xRahirkePH4vtehz1zOKoFhHYUK1z7MjRmEN9AOsLvbOuiuPLwKvmxtYcNtdf//sczxeh4df1XmXmDmrR+yH7qZ2QiVJWrlgZ/9V/KPuJfV3n2jbu/xgUOFP6Ip0e2zkykVNPQbriTAdkTmWF0vGN+daqokJHdujQpA5rLZZmckANSFZ8qL5qKoBFj9JDqq4EsmI7//bt0Xunse35ZQQ0T8ffaEzjU31G/fVn2l85lfU/nWtPda6nqrv/PQewToferbkn5VhwzOm8zz33fDlYq6yp7j9ehg8bUu666+5oPN+WuGkNVb+a18BQf1oTRGtpBvwCW9RVRcZukrqLBVDppfrt/l+UGq0LYP314+Wxx+4p3Tp1Vov5pQWwsiyzsUJpHJzKrLBUrIxaawUnI/MnC3YlUesj+a25JzMClKXFEsBp8ZS3Jlavpfdwcs09q95OZ/FPlQYNtKjtg/XuxmWOaViIvq5atTJOQnIaVTa29wzzUp2lVNH2IoZE26eNAm0UOEGB+tLyxnT5MozsU6H9ibJt2yerraickzwpxt/Vlo090UuIjOfpZa3BzpYM0sSPUxlva69NzKZUP5e5PMkDTmdOjbcOtPSKrHqqKte6xna5M8UDnqn6QED0D1GRktWtqceayphzQDW81vNDn5xsHp68oEmqvht58nFr17vtujYK/HugQEu6ImTkD1RlVrm1p/ZpLZY2BLBq27RTJzUXwIIzcNQfeCKYlT2w8l446Pfs25utLVyf1fmnQssYY25fr5GhtfNrimqnaq+f6vWntlJf3tXW0Dqcnk76vKfWFP81vwYte3m5U8P46Eq6+EwlEsOPPcynK5UfW9fC4IvwTGtXyZwEedkWjauz6vFFD8wXXnyp/PCJJ6r+i7lVsF0pY8eNKX/2J39arnci+R8Qc1o757brvlwKNOwuyxYbjV53pnmkdQGsv3m8qsBiRNf2vWbVQX0FVm4drHUhOdHvKvb5N7ScapKCJyq4Tq58AZ1T1Ri19q+31JTuiywXIdaYUQPkbODe0vOUKutxoDGkrTVOZMqm019kHO6ljDVa8w57veubvX3RZze+v6nqI1F4J2EoMcyTq3JcSrNzW4UTSFynMWZ9AMu1Gs45oTECWE4P+32g9JkmTtvz2ijwH5ACDQGs2l70+gCWrItgluaKe/ZWFVhOlM1S5NZm2P8QZDXWPIGpajz85YASRylOXbFdudH2s6bmrUG1ExD17RHsr44W7n5GSMQ5s81bL5o8derLmnfjAeMbPRjNS4NhDX6rviZVo1B0Qh89J6e9Pq307dsnTrm0dbFBYbQrkQixfbctgHVGWKLtIW0U+MpT4GQBrOx/JegA49jM/s4glgosASxbj300Y3ciHSeITevUQ/3rXM+OFSDX1Li1bSQ807vZ6MaiXUaexvVVIe6Z2FlwJp7RmB5oxqfTjsH6nNrp2K2vPVMtbhtvt25dGw6uaW5tzFOVo5Pj8mRCFb+N/ZrTXdvwYxcsiIOjxo3L/l213UqnsK32dN5vbrY089XyhOW0AchMnrpIHgSwnn/xxfIPjz9R9h3YX9pH77ZqgOeeO7b82Z9+v9zQFsA6nWVou+cLUqB1AawfPFH++Nt6YHUux9pVTdwycKXC6HOR42h4VfXAcjJDbh+Ul8keWA1NbBs1e84+WlGJVWu0nGBZ31CPkav5IsXC6UgF09Q96JPOVz2tTtYfILPUL7zwQjS/o8iyAVk8Mxra1UqZa/SgMPUlYFwz0O+9996G45VPd51y7MBu5syZASyOIXbigE99M+rWOCEt0dVvmYHKZtL+n1UKTn7z3mwS6HtGgSN9NfdVmg3onVzVqgBWDQRPlzZt97VRoI0Cvx8K1AewEney34jfwmloIoBV3+z/RJ/EzzegDBio24b5uWBZXQNN18CcdGSael7oi/YattYOCqlr6C9xqGlyvf6Jo94/+SSO8a3vY5Y42Xhsibc5htZsH3UPfQU/OUqaCNfrzXpMzjkx6N3jZBjYynDWoPaLfPI9dMnPfvaz0J0333xzOAtJ15zPqeiSpFHekzo79Xi9w4NP8lRWetXppXEi0NGjcUT9urXr4kQwJwvPnD49Tte97NLLou9WGs3+tmZtFVhfhBva7m2jwNeHAvUVIfUYnJiWDdxTJ2Xgqr4Kqz6A5XtNi1V5Xn/99YGF8Aguuxe2CHA5obr+xL58dz3m1eOeXjILFy6MILzkgHvr/Y+0sRMbPSdt7vrVqL+nNTom/Zy02/P+3BLUlI5pzjdq3Ly88VhznE35Hs35F/Xjq6dBfk8P03d5wpmKpFzz1E0NfXUbNdOvfMvU6y3UWkWS5GB5+umnoghAw/PGPmdjuuMFPt3HHzu9/UCc8ifx80U+OR/Pm/nWW3Eqm9Oc9a1L20qVU873ZO+qt1Xo0ljzUvnQjXkqC0WMgY2h+Tt9a05+Iz9813fffTfsFH+M84WXXi5//7gKrP2lXS2AxZ8XwPrzP/1+WwXWyRap7fcvhQKtCmD9z799onzvW3eXfQcOlrnz55bde3bHsZUETHm/aiDKgYHuKMq9e/cFcJ9//nkRUV+3dm1ZvWZ1CIcACGchjwZltObRvISFgU+5CIQ4mlrWmmCPHz8+hGzzli1l3ry5cTzwBRecX8477/zYquLUuw3rN5RFixeXnTu2x/GjF150Yenbp28cHQkcCTSgHDCgf7n4oourxnNNZNxdRxEJGGWm+qKLL44AzbnnjgvnaOPmTWXhwkVl544dcVyo8VGChJ1xLbJ+1513xnGTp/s5dKQ6Knrp0mXl4IH9Ze3adaVXz57lhhtuCGcLfVauXBn0Qjd0lfVpzvkAWqqg0FwgTHUYBa1aDH2sA6XreQBbhlzGyj0i9SL2qspkSNDI2N56660IWHkGGggmqsi6//77m6nAsoVwZJzi1Kqj/U6XeG33tVGgjQJnjAL1RlIaWS0FsEaMGBk4snLFisAtRpVeRrCD3oAdy5YujWuiwW///nGao4wfLNq0ZUv0P4L/HAvYJnu6YvmKOPGQgzBu7LgybNiQ6K2yetWasmz5ssgW9u/fr1x8ycWBb4cOHCwLFy0KHSCYNmLkiHLJRRfFeBimDDWG3G233Rb4bZ4x7pUrAyf9WwBJFZQEBsx1mpj7BYL8Vu/kNCa4a1Tkvvnmm3Ev/edZ7vHvzPabs8SMMYwdNy70Jp3KwRK4mnLVVfHd6XzMyXvoZ+8xdpXCEyZMKLfcckvoZUkXOM9xoOdUNrfU9DWSSKvXxJwY+cYti9yxY4ey9rM1QUe6gxPIIDZXuglNGc3m5P2SIYxiunTmWzNDrw8fOaKMGz0mTi+jU1wXh2yE11j91VaBdTqc0HZPGwW+nhRoKYCVwav6rYRNBbBsIWQns8nhH9sVll9zzTXhqKftq+Jm3fr1cd3VU6ZE8DwD7wsXLSw7t+8o3bp3K9179IidBOn8O8gEtsHZ7LUFdzUZZlv70GewkL3sO5hOh9CH9JDf2Nl0U25vdC1Mrk7Yaz5AA2fhIpzdvHlLnBo/cdLE+P/KVStDd0oyjRw5IsbduXOnsm3r1vBXvJtPxm/j0wkkbdq0KebjO/4CnXvhhReGjlahhnbWhZ9AP7P9+U3uobu8V6DInOhR19MXfCQ6PeckWGhLuHs12HePZ+m1Gf7PkqVBk7OGnLiHTvVb+nT0iEoilVVNfVy3bt368vZbb5fpM94M3eT97smKvPUbN8TYd+/eUwb07x+6Z/CgQdHT56MPP4zKYXbC6fZcFE7CD2vWrC7Lli2P9V27bm0ZOHBQue66a4NeeGX16jWh5ujgMaNH/5tTtnN+aZOhw+KlS8se4x4wsFx44QWlT+/eZYnv9uwtF110QRyg5VCUsaPHlqHDhsQYPvzwo/CH2QASRtECZvXqkIuPP55TRgwfETQYMXJkmb9gYfnHJ/4pDnCLE+JCFR8v48aOKX/5Z3/eFsD6esLq137UrQpg/ff//UT57gO3l/fnfFQWr1hWxo0ZU7Zs2lzWrF5dHnrooQAAhvHLL78cwMw4B3YEXTBDpoMzAQj9PwRzzJjIVBBYAAg8Bar8GxC/9957DYYxwKR4PHvP3r0RDJOZtk3lyiuvKD179grAnDlzRoACpbB+3fpy9jlnR5SdcUwoL7nk4gAJIH/zjTeFcDZnpFM0QPLpp58ORXbV1VPKwAEDS7/+/QIoXnr55QCF0aNGxTMAsjGKplMI8+bPK3cKYJ01pNU75eoz1cCOozZr9uzYd9ynT++Kjr37lNumTi0HDxyMIFN1ZHe72N9vrkn7xpzp2eg6ffr0GC9aUyhodd1114WC4mRZlzzhZurUqeFg+M06CebJVim15oT63hr6ngPDAHAvJXXffff9mwAWo+CT7IF13vhaAOvL2bLztZfMtgm0UeArRIFTDWAxypYtW1qWLl1aBg8+qxw9WiUPJDVg/Uc14ykMrSVLSt8+vcttt98WePTOrFll/oL55ZyzzylDhw2L7xjUixYuihMQ6RWKS9JiwoTL41Sv11+fFrjG4BSgOXf8uNA5jPbXp71RS5p0CwP34gsvjGsYxcanypYeg50+nIdXXnklHBP6gm6DrfSFpAb9oSIK1gn6MGoZ6U05FxwfuolTxEin+zgI8BcdzH3OnDnxb0kJfzMY6bodO3eW1197rSGA1btPn1bpknpnL7Pn8Pu1114L/eozbdq0ctNNN0UFlq0b9Kn5c2Q4Vipom0u+ZIDvvfc/KL169y49evQs27ZtrQXnzi+rVnKWlsd8rBNdMWnSpJiHZ5svO+DKK6+MoGZkfbdsiWCiQCMHZtSoc8q8ufPCuaNvBLDqfbe2ANZXCBzahtJGgS+ZAs0FsLL5cP7dUgVW9sASvGD78gnYqn/0R38Udq4/WS0LX3bt3l0efOjB0qtnr/j3rFmzAu+HDhUA+CzwX69XGMaKFQyS6DVWQTE6C86xub1HUAvuw8GsAINv7Ga2PGykGwR06Av+BN0nWOQa9ze3tc47Bc5+/etfh44ZPXpsXOsZToKc/d674Q91bN+hLF++olx++WVl/LixYbsLzKQPR1d961vfCn+Gbf/iiy9GsEeAj69BLxkfX8RcvJceFQyiW9DNePM0M8+hG72DT0cf0SuKB1xDR7ufrwX/6VjVSPTgpo2byoyZb0U1Ua/evcratZ+FHr/kkkuDPmwIATqhFHr0ttumlnPOGdls3+F8z5NPPhnjlRgxPmMQPHvhpReDZpJvnTp1LEOGDC0jR4yIdc4AFp/oVAJYDXxrV1HYFmuCDkePHivdu3cL3Tts2PBy4403lG1bt4V/hD+0ZNize3fQgk/W1LpnEYE17NGzd9grq1avKsOGDg3dujHoN6Ocf975wb/meOstt5QBA/tHYmnxokVl+ozp5f777g+6G9+uHTvKvPnz4z56WHP2bt17lLffmVX+4fHHyz4BrFoeSZXYuDGjy3/+879oC2B9yfjX9vimKdCqANZ/+99PlEfuuqH85tlnyvBzRpZJEyeWtWvWlNdeebU8+OCDIWAy1ox+oGC7HaNVEMj2MmDjGk4DIQKWqogY9AQYmAAzCoTwAjugL4si4g/wgGVVaXUsAE8AKTLTU6bE36LNb7/9VhjhY0ePKR/NmVM2bFhfrr/+hojUy7jccfvtEYD61ZNPxkl4hLy5/lnAQTDsX/7lX8rIs0eWW2+9tXTs1KkcO3qsLF22NIJ1Itfe5Vpz86yDhw6dCGDdUVVgnSxEkwEjSjX7epnvwsWLyodz5pTRY0aXUeeMKjOmT4+qhGuvuTYcBApPDxDKQPCJcqE4m8rUGyPHQUAOnV2bGYzvfe97oWz9rieAtROokg3JUl7r9vOf/zxolutrLWRpOIDWFNhS8Ght+2TjveJtAaw2GGqjwNeTAqcawOratVuZPv3NCHyPGTMusqk7dmwPTGEALliwsJw3fnwZPmxYBIUO7N9Xbr/j9thSxniiA2AN3IOtGzdtilNw9u3bX4YPHxaBkW3btgemC56/8OKLpV379mX8uePC8Bwy5KzSpUvneM+zzz4Xxr+gyFkcldoR9rkF+u///u/DiTG2xEl46jsYRhfB6Ntvvz2MbAGtBx54IPSQ3wSz3NtcdpxTJbPLuaGfBGTgqjnAW9hqrnSF93fu0qV06ty5qsDKANaUq0qf3ievwPJMjoxkBTqbN72kzxcj3xYI76bXjAPO//KXv4xAnUAch+upp54KPWKrelMfQa6ZM98qb0yfXsaOHRfP37RpYzgD9993bzmw/0DofD0bBw8eVCZNmlzGjh0TAUaO2yeffBoO3YTLLw/dllsX6OzlK5aHbuYUzpg5s/Tv1y+cuugbVjeYtgDW1xNH2kbdRoHTocCZDGAJ8LDt6R0+yJ//+Z9HcIae8R74BqsXL1lSvvXoo7HrQRDo+eefL2efPTKSGZ9+OjcCPJLUnnfk8OGyZPHieN7FF19ULrjgwrCjBc1gr4CBZEH2WaTfJA0EfeAwm5ktzX/S24++YGfDVIkHQSRJgOb6Lxk3vBXAgvF2pnRo37G079C+PP3MM+XDjz6KHSkd2rUPPXDeeePLrTffVARz6C5+Fkw1psceeyzGKUj16quvhq/mGpXOu2uJbkl6QS3v5YfQM+x/uzHoH89Ln86Y6Uy60u4V4/B8Pghcp4fpq5deeinoQe+4Z+7c+bEO8B/dZ82aHUnzm266scydO68sXrS43HvfvbFuzzzzTLli8hXlsssvjcqypj5ZrfWP//iPQXOJe/fSSZ/O/bS88eab5a477wp/r93xEv3LVN/t37evfFirylM80JoAFt9XII+PZS783/4DBkSAyg4idsBZZw0J3jDeq668KpJ2e/ftK5MmTAxd5zd+FduAfm78QTdBWP7X2aNGlz59+sY7Bf++851vFzYYe+WDDz6Myuhbb50a9pHgHJvEoVpaCdx1151Rkcd+Ejgz5hdefCF6T9LRZOX5F18q//DDx8u+Q1UAKz7Hj5VzR48uf/UXf9kWwDodUGu75wtToNUBrIduv7b89MlflinXX1suu+SSsu6zz8qzv30mKm0AOIBi9DOIlWUCCwa4TK/oukBLNq8VQCGYgA+YAnkgQsiBlXvdIyjGoHYfwBk1elRp16592btvb3nxxZdKr149GwJY8+cviMj25MmTIkovowGAb7j+hnB+Fi5cEA4IIf/FL35Rxo4eHUY6xeV9Wf1U74QY0z//8z+XkWefXaZOvbV06NipKBP+5NNPAji+9ci3ytCa05ErIYClUfn8ebUKrFMIYAEfc0XPAQMHhKE/f9HCoMnYMWOCvjt37CxXTp4cgT9OlS19AlYyJYJfQLkpgAVYnCWgaH1kx33nnshwd+0a1QjmCwC/+93vNpTWmhsF/JOf/CSUVAaw0IzzRbEbs98o5uaauDcEsEZq4t5WgfWFpbftAW0U+D1R4FQCWCqtbF+Q3WPwXnzRJbG1vEOH9uWsIUNCL8D9KyZPLsOHDY/r6IBbbr659O3XN3Bq1+6q19/QIUMjM0gfCGCpthIMiR5S7dqX8ePPLSqTli9bXlauXhX4yLC79pqrw+jfvWdv6AEG8s6dOwIrb7v1lgjYmxP98nd/93cRrEq9xeijS77zne8ELsJdusi2aHqFo/GNb3wj7mXgw0+OR31vLctS3xvFfD0zA1jGb86cKDjMSWDQp6NmzhHAmjat9O7VK7YQnqwCK52vDGDl1hNzoB/oW/P0/3/6p38KPUl/wHwOh4osztuPf/zjoAWHq6mgnMDda6+/Xj6dO7dMnnRF6dGje9HI39ZNyahDhw6X2bNmx9htMagqkc+K3mTVdsW5sS1eFYAtEr6vAocfl6XLlpVLL60FsGZMjxYAbQGs35OQt72mjQJfUQqcqQCWoEoEnI4ciYAK3ZABrJw6/QWrtSN55FuPlJ49epa169aV5557tlx+2WXl8ssnxA4LgQGJbb4MLP/gg/fL0SNHw6+IPknHjzdgvPdJeOehTmx9ek4FFt0hgJU9/fztd4ELiWzYzV5vLpARsYRaAEsw45FHHomqJz2Ijxw7Vv7l//tR2bRlc9zfuWPHwGeJhUEDB5af/vSn4ducf955Ze68+bFl/eGHvxkBJj6Vbd333H1PJH+qXRxbYjzr1q8rkydNbggWuV7lkqqpRYsXlq1bt8X19DNdYv62zZkXX6JXj54RkBt59ojQMfwIzzXuDGC9//6HEZSbMuWqOPhJFZDqsdtuuzXsBwn/u+++J/pa/upXT0ZbmEmTJ4VP05xPZwufhFUmb+hsfpTqug/nfFT++I+/G7Su/whGVRVYa4sKLO1pTvZpHMAaXeszJbGzfMWK8FOHDR0WOvLIkcNlwuUTyseffBxJHvNv365def6552P96eim+l+iqUIK9sqEiZMi+ec7AVcVexJVqql+8uOflj59e5c//dM/jQReh/btyrHjx8Iv/slPflruvPOOcr4AlhLn2Gq5rjz/wvPBl8Ylafjs88+Xv3/88XLg0MGYeiSTjh8r49oCWCdjhbbfv0QKtDqA9cjdN5Zf//bpMnj40HLtNdeUFUuXlmmvAbuHGwJYShlvvPHGMGJ9PBwwcD58nyW6AEZEmaIg6AxiARmOB0Oek+E7v4sGy3QwtgGe7LQAlmg9JyR6g/TuU5YuX17eeGNaRJLHnXtuBFG2bt0SASz7jG0jjABW797lF7/8RRl9zqgABgEsRrv3UDqM/nREgMGPfvSj+O7OWub66LGjZdnSZeWZZ58pt9x8S/RyyuBXnmDCsJ/z8Zxy6y23hhOlx0tLH/POY9Ozksvfc+fPK3M++STKOyldwcD9e/eV6669Jhw2jhSlJMIvSxN79ptp9muMsiaeIQAle5LbSwS8vJ8zRpEYD4VE4WaAj7NG2bnXOmS2iuLORvfomf2ymq3A+kQPrLYA1pco022PbqPAGafAqQSwVOB06969zH53dtm7Z29UwXICjh8/Vjp37hL9Fz75dG5Df4yZM2aUgwcOlDvuuD0M/LffeTu2ijPkVFIxlzT3fvGll0I3qADu0bNnZAttLRAsU26vQeu27dsj4CRLPnnSxKj8ktVUzbtkyeIy56OPysPffKhhK52MbgawBHF8VKLCScEehiNchIkqlBiggmH1ASwBFgkaNGKcw0o6I3uW+J7BLbsNd2FoVmBJhHgeHOfM+HTs1LF07NQ5gn+vvf5abB9AC1vYo/dEC31Q8sCN6C3WsWND0igrsAThPO+HP/xhBIbo29/85jfxXtsGjV0Wn76WkGjqQ2czmj+dNz8SVrYs6J/RuVPn0rNXz1pvsfdi/N17dA/drRG7kwQjgDVXAGtprJHEDAek0k9zy6LFiyKYNmbM6PLWWzPbAlhnXJLbHthGga8fBb6sAFZWYOUJr94joJEBrIcfeSQCAhs3VRVYEi6CJILtixYtLHfddXfoEhVTc+d+GtvbLrzggmobWy2JL0kBlyUEMhDB3+Av8YngsJ0qdAf7nT4QnMnG3gI79In/83ma+mQAS0BDAIsvEAcwHS/l1089XVavXhXVSlqQaHNiN0mn9u3LT3/289p2usujemq2xM23H43KaNXLb739Trn33nvKyBGVbjLGN96cHna++dDXelN269oleoId2L8/dPeOHTujGk21D11iu5zeUmwDrWeWLllSzr/ggmgBoAKpcQBLokrwavbsd4M+fAYVuXSP96I3Ggq+0B8qyS666MLQrfQb31PvTQGg+hPb+TmPP/542B78GzRiGwhkvvzKK+Wuu++OQgrbFtt3aFe6dOlabSH86KOyYsXySLJJqtUfXNbUeljv7GGmco3PiyckwBYsXBgBJmv/6muvlo4dOparrrwyKrCMWyXZ8d/5woKJdGcG9Bq/xzv41wKh191wYxl1zjmR7GMj9B/QP3pRv/D8C9GCxhzGjasSVt3tZDp+NPxHRQl33HFn8KwKLDyrAvC555+LZJuxHDh4sLzwwosRwNpfF8CKLYSjR5f//BdtWwi/foj672PErQpg/Y+/faI89uBtZd6CBeW9jz8qA/r1K/v37i0bN2ws33700TA2V62qmr8xiBnpPoxVEXfKgDBTEgAYeAjs5MlMQAmw2DbAkCdsAloETBALWHAQZDpWr1kTTXkBin4mSlcZx8CTUS1Krkrr0KGDUQJ50YUXBmAsUIE19bZQIAx0JanXXF1VYBkjIz6ri3K/sfFzZJTWnj1qVDTHA276T017442yfv26UAjmJMgEbCgSz5v25psBrLbJ2EesT0hLjke9gkY7QLR127by3vvvlS1btwboMPoHDRxUpt56a5QsoysHDH04RGiH9v7d1EdGn9KkIAEqB8c6AFMALlBI2QB0Spfi8MdacMAEBV2P5tnHJYOUfpc9kd33nqaauEcFVgSwNHEX5GwXR6i3fdoo0EaBrzYFTimAdeBAGTxocFn5u612DDYfhmDfvv3KeePPDYyQvWaAdu3WNQ7fYMzddccdpU/fPmXW7FmRVLjiyisbTnGlE+Z8VDkNDC0YrWHpZZdWJz0pzd+0aXM5ePBAGLkMNVjoHQvmL4ikh6RI507otrfqAAAgAElEQVSdyr333B24D/NsZRPcgYH0Eh1A59gO7zlw0v9l1ekfxqJKJvgGewW3YKFsJR0mSUBfMDrhZAb6GYWMTfd6jt/MmaMiKAZHJSJ8F71SBg8OHP7gww8Dl+mYSy+5JIzU5ra9t8RB3mOe7jUn80AjGWXbPOk57/dOf99xxx0NpyI1fi69qE/Y27NmR5NYFVjduglUjYnxmz/j2TzocM6OdZIhpic+/eTT2JKjGuLSSy6uquh69y6ffba2vDNrdtm7d0/oEi0A/CYL3LaF8KuND22ja6PAl0mBMx3AgmFsYVj1Z3/2Z6EPBATgtARG+B+bN5erpkwJR16QSpXU/PnzIvm+ffuOuJ4e6Nu3T2A4HSVZE03dw4ivEhr8Iu9T4ZrtPegiQSv6SRAInnou/0kFlv8LxqgGkqwXhGHfNxfA8jpBHdcqKojWJbW+SytWrCrT3nwjekb26N6zdOjUMfTdqJEjA28FmozBWPfs2V2+89hjZdiwoZH0f/vtd8rd9wjSVQEsO1C0a3nvvfdj/rapwW5FC4MGOVhqRVm+fFnozMOHj4RPNHHihNC9AmKKCvbt2RuJrMmTJpURI4eFHyhYhe69e/eJii0VUhJTdCYdoiJJ4G3ihAmhVz746MOy9rPPIvgi7sJ/8/3kyRPD/6HTfvvbZ2I9JNzrixIEBBVV8DetreIAuhyNJOStg3VSlURXWztzmjljZunapUvc41382Vb7dDU/x9q+/0F1IJb5sT/4VDfecEPZuWtn8BH/Em35fFrkGGdTPl1u31RJuHXbjkgWqXQfPXpUjPGD9z+InpI33XhD2bN3XySErrzyqnLhBedFgYVK7awKT5+uX99+wQeeqfBj9OgxUVlny+Y/PPH5AFZbBdaXiXhtz24NBVoVwPrvf/N4+d6j90T54Ko1q8q+AwfK3l27y/x58yPaD9w5HJrGaXBYZZ6rTDGjXnRd0AQQ5DGplRLYHgrDNYxmoAv8Bbt8D0x8gLe94BwVAGDv7t49e8KRASIa7TluGwi5b9/evZGh972/t2/fFgpnxPDh8QyA6b48NjeblDO+jSGyJ7WyXGMEdkdqJyiqTAKmMv0CWPv27ouxy55neTBFpgxTAAotBGwAfWuOJs9FE8BCL7QD4NmcEv1kRwSf0MJvwI6iM7bcptnU4mdDYTSy8GiRzSuNV9YeWAJGW2Y4OhyJPKGQQwdIrR3QB/LZR0bQjvNj7TyLYs+sVo6FIyOAJXgYpxC2Ba9aI6Nt17RR4A9KgXQe6o8Qrz/xKRvowo89e6ssq0bkPjAKhnmG7WBOEmIEbtq8JbBaxnbp0iWBodUWi35l0+ZNgUW2OHTp1q2a+/HjgbXrN6wPvSH4rT8SfSPDCVti28KxY6FD4JYEh+alnAH6qZPDKwYPriqGjh4NXDM2v8E6Y5CIaNAz69cHvsE5wRbfGzOMY3TCu/rK3WqLxeYIUsHixplfWI0esNv4/G6erveb5xm7e42FDnDKrbnlyU3wurkERUtMkmNFO/fDcrqO3qpORloT+pah77t6PdjUc91j3Bs2GvehBn1K/0i4dOncJXQSXbx129bQ++jnJCjvOXr0SFRsucb7BMFCd6xfXztBq0P0oJF5zy3ubT2w/qAw0PbyNgr8wShwpgJYcFsSOvu3wn/BF5jsO9jE9mUf0xH8B1gIr1WnsnNhJ7yGpRqHq1ARBNIPUPWoZ2UAC07CfB/PqU+Oe7ffvNf80gcS/KGTYCO9RH/BVf9vqYm78dFHgi71wRWBJHrLoVD0jWQ6OsDkHdt3xAmFKqBVmXmXJu4DBg4su3buivGdPXJEFAikT0Rnb9y0uWzdsiXGrgpaKxVBwC1bt5WNGzeELnO4lu979+kdNoGkBV8MbSSfVFfztWJs/LZ9+0L/GBd96299Luk/NNH+xQmK5kbPSnTwPflVdDk9PWhQtYPG2ixfvjJ0Cz+vfjs/vWWN0dz9fvfZtn1b+C50bdBoxIjw3+hhc/5s7dqyY/v20NvuO51EklMgt2zZXPOHj4W9wm8cMnRojMFc0+91II2x4YGW+mu6nl51WiL+QHO9nq1lp46dIvjovStXrooDCQafNSh6KOM/1VnuQWvV0D179Yq127J5c9CCbeW3997/sPzjD38YMYDjAqP8+1LKuWPHlb/8/vfL9dddG35x26eNAr9PCrQqgPXf/tc/lj957N5wBhYtWVTate9QNm/aHHusZWqrxoLtSrt2VTNzlUc+hC4FjzLwAS6u8X06Qb73HeCPstdjx0J5pMPktwwq1R/dnoRyn9/14XAyYGzpa98+tu5lYzrf1T/D+/P/+b4cW/0C+I1A5xg19jM731MGuX2wfoy+y3F6Zii00xDuqHrwBy1qR5fWjzHH7bqk3cneU09b13qeP8br/3kqY84tG+/m+uW6coIyq5G0cA/QlEmxHaVxw8kqgPVJKCcR/7ZPGwXaKPDVp8ApBbD27AkDUCCc4RXYAPuPH2/AfplUjsC6tWvDaGVIVZnaiQ33BM5IrdbjZg3fUy9UWAhbq2B/YlRiceoY72coJuZnVRRcrw/K+T1xzbPgWQPu13SW71OXZFVaYqhrU29VerD95xa38Rj93jDGmi5prC/qdVq97jwdrjGfnG/qjKRF/djqsb2l9zTWgak7bCdkzIZOPnY8Mv+pN+r1etoD3pfb2fOZnC7N/Pv1718u08S9S5eGZ/hHWxP30+GAtnvaKPD1pMCZDmAlVsOj+qAQjEyMrwFO6VDDcUEW/YvsfhDA6tunT7n2+usj2LVj544IlggQUEix1buWBK/XV/X2eb39nr4SjDfXen/FmFLHnGz7uLE35W8kvtMnekdq6u0dbHKVOJ7PdhdMue322+MQETrTn/TXknPSv8nAW71eSnyv/KLqPc35dKn/UtfmGqcOTFpUeqvy3zwvD/1oikYdOlS+Z6VHqrGnn5fjr9db6XeeuOeET5c+ld/OqE9X829zPPU+Hd3J30u7I2nUnNQmrzTlL7N7UCODsxUf0svtw7bxJ/mp3vYRsKOz9XPz/P37D5QXXnq5aH6//+DBctyW/3aVLy+A9ed/8qflhuuuaQtgfT2h9Ws96lYFsP7H//rH8t3H7g3HRF+mI0ePlB7de5RxY88tjkvPQAjwqATuBE1SAOuBtykQPpmgfq2p/B9k8FnVoCzVSSiNK7AYALbtZOnufxCytE2zjQJfawqcbgCrqQylZ2U1kMpWmKFPhayxbGd90Ich5U9+0in4WhOzbfCtosChw4eqBva/2/J/6cWXRGCz/kOPcCJtD9Efpu3TRoE2Cvz7pcCXEcA6FWrRU6p+BHv4QQI9dJZKpQzkZOAo+xCdyXoU74d3eeBV/dhjF8rIkS1W6jQ1V89UjWS7JJ2sgkl1mjmlE/f107n1VsPnE0inst5t156ggCDB8y++XJ544omoNowKrChQKZF4/P73vleuu+bqtgBWG9P83inQqgDWf//rH0YFluqjw0ePRGZcFLdTxy61gFW7iOq3JoDVXAYhMxAnqyD6vVOo7YWtpgCFqDT36aefjrLTxpkPil+ZsX3+gK/t00aBNgp89SlwJgNYZpvZzPrK1jT+G+N/BrDOpDPw1ad42whlh1997bVo6i4Q2qlDx88RxbZ/OsSpu3HiV9unjQJtFPh3S4E/dAALYdm3dFZW/mSFTr2O+rL0lSCZLYK5tdF40mdSQWZbW3PbC1tiCnOyzVGqqKpGOrGzorqvcQrp68BiGUL8Ooz1qz9Gunjd+g3RB0wF3/FSBbDwRs8ePcqY0WPKoIEDqm2zbZ82CvweKdCqANb//Osflv/02L1xMlI7VVa17RS1wzSr4FUtqOW7+p0TjSuwThbASmD+PdKg7VVniAIUO2Vo/3n91pz6NaX0ZdUbZ9TP0BDaHtNGgTYKnGEKtCaAlVsUKJTcQng6PSLO8NDbHvc1pYDNDoJUemjFdpTaPOp7meShMI0TJV/TKbcNu40CbRRohgKnEsDK7VFsUf/2tz+ql7IH1teR0Fnp1XjsZyb5X1+5VF931dz3X0cKto35dCiQrRKC//5/9u7kObLsvg/9LxNIFEjL2ngIq2QAD3CEhwgvHHa8CO9aT6RliaRom81JFNnVc1VXV9c89FBDz92UKJJiU3oiu2XJz156Ze/tf8AbTfbOXtjh8PMLQyJbcIEYEi9OVmV1VjaqcBK4mXf6ZMSNArJu3nvO53e6UPXtc8+5G2kOY820VMDgEcj05NVhLu4zBI4gsG+AtReDR1zTuoWdfr+/981ff38QYKXnolOAlWZg3fmL5J0hOxjAgxlYacrmnbWwhn/RFGAdoTo1/ejwuez9ftCOhlk17Z5mE2iVgACrVeWuRGcHf1Ee/N/eO68HPcpixnYlyqURBKYqMGmAlWZKpaNJAdZUge9FE+N/2gqwputej6vfWdPszsyr0Tl5w9bX71HTerhr5cMF9p+Blcbp3kcB1jvf+iBOfO2zgx0NOt00A+tOgJVmXg0DiTuLDKbw6s6vw9fo2lbD/1OwX7Bx0BpZCkmAAAECsxd4WIA1XIh2uEC4GVizr487EiBAoMkCAqwmV1ff6iYwfEhzWo/M1s1De8sReNAjhGlc3puB9c5vvB8nfiUFWAuDACvNtBoNo0Z3sxt+fS+ZvbsT4cOmuY4HW/6vajmDwV0JECAwLiDAMiYIECBAoCyBnABrdG3FB83ASjtgr66ultUN9yVAgACBggSy1sDKDbBGw6vRwGr86/G2C7AKqqbLECBAoGABAVbBoC5HgAABAtkCAqxsKicSIECgFQKZAdYHd2dg3XmE8EEzsARYrRgzOkmAQIsEBFgtKrauEiBAoGICAqyKFURzCBAgULJAZoCV9wihAKvkaro9AQIEChYQYBUM6nIECBAgkC1QVIBV510Is7GcSIAAgRYICLBaUGRdJECAwGEFBFiHlfM5AgQIEDiqgADrqII+T4AAgWYJZAVY7/7GB/HYr3zmgYu4D3ca3G/Hwf3WwhontAZWswaV3hAg0BwBAVZzaqknBAgQqKPA+M+h9H3aBXd4WMS9jlXVZgIECBxOoLAAaxheDXcQtIj74QriU9UTSH8xsjNm9eqiRbMRmCTA2tjYiM3NzUi7PS0uLs6mge5CgAABAo0WEGA1urxZnfN38SwmJxFohUBWgHXQLoQpvBJgtWK86CQBAi0TEGC1rOC6S4AAgYoJCLAqVhDNIUCAQIkCWQHWu9/+IB77ymei11vYdxdCAVaJFXRrAgQITFFgkgAr/UBJM7BWVlbMwJpiTVyaAAECbRIoIsCyiHubRoy+EiDQZIGsAOudb70fJ772uejN9wRYTR4N+kaAAIExgUkCrPQI4e3btwVYRhEBAgQIFCYgwCqM0oUIECBQe4GsAOutX/9hPPGrvyzAqn25dYAAAQKTCUwaYFkDazJfZxMgQIDAgwVydyHc2dmJdGxvbw+O9PXW1tbgWF9fH6zNuLq6ipoAAQIEai6QFWC9/u7vxDMn/knMz+XPwHrYmljjZnYhrPko0nwCBBorIMBqbGl1jAABApUXyAmw0m6EwwBrGGIJsCpfWg0kQIDAoQSyAqzX3vnteObEP43efP4aWKMB1vjOhAKsQ9XKhwgQIDBzAQHWzMndkAABAgTuCgiwDAUCBAgQGBXIC7De/q145vF/JsAydggQINAyAQFWywquuwQIEKiQgACrQsXQFAIECFRAIC/AeuP78fSTX4jewkJ0u50Y7DrY6cRwZtV+uxCagVWB6moCAQIEjiggwDoioI8TIECAwKEFBFiHpvNBAgQINFIgK8B69bXvxTNPf3EQYHW6nZjvdgfhlQCrkWNCpwgQIHBPYNIAyy6EBg8BAgQIFCUgwCpK0nUIECDQDIFDBFgRc905M7CaUX+9IECAwEMFJg2w7EJoQBEgQIBAUQICrKIkXYcAAQLNEMgMsL4fzzx95xHCNANrziOEzai+XhAgQOAAAQGWIUKAAAECZQnkBli7u7uDnQi3t7cHh10Iy6qY+xIgQGC6ApkB1ugjhBHz3TmPEE63Lq5OgACBSghMEmClHyhpBtbKykosLi5Wov0aQYAAAQL1FSgqwFpaWoq1tbX6Qmg5AQIECAwEMgOs0RlYHiE0dggQINAWgUkCrI2NjbAGVltGhn4SIEBg+gJFBVjLy8uxuro6/Qa7AwECBAhMVSAzwHovnnn60buPEAqwploRFydAgECFBCYNsKyBVaHiaQoBAgRqLiDAqnkBNZ8AAQIFC2QFWK+9/r14+qnhLoQeISy4Bi5HgACBygoIsCpbGg0jQIBA4wUEWI0vsQ4SIEBgIoHxACt9uLMXsdeJOH78eHT6/f7ea2+8F08/aQbWRLJOJkCAQAMEBFgNKKIuECBAoKYCAqyaFk6zCRAgMCWBfWdgjQdYr7/5Xjz1hABrSjVwWQIECFRWYNIAyxpYlS2lhhEgQKB2ArkBVtp1cHjYhbB2ZdZgAgQIZAs86BHCvRiZgfXGm9+PJ5/8QvR6C9HpRsx1utHtdgc7EaZX+nr4/eh76evhkc4b/Xq0hePvD6+R3QsnEiBAgMBUBARYU2F1UQIECBDIEBBgZSA5hQABAi0SyFoD6823fiueeCIFWD0BVosGh64SIEBg0gDLIu7GDAECBAgUJSDAKkrSdQgQINAMgbwA6+3fjicf/2cxL8BqRtX1ggABApkCAqxMKKcRIECAQOECRQVYS0tLsba2Vnj7XJAAAQIEZiuQFWC99c5vx+Mn/ul9jxCmx/zSY4Pp5RHC2RbN3QgQIDArAQHWrKTdhwABAgTGBQRYxgQBAgQIjApkBVjvfPN34rFvfF6AZewQIECgZQICrJYVXHcJECBQMYHxn0Pp+36/f99x0CLuZmBVrKiaQ4AAgUMKZAVYv/6t9+NXv/bZmB9ZxP2gGVjD37eI+yEr42MECExNIP3l96DNInLOmVoDK3RhAVaFijHFphjvU8R1aQIEjiRQRIC1vLwcq6urR2qHDzdTwM+/ZtZVr5orkBVgfevbH8TXvpoCrLSIeyfm7j4++LBdCAVYzR00ekaAQHsEBFjtqbWeEiBAoIoCAqwqVkWbCBAgUI5AVoD1G9/+3fiVr37mXoA13+0OZi8IsMopmrsSIEBgVgICrFlJuw8BAgQI7CdQRIDlEUJjiwABAs0QyAqwvv2dfx5f/covCbCaUXO9IECAQLaAACubyokECBAgMAUBAdYUUF2SAAECNRXICrC+893fi698+RfvBlgR8905M7BqWnDNJkCAwCQCAqxJtJxLgAABAkULCLCKFnU9AgQI1FcgK8D67nd/P7785X98L8Ca685F94BHCLsjjxmOL+Q+zjX6++n3Dlpcub7cWk6AAIF6CQiw6lUvrSVAgECTBIY/g1Kf0s6D6XWYXQgt4t6kUaEvBAi0WSArwPrN7/2L+NIXf2GiGVgpwEqv0SDrQeGUAKvNQ1DfCRCoskBugLW7uxv/+3//79jc3Iz0D4XFxcUqd0vbCBAgQKAGAgKsGhRJEwkQIDBDgawA63vf/5fxxS98WoA1w8K4FQECBKogIMCqQhW0gQABAu0UEGC1s+56TYAAgQcJZAVY733/X8UXH/10zM3PR6cbkfsIYbqpGVgGHwECdRRIf2n2OPOdRzXSa/joxvDrNOMqvZd+3dnZGfxqBlYdR7o2EyBAoLoCAqzq1kbLCBAgUIZAZoD1L+OLj/6jewFWziLuHiEso5zuSYAAgWIFJg2wbt++HSsrKx4hLLYMrkaAAIFWCgiwWll2nSZAgMADBbICrO+nRwgf/UfRHczA6sT8yALt6coprBqfaSXAMuoIECBQfwEBVv1rqAcECBCoq4AAq66V024CBAhMRyArwPrt9/5VPPrFT98LsOYEWNOphqsSIECgYgK5AVZ6nHBjY8Mi7hWrn+YQIECgzgK5AVZ6jH17e3vwSPvw162trUjH+vr6YHOR1dXVOlNoOwECBAhERF6A9b3/J774xX8UnfnenTWw5uYGa8MM14fJmYGVtMd3GxxWwC6ExiIBAgSqKTBpgOURwmrWUasIECBQR4FJAqxheLVfgLW0tBRra2t1JNBmAgQIEBgRyAqw3vvu78VXvvyLdwOsTszNdQVYhhEBAgRaIDBJgJV+oGxubloDqwXjQhcJECAwCwEB1iyU3YMAAQL1EcgKsL77G78bX/vqZ6LTSzOwBFj1Ka+WEiBA4GgCkwRY6RFCM7CO5u3TBAgQIPCRQFEBlkcIjSoCBAg0QyAvwPr1D+JrX0sB1sLgEcLhgu2jC7UftIh74vIIYTMGjV4QINAegUkDrDQDK/1DYXFxsT1IekqAAAECUxEQYE2F1UUJECBQW4HxACv2IjoRsdeJOH78eHT6/f7ed379g/jVr3323gysbvfO+lcCrNrWXcMJECCQJSDAymJyEgECBAhMQUCANQVUlyRAgECNBfadgbV3QIBlDawaV1zTCRAgMIGAAGsCLKcSIECAQKECuQFWWsB9eNiFsNASuBgBAgQqJfCgRwj3YmQG1ne/dfcRwvn0CKE1sCpVQY0hQIDAFAUEWFPEdWkCBAgQeKiAAMsAIUCAAIFRgaw1sH7z278Xv/KVX7SIu7FDgACBlgkIsFpWcN0lQIBAhQQEWBUqhqYQIECgAgJZAdb3vvP78ZUv/0J07y7iPjc3d9+C7GktLIu4V6CamkCAAIGCBQRYBYO6HAECBAhkCwiwsqmcSIAAgVYIZAVY73339+MrX/qFe7sQCrBaMTZ0kgABAiHAMggIECBAoCyBogKspaWlWFtbK6sb7kuAAAECBQlkBVjf/81/EV/60i9Ed75nDayC4F2GAAECdRAQYNWhStpIgACBZgoIsJpZV70iQIDAYQWyAqzf+u4/jy98+RejdzfA6nbnBkFWp9MZ3He/RwjT76Vj+GhhOm/43nhjx98fXvewnfI5AgQIPEwg/YXYnzN5Y0SAlefkLAIEihXw53SxnnW+2vjPofR9v9+/77ALYZ0rPL225/w5knPO9FroygQITCqQFWC9950P4tGv/GIsDAKs+TuhlABrUmvnEyBAoHYCAqzalUyDCRAg0CgBAVajyqkzBAgQOJJAVoD1/e98EF/4yj+OhbSIe0eAdSRxHyZAgECNBARYNSqWphIgQKCBAgKsBhZVlwgQIHBIgawA673vvB+PfjXNwBJgHdLZxwgQIFBLAQFWLcum0QQIEGiMQBEBlkXcGzMcdIQAgZYLTBBg/dKdRwjNwGr5kNF9AgTaJCDAalO19ZUAAQLVExBgVa8mWkSAAIGyBPICrG9/cGcGVk+AVVah3JcAAQJlCAiwylB3TwIECBBIAkXtQri8vByrq6tQCRAgQKDmAlkB1vd+44fxxa+lGVj5jxCmhd7Ta7gL4XDHr/12/rILYc1HkeYTINBYAQFWY0urYwQIEKi8gACr8iXSQAIECMxUICvA+s1v/SC+9KufEWDNtDRuRoAAgfIFBFjl10ALCBAg0FYBAVZbK6/fBAgQ2F8gM8D64d0AK/8RQjOwDDkCBAjUX0CAVf8a6gEBAgTqKiDAqmvltJsAAQLTEcgKsL77rR/El83Amk4FXJUAAQIVFhBgVbg4mkaAAIGGCwiwGl7gCnQvjbH9lripQNM0gQCBfQSyAqzBI4Rf+0ws9KyBZRQRIECgTQICrDZVW18JECBQLQEBVrXqoTUECBAoW0CAVXYF3J8AAQIVFhBgVbg4mkaAAIGGCwiwGl5g3SNAgMCEAlkB1nvf/mE8+itH24UwtWt8t8FhW+1COGHVnE6AAIEZCQiwZgTtNgQIECDwMYHcAGt3dzd2dnZie3t7cKSvt7a2Bsf6+nosLy/H6uoqYQIECBCouUBmgPV+PPorv3ikXQgFWDUfKZpPgEArBSYJsNIPlM3NzVhZWYnFxcVWeuk0AQIECBQnUFSAtbS0FGtra8U1zJUIECBAoBSBCQKsNAPr8LsQCrBKqa+bEiBA4EgCAqwj8fkwAQIECBxBoKgAywysIxTBRwkQIFAhgQkCLDOwKlQ3TSFAgMBMBCYJsDY2NgYzsNI/FMzAmkl53IQAAQKNFhBgNbq8OkeAAIGJBfICrO+8H49+5RePtAthapk1sCaujw8QIECgVAEBVqn8bk6AAIFWCwiwWl1+nSdAgMDHBMYDrNiL6ETEXifi+PHj0en3+3vf/84H8YUv3w2wut3oduei0+0MAqn06g7e694XUKXvh783PE+AZQQSIECgXgICrHrVS2sJECDQJAEBVpOqqS8ECBA4usB+M7A60Yl+7H0UYP3Oe78fn//CL8VCbz463b3ozs19LKwSYB29GK5AgACBqgkIsKpWEe0hQIBAewRyA6y06+DwsAthe8aHnhIg0D6BrEcIf+f7vxef/8JnY2E+BVj96NydbTU6y0qA1b7Bo8cECDRfQIDV/BrrIQECBKoqIMCqamW0iwABAuUIZAZYaQbWZ+4GWHv3Hh8UYJVTNHclQIDArAQEWLOSdh8CBAgQGBcQYBkTBAgQIDAqkBlgmYFl2BAgQKCNAgKsNlZdnwkQIFANAQFWNeqgFQQIEKiKgACrKpXQDgIECFRQQIBVwaJoEgECBFoiUFSAtbS0FGtray1R000CBAg0VyArwPrBe/88fvnR4RpY6RHCOzsOeoSwuQNDzwgQIJAEBFjGAQECBAiUJSDAKkvefQkQIFBNgawA64P3fjc+8+hnYn5+PrpzEd3OnV0IHxZgpd8fnpN+Ta/he+MU4+8Pz68mmVYRIECgPQICrPbUWk8JECBQRYHxn0Pp+36/f99hF8IqVk6bCBAgULxAZoD1wZ0Aq9eLbleAVXwZXJEAAQLVFBBgVbMuWkWAAIG2CAiw2lJp/SRAgMDBAlkB1vvvfRCfFWAdrOkMAgQINExAgNWwguoOAQIEaiYgwKpZwTSXAAECUxTICrB++N778bT9+ygAACAASURBVLlHP2sG1hQL4dIECBCoooAAq4pV0SYCBAi0R6CIAMsi7u0ZL3pKgECzBQRYza6v3hEgQOBIAgKsI/H5MAECBAgcUUCAdURAHydAgECDBLICrB987/34/Bc/G3PWwGpQ6XWFAAECBwsIsA42cgYBAgQITEegqF0Il5eXY3V1dTqNdFUCBAgQmJlAVoD1O9/7YfyTL30u5ubzF3Ef3aFwdJfB/XYYtAvhzOrtRgQIEJhIQIA1EZeTCRAgQKBAAQFWgZguRYAAgQYIZAVYP/jeD+OXv/S5mBdgNaDkukCAAIF8AQFWvpUzCRAgQKBYAQFWsZ6uRoAAgboL5AVY770fv/zFzwqw6l5t7SdAgMCEAgKsCcGcToAAAQKFCQiwCqN0IQIECDRCICvASo8Qfv6Ln5toF0KPEDZifOgEAQItFxBgtXwA6D4BAgRKFBBglYjv1gQIEKigQFaAlRZxH8zAmmARdwFWBautSQQIEJhQQIA1IZjTCRAgQKAwAQFWYZQuRIAAgUYIZAVYP3zv/fjcowKsRlRcJwgQIDCBgABrAiynEiBAgEChAgKsQjldjAABArUXyAqw3v/+B/HZL3zm3gysue58jO4cmGZbpWP8vaQzfD99Pb7b4FDPLoS1H0c6QIBAQwUEWA0trG4RIECgBgK5Adbu7m7s7OzE9vb24Ehfb21tDY719fVYWlqKtbW1GvRYEwkQIEDgYQJZAdbvfv934zOP/lLM3d2FUIBlUBEgQKAdApMEWOkHyubmZqysrMTi4mI7gPSSAAECBKYmIMCaGq0LEyBAoJYCAqxalk2jCRAgMBuBSQKsjY2NuH37tgBrNqVxFwIECDReoKgAa3l5OVZXVxvvpYMECBBouoAAq+kV1j8CBAgcQWDSACvNwEr/UDAD6wjoPkqAAAECAwEBloFAgAABAqMCAizjgQABAgQeKCDAMjgIECBAoCwBAVZZ8u5LgACBagqMB1ixF9FJ/8OjE3H8+PHo9Pv9vQ/uLuI+1+tFtxthDaxqFlOrCBAgULSAAKtoUdcjQIAAgVyBSQKs4eLt+y3i7hHCXHHnESBAoNoCH5+B1bkTYMVe/MwwwPrhe+/H5x79rF0Iq11LrSNAgEDhAgKswkldkAABAgQyBXIDrLTr4PAQYGXiOo0AAQI1FHjQI4R7MTID6wfvvR+f/+JnR3YhnItOpxudTsq6Irrd7uBI34++N/y94Xujvz9qNf7+8PwaemoyAQIEGiUgwGpUOXWGAAECtRIQYNWqXBpLgACBqQtkrYH1g++9H5//0miANf+xsEqANfVauQEBAgRmLiDAmjm5GxIgQIDAXQEBlqFAgAABAqMCeQHWYAbW52Juft4aWMYPAQIEWiQgwGpRsXWVAAECFRMoKsBaWlqKtbW1ivVOcwgQIEBgUoG8AGswA2s0wPII4aTQzidAgEAdBQRYdayaNhMgQKAZAgKsZtRRLwgQIFCUQFaA9X9/9wfxT7/yy9bAKkrddQgQIFATAQFWTQqlmQQIEGiowPjPofR9v9+/7zhoEXczsBo6OHSLAIHWCWQFWO9967fi0a/9s5FdCA+egTVcmH24NlaStYh768aXDhMgUHMBAVbNC6j5BAgQqLlAEQHW8vJyrK6u1lxC8wkQIEAgK8D6zW/+ZnzpG18SYBkvBAgQaJmAAKtlBdddAgQIVExAgFWxgmgOAQIEShTICrC+++5348snvhzz8727i7ibgVVizdyaAAECMxMQYM2M2o0IECBAYB+BIgIsjxAaWgQIEGiGQFaA9Z13vhNfefwr9wKsbmcuRh8NTF8Pv0+PCaaXRwibMUD0ggCBdgsIsNpdf70nQIBA2QICrLIr4P4ECBCojkBWgPUbb387fuXxr957hDAFWCmgSqFVegmwqlNQLSFAgECRAgKsIjVdiwABAgQmFRBgTSrmfAIECDRXICvA+uYb34pvPPW16N19hLDTPTjAGg23RhdvH87QGiUdX9x9v3OaWwI9I0CAQHUFBFjVrY2WESBAoOkCw59BqZ9p58H0OswuhBZxb/pI0T8CBNoikBVgvf3ar8Xjz3w9FuZ70elGCLDaMjz0kwCBtgsIsNo+AvSfAAEC5QkIsMqzd2cCBAhUUSArwHrrtXfjiWceE2BVsYLaRIAAgSkKCLCmiOvSBAgQIPBQAQGWAUKAAAECowJZAdabt96JJ589EQs9M7AMHwIECLRJQIDVpmrrKwECBKolIMCqVj20hgABAmULZAVYb9x8J548+Vgc6y14hLDsirk/AQIEZiggwJohtlsRIECAwH0CAiwDggABAgRGBTIDrHfjyZMn4lhvXoBl/BAgQKBFAgKsFhVbVwkQIFAxAQFWxQqiOQQIEChZIDPA+rWRAGsvumkXwm4nhrsFph0H0zG6m+D4LoSpn+O7DQ77bhfCkkeB2xMgQOABAgIsQ4MAAQIEyhLIDbB2d3djZ2cntre3B0f6emtra3Csr6/H0tJSrK2tldUN9yVAgACBggSyA6ynTj0eC/NpBlYKsLoCrIIK4DIECBCossCkAdbt27djZWUlFhcXq9wtbSNAgACBGggIsGpQJE0kQIDADAWyAqzXb/5aPH0vwOqbgTXDArkVAQIEyhSYJMBKP1A2NzcFWGUWzL0JECDQIAEBVoOKqSsECBAoQCAzwPpmPHXy8Tg22IVQgFWAu0sQIECgFgKTBFgbGxuDAGt5edkMrFpUVyMJECBQbYGiAqz0c2l1dbXandU6AgQIEDhQICvAeuPmcA2sFGB5hPBAVScQIECgIQICrIYUUjcIECBQQwEBVg2LpskECBCYosB4gBV7EZ2I2OtEHD9+PDr9fn/v/gDLDKwp1sOlCRAgUCkBAValyqExBAgQaJWAAKtV5dZZAgQIHCjw8RlYnTsBVuzFzwiwDvRzAgECBBotIMBqdHl1jgABApUWyA2w0q6Dw2O/XQg9QljpMmscAQIEsgUe9AjhXjxwBpZHCLN1nUiAAIGaCwiwal5AzSdAgECNBQRYNS6ephMgQGAKAodYA8sjhFOog0sSIECgkgICrEqWRaMIECDQCgEBVivKrJMECBDIFhBgZVM5kQABAu0TEGC1r+Z6TIAAgaoICLCqUgntIECAQDUEDhFgeYSwGqXTCgIECExfQIA1fWN3IECAAIH9BYoKsJaWlmJtbQ0zAQIECNRc4BABVj+6c3PR6XQGR3p1u93BMf7e8PeG543+/qjb+PvD82tuq/kECBCovYAAq/Yl1AECBAjUWmD851D6vt/v33cctIi7AKvWQ0DjCRAgcE/gEAFW3gysYSg1DLbSHQVYRh4BAgTqJSDAqle9tJYAAQJNEygiwLILYdNGhf4QINBWAQFWWyuv3wQIEMgQEGBlIDmFAAECBKYmIMCaGq0LEyBAoHYChwuw5j7+uOD4I4RmYNVuLGgwAQIEPiYgwDIoCBAgQKBMAQFWmfruTYAAgWoJZAVYb9769Xji2cfiWK8Xna5HCKtVQq0hQIDA9AQEWNOzdWUCBAgQOFigiADLGlgHOzuDAAECdRDICrDeuPVr8eSzJwRYdaioNhIgQKBAAQFWgZguRYAAAQITCdiFcCIuJxMgQKDxAlkB1us3vxlPnXz8owDLI4SNHxg6SIAAgSQgwDIOCBAgQKAsgaICLIu4l1VB9yVAgECxAlkB1ms3vhnPPPdELMzPZz9CmNbESq/91sYa78L47oTpey8CBAgQKF9AgFV+DbSAAAECbRUQYLW18vpNgACB/QUEWEYGAQIECDxQYNIA6yc/+Un87M/+bHzyk5+kSoAAAQIEjiQgwDoSnw8TIECgcQKHC7AyHiE0A6txY0WHCBBoocCkAdbm5makRzUWFxdbqKXLBAgQIFCkgACrSE3XIkCAQP0FMgOsd+OZ5570CGH9660HBAgQmEhAgDURl5MJECBAoEABAVaBmC5FgACBBggIsBpQRF0gQIDAtAQEWNOSdV0CBAgQOEhAgHWQkN8nQIBAuwQyA6xvxjOnnoiF3t1F3D1C2K5RorcECLRWQIDV2tLrOAECBEoXyA2wdnd3Y3t7O3Z2du79urW1FelYX18fPNq+urpaen80gAABAgSOJpAdYD196vE41usdehfC1Mzx3QaHTbcL4dGK6NMECBCYloAAa1qyrkuAAAECBwlMEmANw6thkCXAOkjX7xMgQKB+AgKs+tVMiwkQIDAzgUkCrPQDJS3ivrKyYhH3mVXIjQgQINBcgaICrKWlpVhbW2sulJ4RIECgJQKZAda78cypJ4/0CGHyNAOrJaNKNwkQaIzAJAHWxsZG3L59W4DVmOrrCAECBMoVKCrA8ghhuXV092IE0n8P6d/TXgTaLJAZYH0zPELY5mGi7wQItFVg0gArzcBK/1BYXFxsK5l+EyBAgEBBAgKsgiBdpvYC/X5/sKbb/Px8zM3NCbJqX1EdOKxAXoB1/Zvx9HNPxLHhIu7dbnS6nXv/4XS73UjH6Ayr9H16Dd9PX5uBddgy+RwBAgTKERBglePurgQIECAQIcAyCghEpPDqJz/5yWCZhvT1T//0Tw+CLLOxjI42CowHWLGXFPZS2BTHjx+PTr/f33v1lXfimdNPfRRgHWIXQgFWG4eXPhMgUHcBAVbdK6j9BAgQqK9AboCVFnAfHhZxr2+9tXx/gRRaffjhh/Gf//N/jv/1v/5X/J2/83fir/7VvyrEMmBaKbDfDKz0YG3KsX5mGGDdevmdePb5J+1C2MohotMECLRZQIDV5urrOwECBMoVEGCV6+/u1RBIAdaPfvSj+Hf/7t/FD3/4w/j6178eP//zPy/EqkZ5tGLGAg96hDAFWPdmYN186e04eSbNwOpFp7t357FAjxDOuFRuR4AAgdkLCLBmb+6OBAgQIHBHQIBlJBC48whhCrD+/b//93H+/Pn4C3/hL8T169fj537u5+Kv/JW/Er30b3SLuxsqLRHIWgPrxotvxakXnvEIYUsGhW4SIEBgKCDAMhYIECBAoCwBAVZZ8u5bJYHxAOu//bf/Fn/7b//teOmll+JTn/pU/OW//JeFWFUqmLZMVSArwLp+7c147mwKsMzAmmo1XJwAAQIVExBgVawgmkOAAIEWCRQVYC0tLcXa2lqL5HS1SQLjAdZ//a//ddC9v/t3/25cvXo1Pv3pT8df+kt/SYjVpKLrywMFBFgGBwECBAg8UECAZXAQIECAQFkCAqyy5N23SgLjAdZ//+//PXZ3dyMFs3//7//9wUysv/W3/tbg0cL0OKEXgSYLHC7Asgthk8eEvhEgQOCegADLYCBAgACBMgXGfw6l79M/6EePg3YhNAOrzAq691EFRhdxv3XrVnzyk5+M//gf/2M8+eST8Q//4T8czC5Mxyc+8YlBiJXWq/Yi0FSBwwVYGYu4p4Xk0jFY8P3uonLD98Yxx9+3CF1Th5t+ESBQNwEBVt0qpr0ECBBolkARAdby8nKsrq42C0ZvWiOQAqw/+7M/i//wH/7DYCH3Rx55JN5+++34m3/zb8Zzzz0XP/VTPzUIrn76p3968Ovc3FxrbHS0fQJZAdYrV9+M0+cmWwNLgNW+waTHBAg0T0CA1bya6hEBAgTqJFBEgGUGVp0qrq3jAsMAK+1EuLGxMQio/s2/+Tfxr//1v45XX301/t7f+3vxF//iX4zFxcWYn583A8sQarRAZoD1epw+d3KiRdwFWI0eNzpHgEBLBARYLSm0bhIgQKCiAgKsihZGs2YmkAKsDz/8MDY3NwcB1vb2dvyP//E/4pVXXomvfvWr8fnPfz7+2l/7axZxn1lF3KhMAQFWmfruTYAAgYoLCLAqXiDNI0CAQMMFBFgNL7DuHSiQAqytra1BiJVmX6X/JtI/4v/tv/23cfz48cE6WGkXwmPHjh14LScQqLtAZoD1Rpw+96wZWHWvtvYTIEBgQgEB1oRgTidAgACBwgTsQlgYpQvVWCD9dzDcvCD9mnYgXF9fH2xkkIKt9OigAKvGBdb0iQTyAqxrb8bps0dbA2t0IffxFlrEfaKaOZkAAQIzExBgzYzajQgQIEBgTKCoAMsi7oZWUwSGYVZ6lHC4HlZauD2FWHYfbEqV9eNhApkB1htx+uxkM7CG/wENdyEUYBmIBAgQqJ+AAKt+NdNiAgQINEVAgNWUSupH0QJp9lU60r+xh//eLvoerkegigICrCpWRZsIECBQEQEBVkUKoRkECBBooYAAq4VF12UCBAg8RECAZXgQIECAwAMFBFgGBwECBAiUJSDAKkvefQkQIFBNgcwAa/I1sDxCWM2CaxUBAgQmERBgTaLlXAIECBAoUkCAVaSmaxEgQKD+AnkB1tU34/S5yRZxF2DVf3DoAQECBARYxgABAgQIlCUgwCpL3n0JECBQTYHMAOuNOH3OIu7VLKFWESBAYHoCAqzp2boyAQIECDxcIDfA2t3djZ2dndje3h4c6eutra3Bsb6+HktLS7G2toabAAECBGoukBdgXTv6LoTJKe2SMNyNcNRt/P39zqm5s+YTIECglgKTBli3b9+OlZWVwXbOXgQIECBA4CgCAqyj6PksAQIEmicgwGpeTfWIAAEChQlMEmClHyibm5sCrML0XYgAAQLtFhBgtbv+ek+AAIFxgawA6/q1N+O5s0dbAyvd2AwsA5AAAQL1EpgkwNrY2AgzsOpVX60lQIBAlQWKCrCWl5djdXW1yl3VNgIECBDIEMgLsF58M557QYCV4ekUAgQINEpg0gArzcBK/1DwCGGjhoHOECBAoBQBAVYp7G5KgACBygqMB1ixd7epnYjjx49Hp9/v710XYFW2gBpGgACBaQoIsKap69oECBAg8DABAZbxQYAAAQKjAh8LsNKTftGJvdgbCbA8QmjUECBAoJUCAqxWll2nCRAgUAmB3AAr7To4PPbbhdAjhJUop0YQIEDgyAIPeoQwTcT6aAbWtTfiubPPxrFeLzrdveh2u9HpfrSjYPp+8N7ILoPp+/Qavp++tgbWkevlAgQIEJipgABrptxuRoAAAQIjAgIsw4EAAQIERgWy1sB65dobcVqAZeQQIECgdQICrNaVXIcJECBQGQEBVmVKoSEECBCohEBmgPV6nD57Ko715s3AqkTZNIIAAQKzERBgzcbZXQgQIEDg4wICLKOCAAECBEYFBFjGAwECBAg8UECAZXAQIECAQFkCRQVYS0tLsba2VlY33JcAAQIEChIQYBUE6TIECBBoooAAq4lV1ScCBAjUQ0CAVY86aSUBAgRmJTC1AGu4YLtF3GdVSvchQIBA8QICrOJNXZEAAQIE8gXGfw6l7/v9/n3HQbsQmoGV7+1MAgQIVFlAgFXl6mgbAQIEShYQYJVcALcnQIBAywWKCLCWl5djdXW15ZK6T4AAgfoLZAVYL195PZ4/fzKO9XrZi7ibgVX/waEHBAgQEGAZAwQIECBQpkARAZYZWGVW0L0JECBQnEBWgPXipVvxwsXTAqzi3F2JAAECtRAQYNWiTBpJgACBxgoIsBpbWh0jQIDAxAJZAdbVCzfj3OXnBVgT8/oAAQIE6i0gwKp3/bSeAAECdRcQYNW9gtpPgACB4gQEWMVZuhIBAgQaJyDAalxJdYgAAQK1EbALYW1KpaEECBCYiUBegHXxZpy7dGcGVre7F525bgzXuEqtTDsNDncbTO8P3xv+Onru8PdHezf6++n9/c6ZiYabECBAgMB9AgIsA4IAAQIEyhIoKsCyiHtZFXRfAgQIFCuQFWBdu3grzl66swaWAKvYArgaAQIEqiwgwKpydbSNAAECzRYQYDW7vnpHgACBSQUyA6xX4+yl5wRYk+o6nwABAjUXEGDVvICaT4AAgRoLCLBqXDxNJ0CAwBQEMgMsM7CmYO+SBAgQqLyAAKvyJdJAAgQINFZAgNXY0uoYAQIEDiWQFWBdvXgrznmE8FDAPkSAAIE6Cwiw6lw9bSdAgEC9BQRY9a6f1hMgQKBogbwA68LNOHfZIu5F47seAQIEqi4gwKp6hbSPAAECzRUQYDW3tnpGgACBwwhkB1jnr5yJhfn5Qy/inho3vtvgsMF2ITxM6XyGAAEC0xcQYE3f2B0IECBAYH+B3ABrd3c3dnZ2Ynt7e3Ckr7e2tgbH+vp6LC0txdraGmYCBAgQqLlAVoB15fyNSAHWUXYhFGDVfKRoPgECrRSYNMC6fft2rKysxOLiYiu9dJoAAQIEihMQYBVn6UoECBBogkBWgPXipVfjhYtH24VQgNWE4aIPBAi0TWCSACv9QNnc3BRgtW2Q6C8BAgSmJFBUgLW8vByrq6tTaqXLEiBAgMCsBLICrGsXbsbZI66BJcCaVUndhwABAsUJTBJgbWxsDAKs9A8FM7CKq4ErESBAoK0CAqy2Vl6/CRAgsL+AAMvIIECAAIEHCgiwDA4CBAgQKEtAgFWWvPsSIECgmgL7Blh7EXudiOPHj0en3+/vXS1gF8LUfYu4V3MQaBUBAgQeJCDAMjYIECBAoCyBSQKs4eLt+y3i7hHCsirovgQIEChW4OMBVic6EdGPvY8CrCvnb8b5K89bxL1Ye1cjQIBA5QUEWJUvkQYSIECgsQK5AVbadXB4CLAaOxx0jAABAvGgRwj3YmQG1pXz1+P8lRcEWAYMAQIEWiYgwGpZwXWXAAECFRIQYFWoGJpCgACBCghkrYF1+fz1uCDAqkC5NIEAAQKzFRBgzdbb3QgQIEDgIwEBltFAgAABAqMCWQHWlfM34vyVM2ZgGTsECBBomYAAq2UF110CBAhUSECAVaFiaAoBAgQqICDAqkARNIEAAQJVFRBgVbUy2kWAAIHmCxQVYC0tLcXa2lrzwfSQAAECDReYOMDqdPvRnZu7b0fBbrcb6RjdZTB9n17D99PXdiFs+GjSPQIEGicgwGpcSXWIAAECtREQYNWmVBpKgACBmQhMFGAtzvci5vf2DavGA6xhWCXAmkkd3YQAAQJTERBgTYXVRQkQIEAgU2D851D6vt/v33fYhTAT02kECBCouYAAq+YF1HwCBAhMU0CANU1d1yZAgACBgwQEWAcJ+X0CBAi0R0CA1Z5a6ykBAgQmFhBgTUzmAwQIECBQoEARAZY1sAosiEsRIECgRAEBVon4bk2AAIGqCwiwql4h7SNAgECzBQRYza6v3hEgQGASAQHWJFrOJUCAQMsEBFgtK7juEiBAoGICRQRYy8vLsbq6WrGeaQ4BAgQITCogwJpUzPkECBBokYAAq0XF1lUCBAhUTKCoXQgFWBUrrOYQIEDgkAJZAdalc6/Exatn41ivF53u3V0Iu51IOw2mV9ppcHwXwvT98PeGOxKm74efGW3v6O8/6JxD9s/HCBAgQOAIAgKsI+D5KAECBAgcSUCAdSQ+HyZAgEDjBPICrLOvxKUXz8XC/LwAq3FDQIcIECDwYAEBltFBgAABAmUJCLDKkndfAgQIVFMgK8C6dvFWnL102gysatZQqwgQIDA1AQHW1GhdmAABAgQOEBBgGSIECBAgMCqQFWBdvXArzl1+Lo71FszAMn4IECDQIgEBVouKrasECBComIAAq2IF0RwCBAiULJAZYN2Mc5efNwOr5GK5PQECBGYtIMCatbj7ESBAgMBQQIBlLBAgQIDAqEBWgHX5/PW4cOWFuwFWP7pzc4PF2C3ibjARIECg2QICrGbXV+8IECBQZYHcAGt3dze2t7djZ2fn3q9bW1uRjvX19bALYZWrrG0ECBDIF8gKsO5fA6sf3e5cdCbchTA1aXy3wWEz7UKYXzBnEiBAYJYCAqxZarsXAQIECIwKTBJgDcOrYZA1GmAtLS3F2toaXAIECBCouUBWgHX1wtEfIRRg1XykaD4BAq0UmCTASj9QNjc3Y2VlJRYXF1vppdMECBAgUJxAUQGWGVjF1cSVCBAgUKZAVoB15fz1OH/ERwgFWGWW2b0JECBwOIFJAqyNjY24ffu2AOtw1D5FgAABAmMCAixDggABAgRGBbICrMvnrseFq2fu7kLoEUJDiAABAm0RmDTASjOw0v/pNgOrLSNEPwkQIDA9AQHW9GxdmQABAnUU2DfA2ovY60QcP348Ov1+f288wOp0u4P1rLrd7qDP6dd0jC/sPvy94WLv1sCq4xDRZgIE2iwgwGpz9fWdAAEC5QoIsMr1d3cCBAhUTWA8wIq9iE6MB1hjuxAKsKpWRu0hQIDAdAQEWNNxdVUCBAgQOFggN8BKC7gPj/0WcbcG1sHWziBAgEAdBPabgdWJTvRjb2QG1vnrcfHKC7HQ60Wn6xHCOhRWGwkQIFCEgACrCEXXIECAAIHDCAiwDqPmMwQIEGiuQNYaWFcu3IgLKcCanxdgNXcs6BkBAgQ+JiDAMigIECBAoCwBAVZZ8u5LgACBagrkBVjnU4B15qMZWHNzH1vvyhpY1SywVhEgQOAoAgKso+j5LAECBAgcRUCAdRQ9nyVAgEDzBLICrKsXbsa5y8/HMY8QNm8E6BEBAgQeIiDAMjwIECBAoCyBogKspaWlWFtbK6sb7kuAAAECBQnkBVjnb8S5K2cEWAWhuwwBAgTqIiDAqkultJMAAQLNFBj/OZS+7/f79x0HLeIuwGrm2NArAgTaJ5AVYF0+dz0uXH3howDLI4TtGyl6TIBAKwUEWK0su04TIECgMgICrMqUQkMIECBQusDhAqzuXHS6ncE6WOmV1r8aXwMr/V46hu+n84bvjfd6/P3hdUvX0QACBAi0XECA1fIBoPsECBAoWaCIAGt5eTlWV1dL7onbEyBAgMBRBbICrCvnb8T50UcIM2ZgCbCOWhqfJ0CAQPkCAqzya6AFBAgQaLNAEQGWRwjbPIL0nQCBJglkBVhXx9fAEmA1aQzoCwECBB4oIMAyOAgQIECgTAEBVpn67k2AAIFqCWQGWDfj3JXJdiE0A6tahdYaAgQIHEZAgHUYNZ8hQIAAgaIEBFhFSboOAQIE6i+QyS4f6QAAIABJREFUGWCN7UJoBlb9K68HBAgQyBAQYGUgOYUAAQIEpiIw/BmULp52Hkyvw+xCaA2sqZTHRQkQIDBzgawA6zBrYKXF29Nrv8Xdx3tpEfeZ190NCRAgkCUgwMpichIBAgQITEFAgDUFVJckQIBAjQXyAqxz1+P81RfiWK8XnW4/uhm7EAqwajwqNJ0AAQJ3BQRYhgIBAgQIlCUgwCpL3n0JECBQTYGsAOvyuetx8eoLsTAMsDIeIRRgVbPgWkWAAIFJBARYk2g5lwABAgSKFBBgFanpWgQIEKi/QH6Ade1sLMzPR6e7F925bow+9pfCqvFHBQVY9R8cekCAAAEBljFAgAABAmUJCLDKkndfAgQIVFMgK8C6dPaVuPTiuY8CrG43Ot3OIMRKLwFWNYurVQQIEDiqgADrqII+T4AAAQKHFRBgHVbO5wgQINBMgawA6/K5V+LitWGA1Y+uRwibORr0igABAmMCAixDggABAgTKEhBglSXvvgQIEKimQFaAdfXCzTh/+Uws9Oaj292LjkcIq1lNrSJAgEDBAgKsgkFdjgABAgSyBXIDrN3d3djZ2Ynt7e3Bkb7e2toaHOvr67G0tBRra2vZ93UiAQIECFRTICvAunbhVpy7fHqwiPthA6zU/dF1s0Y5xt8fPppYTTKtIkCAQHsEJg2wbt++HSsrK7G4uNgeJD0lQIAAgakICLCmwuqiBAgQqK1AXoB18VacvXQ6jgmwaltoDSdAgMBhBCYJsNIPlM3NTQHWYaB9hgABAgQ+JlBUgLW8vByrq6uECRAgQKDmAlkB1pXzN+LClReO9AhhcjIDq+ajRfMJEGidwCQB1sbGxiDASv9QMAOrdUNFhwkQIFC4gACrcFIXJECAQK0FHhRg7UXE8ePHo9Pv9/fuBFhpDSyPENa62hpPgACBCQUEWBOCOZ0AAQIEChMQYBVG6UIECBBohMB4gBUpuUqvzmiAdeFmXLjyfCzMC7AaUXWdIECAQKaAACsTymkECBAgULjAJAHWcPH2/RZx9whh4aVxQQIECJQisP8MrE7sxd74DCyPEJZSITclQIBAiQICrBLx3ZoAAQItF8gNsNKug8NDgNXyQaP7BAg0WsAaWI0ur84RIEDgaAICrKP5+TQBAgQIHF5AgHV4O58kQIBAEwXyAqwLN+L85TN2IWziCNAnAgQIPERAgGV4ECBAgEBZAgKssuTdlwABAtUUyAuwzt+I81deiGO9+eh296Iz171vR8FutxvpGN1lMH2fXsP309d2IazmINAqAgQIPEhAgGVsECBAgEBZAgKssuTdlwABAtUUyAuwLtzdhdAi7tWsolYRIEBgSgICrCnBuiwBAgQIHChQVIC1tLQUa2trB97PCQQIECBQbYHMAGvyXQiHs63MwKr2ANA6AgQIPExAgGV8ECBAgECZAuM/h9L3/X7/vuOgRdwFWGVW0L0JECBQnMAEAdaZWJjPf4RQgFVckVyJAAECZQkIsMqSd18CBAgQSAJFBFjLy8uxuroKlAABAgRqLpAfYF1+PhZ6vew1sARYNR8Zmk+AAIF9/uGQUNL/+d7d3b33a/o/3+m9jY2N2NzcjPQPhcXFRX4ECBAgQODIAgKsIxO6AAECBBojkBVgXb1wM85dfn6iXQgFWI0ZIzpCgECLBczAanHxdZ0AAQIVECgiwPIIYQUKqQkECBAoQECAVQCiSxAgQKCpAgKsplZWvwgQIFAPAQFWPeqklQQIEJiFQGaAdSPOXT5jBtYsKuIeBAgQqJCAAKtCxdAUAgQItEygqF0IrYHVsoGjuwQINFYgK8C6cuFGXLiSFnE//BpY6ZHC9Br+Oio6fNxw+N5+5zS2AjpGgACBCgsIsCpcHE0jQIBAwwUEWA0vsO4RIEBgQoG8AOv8zbhwdbJdCLvd7qAp6dfRgEqANWGFnE6AAIESBQRYJeK7NQECBFouIMBq+QDQfQIECIwJZAVYVy/ciPOXX4iF3nz2LoQCLGONAAEC9RcQYNW/hnpAgACBugoIsOpaOe0mQIDAdAQyA6zJdyEUYE2nYK5KgACBWQoIsGap7V4ECBAgMCogwDIeCBAgQGBUICvAevHyq3H2wnOx0MtfA0uAZaARIECg/gICrPrXUA8IECBQVwEBVl0rp90ECBCYjkBWgHX1ws04f/l5AdZ0auCqBAgQqKyAAKuypdEwAgQINF5AgNX4EusgAQIEJhLICrBeuvxqnLnwXBwzA2siXCcTIECg7gICrLpXUPsJECBQX4EiAqw//dM/jZ/92Z+Nv/E3/kZ9IbScAAECBAYCWQHWy1dei+fPnYxjCwuHXsQ93Wx0N8JR//H399upUL0IECBAYPYCAqzZm7sjAQIECNwRyA2wdnd3Y2dnJ7a3twdH+npra2twrK+vx9LSUqytrWElQIAAgZoLZAVY1y6mRdzPxML84XchFGDVfKRoPgECrRSYJMBKP1A2NzdjZWUlFhcXW+ml0wQIECBQnEBRAdby8nKsrq4W1zBXIkCAAIFSBLICrBcv3Yqzl54XYJVSIjclQIBAeQICrPLs3ZkAAQJtFxBgtX0E6D8BAgTuF8gKsAZrYJ0/5RFCo4cAAQItE5gkwNrY2BjMwEr/p9sMrJYNFN0lQIDAFAQEWFNAdUkCBAjUWGDfAGsvYq8Tcfz48ej0+/29a2kG1sXTR1rEPRlZA6vGI0XTCRBopYAAq5Vl12kCBAhUQkCAVYkyaAQBAgQqIzAeYMVeRCetmTgaYKVF3NMuhAu9+eh29qIz170vjOp2u5GO0YAqfZ9ew/cFWJWpuYYQIEAgW0CAlU3lRAIECBAoWCA3wEqLtg+P/RZxtwZWwYVxOQIECJQksN8MrE50Yi/24meGM7DSI4Qv3J2B1en0BVglFcttCRAgMGsBAdasxd2PAAECBIYCAixjgQABAgRGBbLWwLp28VacS4u4pxlYXTOwDCECBAi0RUCA1ZZK6ycBAgSqJyDAql5NtIgAAQJlCmQFWFfO34wLV84IsMqslHsTIECgBAEBVgnobkmAAAECAwEBloFAgAABAqMCWQHWtYuvxrlLaQ2snhlYxg8BAgRaJCDAalGxdZUAAQIVExBgVawgmkOAAIGSBbICrOEi7sd6vbAGVskVc3sCBAjMUECANUNstyJAgACB+wSKCrCWlpZibW2NLgECBAjUXCAvwLr6epw5f2qiXQiHOxLahbDmI0TzCRBotYAAq9Xl13kCBAiULjD+cyh93+/37zsO2oVQgFV6GTWAAAEChQhkBVgvXX49zlw4GWkGVu4i7gKsQurjIjURSH+ZSmPei0DTBARYTauo/owL+PPbmCBQbYEiAqzl5eVYXV2tdkdb2rqcP4Nzzmkpn24TaJ1AVoD14qVX44WLp+JYb0GA1bohosMECLRZQIDV5urrOwECBMoXEGCVXwMtIECAQFUEsgKsl668NniE0AysqpRNOwgQIDAbAQHWbJzdhQABAgT2FygiwPIIodFFgACBZgjkBViXX4sXLj4XC/PzZmA1o+56QYAAgSwBAVYWk5MIECBAYEoCAqwpwbosAQIEaiiQFWBdPnc9Ll47K8CqYYE1mQABAkcREGAdRc9nCRAgQOAoAkXtQmgNrKNUwWcJECBQHYGsAOvKuRtx4eoLd3Yh7O5FZ647WLB6uGh12mlwuNvg8L3xRdxH3x/v/ui10u9ZDLs6A0RLCBBot4AAq93113sCBAiUKSDAKlPfvQkQIFA9gbwA6/yNuHDlTCxMsAthCrTSa79gS4BVvYGgRQQIENhPQIBlXBAgQIBAWQICrLLk3ZcAAQLVFMgKsK5euBHnL98JsDrdfnTn5g6cgSXAqmbBtYoAAQKTCAiwJtFyLgECBAgUKSDAKlLTtQgQIFB/gawA68rdACvtQjgIsLpz0ek+/BFCAVb9B4ceECBAQIBlDBAgQIBAWQICrLLk3ZcAAQLVFMgKsC6+8HJcfvHcRzOwBFjVrKZWlSaQ/oJl7bbS+N14igICrCniunRhAv4MLozShQhUSkCAValylNYYf8aXRu/GBConkBVgXTjzUlx56cJgEXePEFauhhpEgACBqQkIsKZG68IECBAgcICAAMsQIUCAAIFRgawA69LZV+JSmoE1fzfAMgPLKCJAgEArBARYrSizThIgQKCSArkB1u7ubmxvb8fOzs69X7e2tiId6+vrsbS0FGtra5Xso0YRIECAQL5AVoB1+dz1uHjt7JECrNSk9IjVfo9Zjb/vUaz8AjqTAAEC0xQQYE1T17UJECBA4GECkwRYw/BqGGQJsIwtAgQINE/gcAHWIXYhFGA1b/DoEQECzRcQYDW/xnpIgACBqgoUFWAtLy/H6upqVbupXQQIECCQKZAVYF05fz0uXDUDK9PUaQQIEGiMwGECrPSoxic+8YnGGOgIAQIECJQjIMAqx91dCRAgUFWBzADrRpy/ciaO9XqHXsQ9AXiEsKrDQLsIECCwv8CkAdbt27cHa4188pOfREqAAAECBI4kIMA6Ep8PEyBAoHEC+wZYeylsiviZ48ej0+/399IaWGkG1rHBLoR70Z3r3hdGdbvdSMdoQJW+T6/h+wKsxo0dHSJAoAUCkwZYm5ubkR7VWFxcbIGOLhIgQIDANAUEWNPUdW0CBAjUT+BBAdZeJ+L4MMBKuxBevHZuEGB1u3vREWDVr9JaTIAAgUMICLAOgeYjBAgQIFCIQG6AlRZwHx77LeJuDaxCyuEiBAgQKF3gQY8QpklYIwFW2oXwhcEjhAKs0mumAQQIEJiZgABrZtRuRIAAAQJjAgIsQ4IAAQIERgWy1sBKM7AuXTsbCwIso4cAAQKtEhBgtarcOkuAAIFKCQiwKlUOjSFAgEDpAlkB1oUzL8WVl84LsEovlwYQIEBgtgICrNl6uxsBAgQIfCQgwDIaCBAgQGBUICvAuvjCy3HpxbQGlkcIDR8CBAi0SUCA1aZq6ysBAgSqJVBUgJV2x11bW6tW57SGAAECBCYWyFoD6/K5V+7uQijAmljYBwgQIFBjAQFWjYun6QQIEGiAwPjPofR9v9+/7zhoEXcBVgMGgi4QIEAgIsYDrCHK/Yu4n3slLl49O9EMrE6nE+nodruDX9Nr+N64/Pj7w/NViEAVBNJflIzJKlRCG8oQEGCVoe6esxTwZ/wstd2LwOQCAqzJzXyCAAECTRXYP8DqRD868bPHfyY6/X5/Ly3ifvGaAKupg0C/CBAg8CABAZaxQYAAAQJlChQRYC0vL8fq6mqZ3XBvAgQIEChAYDTASrNxf/KTrej392Ku14vV/2NFgFWAsUsQIECgtgICrNqWTsMJECDQCIEiAiyPEDZiKOgEAQIE7j1C+JOf/CR+9KMfxf/8n/9f/GRrO37qp/9i/J//4B8IsIwRAgQItFlAgNXm6us7AQIEyhcQYJVfAy0gQIBAVQSGM7DSr//lv/yX+H9TgLWzG5/45Cfi53/ukY8CrEvXzsbCBLsQWgOrKiXWDgIECBxeQIB1eDufJECAAIGjCwiwjm7oCgQIEGiKwDDASrOv/tN/+k/xp3/2o9jZi+j25uPnHxkNsF48Fwvz89Ht7kVn7s7C7MOFrdNC7cPF2scXbN/v/XE8i7g3ZTjpBwECTRMQYDWtovpDgACB+ggMfwalFqe1TtLrMLsQWgOrPjXXUgIECDxMYDTA+pM/+ZP40Y8/HARYKaP6v4YB1vnnX4yrr1ycKMBKwVV6CbAMQAIECNRXQIBV39ppOQECBOouIMCqewW1nwABAsUKDAOsH//4x/HHf/zHdwKsO8FTfHo0wLry8oU4NsEjhAKsYgvlagQIEChDQIBVhrp7EiBAgEASEGAZBwQIECAwKjAMsD788MP4oz/6o/0DrAtnXoqrL1+I3gSPEAqwDDQCBAjUX0CAVf8a6gEBAgTqKiDAqmvltJsAAQLTEXjQDKxOtxufGs7AOnf6Wrx4/ZIAazo1cNUGCKS/YA3Xf2tAd2rTBe7TL5UAa/rG7kCAAAEC+wsIsIyMJODve8YBAQJDgX3XwEq/OfoI4WAG1isXozc3l72IuxlYBhkBAgTqLyDAqn8N9YAAAQJ1FRBg1bVy2k2AAIHpCGSvgXXURdxT88d3Gxx2yS6E0ymuqxIgQOCoAgKsowr6PAECBAgcViA3wNrd3Y2dnZ3Y3t4eHOnrra2twbG+vh52ITxsBXyOAAEC1RJ40BpY9z1CmHYhvPLyxTjWmz/0DCwBVrUKrzUECBDIERBg5Sg5hwABAgSmIVBUgLW0tBRra2vTaKJrEiBAgMAMBbIWcX/h1NV48calI+1CKMCaYVXdigABAgUJTBpg3b59O1ZWVmJxcbGgFrgMAQIECLRVQIDV1srrNwECBPYXyHqE8Ozpa3HtlTQDq2cGlpFEgACBFglMEmClHyibm5sCrBaND10lQIDANAWKCrA8QjjNKrk2AQIEZieQ9QjhC89diZeuX44FAdbsKuNOBAgQqIDAJAHWxsbGIMBK/1AwA6sCxdMEAgQI1FxAgFXzAmo+AQIEChbIeoTw4pmX4/LL52Nh3hpYBfu7HAECBCotIMCqdHk0jgABAo0WEGA1urw6R4AAgYkFsh4hvHDmpbj80nmPEE7M6wMECBCot4AAq97103oCBAjUWWCSAGu4+6BdCOtccW0nQIDAwwWGAdaPfvSj+OM//uP48Yd/HjsRcd8uhGefuxovDh4hNAPLgCJAgECbBARYbaq2vhIgQKBaArkB1s7OTgwPAVa1aqg1BAgQKFJgNMD6kz/5k/jRjz8cBFjR7canH3kkOv1+f+/sc9fi2nWLuBcJ71oECBCog4AAqw5V0kYCBAg0U0CA1cy66hUBAgQOK/CgAMsMrMOK+hwBAgQaJCDAalAxdYUAAQI1ExBg1axgmkuAAIEpC+QFWKeu3pmBtbAQ3e5edOa60el0Bkd6dbvdwTH+3vD3hueN/v5ov8bfH54/5b67PAECBAgcICDAMkQIECBAoCwBAVZZ8u5LgACBago8aBH3+2ZgnTl5JV66edki7tWsoVYRIEBgagICrKnRujABAgQIZP5PlHRav98fnJ1+LqWvR4+D1sBaWlqKtbU13gQIECBQc4FhgPXhhx/GH/3RH91bA+u+AOvc89fi6ssX4lgvfwbWcFbVcGZWcjIDq+ajRfMJEGidgACrdSXXYQIECFRKYPznkACrUuXRGAIECMxUYBhgpV//4A/+YP9dCC+ceSkuv3R+ohlYAqyZ1tHNCBAgMBUBAdZUWF2UAAECBDIFigiwlpeXY3V1NfOOTiNAgACBqgqMBlh/+Id/uP8MrEtnX4mL187Fsd589hpYAqyqlly7CBAgkC8gwMq3ciYBAgQIFC8gwCre1BUJECBQV4GsAOvK+etx8erZ6M0LsOpaaO0mQIDAYQQEWIdR8xkCBAgQKEqgiADLGlhFVcN1CBAgUK5AVoB1OQVYV87GghlY5VbL3QkQIDBjAQHWjMHdjgABAgTuExBgGRAECBAgMBTICrAOswuhRwgNMgIECNRfQIBV/xrqAQECBOoqMPwZlNp/lF0IrYFV1xGg3QQIELhf4P5F3P8wfvzhh7GTNgzsduNTjzwSnX6/v3f+zEtxZcJF3NPug+k13IUwBVrpNfx1tBnjuxPud47CESBAgMDsBQRYszd3RwIECBC4IyDAMhIIECBAYFQgaxfCy+fuLOK+MMEaWAIsA40AAQL1FxBg1b+GekCAAIG6Cgiw6lo57SZAgMB0BLIeIbz4wstx+cVzsdDrZe9CKMCaTsFclQABArMUEGDNUtu9CBAgQGBUQIBlPBAgQIDAqEBWgHVh8AjhhYkWcRdgGWgECBCov4AAq/411AMCBAjUVUCAVdfK1afdaYxZvqY+9dJSAlkB1rnnrsXV6xfjmBlYRgwBAgRaJSDAalW5dZYAAQKVEhBgVaocGkOAAIHSBbICrDQD67JF3EsvlgYQIEBg1gICrFmLux8BAgQIDAUEWMYCAQIECIwKZO1CWESAlW46vtvgsCF2ITQoCRAgUE0BAVY166JVBAgQaINAboC1u7sbOzs7sb29PTjS11tbW4NjfX09lpeXY3V1tQ1k+kiAAIFGC2TNwDp3+lpcfeVojxAKsBo9jnSOAIGGCgiwGlpY3SJAgEANBIoKsJaWlmJtba0GPdZEAgQIEHiYQGaA9WJcfeV8HOstHHoXQgGWgUiAAIH6CUwSYKUfKJubm7GyshKLi4v166wWEyBAgEClBIoKsMzAqlRZNYYAAQKHFsgKsM4//2JcSWtgLQiwDi3tgwQIEKihwCQB1sbGRty+fVuAVcM6azIBAgSqKCDAqmJVtIkAAQLlCQiwyrN3ZwIECFReYNIAK83ASv+n2wysypdWAwkQIFB5AQFW5UukgQQIEJipQF6AdfrFuPryhVhY6HmEcKblcTMCBAiUKyDAKtff3QkQINBmAQFWm6uv7wQIEPi4QNYuhOeefzFefOl8zC8sRKe7F3Nz3ft2FOx2u5GO0d0E0/fpNXw/fW0XQkOQAAEC9RIQYNWrXlpLgACBJgnkBlhp18HhYRfCJo0AfSFAgMD9AlkzsE4/ezlu3rwScws9AZYRRIAAgRYJCLBaVGxdJUCAQMUEBFgVK4jmECBAoGSBrADr+VNX4sb1ywKskovl9gQIEJi1gABr1uLuR4AAAQJDAQGWsUCAAAECowJZAda509fixVcuRq93ZwbW4LHAbmfwSGB6eYTQoCJAgEAzBQRYzayrXhEgQKAOAkUFWEtLS7G2tlaHLmsjAQIECDxEICvAOnPycrx080ocGwZY1sAyqAgQINAKAQFWK8qskwQIEKikgACrkmXRKAIECJQmkBdgnboSL924FAu9hcEuhGZglVYvNyZAgMBMBQRYM+V2MwIECBAYERBgGQ4ECBAgMCqQtQvhqZOX4vqtq7Ew3xsEWHMZjxAOdxy0C6EBR4AAgfoKCLDqWzstJ0CAQBMExn8Ope/7/f59x0G7EHqEsAkjQR8IECAQkTUD69Spy3H9xpVY6N0NsDIeIRRgGV4ECBCov4AAq/411AMCBAjUWaCIAGt5eTlWV1frzKDtBAgQIBDZAdaVuH7z8kczsARYBg8BAgRaISDAakWZdZIAAQKVFSgiwDIDq7Ll1TACBAhMJJA5A+tKXL9x+c4MrLk7a2B1Ow/fhdAMrInq4GQCBAhUUkCAVcmyaBQBAgRaIyDAak2pdZQAAQIHCmQFWM88cyFeffXF6KVdCOfurIElwDrQ1gkECBCovYAAq/Yl1AECBAjUWkCAVevyaTwBAgQKFcgKsJ599mLcunXtSAFWmpGVXsNfR3sxnK01fG+/cwrttYsRIECAQJaAACuLyUkECBAgMAWBonYhtAbWFIrjkgQIEChBIGsXwpMnL8XNm1cnCrDSY4bpNdyFUIBVQnXdkgABAkcUEGAdEdDHCRAgQODQAgKsQ9P5IAECBBopkDcD6+SluCXAauQA0CkCBAg8TECAZXwQIECAQFkCAqyy5N2XAAEC1RTIC7CevRS3bpmBVc0SahUBAgSmJyDAmp6tKxMgQIDAwwUEWEYIAQIECIwKZAVYHiE0aAgQINBOAQFWO+uu1wQIEKiCgACrClXQBgIECFRHICvAetYjhNWpmJYQIEBghgICrBliuxUBAgQI3CcgwDIgCBAgQGBUICvAOnXqcty4ceXeIu7z3e5gN8Hhwuxpofbxxdot4m6gESBAoP4CAqz611APCBAgUFeBSQKs3d3d2N7eHhw7OzuxtbU1ONbX18MuhHUdAdpNgACB+wWydiE8ffpqvPzypVhY6EVnbi8EWIYRAQIE2iEgwGpHnfWSAAECVRTIDbBSeJVCqwcFWEtLS7G2tlbFLmoTAQIECEwgkDUD67nnrsT165ePNAMrtWl01tZoG8ffH87smqAfTiVAgACBKQhMGmDdvn07VlZWYnFxcQqtcUkCBAgQaJOAAKtN1dZXAgQIHCyQFWA9e/JivHrrxZifnz/0DCwB1sHFcAYBAgSqJjBJgJV+oGxubgqwqlZE7SFAgEBNBYoKsDxCWNMBoNkECBAYE8gKsE6euhy3bl4VYBk+BAgQaJnAJAHWxsZGmIHVsgGiuwQIEJiigABrirguTYAAgRoKZAVYzz13NW7cuCzAqmGBNZkAAQJHEZg0wEozsNL/6fYI4VHUfZYAAQIEkoAAyzggQIAAgVGBrADr2ZOX4tVb1wRYxg4BAgRaJiDAalnBdZcAAQIVEhBgVagYmkKAAIEKCGTtQvjsycvx6i2PEFagXppAgACBmQoIsGbK7WYECBAgMCKQG2ClHQiHR9qJMH29tbU1ONbX1wczg1dXV9kSIECAQM0FsmZgnTx5OW4JsGpeas0nQIDA5AICrMnNfIIAAQIEihEQYBXj6CoECBBoikBegDVYxP1KzM/37ELYlMrrBwECBDIEBFgZSE4hQIAAgakICLCmwuqiBAgQqK1AVoD17LMX49ata9HrCbBqW2kNJ0CAwCEEBFiHQPMRAgQIEChEoKgAa2lpKdbW1gppk4sQIECAQHkC2QHWzZtXY2FhwQys8mrlzgQIEJi5gABr5uRuSIAAAQJ3BQRYhgIBAgQIjArkBVgnL8XNG1cmCrA6nU6ko9vtDn5Nr+F74yUYf394vlIRIECAQLkCAqxy/d2dAAECbRcY/zmUvu/3+/cdBy3ibgZW20eR/hMg0BSBrF0IT566HDeuXxZgNaXq+kGAAIFMAQFWJpTTCBAgQGAqAgKsqbC6KAECBGopYAZWLcum0QQIEJiNgABrNs7uQoAAAQL7CxQRYC0vL8fq6ipiAgQIEKi5QF6A9eyluHXr6kSLuHuEsOYjQ/MJECAQEQIsw4AAAQIEyhQoIsDyCGGZFXRvAgQIFCeQFWA98+zFeO3VF2N+fj57EXcBVnFFciUCBAiUJSDAKkvefQkQIEAgCQjr4dweAAAgAElEQVSwjAMCBAgQGApkBVhPpwDr1jUzsIwbAgQItExAgNWygusuAQIEKiRgF8IKFUNTCBAgUAGBrAArLeJ+6+bViWZgpd0H02u4C+HoToTj/bYLYQVGgiYQIEBgHwEBlmFBgAABAmUJFBVgWQOrrAq6LwECBIoVyNuF8OTluHnzykQzsARYxRbK1QgQIFCGgACrDHX3JECAAIEkIMAyDggQIEBgVCBrBtazY4u4z3W70e10YjirKoVV4zOtBFgGGgECBOovIMCqfw31gAABAnUVEGDVtXLaTYAAgekIZAVYTz99IV599cVYWOgNFnEXYE2nGK5KgACBqgkIsKpWEe0hQIBAewQEWO2ptZ4SIEAgRyArwHrq6fPx2qsvCbByRJ1DgACBBgkIsBpUTF0hQIBAzQQEWDUrmOYSIEBgygJZAdbTz1yI1197Mebn0wysfsx15zxCOOXCuDwBAgSqICDAqkIVtIEAAQLtFBBgtbPuek2AAIEHCWQFWE8+dTbeeOOl6A0CrPQIYQqwuhOtgZUaML7b4LBRdiE0QAkQIFBNAQFWNeuiVQQIEGiDgACrDVXWRwIECOQLZO1C+PQzL9xZA6u3EJ25EGDl+zqTAAECtRaYNMC6fft2rKysxOLiYq37rfEECBAgUL5AboC1u7sbOzs7sb29PTjS11tbW4NjfX09lpaWYm1trfwOaQEBAgQIHEkgawbWicdPxdtv3Yje3QBrvjt/32yqnF0IUyvNwDpSrXyYAAECMxeYJMBKP1A2NzcFWDOvkhsSIECgmQJFBVjLy8uxurraTCS9IkCAQIsEsgKsJ548HW++8YoAq0UDQ1cJECCQBCYJsDY2NgYBVvqHghlYxg8BAgQIHFVAgHVUQZ8nQIBAswSyAqwnn3o+3nj9ZQFWs2qvNwQIEDhQQIB1IJETCBAgQGBKAgKsKcG6LAECBGoqkBVgpRlYb7zxciz0jlkDq6aF1mwCBAgcRkCAdRg1nyFAgACBIgQEWEUougYBAgSaI/CgRdyj241PP/JIdPr9/t7jT56Ot0YeIbQLYXMGgJ4QIEDgYQICLOODAAECBMoSmCTAGi7evt8i7tbAKquC7kuAAIFiBe4PsP4gfvzhn8dOWm+9241PDQOsZ559IV69dS16ZmAVq+9qBAgQqLiAAKviBdI8AgQINFggN8BKuw4ODwFWgweErhEg0HqBBz1CeN8MrCeffj7eeO2jNbDMwGr9uAFAgEBLBARYLSm0bhIgQKCCAgKsChZFkwgQIFCiQFaAldbAeuvNV2J+fsEaWCUWy60JECAwawEB1qzF3Y8AAQIEhgICLGOBAAECBEYFshZxf+qZM/HarRdjYcEi7oYPAQIE2iQgwGpTtfWVAAEC1RIoKsBaWlqKtbW1anVOawgQIEBgYoGsGVhPP3NnDSwB1sS+PkCAAIFaCwiwal0+jSdAgECtBQRYtS6fxhMgQKBwgaxdCB87cTLefutmLCzkP0LY6XQiHd1ud/Breg3fG+/F+PvD8wvvrQsSIECAwEQCAqyJuJxMgAABAgULjP8cSt/3+/37Dou4F4zucgQIEKioQNYuhCcePxVvv30jehOsgSXAqmjFNWtigfQXJaHqxGw+0BABAVZDCqkbBAgQqKmAAKumhSuw2f4uXiCmSxGouUDWI4RpEfc333glej0zsGpeb80nQIDARAICrIm4nEyAAAECBQsIsAoGdTkCBAjUWCArwHrq6TPx2quTLeJuBlaNR4WmEyBA4K6AAMtQIECAAIEyBYoIsCziXmYF3ZsAAQLFCWTtQvjk08/HG6+9FL3e3V0IO3P31rdKTUnrXA3Xuhpf78oaWMUVy5UIECAwawEB1qzF3Y8AAQIERgUEWMYDAQIECAwFsmZg3QmwXv7oEUIBlhFEgACBVggIsFpRZp0kQIBAJQWK2oVweXk5VldXK9lHjSJAgACBfIGsXQiffOr5eOP1+wOs0ZlV+83ASu+l134zs8abZxfC/II5kwABArMUEGDNUtu9CBAgQGBUQIBlPBAgQIDAqEDeI4TjAVZ3Lrqd7r2d2QRYBhUBAgSaKSDAamZd9YoAAQJ1EBBg1aFK2kiAAIHZCQiwZmftTgQIEKidgACrdiXTYAIECDRGQIDVmFLqCAECBAoRyA+w3ng5evML0ZmLmDMDqxB8FyFAgEDVBQRYVa+Q9hEgQKC5AgKs5tZWzwgQIHAYgawA64mnno83RwKs+e784PHB4Y6DHiE8DL3PECBAoPoCAqzq10gLCRAg0FQBAVZTK6tfBAgQOJxAVoA1WMTdDKzDCfsUAQIEaiwgwKpx8TSdAAECNRcQYNW8gJpPgACBggXu34XwD+LHH/557EREp9uNTz3ySHT6/f7eE0+ejjffeCV6vcM/QpjaPb7b4LAvdiEsuKouR4AAgYIEBFgFQboMAQIECEwskBtg7e7uxs7OTmxvbw+O9PXW1tbg+NM//dP463/9r8fa2trE9/cBAgQIEKiWQNYMrCeeei7efD0FWMcGa2Ad5hFCAVa1Cq81BAgQyBGYJMBKP1A2NzdjZWUlFhcXcy7vHAIECBAg8EABAZbBQYAAAQKjAlkB1oknTsXbb94wA8vYIUCAQMsEJgmwNjY24vbt2wKslo0R3SVAgMC0BIoIsNbX12NpackMrGkVyXUJECAwQ4G8AOvxU/HO2zdi/gi7EKY+eYRwhpV1KwIECBQgMGmAlWZgLS8vm4FVgL1LECBAoO0CRQVY6efS6upq2zn1nwABArUXyAuwTpyMd965eS/A8ghh7euuAwQIEMgSEGBlMTmJAAECBKYgIMCaAqpLEiBAoMYCWQHW4088N1jEfWHhzhpYc9256Ha6gxlV6dXtdgfH6Ayr9P3w94bnmYFV45Gi6QQItFJAgNXKsus0AQIEKiEwSYA1XLx9fBH39AihGViVKKdGECBA4MgCWbsQPvX0mXj9tZesgXVkbhcgQIBAvQQEWPWql9YSIECgSQK5AVbadXB4CLCaNAL0hQABAvcLZM3AevKp5+ON11/+KMDqzA1mW43OsjIDy9AiQIBA8wQEWM2rqR4RIECgLgICrLpUSjsJECAwG4GsAOvEiVPx9tsjuxAKsGZTHXchQIBAyQICrJIL4PYECBBosYAAq8XF13UCBAjsI5AXYD1+Kt5+S4BlBBEgQKBtAgKstlVcfwkQIFAdgaICrKWlpVhbW6tOx7SEAAECBA4lkBVgPfHk6cEi7r3ewp1F3M3AOhS2DxEgQKBuAgKsulVMewkQINAcAQFWc2qpJwQIEChCICvAOvH4c/H2W9cFWEWIuwYBAgRqJCDAqlGxNJUAAQINFBj/OZS+7/f79x0HLeJuBlYDB4YuESDQSoGsXQgfO3Eq3plwDay0yPtwoff0a3oN3xuXHn9/eH4rK6LTBAhMXSD95fegP2dyzpl6QytwAwFWBYowgyYY7zNAdgsCBA4lUESAtby8HKurq4e6vw81W8DPv2bXV++aJ5A1A+uxEyfvBljHBo8Qznfn7wuj0g6E47sQCrCaN1j0iACB9gkIsNpXcz0mQIBAlQQEWFWqhrYQIECgXIHsACst4r6wIMAqt1zuToAAgdkKCLBm6+1uBAgQIHC/QBEBlkcIjSoCBAg0QyArwDoxtguhGVjNKL5eECBA4CABAdZBQn6fAAECBKYpIMCapq5rEyBAoF4CWQHW4088F2+9+dEi7gKsehVZawkQIHBYAQHWYeV8jgABAgSKEBBgFaHoGgQIEGiGQFaA9cSTp+PNN175aBfC7lx0O917iyDvtwZWei+99lsba5zOIu7NGEx6QYBA8wQEWM2rqR4RIECgLgLDn0GpvWnnwfQ6zC6EFnGvS8W1kwABAg8XyNqF8Iknn4s335hsBpYAy9AjQIBA/QUEWPWvoR4QIECgrgICrLpWTrsJECAwHYGsGVh3HiFMM7DyF3EXYE2nYK5KgACBWQoIsGap7V4ECBAgMCogwDIeCBAgQGBUIDPAOhVvvXUjevML0ZmLmPMIoVFEgEDDBdJfmtPjzW1/CbDaPgL0nwABAuUJCLDKs2/Lnf19ry2V1s+mCGQFWINHCNMi7ncDrJxF3M3AasoQ0Q8CBNosIMBqc/X1nQABAuUKCLDK9Xd3AgQIVE0gK8B68qnT8cbrHy3iLsCqWhm1hwABAtMREGBNx9VVCRAgQOBgAQHWwUbOIECAQJsEsgKsE4+firfTI4Q9jxC2aXDoKwECBARYxgABAgQIlCWQG2Dt7u7G9vZ27Ozs3Pt1a2sr0rG+vh52ISyrgu5LgACBYgXu34XwD+PHH34YOxHR6XbjU488Ep1+v7934vGT8fZbN+8FWIeZgZWandaT2W9NmfH3rTtTbJFdjQABAocVmDTAun37dqysrMTi4uJhb+lzBAgQIEBgIDBJgDUMr4ZB1miAtbS0FGtra1QJECBAoOYCM5uBJcCq+UjRfAIEWikwSYCVfqBsbm4KsFo5UnSaAAECxQsIsIo3dUUCBAjUWSArwHrsxMl4551b0ZvvHXoXQgFWnYeJthMg0FaBSQKsjY2NQYCVHtUwA6utI0a/CRAgUJxAUQGWRwiLq4krESBAoEyBrADrG489E+++81r0egKsMovl3gQIEJi1gABr1uLuR4AAAQJDAQGWsUCAAAECowJZAVaagZXWwFpYOPwi7umm1sAy+AgQIFAvAQFWveqltQQIEGiSgACrSdXUFwIECBxdICvASrsQvvXmDQHW0b1dgQABArUSEGDVqlwaS4AAgUYJ5AZYaQH34bHfIu4eIWzUsNAZAgRaLPCgXQij241PD3ch/MZjJ+Odt83AavE40XUCBFoqIMBqaeF1mwABAhUQEGBVoAiaQIAAgQoJPGgG1n0B1mMnTsXbb5mBVaG6aQoBAgRmIiDAmgmzmxAgQIDAPgICLMOCAAECBEYFsh4hvLML4c3ozVsDy/AhQIBAmwQEWG2qtr4SIECgWgICrGrVQ2sIECBQtkDWDKxvfOPZeOfdW7HQE2CVXTD3J0CAwCwFBFiz1HYvAgQIEBgVKCrAWlpairW1NbgECBAgUHOBrADrxImT8ZZdCGteas0nQIDA5AICrMnNfIIAAQIEihEQYBXj6CoECBBoikDWI4RPPHE63nzzlej1FqI7FzHXnY9OpzM40qvb7Q6O0feGXw/fT+eN/v4o4Pj7w+s2BVk/CBColkD6C7E/Z/JqIsDKc3IWgf0E/Flz+HHB7vB2Tfvk+M+h9H2/37/vsAth06peTH9y/hzJOaeY1rgKAQJFCGTtQvj1bzwT33z3VvR6xwRYRai7BgECBGoiIMCqSaE0kwABAg0VEGA1tLC6RYAAgUMIZD1C+NhjJ+Ptd24O1sDqznVirjtnBtYhsH2EAAECdRMQYNWtYtpLgACBZgkIsJpVT70hQIDAUQSyHiFMuxC+/daNWFgwA+so2D5LgACBugkIsOpWMe0lQIBAswSKCLAs4t6sMaE3BAi0VyBrBtaJx0/FWynAsgZWe0eKnhMg0EoBAVYry67TBAgQqIyAAKsypdAQAgQIlC6QFWB947Fn4t13X43evEcIS6+YBhAgQGCGAgKsGWK7FQECBAjcJ1DULoTLy8uxurpKlwABAgRqLpD1CGFaxP3XvvlqzA8CrLxdCNPug+m13+6E42Z2Iaz5KNJ8AgQaKyDAamxpdYwAAQKVFxBgVb5EGkiAAIGZCmTtQpjWwHrnnZt3Z2AJsGZaITcjQIBAiQICrBLx3ZoAAQItFxBgtXwA6D4BAgTGBLIeIfz6N56Nb757K3oT7EJoBpaxRoAAgfoLCLDqX0M9IECAQF0FBFh1rZx2EyBAYDoCWY8QPv74qXjzzbQLoUcIp1MGVyVAgEA1BQRY1ayLVhEgQKANAgKsNlS53D6mMZaWs/EiQKAeAlkzsB577GS8/fZNAVY9aqqVBAgQKExAgFUYpQsRIECAwIQCAqwJwZxOgACBhgvkBVgnTsU7b9/wCGHDB4PuESBAYFxAgGVMECBAgEBZAgKssuTdlwABAtUUeNAi7p1uNz71yCPR6ff7e4NF3AcB1rFD70KYuj++2+CQxC6E1RwcWkWAAAEBljFAgAABAmUJ5AZYu7u7sbOzE9vb24Mjfb21tTU41tfXY3l5OVZXV8vqhvsSIECAQEEC9wdYfxA//vDPYyddu9uNT38UYI3OwDrcLoQCrIIq5jIECBCYocAkAVb6gbK5uRkrKyuxuLg4w1a6FQECBAg0UaCoAGtpaSnW1taaSKRPBAgQaJVA1iLu33js2Xg37UI4nxZx78Rcd+6+2VRpx8F0jM6kGt+FUIDVqnGlswQINERAgNWQQuoGAQIEaihQVIBlBlYNi6/JBAgQ2EcgK8D6+tef/v/Ze9PwuK7zzvOtwsp9X0UABLiL2izJkmxrsS2nY8t2ElvWrkiykzjTTz/pnk8982mS2LJlSaRkpz/2pNPpTOLJOPEmyat2yda+kRQpkhIpcV/BFcRemOf3XhzoslQgbgFVQC3/sksECrfuPed3tvf8z3veYw888LdW6wKWPLBUk0RABESgWgjkI2B1dHS4BxYTBXlgVUsNUT5FQAREoHgEJGAVj63uLAIiIALlSCCRgHX3Pf+bfZcYWBKwyrGMlWYREAERGDUBCVijRqcvioAIiIAIjJGABKwxAtTXRUAERKDCCCQSsP707m/a9+7TFsIKK3tlRwREQARGJCABa0REukAEREAERKBIBCRgFQmsbisCIiACZUogj1MI/y+rq6u3VI1ZbbpWMbDKtMCVbBEQARHIh4AErHxo6VoREAEREIFCEkgqYHHqYHjrFMJCloDuJQIiIAKlRSCZB9Zdf2n3f++vrba2zgUsgrinU1HQdl4K4l5aharUiIAIiEChCEjAKhRJ3UcEREAERCBfAhKw8iWm60VABESgsgkkErDuvPMv7P77/2bIA0sCVmVXCuVOBERABAIBCViqCyIgAiIgAhNFQALWRJHXc0VABESgNAkkErBuv+PP7YH7/9bq67WFsDSLUakSAREQgeIQkIBVHK66qwiIgAiIwMgEJGCNzEhXiIAIiEA1EUgkYN1x51/YA/LAqqZ6obyKgAiIgBOQgKWKIAIiIAIiMFEECiVgNTU1WVtb20RlQ88VAREQAREoEIFEAtadfzq4hbA28sDSFsIC0ddtREAERKDECUjAKvECUvJEQAREoIIJSMCq4MJV1kRABERgFAQSnUJ4511/Yfd/72+sblDASnIKIQHeeRPgPQR7D59lpzP783D9KPKjr4iACIiACBSQgASsAsLUrURABERABPImkD0O8XsmkznrrVMI88aqL4iACIhAWRJI5IF12+1/Zg8+QAyshsQeWBKwyrI+KNEiIAIicBYBCViqECIgAiIgAhNJQALWRNLXs0VABESgtAgkErB8CyEeWHXJtxBKwCqtglZqREAERGA0BCRgjYaaviMCIiACIlAoAhKwCkVS9xEBERCB8ieQSMC6484/twcf+JbV1ta5B5a2EJZ/wSsHIiACIpCEgASsJJR0jQiIgAiIQLEIFELAUhD3YpWO7isCIiAC40sgkYD1p3d9075331/LA2t8y0ZPEwEREIEJJyABa8KLQAkQAREQgaomIAGrqotfmRcBERCBswgkErC0hVC1RgREQASqk4AErOosd+VaBERABEqBQKFOIWxubrbW1tZSyJLSIAIiIAIiMAYCiU4hvOOOP7cHH/xbq83jFEJOH+QVTiGMn0SYnV6dQjiGEtRXRUAERKCIBCRgFRGubi0CIiACInBOAhKwVEFEQAREQATiBBJ5YN12+zds3YPf/nALYarGEJ3iIlW2UCUBSxVNBERABMqfgASs8i9D5UAEREAEypWABKxyLTmlWwREQASKQyCRgHX7HX9mD9z/LauvHzyFUAJWcUpDdxUBERCBEiMgAavECkTJEQEREIEqIiABq4oKW1kVAREQgQQEEglYbCG8//6/lYCVAKguEQEREIFKIiABq5JKU3kRAREQgfIiIAGrvMpLqRUBERCBYhOQgFVswrq/CIiACJQxAQlYZVx4SroIiIAIlDkBCVhlXoBKvgiIgAgUmEAyAevOP7f7vxd5YKVrzNLaQljgYtDtREAERKA0CUjAKs1yUapEQAREoBoISMCqhlJWHkVABEQgOYFkpxBmCVg16VoP4h5OFiRg+0hB3ElS9mmDIZk6hTB5gelKERABERhPAhKwxpO2niUCIiACIhAnkFTA6u/vt76+Puvt7fU3P/f09Pi7vb3dmpqarK2tTXBFQAREQATKnEAiD6zb7vgze3AwiDseWBKwyrzUlXwREAERSEggHwGLAaWrq8taWlqssbEx4RN0mQiIgAiIgAjkJiABSzVDBERABEQgTiCZgHX7n9m6B//W6uoafAuhBCxVIhEQARGoDgL5CFgdHR3W2dkpAas6qoZyKQIiIAJFJ1AoAau5udlaW1uLnl49QAREQAREoLgEJGAVl6/uLgIiIAJlTSBfAQsPLCYK8sAq62JX4kVABESgJAhIwCqJYlAiREAERKBkCCQTsG77hj344Lesvr7BUjVmtYqBVTIFqISIgAiIQDEJSMAqJl3dWwREQARE4FwEJGCpfoiACIiACMQJJBOwbv+GPfjAhwJWTapmKGg7N1MQd1UqERABEahMAhKwKrNclSsREAERKAcC+QhYIXh7riDu2kJYDqWtNIqACIjAyAQSnUJ4O0HcH/iW1dXVWypNDCwJWCOj1RUiIAIiUP4EJGCVfxkqByIgAiJQrgSSClicOhjeErDKtbSVbhEQAREYmUBiD6x1D347ErAI4i4PrJHJ6goREAERqAACErAqoBCVBREQAREoUwISsMq04JRsERABESgSgUQC1q23fd3WPXiv1ddLwCpSOei2IiACIlCSBCRglWSxKFEiIAIiUBUEJGBVRTErkyIgAiKQmED+Apa2ECaGqwtFQAREoNwJSMAq9xJU+kVABESgfAkUSsBqamqytra28gWhlIuACIiACDiBRALWbX4K4bc/9MAiBlYqbalUym+iIO6qTSIgAiJQmQQkYFVmuSpXIiACIlAOBCRglUMpKY0iIAIiMH4EkglYt0dB3Ie2EErAGr8S0pNEQAREYAIJSMCaQPh6tAiIgAiIgGWPQ/yeyWTOeo8UxF0eWKpIIiACIlAZBM4+hfAtO3nqtPWRtXTaPnfddZbKZDIDt41CwMI7izfeWcFTK3yWjS7783B9ZSBWLkRABESgfAlIwCrfslPKRUAERKASCBRCwGpubrbW1tZKwKE8iIAIiEBVE0jogTW4hTCcQpjAA0sCVlXXK2VeBESgQghIwKqQglQ2REAERKBMCUjAKtOCU7JFQAREoAgEhhOwzvLAuvX2b9j6B79tdRKwilAEuqUIiIAIlC4BCVilWzZKmQiIgAhUA4FCCFjaQlgNNUV5FAERqAYCiQSsW277uj207l4JWNVQI5RHERABEYgRkICl6iACIiACIjCRBCRgTSR9PVsEREAESotAoi2EN996jz28/jsSsEqr7JQaERABESg6AQlYRUesB4iACIiACJyDgAQsVQ8REAEREIFAIJEH1q23fd3W5+mBRfB2XiGIezyQezZ+BXFXhRQBERCB0iQgAas0y0WpEgEREIFqIBDGIPLKyYO8RnMKoYK4V0NtUR5FQASqgUCiUwhvufUee+ih71hdbb2lasxqEgRxl4BVDdVHeRQBEah0AhKwKr2ElT8REAERKF0CErBKt2yUMhEQARGYCAKJthC6gJXnFkIJWBNRnHqmCIiACBSWgASswvLU3URABERABJITkICVnJWuFAEREIFqIJBoCyFB3Nc/eK/V18sDqxoqhfIoAiIgAoGABCzVBREQAREQgYkiIAFrosjruSIgAiJQmgQSCVi33vYNW/fgtyVglWYZKlUiIAIiUDQCErCKhlY3FgEREAERGIGABCxVEREQAREQgTiBRFsICeK+bt23rb6uQTGwVH9EQAREoIoISMCqosJWVkVABESgxAhIwCqxAlFyREAERGCCCSTzwLr9z2z9g9+yurrRbyEkn9mnDYa86xTCCa4FerwIiIAIDENAApaqhgiIgAiIwEQRSCpg9ff3W19fn/X29vqbn3t6evzd3t5uTU1N1tbWNlHZ0HNFQAREQAQKRCDRKYS33v4NW/fAt6y+fvQeWBKwClRiuo0IiIAIjCOBfAWszs5Oa2lpscbGxnFMpR4lAiIgAiJQiQQkYFViqSpPIiACIjB6Asm3EI4xiLsErNEXkr4pAiIgAhNFIB8BiwGlq6tLAtZEFZaeKwIiIAIVRqBQAlZzc7O1trZWGB1lRwREQASqj0CiLYS33HaPrV/3HavXFsLqqyHKsQiIQFUTyEfA6ujocAGLiYI8sKq62ijzIiACIlAQAhKwCoJRNxEBERCBiiGQTMC69eu2ft29YzqFEGKKgVUx9UYZEQERqBICErCqpKCVTREQAREoQQISsEqwUJQkERABEZhAAsm2EN46eAqhYmBNYFHp0SIgAiIw/gQkYI0/cz1RBERABEQgIiABSzVBBERABEQgTiCRB9btd/y5PXD/3yiIu+qOCIiACFQZAQlYVVbgyq4IiIAIlBCBpAIWpw6Gd65TCBUDq4QKVUkRAREQgTEQSHQK4W23f8Me1CmEY8Csr4qACIhAeRKQgFWe5aZUi4AIiEAlEJCAVQmlqDyIgAiIQOEIJNtCeNs9ts5PIWywVI1ZTbrG0qm0x7TilU6n/R2PccXv4W/hOsXAKlzB6U4iIAIiMB4EJGCNB2U9QwREQAREIBcBCViqFyIgAiIgAnECiQSsW269x9av1ymEqjoiIAIiUG0EJGBVW4krvyIgAiJQOgQkYJVOWSglIiACIlAKBBIJWDffcrc9tP67OoWwFEpMaRABERCBcSQgAWscYXGpTxsAACAASURBVOtRIiACIiACZxEolIDV1NRkbW1toisCIiACIlDmBBIJWHfc+ed2P0Hc66IthLXp2o9sF9QWwjKvCUq+CIiACOQgIAFL1UIEREAERGAiCWSPQ/yeyWTOeo8UxF0C1kSWoJ4tAiIgAoUjMFwQ91Q6bddfd52lMpnMAFsIH1r/Haurq08cAyvEuwrCFklWDKzCFZzuJAIiIALjQUAC1nhQ1jNEQAREQASGI1AIAUunEKp+iYAIiEBlEDhbwNpgJ0+dsj60priAdcedf2H3f++v8wriLgGrMiqIciECIlDdBCRgVXf5K/ciIAIiMNEEJGBNdAno+SIgAiJQOgQSbSH807u+ad+776/lgVU65aaUiIAIiMC4EJCANS6Y9RAREAEREIFhCEjAUtUQAREQAREIBCRgqS6IgAiIgAgMS0ACliqHCIiACIjARBIohIClGFgTWYJ6tgiIgAgUjkAiActPIXzou1avGFiFI687iYAIiEAZEJCAVQaFpCSKgAiIQIUS0CmEFVqwypYIiIAIjJJAQgGLIO73KgbWKCHrayIgAiJQrgQkYJVrySndIiACIlD+BAolYCmIe/nXBeVABERABCCQ6BTCW2/7uq1fd+9QDKzadO1ZJwpy0mA4bZDg7bz4PfwbP30w/D2OP/t0wlzXqLhEQAREQATGn4AErPFnrieKgAiIgAhEBCRgqSaIgAiIgAjECSQ6hfDW2+6x9eu+IwFLdUcEREAEqoyABKwqK3BlVwREQARKiIAErBIqDCVFBERABEqAQKIthLfd/nVb96A8sEqgvJQEERABERhXAhKwxhW3HiYCIiACIhAjIAFL1UEEREAERCBOIKGA9Q1bt+7bVldbb6kaM20hVCUSAREQgeogIAGrOspZuRQBERCBUiQgAasUS0VpEgEREIGJI5BIwFIMrIkrID1ZBERABCaSgASsiaSvZ4uACIhAdROQgFXd5a/ci4AIiEA2gUQC1k0332UPP3yf1dfJA0tVSAREQASqiYAErGoqbeVVBERABEqLQFIBq7+/33p7e62vr2/o356eHuPd3t5uOoWwtMpVqREBERCB0RJIGMT96/bQ+u9YbW3dqLcQksDs0wZDonUK4WiLT98TAREQgeISkIBVXL66uwiIgAiIwPAE8hGwgngVhCwJWKpZIiACIlB5BBJ5YN1y69dt/fpvW31dgwSsyqsDypEIiIAIDEsgHwGLAaWrq8taWlqssbFRVEVABERABERgTAQKJWA1NTVZW1vbmNKiL4uACIiACEw8gTwErHvHtIWQrMoDa+ILXCkQAREQgXwI5CNgdXR0WGdnpwSsfADrWhEQAREQgREXUbggk8n4dYxL/Bx/s4VQHliqSCIgAiJQ+QQSClj3+BbCujHEwJKAVfmVSTkUARGoPAL5Clh4YBFrRB5YlVcXlCMREAERGG8ChfLAUgys8S45PU8EREAEikMgkYB162332Pp191qdthAWpxR0VxEQAREoUQISsEq0YJQsERABEagCAhKwqqCQlUUREAERyINAQgHr64MC1uhPISRN2kKYR8noUhEQAREoAQISsEqgEJQEERABEahSAkkFLLYPhreCuFdpZVG2RUAEqoJAMgHr1ntsvbYQVkWFUCZFQAREIE5AApbqgwiIgAiIwEQRkIA1UeT1XBEQAREoTQLJBKzb5IFVmsWnVImACIhAcQlIwCouX91dBERABERgeAISsFQ7REAEREAE4gQSCVi3DHpg1SuIu2qPCIiACFQVAQlYVVXcyqwIiIAIlBQBCVglVRxKjAiIgAhMOIFEAtbNt9xtDz/0XZ1COOHFpQSIgAiIwPgSkIA1vrz1NBEQAREQgQ8JFErAampqsra2NqEVAREQAREocwISsMq8AJV8ERABESgmAQlYxaSre4uACIiACJyLgAQs1Q8REAEREIE4gYQC1j328EPfkQeW6o4IiIAIVBkBCVhVVuDKrgiIgAiUGIHscYjfM5nMWe+RTiGUB1aJFaqSIwIiIAKjJJBIwLrl1q/bww/da7W19ZaqMatN11oqlfI3r3Q67e/4Z+Hn8DnXxf8eT2/25+G+o8yTviYCIiACIlAgAhKwCgRStxEBERABERgVgUIIWM3Nzdba2jqq5+tLIiACIiACpUMgkYB1661ft/Xr783LA0sCVukUslIiAiIgAqMlIAFrtOT0PREQAREQgUIQKISAJQ+sQpSE7iECIiACE08gmYB129dt/ToJWBNfXEqBCIiACIwvAQlY48tbTxMBERABETibgAQs1QgREAEREIFAQAKW6oIIiIAIiMCwBCRgqXKIgAiIgAhMJAEJWBNJX88WAREQgdIikEjAuuXWe+whgrgrBlZplZ5SIwIiIAJFJiABq8iAdXsREAEREIERF1G4gMDtvBTEXRVGBERABKqXQCIB6+Zb7raHH/5uXgIWwdt55Qruno1bQdyrtwIq5yIgAqVNQAJWaZePUicCIiAClUwgjEFjFbAUxL2Sa4nyJgIiUE0EEglYNyFgPfRdq6+LTiGsSddYOhWdOhhEqmyhSgJWNVUj5VUERKBSCUjAqtSSVb5EQAREoPQJSMAq/TJSCkVABERgPAlIwBpP2nqWCIiACJQZAQlYZVZgSq4IiIAIVBABCVgVVJjKigiIgAgUgIAErAJA1C1EQAREoFIJSMCq1JJVvkRABESg9AlIwCr9MlIKRUAERGA8CUjAGk/aepYIiIAIlBkBCVhlVmBKrgiIgAhUEAEJWBVUmMqKCIiACBSAQCIBiyDuDykGVgFw6xYiIAIiUF4EJGCVV3kptSIgAiJQSQQkYFVSaSovIiACIjB2AokErFtuvcfWr7/X6usaFMR97Mx1BxEQAREoGwISsMqmqJRQERABEag4AkkFrP7+fuvr67Pe3l5/83NPT4+/29vbrampydra2iqOjzIkAiIgAtVGIJGAhQfWww99x+rGIGABllMLw8mFcdDZn+e6ptoKRvkVAREQgVIgkK+A1dnZaS0tLdbY2FgKyVcaREAEREAEypiABKwyLjwlXQREQASKQCCRgHXTzXfZ9x++z+rq6kftgSUBqwilp1uKgAiIQJEJ5CNgMaB0dXVJwCpymej2IiACIlAtBCRgVUtJK58iIAIikIyABKxknHSVCIiACFQlgXwErI6ODpMHVlVWE2VaBERABIpCoFACVnNzs7W2thYljbqpCIiACIjA+BFIJmDdcpc9/NB9Vi8PrPErGT1JBERABEqAQL4CFh5YTBS0hbAECk9JEAEREIEyJyABq8wLUMkXAREQgQITkIBVYKC6nQiIgAhUEgEJWJVUmsqLCIiACJQXAQlY5VVeSq0IiIAIFJuABKxiE9b9RUAERKCMCUjAKuPCU9JFQAREoMwJJBWwOHUwvHOdQqgthGVeEZR8ERABERgkIAFLVUEEREAERGBYAhKwVDlEQAREQAQmioAErIkir+eKgAiIQGkSkIBVmuWiVImACIhASRCQgFUSxaBEiIAIiEBVEpCAVZXFrkyLgAiIwLAEJGCpcoiACIiACAxLQAKWKocIiIAIiMBEEZCANVHk9VwREAERKE0CErBKs1yUKhEQAREoCQISsEqiGJQIERABEahKAoUSsJqamqytra0qGSrTIiACIlBJBBIKWHfbww991+rr6i1VY1aTrrF0Km2pVMpZpNNpf/N7/LPwt/BZ/O9xiNmfh+srCbTyIgIiIALlSEACVjmWmtIsAiIgApVBQAJWZZSjciECIiAChSJQNAEriFJB2CLBErAKVWy6jwiIgAiMDwEJWOPDWU8RAREQARHITSB7HOL3TCZz1nukUwjlgaXaJQIiIAKVQUACVmWUo3IhAiIgAkUhIAGrKFh1UxEQAREQgYQECiFgNTc3W2tra8In6jIREAEREIFSJSABq1RLRukSAREQgRIgIAGrBApBSRABERCBKiZQCAFLHlhVXIGUdREQgYoiIAGroopTmREBERCBwhKQgFVYnrqbCIiACIhAfgQkYOXHS1eLgAiIQCUTkIBVyaWrvImACIjAGAlIwBojQH1dBERABERgTAQkYI0Jn74sAiIgAhVFQAJWRRWnMiMCIiAChSUgAauwPHU3ERABERCB5AQKdQqhYmAlZ64rRUAERKCUCRRNwOL0QV7hFEJOIOQV/o1DyT6dMNc1pQxRaRMBERCBSiUgAatSS1b5EgEREIHSJyABq/TLSCkUAREQgfEkEBew3nprg508dcr60JnSabv+uusslclkBm665W57+KHvWn1dvaVqzGrSNZZOpYfEKESqbKFKAtZ4FqOeJQIiIALFISABqzhcdVcREAEREIGRCUjAGpmRrhABERCBaiKQzAPr5rvt4YclYFVTxVBeRUAERAACErBUD0RABERABCaKgASsiSKv54qACIhAaRKQgFWa5aJUiYAIiEBJEJCAVRLFoESIgAiIQFUSkIBVlcWuTIuACIjAsAQkYKlyiIAIiIAIDEtAApYqhwiIgAiIwEQRkIA1UeT1XBEQAREoTQISsEqzXJQqERABESgJAhKwSqIYlAgREAERqEoCErCqstiVaREQAREYlkBCAesue/jh+8YUxJ0UZJ82GFKlUwhVQ0VABESgNAlIwCrNclGqREAERKAaCCQVsPr7+62vr896e3v9zc89PT3+bm9vt6amJmtra6sGZMqjCIiACFQ0gYQC1tiDuEvAquh6pMyJgAhUKIF8BazOzk5raWmxxsbGCiWibImACIiACIwXAQlY40VazxEBERCB8iCQUMCSB1Z5FKdSKQIiIAKFJZCPgMWA0tXVJQGrsEWgu4mACIhA1RIolIDV3Nxsra2tVctRGRcBERCBSiEgAatSSlL5EAEREIEiEMhHwOro6HABi4mCPLCKUBi6pQiIgAhUGQEJWFVW4MquCIiACIxAYDgBy9Jp+9x111kqk8kM3HSzthCqJomACIhANRKQgFWNpa48i4AIiEBpEJCAVRrloFSIgAiIQKkQkAdWqZSE0iECIiACJUhAAlYJFoqSJAIiIAJVQiAfASsEb88VxF1bCKukwiibIiACFU8gLmC99dZbdvLUaesj12d7YCkGVsXXBGVQBERABHIQkIClaiECIiACIjBRBJIKWJw6GN4SsCaqtPRcERABESg+gYRbCBGwvmv1dQ2WqjGrSddYOpW2VCrlKUyn0/7m9/hn4W/hs/jf41nL/jxcX/zs6wkiIAIiIALnIiABS/VDBERABERgoghIwJoo8nquCIiACJQmgTy2EErAKs0iVKpEQAREoHgEJGAVj63uLAIiIAIicG4CErBUQ0RABERABOIE8vDAus/q6+rlgaX6IwIiIAJVREACVhUVtrIqAiIgAiVGQAJWiRWIkiMCIiACE0xAAtYEF4AeLwIiIAKlTEACVimXjtImAiIgApVNoFACVlNTk7W1tVU2LOVOBERABKqAQOIthN9/+D6rkwdWFVQJZVEEREAEPiQgAUu1QQREQAREYKIISMCaKPJ6rgiIgAiUJoFEpxDefPPdHsQ9HwErBGYPwd3JvoK4l2YlUKpEQAREYDgCErBUN0RABERABCaSQPY4xO+ZTOast04hnMgS0rNFQAREYPwIJNpCiID10EPftfr65DGwJGCNXyHqSSIgAiJQLAISsIpFVvcVAREQARFIQkACVhJKukYEREAEqoNA4i2EDz+cXxB3CVjVUYGUSxEQgcomIAGrsstXuRMBERCBUidQCAFLMbBKvZSVPhEQARFIRiCRB9ZNg1sI8zmFUAJWsgLQVSIgAiJQygQkYJVy6ShtIiACIlD5BCRgVX4ZK4ciIAIikJSABKykpHSdCIiACFQhAQlYVVjoyrIIiIAIlBCBQghYzc3N1traWkK5UlJEQAREQARGQyDhFsIoiLs8sEaDWN8RAREQgfIlIAGrfMtOKRcBERCBcidQqFMIJWCVe01Q+kVABEQgIlA0AYvTB3mFUwjZUsgr/BsvgOzTCXNdowITAREQAREYfwISsMafuZ4oAiIgAiIQEZCApZogAiIgAiIQJyABS/VBBERABERgWAISsFQ5REAEREAEJoqABKyJIq/nioAIiEBpEhiVgFWbrnVPquAphZdVtqeVPLBKs8CVKhEQARHIh4AErHxo6VoREAEREIFCEpCAVUiaupcIiIAIlD+BhALWXfbww/flFQNLAlb5Vw7lQAREQAQkYKkOiIAIiIAITBQBCVgTRV7PFQEREIHSJCABqzTLRakSAREQgZIgIAGrJIpBiRABERCBqiQgAasqi12ZFgEREIFhCYxKwNIWQtUoERABEagOAhKwqqOclUsREAERKEUCSQWs/v5+6+3ttb6+vqF/e3p6jHd7e7s1NTVZW1tbKWZRaRIBERABEciDwKgErJp0jaVT6bxiYJGm7NMGQzp1CmEeJaZLRUAERGAcCUjAGkfYepQIiIAIiMBZBPIRsIJ4FYQsCViqTCIgAiJQeQSSCVi33GUPPzS2GFgSsCqv8ihHIiAClU8gHwGLAaWrq8taWlqssbGx8uEohyIgAiIgAkUlUCgBq7m52VpbW4uaVt1cBERABESg+ARGJWCNZguhBKziF6aeIAIiIAKFJpCPgNXR0WGdnZ0SsApdCLqfCIiACFQpAQlYVVrwyrYIiIAIDEMgmYB1c/6nEIZtgZxGyM8SsFQHRUAERKD8COQrYOGBxUq3PLDKr6yVYhEQAREoNQISsEqtRJQeERABEZhYAskErFFsIZSANbEFq6eLgAiIQCEISMAqBEXdQwREQAREYDQEJGCNhpq+IwIiIAKVS2BUAtZwWwjxtgovCViVW2mUMxEQgeohIAGrespaORUBERCBUiMgAavUSkTpEQEREIGJJZBMwLrpLvv+9++zurp6S9WYScCa2ELT00VABERgvAhIwBov0nqOCIiACIhANgEJWKoTIiACIiACcQLJBKyb/9S+//3vWV1tvaVrzGrStR7XKsS2wvMqvMPN5YGliiYCIiAC5U9AAlb5l6FyIAIiIALlSkACVrmWnNItAiIgAsUhkEjA+tpNd9kPfnCfBKzilIHuKgIiIAIlS0ACVskWjRImAiIgAhVPQAJWxRexMigCIiACeRFIJGDdlHUKobYQ5sVYF4uACIhA2RKQgFW2RaeEi4AIiEDZE5CAVfZFqAyIgAiIQEEJJBOwbrnLvv/QfVZXX2/pdMpq0jVDWwjjWwUVxL2gZaObiYAIiMCEE5CANeFFoASIgAiIQFUTyB6H+J13f3+/ZTIZf/NzX1+f9fb2+pufe3p6/N3e3m7Nzc3W2tpa1RyVeREQARGoBAJxAeuttzbYyVOnrM/MUum0XX/ddZbKZDIDNyFgPfw9q6+vs1QQsCyKgYVoFRexAhTFwKqE6qE8iIAIVDsBCVjVXgOUfxEQARGYWAK5xqEgYAURSwLWxJaRni4CIiAC40UgmQfWzX9qP/j+/e6BlUoTxL3G0qmzhat4UHcSLwFrvIpQzxEBERCB4hGQgFU8trqzCIiACIjAyATGImDhjYUHVlNTkzywRkatK0RABESg5AkkFLDusr/7wfesrg4B6+wthHEPrHAqYRCvcv2bi0gu8avkySmBIiACIlAFBCRgVUEhK4siIAIiUMIEziVghe2DwQMrvo0Q8SpsIZSAVcIFrKSJgAiIQB4EEglYt9xyj59CWFt37i2E2YIV6QgCFz8HgSuevmzxarjr8siTLhUBERABESgQAQlYBQKp24iACIiACIyKwHACVhCvsmNgxUUsBKyjR4/KA2tU5PUlERABESg9AokErJtvvdv+ji2EdXVmg1sIU7EYWNleWLk8sSRglV7hK0UiIAIiMBIBCVgjEdLfRUAEREAEikngXAJWCOKOaBXeIYh78MBCwFqyZIm2EBazkHRvERABERgnAvkJWCEGVqrGkxeCuOcSsOLeVuF0QnlgjVOp6jEiIAIiUCACErAKBFK3EQEREAERGBWBJAIWWwiDcBU8sMK/CFiLFy+WgDUq+vqSCIiACJQWgZynEA6YpWpipxDefMvd9nc/uN/qG+otlUpbOpXyXCBMZW8RDKJWELjCv7m2Csb/FseSS+gqLWxKjQiIgAhUBwEJWNVRzsqlCIiACJQqgXwFrCBmBUELAWvRokUSsEq1gJUuERABEciDQBCwTp06ZRs3brQTJ09ZPwJWOm2f/fR1lspkMgNBwGpobHABC/kqCFXZglWugOzywMqjRHSpCIiACJQQAQlYJVQYSooIiIAIVCGBpAJW2EKYS8BauHChBKwqrDvKsgiIQOURyCVgZQbcu+pDAeuWW++2H/zge9bY0Ii05QLWcNsG4wJWPKg76LSFsPIqkHIkAiJQ2QQkYFV2+Sp3IiACIlDqBMI4xL/xn0P8q+yTCLMFrPb2dps/f74ErFIvaKVPBERABBIQiG8h3LJlix1tP2Z9mQGrrau16z/z6cgDK5eAFffAiotWubYUxoO6Z6dJpxAmKCVdIgIiIAITREAC1gSB12NFQAREQAScQBiH+BmxKrwQqvhbLgErHgeLLYQLFiywlpYWERUBERABEShzAkHA6urqsr1799m+/futq6fXpk2fZtde/amwhfAu+2//7QFrqG84ywMr7oUFh/h2wvB7thdWnNe54mKVOVclXwREQAQqgoAErIooRmVCBERABMqWwHACVtwDK/wc4l7xezwGFh5Yzc3NZctACRcBERABEYgIBAGLPh4RixhYvX39NmnSJFuzetWHMbAQsOrr6lGpPIj7ubYQJhGvsq9RgYiACIiACJQegbBlI3sLR1jx5l9WulkJP3PmjA8kTU1N1tjYWHqZUYpEQAREQATKjkBcwCLx8XEpW8RiLApjUoiJxRbCOXPm+NiklwiIgAiIQDICYRdddh+c7NvFuwoBa8eOHdbT0+MPyWSi7eWpdI0tWbI4ErA+/4Wv2H/9r39lNTW1flE8iHtI2nDxrkbjgZUku+c6qTBATnJNPP1JnqtrRKCUCZRaB1PKrJS25ATCFo34N8JnTB7Cz93d3b7iPXv2bKuvr0/+gBK4stzbjg/cgycED4czfk2S60ugWBIlYbi85JPHpGzyuWeixBf5orGmN7tOZXM6V107l30Vb288I4ndFu6X/d1caciV76Qs8r1/kuuz+063pYdpr9npLDab0dx/JPs6/vdC3T+XiBW2EwZBKz4exbcXsrgyefJkH5uyy2K4vn+k/rTITVe3FwERGCOBcmjD5WB7Bi1ntGkdjQg20rNYLD98+PCHW8oJ4M7ihpmtWbM6ErC+cMNX7P/8P/53q62tsQGLPLDC4BuPbzXcz/GBOl6ZzhUba4x1Vl8XAREQAREoIIFcg0n8szCB4N/a2toRxZQCJk23SkggqUiT8HYVdVlScaOiMl3EzCQRdXIJNUknHPmIInHhK8n9i3lvN7AHIks7SVryTXuS+xdCIJvItA9XbbPHozg7hC12jjA2xV9h3Mq+53AhTorYZHRrERABEShpAqO1k+hPw+IC/XAhXmGLeLgXypT352a2ZMmSSMD6yldvte/d9zdWW1vn7ldpTiJMpT7yjg/I2ULVcJ5YGiQKUYy6RzUSGEmdrkYmynPlE8g1cUoyWR6JjNrTSIT091IjMJIXTL4iSanlT+kRgWITkIBVbMK6vwiIQKUQGK2ARf5Hs3CTN7dBAWvKlCmRgHXjjbfbgw9+OxKwzHwVIxhGuQK5Zz8wO15W/O/nMsBQ19jbyDvp5CKX23LeAHJ8IZ/VpkI8T/cQAVYK2YZVU1PjYjFtgO1ZtIegZA9HSfVV9afSCFD/aQsNDQ1WV1c31CaIccLWRbaLjOWVdIwZyzP0XREoJIGwAMg4wTv0+7SF0CbiJ7aN9dkjicdjvb++LwKFIoD9RBzG+MnobDnp7Ow8ayI1nIAV5jiFSo/uIwITRSB4xbOFNthOE5UWPTc3gXKwPydiXpkPl2hvYLSFkEDukYD1tTtt3YPfcgGLP7CFMARNzPasyrUtMNfWwvjgwN8ZZMJEnb9hgDHY8Jz457kzgzeY33Hw38FMuJf24KbIMbaaiSi4MSZZXy9jAsE1krqPEca/4aQF6mK8TZRxNpV0EciLAG2AF4YYExTaCbFNgrg1lm3p+QyUeSVaF4tAEQmEgNWME4i7vJik01bik5Wx1m/ZQEUsRN26oARoE9R/RF0mMswvWPg7evSodXR0nPUs1euCotfNSpBA8JqZNm2ax4DL3kY7UpLDAnpYOB/rWDLS8/L5e9APwha17MX9UmrfYd4W9JN88jle1+biOV7PHuk5od7Rn8cXJsL3goDF741BwPrKjbfb+gfvdWMIOah/cMU77CmPbwPMtSUwVwWKXxcmHxhgweBi8MEI43cmK0P3iOlR/JghJhfCVVY8Ac/IwIBlrP8jElZojCPBiv+9lBpBPunWteVJgLZF/ce7BAOMAYeJOp/TTkaOMZRUuI03+fJkpVRXPoHQ/zIJYQJCm2Cyzu+0C36Pe6BE3f/IQc3PnsnEfkvafEoI/WjGtRJKvpIySgKMCSdPnvT6H07+5HfaB+/gMT/WSUew2cZ6n3NlM16HVZ9HWSH0Ne/7WQDnPX36dG8DnFhFwF/Erbg9n2vOEsYPoRSBSiAQvAxpB4sWLfI5dT4vvo9HL+2JOUn2GBDaUzHHhlzpDTbejBkzXCvAFkQ7KNX5OuMx4zQcsV3j6Rxvducqf+xpeFLmvMeL50g2e1zACmk8S6cZ/AXzHVtoMAbW7bZ+3aCAlTLr7IhWvGkE2dsDswcG7jeSgBXc3blXfLWEQqbA+SzcJ5KroldmwOxMn1lvZsBSvu+REPP87L5Y0c+WYc+jNdSlLZ0iLdF3S6my5NOR6NrKJhCMKSYl1H86jyDsYoDxd9odSn78RRvylQeXa8PbQ9p5ewn/jb4TfRL9VOP3KlRQvcounbHlLlu0Vx+UqzyXdwAAIABJREFUH0/4YTydOHHCxwTaRdgSwsoihgFMMQzeeecdO3jwYF7bCr3VMEYMRF7G8+fPt/PPP3/IqyW/1I7/1aENF3LL2PjnQk8cDQHaBP14sJWOHTtmU6dO9bobF55oH7Qht4EsbLmNjwe+FMja31mvsCqba9VzNOnN9Z1sgSwIWOonC0W4uu6D7YSQO2vWLLdvjh8/bkeOHBnyXh+adJ9jPpBkeS/U2/gk/lwTvlz1OlsAyP7+SG0g+9kjXT8RNSHfPBUijbnKoZBsii3cFELQD/dgjsB74cKFPjaM9Ap5C6F8WDjMFc4n33Idrq4Hkay9vd3nPSPN08N9aN9Lly51e/DUqVOex+z50Uh5Lfbfg8dV8JJGaGMcLsV5F/zCgjBOFJR5qfEkjThxhJ0YoU3n3EL41Rtvt3XugVWLHGQdp057ZfEgWYPB3H0yHAvsHipE/O/xSpKtPIYC5Z7B3Te3gIUwlbb+AbP9x7ptw47DdugYglq/e1yFyTniVobfUwM2bVKdXbJ8ni2dP9Xq6moGr8tdZc/VuIpdyXV/EYjXPzqPuIDFABJE3tChcD1GGoYZ1w4M0EKTuY9E24Fr3KV47ty5JdmZqkaIQJwAAxeTdcYfBtm4gMWKES+MmH/7t3+zrVu3DitgfcTocm/eqOUQ4REBa1lbm912222+gl8Or2Ib02NlkD3mj/V++n5EAK5MzrMFrCDqBvGJtnPo0CG/NhI5eed6ffSEIO6BQMw4wWp3ISeBw5VjrvpS6nVcdTIZgXwnvcnuevZV2QIWoi5bCMMujzA36eruttMdpy3Tf3Z7SCpeMQ6Fxfx80jk06Qqr6iN4DZ+rzeUSz8ajjSbN73CCXrHTWEwBq9jjWaGYxQUsRJMFCxb43H24+Xh2mVJGzEWCp/tI2w9DmQZPrXxibtFGN2/ePLT7ajiBh2eEXSpNTU22Zs0atwex/cKOrpHGlWLVvbjoGNLAsxh/4x5YcU/Q4co6Ow/FHv+y0xl2AY1U5vn0A4XgHhw2EGLDwrXbQoMJOSsGFgIWHlhkgj+cPnXaK0vY2hegxoO7hwxlC1jBRSyXgIXrHw0LQwzVL7eAFSVz19FO2/j+cTvZ2W8N9fVWx57IVORpMjCQsj4qTKbfeoil1d1tDek+u7RttrUumm51BMUeZpKfXfmKXWGSFryuqw4CwwlYNNLggRXaSCCyb98+77ij/dV8mlzA6u/P2EBmwJYtW5b3vvjqKBHlspQIxAWsuAcWIlMQsDCC/tf/+l8uYLm3CY1iwKyG//B/fsXNatBH16w38utNM27UW83AgKVrUtbW2mrf/OY3fcKu19gJjMekdeypLM87ZAtY/E6bYNxwi2nQe/G9997zhYrIVhtOwIq8sOKv4LmFKHbeeeeNi4AV0u0jWswlLNcEoTxLrXpTPR59AXMIFjuCB1YQsEKbCN6E2FW9/X3W2NBoKSYRISTJoCn1oX/iwIeeiYPNIxyqQ7sI40/1lqpyXsoEsIWwn/AszxawzpXuIGCF7bih/cTn+NljBb8jIIeQJ0kEGq5hi+8bb7xh8+fPs+bmZqurr3ObLabxehskTadPd9ibb75pc+bMcU959AjmQbxKzbMpCG7hsBWEoVL0FMslYAVvp+xxeCLrOumk7w0C1lBafPcdlk20Q3DwFMI7bN266BTCSMA65QJW8MAKhkaopOFfMs4gEn+Flbx4DB8SE/auhu1RIWD1R7cQmvVlBuyFrQdtb3ufTZs63Roa6nzF3CchnNZmKffQGshkrG8gY5lMr504ccqm1Pba1RcsthmTGy09tN4+kcWgZ4vA8ATiHlh0fHTOdMw02uCBRdvZvXu3b5dicnLseLtlBmi+0Sv8+6ERFv6QsXRNrV2wZq3NnDHTVzAKpbKrTEWgWAQYU5icB1dsxhfaSVzAwgX9IwIWowNbA3kTxzGVsXSq3yZZn02v77DZU1PWbVNtW/sk/HstXZN2t/S//Mu/tJkzZxYrO7qvCBSEABN1xoYQA4s2gvAaF7CwqbZt2+btZ/OWzdbb1+uGXnxsiP9MOxkYSLvH+rTp02zNqtU++WlpaYnGlux9hgXJiW4iAoUhEBewgpciHljZAtaJkyet40yHbd+23U76BDiEV/joZo34VhXsMLw/aGfxtlaY1OsuIlBYAkHAmjdvXqIthOHpcQEraT0P2wGDgJVEUIoLWEuXttjKlSsH2+pHF+T55MTxE/bcc89720PAQpNAjOZ1rudNxAJILgGL8sj3MK5ipz0sVGFH0E8GoS3MDUtpzMeeQS+KC6pxD6yYgHW7rXMPrDpfvT598qMCVnZsBCYaO3futN/85je+vSm8mGh8/OMft0984hNDKxahgaDYxrcQhu1T2TGwevoH7Dev77bt+7qsp7/GejPoVmkbYAuj/y9sBoncDDO47tXX2IKpZl+8aqnNntpgKSMORG5PFXldFbbj1N1GRyAEIQ1up3TOuQSsXbt2ubfJU089ZZ1dZyxVW+MGWW9vn/UTF4s2kIliZOFxhcDF7zWptH3ly39iq1evtrVrL8i5glgIN+nh2lPcO5M+oJCdYzE6+vg9871/vteHGhO+Nx59UiGfEco2V7mOZfU9CFhhj34ILJotYP3jP/7joAcWcX4YG/hvv9UN9NvUmrTNqj9h8yb32dr5nbZ4Vp+Pbc/tmW1PfjDFPXjTaTyw2goiYOXiei4+2b3FcHWnEG1zuJ5pNPU11yrrcG36XH1CocSRbD6FrN+j69GL8y3yhXdJtoCF8JotYG3ZssU2vf22PfHE4zZr7mwXscKpbD4u9GesbzBWygBjha8EDti8efPtK3/8x+6p29ramrOvLhbfsfQXSYgXuh3l07bj6YsH2893LBzL2JSEUa4+qVDtlPuM1Mfx93xj+yFgIdbigcULkZfFDdpEfILbfuyYHTh4wH75y1+695V7u7OlMJPxHRzRdhX+jWwpy2QslRnw+37yk5+0VatWeRiG4TxT8i3LfPr/sd47V9mHshgS6+LuL6OpLEX+Tq5xJy6+FPnxRbl9MfrSuIA1Gg8sbK3xErBaW5cOClhRWIiPvAa3zT/7zLM2Y8bMIQGLRX7YjSRgFbLvStJey8kDi3pSLAFrNHblcA0sW8Dy3X2Dkg72fpaA9Z1oC2ECAQsJicHj1ddes//77//ejh07bqnBO7Nq8bnrr7ebb7nFJk+eNKQh4YGVLWAxgWeiki1gdfel7Jev7ra3Puiw3kydTa5PWzrTaZneLmtonGK1tTXW33Xc+hh06uZZ++l+q6s1Wzrb7E+ubrF50+otRcysEPI67i1P7KzBo9njHmZF6aV0UxE4B4HggYWAhXs6AhaKfbYH1gcffOD7xn/929/apCmTrGVpi+3es9v27ttr3d09vo3KjTB/Z1zU6u/vc4/FW2682S644AK78MILswQsvBnN+vr67eDBA9bQ0GizZ89yT8fcA0ruj3keHQ0DSnyvMvc+efKU52nWzJk2KdYXJK8UH93qwncR744cPuwG5qFDBz1o5ZSpUwY3BiS/O2nMZCLvULZpRkL8gA+YTUuWGNsGoi0H4RXFjgleDPzbjRF97JgPqnPnzYudpjoYaD8bZ0xTp/8LE1PuM23aDJs5Y0bWM4fZBpRsF+mHSU+Z15E9u/fY9BkzbNasEbyOhrv/YH7oy9vbj/lAGE0goi8wyDBhPnXqtE2bOjWvlUC+H99CSLvgOdkeWExa/uEf/mFoCyHjUf1Ar7VOP27nzTBbNKnH2ub12uyGfpvR0G2Ntf3WbbX2z1uX2OM7GmxgAI/etLUubbX/+B//4/AeWDmbwtl1Mrg6E5sufkoi4yOTKdrF3Dlz3OPrrBcDLTU2ZV4HOs+c8XRM5kCTwefSjmE8ecoUm9Q4abBuRfVq6Bj5hnpf3Dmr2Y5Qdj09vf7M6dOnDY29SXYlkydiLO3bv9+zgrcOJx41NBBc/8NNaYyv5J1+ae7cedHC2EDGjh5t935p2rSplq6p8f6oJpvLcM03R9BxnrF12zYPRUDfl+Iwl4YGW7Fyhc2dPWcYIzdWqCGkJnaC3z/fRpVHXzOGS+lbqPP8S/54ha1TYVsTf+vr7XXx6s233rLfPPG4XXrpx2z6jOn21sa37NjRyHOX/pot5X39fZbp67fevmjCvnDBQrv5ppt8UtHW1hYTsAa93gfbNc+lnk6ZMnn4WKPDtJve3h7r7+v3bSNDQWMH7bEDBw54X8K9RxNQ1ksuR1975OhRO9NxxvvVw0cOuzgXTX6GKetzfEx9pq/fv3+/j0EN9Q3eBnhnixuhuOMG/fETx32s8XYePyUsQbWjvTKW8pwznV0+PtUOxgT8sGoVZqyItu+c9jqHNwf2+ViEFLyisBEQgai/8XuFxW+Y5OshHgQsvgvnuIAVJrk862j7Udu3f5/9/NFHPcZb27I227Hzfdu1e7f3oz29fTYQhKz+frNBIWv2rFl23XXXue2UK+1wp+85eeq01+np06LTEKOqmLtQsz+lTfb29HgfWZt1cA+xTxlL58yd+5HFxyTxuz7a5RB+JTptDu4sCp04ecLzNnkyMZMSVMTYTX0rj/cLnP54xHcQwJ1xZc6cuVHcsCx7ckg8G7wPbYoxBeFk6tQpPi5nv4are3z34KFDbmNQx7ADw1wyV3c7HLMRhsuhW1HW5JF+imeeS1gLXxru3l2dnUZ/MGP6jMg2Huy8uCc7oGh/1OtwSEeS4SPMA6jjSYK4D6VxMAZWIQWsXAIdn4UthCMJWGHMe/rpZ50DHlhwDx5YoxkjkjAc7TVhax79M2UWPJuKeSjKaNIaPLDCnNNtp0wm0n5KzOOa/h2NJoytcQGL5jIpbCGMYmB9VMCKN4J4QaQt7RPnF19+0f75X37olWvZ8mV2/Hi7T7SXtS2zO+64/cNBmtME8xSwfvHKbnvt/Q7rztTZlJo+m9p/wCanOqyr16ynL2MzJpmd7uq1Mw0rrb2nwRrqB6x19oDd6AJWnaU82HX0ygTZjlwPRBOGt99+2y6//PIxD86jqUT6jghAgE4uxIFjIoKxQsccYmCFwf799z+wtze/bb96/Lc2c9ZMo/N/9713be+ePdbZ3e1G2ABibm+/r67zM//WpNMuYK09f61dfPHFZxtBPulN2Zkznfbiiy/arNmzbO3atR4/7iOGzDlG/lOnT9u+vXu9rS9ZsiQa1GlmAwP23o6dtm/fXluzerUbwv5KaCNFec8tYO3du9feePMN3xb58isv2VVXXmnNzU3RxMf300eG2rlefo2ZHTp82PfZ9/REq0+IAZQJBveqlSutpaV5cEJFWtIedw9x5sSgcY+HA95xTGYuuuiimFHje5yjI++GXlH/E15MhPBixZA8dPiInbdkiS1fttyfF524GoDFvuTxnsIyxEdzmDPvg+WHQfzEk0/ZFVd83BYvWny26HHWRqNhyilWD5gYbt68xSdvrFAHg516t2PHThdF4TdvbkzUS9Dsg4DFAMs71xZCJlb/43/8D98u5W7a1mcXzj1lf9B63JbMqLGpdf1WX9Nltel+fLPsZF+ddfVPth+/O9ue2dlgmYFaL2c8sHIJWFHdGGYCMsChCqd8DMGwwqhC0Onr63FRkDY9a9ZsT9fmt9+2xkmNXi/qamuz6sGHAhb5wLBbsXyZzZs3N4r1mErZocNHPY+Mp/PnL4hNvDO+pfjwkSM+GWt0cStr/p4r+YPl19nVZa+//rrNnj3HVlN2H9l//NGCIj94gm7cuNEaiI85aZLNnjPbWppbbOq0aV4nQ/Wg7TC+YhBfcvEl1jhpsvdRmzZtcgMUA5t2NH/BfJs9K5p8Jnqd1Qwir6QdO3bYwcOH7L1337W2ZXCab21ty4zJZ04xni1zg0Ir7Zz+iQkcQk/SZCRKa4EvYnKeRMDauGmTvb7hLXv8ySfcC37a9Kn28ssv+SKjjw0IfQTI7ev3xYuevn73Nlm4YIHdNChgLV++3PvPqC9hbpV28Yt+991337WVK1baeectjjqJXP1sdnEOxqg7eOigt50F8+f7JDe8ent67YUXXvAxgmcHkS4fhLmkG/Lw5ptv2ZEjR2358mX2xuuv2xe/+KXB+w9zGErOdpOyzq5O38L//vvve18fPBzOdHT4ZJE+MHgChXTTZoJAQx3bsXOnwYBr4X3W6xzDFROMt956ywWaadOn2779B+z6z15/tgjm/VVhBCz6XNrVnj177Morr/SFnNG+aPf0GfQFzBMY68LYzHNeeukl/wzh9FziQ67nJxWwGKv27N9rj/7iUVu4cJEtW7Hc3tm61Xbv2u1e7L19/WbYT33RIqCxENjX7/1CELDos7LFN9KEKP/+Bx94uSxtWeo2VqSLRyemZ7+i5YcPX93dXc55zuzZHuoh7llCfaOPX3vBBR8Nyp1Drz13GUXjDXUJsYcyWbVylb274z0X/OHy4enWI5c2d6M/YQFx167d1tPb42NhTbrGGF9qa9Ie42j+vPlnCXP0KXjEEbcYe4ux4rXXXvN2v+S8xVZbEx8no3TktOX8Pu32ymuv2UVrL7AXX3rJPnHVVTY/u13FsvJRaSz6Y5JIgaQBkZ0+EDuXcSbJtrns8g7JYbx/77133d5j4XPoNTBgW995x8dJ+glfRE04MAUBi5hR+bRZ8hZ2gwzngZVtVwYhlH9pF0lYnC1gtdrKlSusnhhYcZt2EEQkYJ2wp59+puwELPqAIAyVqoCFKEQ66ZfjMbBGbvnjd0VcwBryFg1Tn496YH24hbDj5GmbPGVyzpM3vEAGUi5gvfDSi/bjn/zE/uiP/9g++clP2J69u+3RRx7xAemO20crYKWsuy9tj72yx17Zedq6B2pt6kCXzU3ttbVLp9nkaVPdCBvo77PX3jlgB/ua7FgvXlwpWzZ7wL6GgDWjnuBeQ6S7e3vs2LFoRRgvByaIeLXQaYZjOYEVgtYzCeFn3kFgQKHk83BK3PgVo55UqQSSCliIHJu2bLZfPfG4ZQb6XZE+dfKkG9V4U2B0uYDlk5Leoa2EdTW1dvONN7mAdckll5zlIdXd2+eTGoRlgioS6wFPrTOnT/k9MMqp/xgYx0+c8AnnlCl41EzxSQjfa2xo8Ht2nD7tnSFGPSIJniN8F4Fmz949voWR++FlgoGDoRMmY7Qr7hXaFe2NzoprcOnv7upxMQFWeA8wWWYl/bXXX7cLLlhrv//97+2aa652gwJPgrAyFlYvMYqDoURnHUR5YmHQF77wwu9dAGDrTD+ebO691u9GXnv7Ubviiiui4JEn2d5ZYw0IFvv2+USOU+zmzJ3jxn5dXb3zw/DAy4QJ/uRJjdbZ2eHCJIP8lKlTrb8v43mHF+IEz8GLZdv299wIJv4MjEM+Tp06OdQHzZg+3Wpqa73su7u6vD8LRn/Yjh1OEGOyA0vKhMk588zt7263DRs22rXXXuvlhocUnhgc2uEn8aXMOjrOWEN9nTGpJN2UD/ckvWc6O93zgBd/27Ztuy1cuMAntAh5ob9kEaOnu8cuufjivFYCuW8QsMJKVjjsIzuIe9wDqy7VY3/YethuWHXMZtanrXYAz6Zez/P+zsn2yLZZduhYv+3vnmUHetOWHkhZTarGli5ttf/0n/6TG0jBc4yxgXyQ13CKDCvM1EVek6dMtb179xlbtSgr6oBvc+zu8gUcRJ7W1jaf/Lzzzjt+L9qe56MTD+J6mzplmq80w5C6v337dmMifNHFF9miBfPdnuvLZOy1N960zs4uu2DtBTZp8AjpaAyb6m2UOowIRJnxe19v32Ad6/P6gRHL83mO16d02ifBeAts3/6uHTiw36677tN+75EkJPKIKLXz/fftU1dfPVQ/8aByD8xU2u9DneNa8o7QuGpV1PanTJ7inyF4E/+C8p00ZfKQR4B7sOGdkSF4J2MxbWCKe0iePHHCnzF9MD/0FcFlv6e319vjSy+/PCTM+n36+70vIi1woJ3w++TJU62+rt6OHY9OLEPIW75sma1atTLy4kw4WRjPMSmsRvPMEANrOA+sDRs3RgLWU0+6yNTb2+1ljpcJbbS/p9dSbCOkn+Oz/oxr7IsWLrSv3XijT5pWrFgxNGmEf0dnp504cdIncLDGI2XB/Hl26uQJt6XgSz9BPaNO0kfNQBAknurp0z7RpR66YOaeptO8j6Tu+3jQ0OBCBqdn4f1FHQr2WAhITz9GHeAZoY/j3iFGRseZM9bb1+fpPnOmw1I1NS5ibnhzgx04eMiFWia5N954oyEa4MVPnaCuYQMysZ88abJNmTzZxxqY83fSQV+ApwftdPHixR5UmL6BDoYxDSaIVyyocD11jv6ea2gztFnEG8QIFkzWrFnt/TL5Z8KOdxj5jNdXvh92KHBPxjnvh+vrbevW7S4sMRbxGWmO+p9jng/6StoOzz/W3h4JM5mMPxOGITguv4eT/CLPmelDR9UjNvNcFr7iJ2vBl++FfIbxO2z3oK2HHQ58xiucFgsfxhFv+5MmuWjP4hGxCCn3sXpg0d/wDvF3w6QaEXHPvj32s8cescZJk6y+cZJ7v7iXRF/G+TCfcC92fh4UsijnIGAhrsY9ASgb6iLi2MFDh32hBhuKOkj+6QsnNeJBHF0XuPn2xTMdg3Wk0Xm4MEnc03Ta64SPM5Mnu1hK2i+65BIXl3gmecNewdty6uCJ7nwnTEiD/RS1t6iN8R0CYjPAU3anT5+y119/w+vk1u3b3T6bOyfaboxnJWMd36OMQ4zisM0ST33yR70h3R/s+sCfTdt1jyziEvf1e9nCn/GRQ7hgTV/Bte++954dPdbuix+kE/uTujF/3lzrPNPp+ace8WzaOOngu9RPWNIHkqdt27e7Fx1t4Re/eMw+9rGPufc8dtfUadg8GW9T2Mh8B8a0We7BPSkT2hMDLv0AaWPcCX0I46nbcYN2MHY4Xr+M+7Q70hfaU7DDwm6EEPoAL0lsVtIPAxZKedHnYDeuWLHS3K6riWzL3u5u50H+EXVDf59kvIkLWPluIQx9br5bCAsiYOXI3HACVmhLpeqBRXsOAhZsSjGd1JN4fxE8sJLUsfG8JlvAijywIgWL/7IzIQri/rU7bN2D91pdXa2r0R2nIsMgbLFjiwadGysFeFUw6DLo7Nq9y/6ff/mhrxAsX97mA+jmLVusbelSuzMmYPFMDPRglMRPIcy1hbCnP22PvrLbXnrvpPVmam1yOmOpM/st1XfCMtZnNQPdNpBJ25nMNLMpTXa6r8EmT0rZ8jlmX7vmbAGLwtm0ebO9++52z8+SJVFQRmJ3ffWrX7Vf//rXQxN7GgcrLRQwb1bO6bQYXBnANmzY4N+lw0+iOI9nYetZ5UdgJAHLG+rAgO3csdM2vbPZfvPkEz4gs12XwZyVoDNdXbZ961brOHVqUMBChIkM1vraOrv5azfZ+WvO98E92uIXiQSvvPa6T8Rpf0y6MVRpHx/s3OHbehicMSrw9MCQmjFrlrto0y9glBNDaO6cud5eMODxMOE7rDLTRhafd54P7kx62tparbur2/sP8sx1GCAYAhj+27dt8/vQpyAMYSQwkTp+7IR7twTDhQknaZw9Z44bQQhGCFAf+9glvso+fdpUu/iii1ycRhziGRgSXMfPrDp++tOf9jS88sorNmPWTJ+UfOpTn3KxDY+O8B3a+Hvv7XBhDM+aDz7YZR0dkbBN38Dq6IoVy10E57s1NVF+gtHJtiqMQlYJMYQQGjjd69SJkz7Boz+BI0Yrhu/vX3zR7x9W3Oh7uro6bffuXT7Zwwhj4oOh+Pzzz3usDgxvJi7w6OyIJnCf+cxnrP3oUV9ZJQYaZX3VVVfZ7Llz7fHHfztkbJLOyy//uJfPiy++YNdf/znf8s1qKOV8cP+BaJJm5mnFmEIAw2hsaVnqBtb+/fucBwM24h6CIoYv+WLyiEff0KQkoeddXMCivoaJUnYMrLMErHSvfXHZcfvSynabXtdjaeO0zl52gtje01PszX31tuvEZHvzyHQ71hMZrAguCCl/9Vd/5fWVdFM/yBcr0ogtTMb5nckcglTwrsIzcOPGDe7ps3bt+V5vmDhRHtTl5StWuCC664Nd1tjY4AIlq/SMgeRp5apVPn5QR2kj1Hfa4SeuvNIWL1rg6UPo+f0LL9q8+Qts+bI2H1cPHjhokyY1+umJfI/2dMFFF9qzzz5jkyZN9skSC0tz50b1AfaIZ7/73e/sP/yH/+BlxTZkBG3K+plnn7HPfuazNte9vgYlrGHKiTqPwf36G2/Y4vMWuzDFluOO0wiZ27wOrFq5wrZu3eYsMYhZrcbLCxGEuh+ObIY3MWhmzJxhe/bs9mvplzDup0+fYSw4TWpo9LQf2L9/0MONCdtU3xY3a2YU8yby9DTvf1548UW76qorXWDAumEr3Qfvv+9CRH1dnV18ycX21lsbbNasOV6W1FEmBxs3bPB6cOUVV3i+SnFcDwJWEPbJOuMAfWf8ZDQEeLYPvrFhgz3+9FPWMKnehc3mJU3eV+89sN/ef+9d6+/pc7G+r49YiVGBL16EgPU173dp62HFk371zbc2DC2W9HR326rVq10kOt5+1PlSv5nsUz9ODdpQixYt9K1B1AHaLlv3wqSXSSZ9B/WE7bV4amzcuMm9kujfwqEljGFhqwPe8kzm6bfwLKOcEL2oS7Sntza8NbQowrZbns0Kf3d3rwuVeJv8/oUX7Nprr/Gy52+kGwGFxU0WIBj3Vq9a7WMeab3owgt9bES0ra2r9Wuox6SPCS8TdcYc0oiIvOS88zxPBw4e9DY8bcoUTy9t9dLLLvNxg8UgvMHCtnXKka3MYctxGBfpd6j72J60G/pl2gN9EttqWpYu9XvAnXrPpPfECeKk1fjEnYUXxODHHnvM5s+bN7T1hrqPKMA4c9lll/n4h9hAOfI37ASECTy+GAdIO39jjML+hQuCAeMG36PfolzCRJZypo/j++SJ9NM/Upb9VrvyAAAgAElEQVSUFRN3ypv7sQhA34eQwhiTb9sLHljcl+/SB5P2EDg53O/QkUO2e+8e+/mjj7iYmkJgZbGoqcm9qRHzWbjDGwsByzIDPr5ik1xzzTUu2GIHBA8s5gnUdfJPHeju7bXFi89zbxI8smCBgLtk8WL3UAqcqDvdPd22d99+Z8riD966O3a85/W+/Wi7t2vu07SkyfNz/OQJt19oRyw48nfK5cSJ47ZmzfkusLz5xhvebqnP2CXUX9oLbYD5C7wPHjhkpzs6rK62zoVt+uk156+xd7Zu834PIZY6Tt1kOyBji3exqZSnjXpJevB0jzxX93v9o67xXDjChTpO3eXNQhs2EOVBHaHe0Rcg+rGAsGzZcs/Lpk0bPS9cd/jQIX8OZcqugPd3vu/9N9/D1iJ/pId6/9zvnvd/6a/+9Uc/ssULF1p9Pdu3zngddQ/d9993O7irp9tWLl/hthy8WKCjfpCH6TNnRp7cNWm3eWlv2HvUARY1eG5tusbLHB7YoOSVfDP2wJnv8SKfXBNYMJ9evHiRxxhEyKX+0+eFhVDuQZ2dgzdzy1LfPoi9wY6m8xYtzksAKScBC1ufcuOAtlyvc3lg8bd8+4pizw7DghrjMW0lCMml6oEVFhLiWwiLzSjf+we9KISmgXHwoswSsO60dQ9+240hTq0JAlbwAvCVtFOn7Kc//7n96je/salTp/tKFg35H//pn6ynr8cnsHRm3OOTn/iEfe0rXxlyccbIZOUe44dVriBgMRgGASta+WTlHLEsZY+8ssdefO+EnenKWJoBpb/X+vEuGchYzUC/O+im0w02kG6wnoG0TZ5aYyvnpu2ma1ps7ox698bghXfKM88+650nAzYdI4PAj370I7v77rvtxz/+sQ/adIQM9kz2GKwImM1KJJNTJrMYxhhMGI0YEqWmrOZbOXT9xBOIx8AKK9jxLYRBwGJ7zKZ3tvikBGM7YxmbNmWq11O2EH6wc6d1n8FjhInJh0FJ8TRgUoKBePlll/ngTlvEaHzsF7+0K6640g2D53/3O5+McurHrJkzbMmS89wAxeBiIMa4ufTyy927A+MIQ5Z7YoB1dXXb5s1vuyDgq8gnTrixPmv2bJ+cYghhXHm8hRMnfBDnnhi0bItiIn3yxEk3EhYvWuSGGgM4vx84cNBq0hhVy91rhIkDAhdu4nv37XOB+cknnxyKSXDN1Z/01ehnn33WxT0GSSYrGDIY9FxLUFaMDL7PHmpf4bzoQnvtjTfsM9d92g0ZJgMYrQhh9GcXX3yRp3nHjg/cYGlqWuJ5YbLD6V0Y4ghYGJoMCOQbwzFoAkyQMeyjFf1oVZr+aNvWrT65oBxffOllmzV7jqc7COVMvM47b5EboLibU1/ok1iNh//UqdM8TxhrGGa4W1966aW+jRsBCRHl+eees4svucSWNC2xX//6N3bZZZe6qECQ54suutjL87XXXrVPfvJTLrZg2GJMdXd2OTP4YLhxLzzfMD4RAZmwvfTSiz45ZPLBczHGdu/eYx988L5veyPdQw4teQpYcA9bCBknsgWs+BbCWuu11bNP2pfXnLalM3ttUo3ZpHSXGSLWQIN19qXtWFej/ds7s+zFPdOsN1VrdamUCxf/+T//Zx8TKN+XX37Zn4Pw9uYGtuxEIgGT0KuvvtrrH+PBeUua3IBfuYKtFwu9/Ds7Omyei7n7beWqlX4fyhFBjnaBYICoy73w+OrtjzwhaBsunra3u/i6eOECHwPxGkGIwEuM+ESMYazqr16z2mbPnOV1k23El11+mZflVVd9wr/Hz5+7/nO+6v3b3/7WJ/vPPfecL9ZgjP/4Jz/1cZBtXL/5LfXhct+S7Gnsz9jRw4e97YeJJiwQvjAe3LDftcu2v/uui0wr2LI3b76LmjyP+o8g5J41NTU+geUzmCCEMNnDewy7AQ8IPAOj9tTkk95Nb2+yNavXeHum3ZIuJiz0QzBjEn/llVe5II53aS4By0XiU6ftkUce8esoH8bya6+51iePL730isebWbF8uS1avMjvSTtGfGMBb6StxxM1atDfBJEgCFgIDnEBC6GcrdVvbtxgv3n6KZvUUOfltHjhomibMoLSnj3RlvN+vHUzRiB37nve4sVDAhZ1MmwRob99d8dO+9jHLvU+D2EXLw3EdbwriAlFXaHtI2rMmz/fJ1/072zfi+rAWu9zqPtM5pl07z+w37/DJJbypk+bN2eO9/V8l7TSDyO00H/Tb1PnuRZ7jXzjPcczscdeefXVKFbRnDn+TIQpRDYES+oD25kffewx76uw5S6//FK/L1sXP/7xKJTEpk1vD8X3Qti5cO0F3o/7aY4DBPWe7Qs39N0cirJ37x73RkYwpp/kvoxp/Ey9ZREDLzfuzSIv3siMaatXr3JPETw7GesQEaPJ/TT3yKAfof3gRUnbIy30EfTHtKXX33jTrvv0p53ltm1bvY3hWXvllR/39vXMc8+6aNnU1Gw///nP7YbPf34orzfccIO3T/o6uNF3MfmmLyKvcKacEe7o0xkfGJMZv2BK3WHswYYOR9oj9NDuGCfoR2irpBmhgf6D8Yjf+S7jF+WEvYM9zRyD5+fjMRLaYBCwqNs8l3QHD6z4xPHg4YO2a89ue/QXj0VeeqmUP3fhvPlu27z/wfvWdabTx/4BF3UjYRehAW9l9zhcsMDHI/6GTUNdpv7Sl3ywe7fbVcx/ENe5jjrA9mgW9fmdxS3KMjpJ+pg1tyz1egMTym7BgvnuTcRY1DK4yE55HGk/6uM0L8ZBFlkQuChDmHNvtkJe8fGPexunThASgkU5mMMZoQBxDmGKxQa+R7uB+xtvvul1G489FjHJD9fQzuiXGfPo9+lHaZPUUfpxBDTGC+4PS8ZP8kidYK44Y+ZMH9NmzpjudiJlRXrciwIPWhvw7XN4KFEPWJyjbVIGQcDG4x8veBZcsGdcFBuMQYWd9eLLL7vIzFb2n/zkJ3bppZd5OT311JPejvAwpj2SD1iSZvo2xmXEIfoWfm5d1ubsyDd1Ga9n2h/lg53IPWZOm+ZtAluNPDNuUc/hDUsYUzeCxxjlyHNhxmLUwkWLhsJFYEvBi/4NsY17UsfoE6hX9I30PYis+XgEl5OAlSwGVu4thKUqYNGWsz2wJGCN3mKizwiHOQW7LKeA9bWb7rQHHxhewCIYNAPWP//whz44rl59vn3pS1/yRkuARIxzBnbcu1gBmjptahQQejCgYVzAIkG4jZO4kEA+o1IGEQsB6+cv77Xfbz9llq6xWVPqrM5w2e63+rpaf1Zv7xnr8xgzs+3QiR4jTO/KuWY3X9Nic6Z9qOqScTobDFU6PQZ7Ois6PASsf//3f3c3YTqR8HMQs5hMMhDR0RdKwAodUrEM5fG4f7HSPvqqnuybYetJMdI/Gu5JBSwmEXgRPvHM03a0ndVOPKwG3BDzrUM9PZbpjeI3+DY4Jid+MmckYK09/3w/GRQBi1kfhtJvf/uEfenLX3aj6umnn/R2ywDd093lWxpghIE7NBHPZGz1mjUubjCJwaDGmxHDC+MAd3Ym2kw8ef7K1av8X65jIMewxKPp6NHI0J85c5avYmNYzZ87dyg+BgZKMJQREPBywWDgGfv27vNYC6TjyNEjbnA98sijbtQwIN7whc+7R9Mzzzzj+eU5sHv11Vftj/7oj/zfEPyaiQ5bQ0gXgtSWzVvspptvckP/xRdfctEKQxWPFkSMaMX1qHeoGPAYKuefz2Sbic+myBMBMcPZ7HNjlokKCs7+/Qd8dZ5+hHvxt3fe2WpHjxxxEQQhDQFr0aLFzurVV1/xcsL4RVwjbzt3vu8GIGL6K6++4pOZObMj0R2Rgv6Ln/EKe+WVV72voxxZNEB8wUgl4DXiE4bgM8887XWI05eC4YMXDz8jKuK9xffCRBLDkLgVMPvsZz/r/eIvfvEL50u+6EMxMt/Z+o4b14iLBCiNXlFUkLBN7VztL3hgnUvAooz+/u//fiiIe3qg3xpqumzWpG5bOvmEfa6101bNHTA0jtqaOktleq2nP2X/sm2JPbp9mp9PW5uqsdalS+2//Jf/4oYodYhJHUYtxiR18PjJkz6OUX6f/exnPNZHJKg0+cSO8S940nV3dnoZ7N+3341kxCIm2LRxPK/2HzjgbQnDGEP/TOcZF3CCUMr9Ljh/jS1asNDr0p69e23jps22bPlyrxN4O1PPmCldfNHFkaD6/g4Xo55++mn73Oeu9zb86KOP2Je/+CU3pH72s5/5JBQPLAQsxuWf/PRn/h3q6m8ff9zLbvWqlZ4u6gMTWeK7he2pIc1BTOdzvEDwtGRii6cN5c1E6qILLvQJAWkL2214Pp6etH1YMLZS/yIBa5pzXLFqlU2dPMWF1EiYneoekrQVxLRo6wsimrkHDeXmsVI+4oF1lU/O8Hr413/9V+/vfOty5xn3QJs2bbr9+7//2GNr3Hnnnb6NjLbO9rLly1pHnCyMpo9PNjJFVw13/7gHVogPhT32UQGr17dWv7lpo28hZHWb8vTTmwkW3dtrPd1sMSdoNR6cA9H2soGMx9+76as3Ogv6mGgbzRn3/Dt85KgLgPS5b7zxpvcpiDdTp0z2vpl6j1DBZI56QdBp2gbcWbDgXtQz4i3S32JXMQ4gSCFsIWogciyYN8/bCH09dYuFluARxOe0e36n/fBcJrpM1nk+W/Pol7a8s8U/p85R1xijENtpk//zf/6DCwTc41Of/ITt3rPH3tq4wW74/Be8LlB36TcZc/DSQDCmP2KsQLgnDXgJUq8uueTiQW/hYx63jn6SsiGPwdN42bI2r6dsXYIPXphMiBH2mUwzpjD5RRzC+wI7FS9K+PMZWyvZio3IRh/FPQg+jnfhF75wg7cdxjS8YhAxbrjh874l6vnnn3PmiGyMCbfcdJPb7+w6YOHZYyE+8YQ/gz4vbBGn74MNaaLOMf7Tz9PvhMDEoR8IXtTY8CwUUSaM/SH4NOM+n1O22N6MybxYIKZP4DrEGFgEry0XNwZXPMLP5xorsgWssIUw8giOYnzyIu7YB3t3+aKdb6PlRORMxlfzPYj74FwEsRG3XU7mRIygb0fAYs6AgEOe6f+onzDydmIp9wZHJKV+soiI+MNCGv0q9+d6+lf35Kmrtfd27HDhk3LjkAvsKRZTENe4tjaVdm6eHzz2VqywXbs+cPGTetbSutRmTJvm9ZrDQaZMmuTiDU4EiFx4aHsfe/y4LzzxbOyNEydOufBMuilX+lq8Eo+2t7un3OWXX+Z9LEIO4hxl6jEGDx70MiKu5YmTJ71d0L9ju4XtSHyR+9EO4YAHGp7gHuNoYMDtQJ6JHTFtxnRvv2zdZswiDXhEIozRdngeiwnYdx4c/sQJt+Vow2FLHcIr2xAR1vHQ+unPfmrXXnudt3l21cyfP8/7I+5B2bGw9vbbm9wu4buEPUAgom4SEw3PX7yqyReLcrCjPfA7IjsB9slP8E6FSwgpE7Zw+q6H+nov8ygWY5uP+9jb1CXqDN5YsIQFC0yIroht2KuIuPRB2JjYcY31kWAaxoaRxKxgxzEuDHdAWa72xDPo9/j++G0hPPcphGHMC0HcGT8iT9cOb9ul6IEVBKy4B1bwBs3HDijmtZR/iHlFXS11DyzagscVHNw6GBewcKgY3EIYgrhHHlhnTnf4xDbEiwkC1v/7o//PDYu/+OY3PeggjZwOl8EXg7iG6LPxGBJhV8LgFsLgcUXlc2NqUGELAlY0yUlZX3/KfvbyXvvdttM2kErbjIZ+m9J32FI9x9z9nY6+saHWujJp65680o73NJilemzlvJTdds1Smz29PlYHMlEcgzNn3OBgtZhtCI8//rgbscTwIiAmqy14Y/lEbPZsn5xhaNEJBpdnVgromBiAx+KBReMshogSOrpi3bvY9y8ml2KnfTT3j28hDB5Y/MvgE06FoCy3b9tuGze/bU89+4y1HzvqE81IpIrEKkQrXN/Dz8ETixVgthDinn3FlVd48Fn6AQbon/38EZ8MRt6GT/vkFg8sXL6ZVPMK7ZJBFiONAfjqT33KT03BmMIQwKinXXPSoMfQOnPGjR4CddJ/8F33POrt8W0suLFz6g6rW8RQwpBFjFna0jJ0GgZCDRNYJjfnn7/WV6UQEhobGt3rhAkFRg4eK3imsIXk5Inj7kWAcYAHVnBRxiDAWGACy8SGFWmMM7YGsD0RQQIh6uXXXrMv3XCDG4V4A+A1QH7xrCJP9AEYbIh8Lc3NblgiUGHkbNq4yVfZ/BSddNqZ8Cwm06SD++CVxHMRIygn2GF4XXThRZ5vtkCxDYE+h0kJhh95xIjE8GWlHXbugfXCC77lKQjtrJpjCNNnsZJJcHVWEj92ySUuUBG3gvsj/CNg0c4wUp988ik3KOkPqQMMFBesXev9Jd5W11x9TRT7ZdtWW758hRu6GMCf+UwkYDF5JO2s+mNYknYOHOB36hArtAyQkYY14NvUqM8hBkqugRo2jCtcExnJvV6/smNg/ff//t+HBKxa67flM07Y2rmnbd7kAbtk4RmbVsv2x26rqWmwVKrf+mum2z9tabbHt6V9AmPpWq8rQcCijMkPbDB6EU7w2KGuUX6MEUwi3ntvp0/2mWwyQUW03bxls3tLLJi/wE95pIzYHvfG62/4hDeVrvGxkQkoWwcY5za9HQU25lkYuUxMYI+AhTcj215eefU1W9ra6oYwQjUrw6za0n6i1d9DQwLWH/zBH/iY9Oijj9qXvvRF3yry05/+1A1jJo9/+Id/6ILZI48+5vEqidnCsfJsPyJmF3VjUEbxsgpjSHxC6d6YnZ3RtuPdu33iRf9BfaEe+OSA+Gc9UTwRypL8MXk4dPCgEa+K79K/nTp9yic5Bw8eco81PmMy4R5fU6bYq6+86nUTQYSJXpjsULfox+Ji6IGDB+z553/n3iN4uRHj5ZGf/9wnHmFlHGMHz8hnnnnW00X9JIj/Sy+/5J5EHDThhyckOfyhSKf1DDf+8TmTQtJGO+NfBNdsAYu2Qt/x5qZN9uQzT/nWGfdad48SBKs+62GsINYPn/URryaKGwXjr37lqy5gMVngM8qRfuLdd9+zT37qU+4xhLfI0Nbsted7P8PvIR4MfRY2Fl4RbNvjHohTPCeMaZQJ8f6OHDns9ZlyPnrkqAuWtEPGDbYPUb8QK+l3GQ/oP6+79lr32mChgjQ+8dST7pVE3aP/YTs09hmiM5Nmtu4g2DC5xuZjdwBjCOIM/d1zzz3r4hxjGmmBKemj/b+9cZOdv/Z8F8HYPh3FuUl5n8YCB2OHe9oMbsuj/TBekJ+DBw54OjP9fX6CKGMjojR9CIsebP0mP4h09JMwZ+EAsQgxhOsRvugjfPvgxRfb4iXn2bat293j+Qtf+ILHXnrt1Vd98o/gfv3117tH8BOPP+4smptb7LFHH7Wbb775IwIWnrseA2nrVhetSAs8CcBNGsK4AztELsZg0sg2KwS05qZm/w6MqQNcT13hNdO3Bu9x71E8HV9/43VffCIWEHWUwxbow+jzGEPhxVbkII4F8SoaW6L4QbleuQQs2gl9T1zAon9gAeCxX/3K+2NCLBDr0hf8EGH8AJxwEuGHJ3XStyFg0SchoIQthNgA2DjkmTqxc+cH0amemYzXBcZ4BFEEyNBWfbyvr/e+vK6h3gVWhHbGDBgyZvBdxOG3N292wYTr/dTPWbO8rSB0YFfwwgZ5+ZVXfLxCeOJQlhDrEPuJsYx0UGb8Tmwn7IXQZ9NOyRdlyeekk7yERT/647BwxsLV+WtW+5iHlyILVW3Ll9mRw0eM2HP0SbQJ8oBtiTjtYm838eAY/we8jP0gCbbq+YEmA7ZiOV6vdW7PwBrvfbYz+sLnvmjnC/0EC30I6dgzxGbGAYL6jki1cuUq545DAnM3xPPf/PrXgx5jB+2885ZYa1urbxN1D6yVeGC9FXnPT5vmi0wIWCy2BfEIkRORmrpLPSLNzHtJF8xgtW37Ntv6zlbPF3mlTlBmbO2lzZAvPIDph3zbJ97pu3Z5m8HuYF7Js4mhCju4cx/qCZ5pcCDOGTHBgtBA+dA/BmEtu02QTtoX7TGXgDXc2DaxAlZ8rh5yFAnZ2IFPP/Oslw31mHpG/kvZA4sxLgRHh3cpemAFASuks5RjYFHn47ERcwpYnEL40Prv+oVBwKIBfBgDy3ybz7/+24+8If/ZN77hnR0NnoHwy1/+sm9jOZdCTOd6LgFrSGVGwOpL2yMv77Fnt56y/nSNTU/32KKaQ7a2lQB9U6yvl4lJ2t7Y/J7t6m2xY/3TzNI9tnpeym6/dqnNmc6kJVrx78/02fbt27xjYDBY6Er+Snv88Sd8NepXv/qlXf2pq71Tjgz6q9yQIl9MPmkwYfAJcbEwfktNAS6maqt7F4dAELCC22kIuIkBH4w2Vsc5MWfT25vt6Wef8cEcbxo8rNwAG3xHx0BHWwjZ0stkhQ7/lq/dZKtXr7Err7rSBaAo1kyPG8XRdpApPimlTmOg8RkdWljxZRCh/tN2w+CLEIyhgsjd3NLiHhu+6jhlihtLGDyISQzuGL7kKwjW5IvPGcRDTAD6Dj7HkGMgJ31s+2H1ECMbwxgDIUzwmGDwu8fs+uADj/vEK5wsSpr5mQEEtkxoMOgRy374wx/68z//+c+7kf30M8/YJz5xlU8uECro19gWSXqjrX9tnk5c2dMYlQ0NtnL5cveIwhjGoEH4Y2sVDDBW6EcRoDAkmHxhLHpspRXEZOn2CTZpW7RwkQt3GDAYMxg5iF6s/mPMkF/4edywxgZbe8GF7gH33HPP+wSKfoqVdOJdYIQiQiFgcb8tW95xwwvPFSZDGHDkByEKDzCMyZ/85MdeDh//+BXOmwnq5z//BRepmMyRF8Qv57B0abR1zD26rvHyZ6JDGhDuiBkRBec3Zx15whxy8YLPqJcYeGFlG0EwVx8aBKy4Bxb1IXsLYVzAqkv32OeXnbY/WnXSptelrDbdZzZQ45OKU939dqqnzt5pn2G/fHe67TuFL2/aBlIZr19BwIIV9RwBIARkpb4zkT586LBvyWDsYwLBxIB6joiAYQVv0u1lN7jNJqxyUxdhxMQqGJ/Uacqf8RPhk7aMoHvZpZfZ/HnRaYNMcPGSYysuAibP3blzh3sPsTpL26O+IuK++MKLPtHie9SHz33uc17vETRpW7RpJh/hkAU8VWhveGYxEY68As+9xxM+tDXSHPopynnFypW2f98+96YIXtS0YdLCJI86Qb8Ca9LEPWhbfM6kBQGACQZeiH4y1qpVPtl68803fPwl+HCII8Q2WbzHEMuDPx/PpJ4xyaYdEEeJAOXvbNniwgn5YjvLhRdd5PdHCMfTkLJGxHh/0NsHYQPOpTquU49GErBoJ2ylY7HjiSefjMI6+LgQCVjurTsY3zP6rN+DuLOhp2nJEvvKV77iWzhD/eR5TLRgG7Zm0TaYhNM3UKfo6ygn+lQWM6mnTLjCVkDiR7FNi7ht7sXT3e2TTMTXPXv2er/N2ENbov+nr2ARAfsuCKAcAID3EGISfTltj3LnGdRH+ir6LYQT6j8c+HtIK15jiA20lxtu+IILT8TJQrjZsmWzp4Nypw8lniJ9NYsr5Jv6RnsnxhY2LJwY/2jziFXRQRmTXVzA3ty6bav3+fR1bNvG+RQmeOByf9+S2NvrnqyM46STPp3tUu75cey4tSxtGZqAuxDc1+9bEGdMn+aejOT/09dd5+IXQtslH/uY7Rw8NRCePIe2QFnDg90SpB1PzS9+8Ys+DrJIwzWhT6McKUP3ZjtyxG1kBBViV27YuMHHU0IOkF7GKk7nZVwhbyGWH9vniI9Gpsknwh/jC4Kbs8OTdNcut0EoX/ojRC7i+m1+e7N7RVFPg4BF+oNH5rkELCb0IQZWWPyITxxZqELA+tWvfm1dPRwb3x+JVjGPdQQs7CkWx+HNSevwCAIWY0FY0KOuYhPADh7Ua/p+0k2bCOERCMVAGcGIekIdJM9cwwKfxz1qbhla7KJNYStwLdzIF8+hr+Q+YQsj5cv4gkhFXaI/x0bgWhYM6J/xvKN8uI7yod8l/ZFY3extgbqFhzllzYt00pa5F22EfJBe2rvHxTx40Osb4wX1EZuHvOCFj0cZAhHiEmMXp/xyL7Yc4rnMtsL+gUjgo//GXsBu8FjKu3a7XdFHXLledvOkfXyivtD/4PGL3YXXI/lgfMD7as3KVb4VHgbM3fBE5/4s2DA2cQ9sFsRK8opYiqcveSBPYXdBlM7pLpIxD+R7jDmMI3gkMTZjE9K/IIjBMJzIy1hHTDGEPRaMOXCFhUbaI/8iYtL3kS7KB08s6gH2AOXCz4iA1Icovmqvh1/AO4xxjedQ3vxMHaTOUabY59nzbeozHLE7g/NJkpkL+aHOwTFfDyzqCPUzybhJeilP+mvqN3Z88NQ+O53RQUdBwJo+bbrbWUHAKxcBizwl4ZKkjAp1TdwDKx5sPi4SFepZY71PcHAau4A1EJ2a8M8//Bd74qmnbOb0yAWUjpLKiycTHg1hBTOXMRwXsKiA8dMbwoQhEp0iAQsPrOe3nrRMqsam1fdb+vQOG+g+ZAMDqPd+zrh1ZepsYPpq68hMNquJBKw7XMBilftDNbe7uzM6caS/3xonT/aBgNO9QnBoj8uVTvvATidCPshbcF0j7UFgI7/5nAwx1kLU9yuXQFIBa8s7W+3tLW/bk0897QNAWFH3VfXBU/P8JMIgaLFFxFfUGu1P/uiPbfXKVe6dUN/QOHSGc/z0Idqyb+39/9s7lxa5qiCO1+3uyUxi1BjQbALqQkXdGHATN0pwoQsFEcGPkSzdBkRXfoB8D1e6EAVRdwnmISHoIgGNGM1jkvTrjvyqzv/26Zvbr0lm0gN9YZiennvPPa+qU+df/6qT5j2yyXdKWE49uXT6i5Ixs/jotCWBS5TLZ92rY1qlOFHoYtegoLQpoy28V+PnjLoAAArwSURBVPR/5dERCydPikjZYg4g0zIsuUf5enieeyhPjDb+Ro8pzxjtAKh2YPqNOG2J+0OPBQMtjLxueBI5PTCxDag79ZXuwtuIWqI+tIlcEpTjTLlB3xkxsG/4m7ayUaMsvueKDVG7Yjfwmb7i3TrZBpZAu7MWJ/Gsk3S4bXc27zqln8/uDV2PJOWRRHTo35Nzxr0uax0/gY38E9SBvqB9MAII9+EeNlJcCm91T/IGcyNYs2zINvZv+ImQ3V7PPc2EAVBP/gl7KBJZtqtTx7zADCCRl6rJ4TEvgHXmzBkHZnyMW3374OWb9tGrm/Zku223But27e5++/dOy378vWVXb7bt9mDL/htseIiIV6fdclCFHFgY5FyMqfKzBQgZfaxwuhjLYJJoXJgzagftZt75OpOYMvJ2yTtKeZI19THQETnecM4Q8hiLjXly27+u/+kbEcaFkFvYl4wneUTw0DL2lKMTdBlTjFfmDusZ72LcaJfqSd0i/8Y991rneZQmaVsxcgTWqR086xvy1G6+F1OBPgpZ4OSsMHKlD/jsOTfL0pkq1I2ND8/C1GNj5f/fKp155jKELB+AndoeO4uePqZekl/aQH/TfsoHeIbV5fekU6fEJKNPHYTYH3bBNCfc41yJ5gGwyHcF6PLrxYv27TffWLsogm0IeOWMq6FvIks/KW3LN/GEEnJxhD0AFswEsQxCbCOUkP6ibxgDxlJee/5Pv4klwFxgDugerR3MQ8bcdR/zoEcS9JCluHfo7BN0V6VD2x3XmdxPPiuYd2wSg9UZwAHzgrA9gRiA8MiFsx5xOKx1HCySEUxoVz+dhuiywamBPQ4FKm1t33q1ltAOgHw2oOg3wr6U2FwhbwoPibUSdpY5Y4I1GXsywqcid5HXJTFKkXdfu4cDbxtrBesB+kfrLEAATBAHYqywfej7VstzKFJnrc08I/Yb79GGUmAFcs/6p3FEN2jDSr9LduXs2bcRYUvIiVIuIIswqGGS0SBYWoB39A1OAumEsAdibjAutIv54ut8knMPafU5UHgZhIoB/HFCq2xs6qIf6bUm2aNcgACxtBRCKL2tZwjbBMAiB+TmvU0bDOPkZgBE1jF0TAVm9WG1l97nsGsBsAAMAKhkZ1A3+pq5XfUbeiWtIbI7FHKocVX4L33A+2QHOSuJnGf5Wp/kJdbV0GdidMi5o/Af+kjghewR1gHZL7xP8st7+MmBQiVJljzyPgeUMvlkjvM3bdFcJlwQ9jHyASBEDk3kEjZvrAOcFki7kHVyf4b+6KR1ADkAmJK8o6f4LPBR78TBwxrBfKVempfrKWE29dXphPyPtsqWwiby57FxWYN8belWdiY6x21OzznXtbbbM60AdBJbDJ3DFcBa5ElUX1Cu2uh2L6y7ZM95/6X1kPfSd7J99LyvcWaVjUff8B1lcQ915RnZEXL+yMGdywX38A4Ar0Vyymk+8z72xM2g0rgE6pndBLAUxrzMIYQxHzqVLl8BWNu3mpjL2keqlMiUbi4znqOdUwidgfXV52485wwsobgoc9gGnHCD96cqLJ3IAOrPoj7twghCGMNLPwHA8iTubesNLXJg/XbbNnultYrSigFH3nbNymiC74daHWuvPWF9wzgwe+W50j59+wV79smD1iJnli+3vl0bhUQQKhEpWUZXcj7XjVcBcfIIaYGVYbf9oVk9ueqBAAlYKKcysMrS8yrhicGTyIJcGXiIAHOcyF2fwxh+8ZvLvVhHj3pI1/HjbwXwWiNazJrbAqbq46Xn6v/Py5O8NAHaTeM/afM46flJdVPZeR3r30mG8UTCRLl1Jzb+hG3AlIqwKu/d0CMJgMnrKEwmzp+IhDxxn/L5xVvH6s9YVZWZLgV6l9oxOkCW10Ui1BjwVCK/0p/+zkqv5epf8yPd7Ho0JRNSUek5ynemS64r61X2do/m3IMtGj3sb5zB9MkBLAwp5SdRnhbKxxudA1idYmDvvdS114507MbNvv1xq7AL11t2935h3XLdBuzhcYx4Q3z76IYoRjcMLAFYO6WTNI4BXE7tzDSWIdA4WWAR4aUlXELP5mWIiZT3ay4X+pzLAsY+7Dm86njjd+Kqz938HXVZ8r+9X6qJF9M4S0Hg/0us6roOm6ZLoux8/kue09dJbvP67kR/PGyZcwFYvZ6HRMKuxFMPKMS6wAbd50FdTNFX9HOrcFYDp6bBXAAwrctpfczq80q6Ptez0n0T9bqrlmzc0+eRXq0CRRu6L3/O317dA8M05kqmECujL9OXmQIP+Zg0SoWDeJcuXbTz5y/ECYMHn/DkzrAI2DCOrwtZWQ22ZWVXVnM66ln1ca5zG2zVJvluWt8m3VcfD+mlSgYmClhtnYnVLa1xyuGWGRhai1LlQv+P+jjeN5L5RWUkB7DEwIpT/PZVbFD6FJbQ3//840m95WiJGRMpT0b9HuuTdCobZsYWtgsAFkDRJF0jm6zSNFP1/KiUJrtCstS0VmpMZ+mruh02rW/zOuTlNpcxGkCAYPoWZhGscpitMI1YUzjZ1kHjfDrkNlQ2EfyWSrcHKzF/t/dtrT+5h5zLeX839Rd3VGtfkxbxZUVzQLYb1UZfhn6c+0p2eLRnNLUnqZWqjWPrU01IMv3h9WmwQ1W/RQCsur5SDqxlBrAUQrgCsOaekQ/cyPzJQwhFDFhWBlYTgKVVpwKwPvjwY/vyi9OOviJ4xKOD4OoUwnxxlHLNe8aVyYy8TvMwsLTxuz8o7eufrtrPV7rW3cIjLSN0XJ2gYgq2Jii3cmAvHhraJ++8YEeePuAUYF1lArO2P+yrJ1c98Oh7AACLHwwuMRoBs8ZCCMvSLl+54uE44d0mOelobk+qlRvxzmYcOFX92BvHnJG12Ir86Nu8bCWi0NFNAFn8xkgljALAZHXtfg8sAmARBsb8Bsp77iDwVGG37gzsftGxrZIwQeRkFDXPRl4X4C4A1smTJ3ccwJq/F+VfYj2FpQGzKNgj/EwHv2a/Res0fYbewTho8uTOLml1x273wLwAFqHh5KojeXiCrLyq0+ZODm4qd+But28vvI/1l3Eg1A89hb1MSJBYL7PA+b3Qxr1UxzqABRsL5pEYLGI/ALIQ/kbupfA1jTuYJttQsdljLwSwq3HeS3306OvqkFAqtqhO0Lzx7w3r9/puPwFi5Wy1WXUYldZ8Z/7G/I7ZVvD0N4fTd/KFY/hxX6rjPHVZBMDK24XeEuNu6QCs7753Pask7kqcv8zMJjH00TPLXM9lDyFkvdVhIfl8FTbs+NRwWG6dOPG+nT79mbMOYGBt3iYh8cEHAKztGtAICB4sUcIopymEMFla1u327Ydz1+yXyzfsbh+Qalhh4QBWW9Z248y9iwbFmm3KwF4/+rS9++bzdvipA9YqlPgR/tVo4/K4FdLq/aseUA/MArDk1SNPDvnbSIK8KAKFrJFr4JlDhx8IvVmNxKoHlq0HFgWwPKwRTpUz0gbW2So87NzlpHKFRitZO3RhWBBCeOrUKfewL8cVK5nXtZC3dSEf8NRmaOMG42J17a0emAfAYlzJpULulZjv08mT9R4AzGSzQEjW6lr1wLL3wDQAS2FoyISfBJtSCmynTYAx7IfmCbXeTvl765lxAGuShpnFEGtq8yRACfCmacV6GABrFnhF/eYBjXZy7PI6zlOXhwWwdjMHFsxGmHqAPePAf8wv5g8O5bNnz/lhToTx7qUQQoX+LpuDcK8wsKgnjtYcwBI7VkEf6OT/AVm5yGlLhrRfAAAAAElFTkSuQmCC;" vertex="1" parent="1">
          <mxGeometry x="10" y="680" width="1200" height="749" as="geometry" />
        </mxCell>
      </root>
    </mxGraphModel>
  </diagram>
</mxfile>
